<svg width="585" height="399" viewBox="0 0 585 399" fill="none" xmlns="http://www.w3.org/2000/svg">
<rect width="584" height="398.226" transform="translate(0.623047 0.773926)" fill="white"/>
<rect width="296" height="108" transform="translate(29.623 41.7739)" fill="#FFBBF5"/>
<path d="M53.623 56.1073H54.9564V70.7739H53.623V56.1073ZM41.623 66.7739V58.7739H42.9564V66.7739H41.623ZM44.2897 68.1073H42.9564V66.7739H44.2897V68.1073ZM44.2897 69.4406V68.1073H48.2897V69.4406H44.2897ZM44.2897 57.4406V58.7739H42.9564V57.4406H44.2897ZM44.2897 56.1073H48.2897V57.4406H44.2897V56.1073ZM49.623 68.1073H48.2897V66.7739H49.623V68.1073ZM49.623 66.7739V58.7739H50.9564V66.7739H49.623ZM49.623 57.4406V58.7739H48.2897V57.4406H49.623ZM69.623 56.1073H70.9564V70.7739H69.623V56.1073ZM57.623 69.4406V68.1073H58.9564V69.4406H57.623ZM57.623 60.1073V58.7739H66.9564V60.1073H62.9564V64.1073H61.623V60.1073H57.623ZM60.2897 68.1073H58.9564V66.7739H60.2897V68.1073ZM60.2897 64.1073H61.623V66.7739H60.2897V64.1073ZM60.2897 57.4406V56.1073H64.2897V57.4406H60.2897ZM62.9564 64.1073H64.2897V66.7739H62.9564V64.1073ZM65.623 68.1073H64.2897V66.7739H65.623V68.1073ZM65.623 69.4406V68.1073H66.9564V69.4406H65.623ZM73.623 69.4406V68.1073H80.2897V62.7739H81.623V68.1073H88.2897V69.4406H73.623ZM74.9564 56.1073H86.9564V65.4406H85.623V57.4406H74.9564V56.1073ZM84.2897 66.7739V65.4406H85.623V66.7739H84.2897ZM96.2949 69.4406V68.1073H110.962V69.4406H96.2949ZM97.6283 56.1073H109.628V57.4406H106.962V64.1073H109.628V65.4406H97.6283V64.1073H100.295V57.4406H97.6283V56.1073ZM101.628 64.1073H105.628V57.4406H101.628V64.1073ZM112.295 69.4406V68.1073H118.962V65.4406H113.628V60.1073H124.295V57.4406H113.628V56.1073H125.628V61.4406H114.962V64.1073H125.628V65.4406H120.295V68.1073H126.962V69.4406H112.295ZM140.295 56.1073H141.628V64.1073H140.295V60.1073H136.295V58.7739H140.295V56.1073ZM128.295 64.1073V56.1073H136.295V57.4406H129.628V62.7739H136.295V64.1073H128.295ZM140.295 70.7739V66.7739H129.628V65.4406H141.628V70.7739H140.295ZM156.295 56.1073H157.628V66.7739H156.295V62.7739H153.628V61.4406H156.295V60.1073H153.628V58.7739H156.295V56.1073ZM144.295 64.1073V62.7739H145.628V64.1073H144.295ZM146.962 69.4406H157.628V70.7739H145.628V65.4406H146.962V69.4406ZM146.962 61.4406V62.7739H145.628V61.4406H146.962ZM146.962 60.1073H148.295V61.4406H146.962V60.1073ZM149.628 61.4406V60.1073H150.962V61.4406H149.628ZM149.628 60.1073H148.295V56.1073H149.628V60.1073ZM152.295 64.1073V62.7739H153.628V64.1073H152.295ZM152.295 61.4406V62.7739H150.962V61.4406H152.295ZM172.295 56.1073H173.628V70.7739H172.295V56.1073ZM160.295 68.1073V66.7739H170.962V68.1073H160.295ZM160.295 61.4406V58.7739H161.628V61.4406H160.295ZM162.962 64.1073V62.7739H166.962V64.1073H162.962ZM162.962 61.4406V62.7739H161.628V61.4406H162.962ZM162.962 57.4406V58.7739H161.628V57.4406H162.962ZM162.962 56.1073H166.962V57.4406H162.962V56.1073ZM168.295 61.4406V62.7739H166.962V61.4406H168.295ZM168.295 57.4406V58.7739H166.962V57.4406H168.295ZM168.295 58.7739H169.628V61.4406H168.295V58.7739ZM194.967 56.1073H196.3V62.7739H197.633V64.1073H196.3V70.7739H194.967V56.1073ZM182.967 66.7739V58.7739H184.3V66.7739H182.967ZM185.633 68.1073H184.3V66.7739H185.633V68.1073ZM185.633 69.4406V68.1073H189.633V69.4406H185.633ZM185.633 57.4406V58.7739H184.3V57.4406H185.633ZM185.633 56.1073H189.633V57.4406H185.633V56.1073ZM190.967 68.1073H189.633V66.7739H190.967V68.1073ZM190.967 66.7739V58.7739H192.3V66.7739H190.967ZM190.967 57.4406V58.7739H189.633V57.4406H190.967ZM210.967 56.1073H212.3V70.7739H210.967V56.1073ZM198.967 66.7739V58.7739H200.3V66.7739H198.967ZM201.633 68.1073H200.3V66.7739H201.633V68.1073ZM201.633 69.4406V68.1073H205.633V69.4406H201.633ZM201.633 57.4406V58.7739H200.3V57.4406H201.633ZM201.633 56.1073H205.633V57.4406H201.633V56.1073ZM206.967 68.1073H205.633V66.7739H206.967V68.1073ZM206.967 66.7739V58.7739H208.3V66.7739H206.967ZM206.967 57.4406V58.7739H205.633V57.4406H206.967ZM214.967 62.7739V61.4406H221.633V60.1073H216.3V56.1073H228.3V57.4406H217.633V58.7739H228.3V60.1073H222.967V61.4406H229.633V62.7739H214.967ZM226.967 66.7739V65.4406H216.3V64.1073H228.3V68.1073H217.633V69.4406H228.3V70.7739H216.3V66.7739H226.967ZM237.639 69.4406V68.1073H252.305V69.4406H237.639ZM238.972 56.1073H250.972V64.1073H249.639V57.4406H238.972V56.1073ZM248.305 64.1073H249.639V66.7739H248.305V64.1073ZM253.639 64.1073V62.7739H254.972V58.7739H265.639V57.4406H254.972V56.1073H266.972V60.1073H256.305V61.4406H266.972V62.7739H268.305V64.1073H261.639V65.4406H260.305V64.1073H253.639ZM265.639 69.4406V68.1073H256.305V69.4406H265.639ZM265.639 66.7739V65.4406H266.972V70.7739H254.972V65.4406H256.305V66.7739H265.639ZM276.311 70.7739V56.1073H282.977V57.4406H277.644V62.7739H282.977V64.1073H277.644V69.4406H282.977V70.7739H276.311ZM284.311 68.1073V69.4406H282.977V68.1073H284.311ZM284.311 64.1073V65.4406H282.977V64.1073H284.311ZM284.311 65.4406H285.644V68.1073H284.311V65.4406ZM284.311 61.4406V62.7739H282.977V61.4406H284.311ZM284.311 57.4406V58.7739H282.977V57.4406H284.311ZM284.311 58.7739H285.644V61.4406H284.311V58.7739ZM286.982 69.4406V68.1073H293.649V64.1073H294.982V68.1073H297.649V66.7739H298.982V68.1073H301.649V69.4406H286.982ZM288.316 56.1073H300.316V66.7739H298.982V62.7739H288.316V61.4406H298.982V57.4406H288.316V56.1073ZM53.623 77.1073H54.9564V83.7739H56.2897V85.1073H54.9564V91.7739H53.623V77.1073ZM41.623 90.4406V77.1073H50.9564V90.4406H41.623ZM42.9564 89.1073H49.623V78.4406H42.9564V89.1073ZM69.623 77.1073H70.9564V91.7739H69.623V77.1073ZM57.623 90.4406V89.1073H58.9564V90.4406H57.623ZM57.623 81.1073V79.7739H66.9564V81.1073H62.9564V85.1073H61.623V81.1073H57.623ZM60.2897 89.1073H58.9564V87.7739H60.2897V89.1073ZM60.2897 85.1073H61.623V87.7739H60.2897V85.1073ZM60.2897 78.4406V77.1073H64.2897V78.4406H60.2897ZM62.9564 85.1073H64.2897V87.7739H62.9564V85.1073ZM65.623 89.1073H64.2897V87.7739H65.623V89.1073ZM65.623 90.4406V89.1073H66.9564V90.4406H65.623ZM85.623 77.1073H86.9564V91.7739H85.623V77.1073ZM73.623 89.1073V87.7739H84.2897V89.1073H73.623ZM73.623 82.4406V79.7739H74.9564V82.4406H73.623ZM76.2897 85.1073V83.7739H80.2897V85.1073H76.2897ZM76.2897 82.4406V83.7739H74.9564V82.4406H76.2897ZM76.2897 78.4406V79.7739H74.9564V78.4406H76.2897ZM76.2897 77.1073H80.2897V78.4406H76.2897V77.1073ZM81.623 82.4406V83.7739H80.2897V82.4406H81.623ZM81.623 78.4406V79.7739H80.2897V78.4406H81.623ZM81.623 79.7739H82.9564V82.4406H81.623V79.7739ZM108.295 77.1073H109.628V83.7739H97.6283V77.1073H98.9616V78.4406H108.295V77.1073ZM96.2949 86.4406V85.1073H110.962V86.4406H104.295V91.7739H102.962V86.4406H96.2949ZM108.295 82.4406V79.7739H98.9616V82.4406H108.295ZM112.295 85.1073V83.7739H118.962V82.4406H113.628V77.1073H125.628V78.4406H114.962V81.1073H125.628V82.4406H120.295V83.7739H126.962V85.1073H112.295ZM124.295 90.4406V91.7739H114.962V90.4406H124.295ZM124.295 86.4406V87.7739H114.962V86.4406H124.295ZM124.295 87.7739H125.628V90.4406H124.295V87.7739ZM114.962 90.4406H113.628V87.7739H114.962V90.4406ZM140.295 77.1073H141.628V91.7739H140.295V77.1073ZM128.295 89.1073V87.7739H138.962V89.1073H128.295ZM128.295 82.4406V79.7739H129.628V82.4406H128.295ZM130.962 85.1073V83.7739H134.962V85.1073H130.962ZM130.962 82.4406V83.7739H129.628V82.4406H130.962ZM130.962 78.4406V79.7739H129.628V78.4406H130.962ZM130.962 77.1073H134.962V78.4406H130.962V77.1073ZM136.295 82.4406V83.7739H134.962V82.4406H136.295ZM136.295 78.4406V79.7739H134.962V78.4406H136.295ZM136.295 79.7739H137.628V82.4406H136.295V79.7739ZM162.967 77.1073H164.3V87.7739H162.967V77.1073ZM150.967 85.1073V83.7739H152.3V85.1073H150.967ZM153.633 90.4406H164.3V91.7739H152.3V86.4406H153.633V90.4406ZM153.633 82.4406V83.7739H152.3V82.4406H153.633ZM153.633 81.1073H154.967V82.4406H153.633V81.1073ZM156.3 82.4406V81.1073H157.633V82.4406H156.3ZM156.3 81.1073H154.967V77.1073H156.3V81.1073ZM158.967 85.1073V83.7739H160.3V81.1073H157.633V79.7739H160.3V77.1073H161.633V87.7739H160.3V85.1073H158.967ZM158.967 82.4406V83.7739H157.633V82.4406H158.967ZM178.967 77.1073H180.3V91.7739H178.967V83.7739H176.3V82.4406H178.967V77.1073ZM166.967 90.4406V77.1073H174.967V78.4406H168.3V82.4406H174.967V83.7739H168.3V89.1073H174.967V90.4406H166.967ZM184.3 91.7739V90.4406H185.633V91.7739H184.3ZM41.623 106.107V104.774H42.9564V106.107H41.623ZM42.9564 106.107H44.2897V107.441H42.9564V106.107ZM42.9564 104.774V103.441H44.2897V104.774H42.9564ZM44.2897 107.441H45.623V108.774H44.2897V107.441ZM44.2897 103.441V102.107H45.623V103.441H44.2897ZM45.623 110.107V108.774H46.9564V110.107H45.623ZM45.623 102.107V100.774H46.9564V102.107H45.623ZM60.2949 98.1073H61.6283V104.774H62.9616V106.107H61.6283V112.774H60.2949V98.1073ZM48.2949 111.441V98.1073H57.6283V99.4406H49.6283V110.107H57.6283V111.441H48.2949ZM76.2949 98.1073V99.4406H66.9616V98.1073H76.2949ZM64.2949 106.107V104.774H78.9616V106.107H64.2949ZM65.6283 112.774V107.441H77.6283V112.774H65.6283ZM76.2949 111.441V108.774H66.9616V111.441H76.2949ZM76.2949 103.441H66.9616V102.107H76.2949V103.441ZM65.6283 99.4406H66.9616V102.107H65.6283V99.4406ZM76.2949 99.4406H77.6283V102.107H76.2949V99.4406ZM80.2949 110.107H81.6283V112.774H80.2949V110.107ZM81.6283 110.107V107.441H82.9616V110.107H81.6283ZM82.9616 107.441V103.441H84.2949V107.441H82.9616ZM84.2949 103.441V100.774H85.6283V103.441H84.2949ZM86.9616 98.1073V100.774H85.6283V98.1073H86.9616ZM88.2949 110.107V108.774H89.6283V110.107H88.2949ZM88.2949 102.107V100.774H89.6283V102.107H88.2949ZM89.6283 108.774V107.441H90.9616V108.774H89.6283ZM89.6283 103.441V102.107H90.9616V103.441H89.6283ZM90.9616 107.441V106.107H92.2949V107.441H90.9616ZM90.9616 103.441H92.2949V104.774H90.9616V103.441ZM92.2949 106.107V104.774H93.6283V106.107H92.2949ZM94.9668 106.107V104.774H96.3001V106.107H94.9668ZM96.3001 106.107H97.6335V107.441H96.3001V106.107ZM96.3001 104.774V103.441H97.6335V104.774H96.3001ZM97.6335 107.441H98.9668V108.774H97.6335V107.441ZM97.6335 103.441V102.107H98.9668V103.441H97.6335ZM98.9668 110.107V108.774H100.3V110.107H98.9668ZM98.9668 102.107V100.774H100.3V102.107H98.9668ZM113.639 98.1073H114.972V104.774H116.305V106.107H114.972V112.774H113.639V98.1073ZM101.639 111.441V98.1073H110.972V99.4406H102.972V110.107H110.972V111.441H101.639ZM129.639 98.1073V99.4406H120.305V98.1073H129.639ZM117.639 106.107V104.774H132.305V106.107H117.639ZM118.972 112.774V107.441H130.972V112.774H118.972ZM129.639 111.441V108.774H120.305V111.441H129.639ZM129.639 103.441H120.305V102.107H129.639V103.441ZM118.972 99.4406H120.305V102.107H118.972V99.4406ZM129.639 99.4406H130.972V102.107H129.639V99.4406ZM133.639 110.107H134.972V112.774H133.639V110.107ZM134.972 110.107V107.441H136.305V110.107H134.972ZM136.305 107.441V103.441H137.639V107.441H136.305ZM137.639 103.441V100.774H138.972V103.441H137.639ZM140.305 98.1073V100.774H138.972V98.1073H140.305ZM141.639 110.107V108.774H142.972V110.107H141.639ZM141.639 102.107V100.774H142.972V102.107H141.639ZM142.972 108.774V107.441H144.305V108.774H142.972ZM142.972 103.441V102.107H144.305V103.441H142.972ZM144.305 107.441V106.107H145.639V107.441H144.305ZM144.305 103.441H145.639V104.774H144.305V103.441ZM145.639 106.107V104.774H146.972V106.107H145.639ZM166.982 98.1073H168.316V108.774H166.982V102.107H164.316V100.774H166.982V98.1073ZM154.982 106.107V104.774H156.316V106.107H154.982ZM154.982 99.4406V98.1073H164.316V99.4406H160.316V102.107H158.982V99.4406H154.982ZM157.649 111.441H168.316V112.774H156.316V107.441H157.649V111.441ZM157.649 103.441V104.774H156.316V103.441H157.649ZM157.649 102.107H158.982V103.441H157.649V102.107ZM160.316 103.441V102.107H161.649V103.441H160.316ZM162.982 106.107V104.774H164.316V106.107H162.982ZM162.982 103.441V104.774H161.649V103.441H162.982ZM182.982 98.1073H184.316V104.774H182.982V102.107H180.316V100.774H182.982V98.1073ZM170.982 104.774V103.441H172.316V104.774H170.982ZM182.982 108.774V107.441H172.316V106.107H184.316V110.107H173.649V111.441H184.316V112.774H172.316V108.774H182.982ZM173.649 103.441H172.316V102.107H173.649V103.441ZM173.649 102.107V100.774H174.982V102.107H173.649ZM176.316 100.774H177.649V102.107H176.316V100.774ZM176.316 98.1073V100.774H174.982V98.1073H176.316ZM178.982 103.441H177.649V102.107H178.982V103.441ZM178.982 104.774V103.441H180.316V104.774H178.982ZM198.982 98.1073H200.316V106.107H198.982V102.107H196.316V100.774H198.982V98.1073ZM186.982 106.107V104.774H188.316V106.107H186.982ZM186.982 99.4406V98.1073H196.316V99.4406H192.316V102.107H190.982V99.4406H186.982ZM198.982 112.774V108.774H188.316V107.441H200.316V112.774H198.982ZM189.649 103.441V104.774H188.316V103.441H189.649ZM189.649 102.107H190.982V103.441H189.649V102.107ZM192.316 103.441V102.107H193.649V103.441H192.316ZM194.982 106.107V104.774H196.316V106.107H194.982ZM194.982 103.441V104.774H193.649V103.441H194.982ZM214.982 98.1073H216.316V108.774H214.982V98.1073ZM202.982 103.441V100.774H204.316V103.441H202.982ZM205.649 111.441H216.316V112.774H204.316V107.441H205.649V111.441ZM205.649 106.107V104.774H209.649V106.107H205.649ZM205.649 103.441V104.774H204.316V103.441H205.649ZM205.649 99.4406V100.774H204.316V99.4406H205.649ZM205.649 98.1073H209.649V99.4406H205.649V98.1073ZM210.982 103.441V104.774H209.649V103.441H210.982ZM210.982 99.4406V100.774H209.649V99.4406H210.982ZM210.982 100.774H212.316V103.441H210.982V100.774ZM237.654 98.1073H238.988V104.774H240.321V106.107H238.988V112.774H237.654V98.1073ZM225.654 108.774V100.774H226.988V108.774H225.654ZM228.321 110.107H226.988V108.774H228.321V110.107ZM228.321 111.441V110.107H232.321V111.441H228.321ZM228.321 99.4406V100.774H226.988V99.4406H228.321ZM228.321 98.1073H232.321V99.4406H228.321V98.1073ZM233.654 110.107H232.321V108.774H233.654V110.107ZM233.654 108.774V100.774H234.988V108.774H233.654ZM233.654 99.4406V100.774H232.321V99.4406H233.654ZM253.654 98.1073H254.988V112.774H253.654V98.1073ZM241.654 108.774V100.774H242.988V108.774H241.654ZM244.321 110.107H242.988V108.774H244.321V110.107ZM244.321 111.441V110.107H248.321V111.441H244.321ZM244.321 99.4406V100.774H242.988V99.4406H244.321ZM244.321 98.1073H248.321V99.4406H244.321V98.1073ZM249.654 110.107H248.321V108.774H249.654V110.107ZM249.654 108.774V100.774H250.988V108.774H249.654ZM249.654 99.4406V100.774H248.321V99.4406H249.654ZM257.654 104.774V103.441H264.321V102.107H258.988V98.1073H270.988V99.4406H260.321V100.774H270.988V102.107H265.654V103.441H272.321V104.774H257.654ZM269.654 108.774V107.441H258.988V106.107H270.988V110.107H260.321V111.441H270.988V112.774H258.988V108.774H269.654ZM285.654 98.1073H286.988V112.774H285.654V98.1073ZM273.654 108.774V100.774H274.988V108.774H273.654ZM276.321 110.107H274.988V108.774H276.321V110.107ZM276.321 111.441V110.107H280.321V111.441H276.321ZM276.321 99.4406V100.774H274.988V99.4406H276.321ZM276.321 98.1073H280.321V99.4406H276.321V98.1073ZM281.654 110.107H280.321V108.774H281.654V110.107ZM281.654 108.774V100.774H282.988V108.774H281.654ZM281.654 99.4406V100.774H280.321V99.4406H281.654ZM301.654 98.1073H302.988V104.774H304.321V106.107H302.988V112.774H301.654V98.1073ZM289.654 111.441V103.441H296.321V99.4406H289.654V98.1073H297.654V104.774H290.988V110.107H298.988V111.441H289.654ZM53.623 119.107H54.9564V127.107H53.623V119.107ZM41.623 127.107V125.774H44.2897V127.107H41.623ZM41.623 123.107V121.774H50.9564V123.107H46.9564V124.441H45.623V123.107H41.623ZM53.623 132.441V133.774H44.2897V132.441H53.623ZM53.623 128.441V129.774H44.2897V128.441H53.623ZM53.623 129.774H54.9564V132.441H53.623V129.774ZM44.2897 132.441H42.9564V129.774H44.2897V132.441ZM44.2897 125.774V124.441H45.623V125.774H44.2897ZM44.2897 120.441V119.107H48.2897V120.441H44.2897ZM46.9564 124.441H48.2897V125.774H46.9564V124.441ZM48.2897 127.107V125.774H50.9564V127.107H48.2897ZM69.623 119.107H70.9564V133.774H69.623V127.107H68.2897V133.774H66.9564V123.107H57.623V121.774H66.9564V119.107H68.2897V125.774H69.623V119.107ZM60.2897 131.107H58.9564V125.774H60.2897V131.107ZM60.2897 132.441V131.107H64.2897V132.441H60.2897ZM60.2897 125.774V124.441H64.2897V125.774H60.2897ZM60.2897 120.441V119.107H64.2897V120.441H60.2897ZM65.623 131.107H64.2897V125.774H65.623V131.107ZM85.623 119.107H86.9564V125.774H85.623V119.107ZM73.623 125.774V124.441H74.9564V125.774H73.623ZM73.623 120.441V119.107H82.9564V120.441H78.9564V121.774H77.623V120.441H73.623ZM85.623 129.774V128.441H74.9564V127.107H86.9564V131.107H76.2897V132.441H86.9564V133.774H74.9564V129.774H85.623ZM76.2897 124.441H74.9564V123.107H76.2897V124.441ZM76.2897 123.107V121.774H77.623V123.107H76.2897ZM78.9564 121.774H80.2897V123.107H78.9564V121.774ZM81.623 124.441H80.2897V123.107H81.623V124.441ZM81.623 125.774V124.441H82.9564V125.774H81.623ZM108.295 119.107H109.628V127.107H108.295V123.107H105.628V121.774H108.295V119.107ZM96.2949 127.107V125.774H97.6283V127.107H96.2949ZM96.2949 120.441V119.107H105.628V120.441H101.628V123.107H100.295V120.441H96.2949ZM108.295 132.441V133.774H98.9616V132.441H108.295ZM108.295 128.441V129.774H98.9616V128.441H108.295ZM108.295 129.774H109.628V132.441H108.295V129.774ZM98.9616 132.441H97.6283V129.774H98.9616V132.441ZM98.9616 124.441V125.774H97.6283V124.441H98.9616ZM98.9616 123.107H100.295V124.441H98.9616V123.107ZM101.628 124.441V123.107H102.962V124.441H101.628ZM104.295 127.107V125.774H105.628V127.107H104.295ZM104.295 124.441V125.774H102.962V124.441H104.295ZM112.295 132.441V131.107H118.962V128.441H113.628V119.107H125.628V120.441H114.962V127.107H125.628V128.441H120.295V131.107H126.962V132.441H112.295ZM128.295 132.441V131.107H134.962V128.441H129.628V123.107H140.295V120.441H129.628V119.107H141.628V124.441H130.962V127.107H141.628V128.441H136.295V131.107H142.962V132.441H128.295ZM162.967 119.107H164.3V129.774H162.967V119.107ZM150.967 124.441V121.774H152.3V124.441H150.967ZM153.633 132.441H164.3V133.774H152.3V128.441H153.633V132.441ZM153.633 127.107V125.774H157.633V127.107H153.633ZM153.633 124.441V125.774H152.3V124.441H153.633ZM153.633 120.441V121.774H152.3V120.441H153.633ZM153.633 119.107H157.633V120.441H153.633V119.107ZM158.967 124.441V125.774H157.633V124.441H158.967ZM158.967 120.441V121.774H157.633V120.441H158.967ZM158.967 121.774H160.3V124.441H158.967V121.774ZM178.967 119.107H180.3V133.774H178.967V119.107ZM166.967 132.441V131.107H169.633V132.441H166.967ZM166.967 120.441V119.107H174.967V125.774H173.633V120.441H166.967ZM169.633 131.107V129.774H170.967V131.107H169.633ZM170.967 129.774V128.441H172.3V129.774H170.967ZM172.3 128.441V125.774H173.633V128.441H172.3ZM182.967 125.774V124.441H184.3V121.774H194.967V120.441H184.3V119.107H196.3V123.107H185.633V124.441H197.633V125.774H182.967ZM194.967 129.774V128.441H184.3V127.107H196.3V131.107H185.633V132.441H196.3V133.774H184.3V129.774H194.967ZM205.639 125.774V124.441H210.972V120.441H206.972V119.107H212.305V124.441H217.639V120.441H213.639V119.107H218.972V124.441H220.305V125.774H205.639ZM217.639 129.774V128.441H206.972V127.107H218.972V131.107H208.305V132.441H218.972V133.774H206.972V129.774H217.639ZM233.639 119.107H234.972V128.441H233.639V123.107H230.972V124.441H229.639V121.774H233.639V119.107ZM221.639 124.441V121.774H222.972V124.441H221.639ZM233.639 131.107V132.441H232.305V131.107H233.639ZM233.639 132.441H234.972V133.774H233.639V132.441ZM226.972 131.107H228.305V132.441H226.972V131.107ZM226.972 128.441V131.107H225.639V128.441H226.972ZM232.305 131.107H230.972V128.441H232.305V131.107ZM225.639 131.107V132.441H224.305V131.107H225.639ZM230.972 131.107V132.441H229.639V131.107H230.972ZM224.305 132.441V133.774H222.972V132.441H224.305ZM224.305 127.107V125.774H228.305V127.107H224.305ZM224.305 124.441V125.774H222.972V124.441H224.305ZM224.305 120.441V121.774H222.972V120.441H224.305ZM224.305 119.107H228.305V120.441H224.305V119.107ZM229.639 132.441V133.774H228.305V132.441H229.639ZM229.639 124.441V125.774H228.305V124.441H229.639ZM229.639 120.441V121.774H228.305V120.441H229.639ZM249.639 119.107H250.972V125.774H252.305V127.107H250.972V133.774H249.639V119.107ZM237.639 132.441V119.107H246.972V120.441H238.972V131.107H246.972V132.441H237.639Z" fill="#2E2E2E"/>
<path d="M58.123 226.667H59.7897V245H58.123V226.667ZM43.123 240V230H44.7897V240H43.123ZM46.4564 241.667H44.7897V240H46.4564V241.667ZM46.4564 243.333V241.667H51.4564V243.333H46.4564ZM46.4564 228.333V230H44.7897V228.333H46.4564ZM46.4564 226.667H51.4564V228.333H46.4564V226.667ZM53.123 241.667H51.4564V240H53.123V241.667ZM53.123 240V230H54.7897V240H53.123ZM53.123 228.333V230H51.4564V228.333H53.123ZM78.123 226.667H79.7897V245H78.123V226.667ZM63.123 243.333V241.667H64.7897V243.333H63.123ZM63.123 231.667V230H74.7897V231.667H69.7897V236.667H68.123V231.667H63.123ZM66.4564 241.667H64.7897V240H66.4564V241.667ZM66.4564 236.667H68.123V240H66.4564V236.667ZM66.4564 228.333V226.667H71.4564V228.333H66.4564ZM69.7897 236.667H71.4564V240H69.7897V236.667ZM73.123 241.667H71.4564V240H73.123V241.667ZM73.123 243.333V241.667H74.7897V243.333H73.123ZM83.123 243.333V241.667H91.4564V235H93.123V241.667H101.456V243.333H83.123ZM84.7897 226.667H99.7897V238.333H98.123V228.333H84.7897V226.667ZM96.4564 240V238.333H98.123V240H96.4564ZM111.463 243.333V241.667H129.796V243.333H111.463ZM113.13 226.667H128.13V228.333H124.796V236.667H128.13V238.333H113.13V236.667H116.463V228.333H113.13V226.667ZM118.13 236.667H123.13V228.333H118.13V236.667ZM131.463 243.333V241.667H139.796V238.333H133.13V231.667H146.463V228.333H133.13V226.667H148.13V233.333H134.796V236.667H148.13V238.333H141.463V241.667H149.796V243.333H131.463ZM166.463 226.667H168.13V236.667H166.463V231.667H161.463V230H166.463V226.667ZM151.463 236.667V226.667H161.463V228.333H153.13V235H161.463V236.667H151.463ZM166.463 245V240H153.13V238.333H168.13V245H166.463ZM186.463 226.667H188.13V240H186.463V235H183.13V233.333H186.463V231.667H183.13V230H186.463V226.667ZM171.463 236.667V235H173.13V236.667H171.463ZM174.796 243.333H188.13V245H173.13V238.333H174.796V243.333ZM174.796 233.333V235H173.13V233.333H174.796ZM174.796 231.667H176.463V233.333H174.796V231.667ZM178.13 233.333V231.667H179.796V233.333H178.13ZM178.13 231.667H176.463V226.667H178.13V231.667ZM181.463 236.667V235H183.13V236.667H181.463ZM181.463 233.333V235H179.796V233.333H181.463ZM206.463 226.667H208.13V245H206.463V226.667ZM191.463 241.667V240H204.796V241.667H191.463ZM191.463 233.333V230H193.13V233.333H191.463ZM194.796 236.667V235H199.796V236.667H194.796ZM194.796 233.333V235H193.13V233.333H194.796ZM194.796 228.333V230H193.13V228.333H194.796ZM194.796 226.667H199.796V228.333H194.796V226.667ZM201.463 233.333V235H199.796V233.333H201.463ZM201.463 228.333V230H199.796V228.333H201.463ZM201.463 230H203.13V233.333H201.463V230ZM234.803 226.667H236.469V235H238.136V236.667H236.469V245H234.803V226.667ZM219.803 240V230H221.469V240H219.803ZM223.136 241.667H221.469V240H223.136V241.667ZM223.136 243.333V241.667H228.136V243.333H223.136ZM223.136 228.333V230H221.469V228.333H223.136ZM223.136 226.667H228.136V228.333H223.136V226.667ZM229.803 241.667H228.136V240H229.803V241.667ZM229.803 240V230H231.469V240H229.803ZM229.803 228.333V230H228.136V228.333H229.803ZM254.803 226.667H256.469V245H254.803V226.667ZM239.803 240V230H241.469V240H239.803ZM243.136 241.667H241.469V240H243.136V241.667ZM243.136 243.333V241.667H248.136V243.333H243.136ZM243.136 228.333V230H241.469V228.333H243.136ZM243.136 226.667H248.136V228.333H243.136V226.667ZM249.803 241.667H248.136V240H249.803V241.667ZM249.803 240V230H251.469V240H249.803ZM249.803 228.333V230H248.136V228.333H249.803ZM259.803 235V233.333H268.136V231.667H261.469V226.667H276.469V228.333H263.136V230H276.469V231.667H269.803V233.333H278.136V235H259.803ZM274.803 240V238.333H261.469V236.667H276.469V241.667H263.136V243.333H276.469V245H261.469V240H274.803ZM288.143 243.333V241.667H306.476V243.333H288.143ZM289.809 226.667H304.809V236.667H303.143V228.333H289.809V226.667ZM301.476 236.667H303.143V240H301.476V236.667ZM43.123 263.667V262H44.7897V257H58.123V255.333H44.7897V253.667H59.7897V258.667H46.4564V260.333H59.7897V262H61.4564V263.667H53.123V265.333H51.4564V263.667H43.123ZM58.123 270.333V268.667H46.4564V270.333H58.123ZM58.123 267V265.333H59.7897V272H44.7897V265.333H46.4564V267H58.123ZM71.4629 272V253.667H79.7962V255.333H73.1296V262H79.7962V263.667H73.1296V270.333H79.7962V272H71.4629ZM81.4629 268.667V270.333H79.7962V268.667H81.4629ZM81.4629 263.667V265.333H79.7962V263.667H81.4629ZM81.4629 265.333H83.1296V268.667H81.4629V265.333ZM81.4629 260.333V262H79.7962V260.333H81.4629ZM81.4629 255.333V257H79.7962V255.333H81.4629ZM81.4629 257H83.1296V260.333H81.4629V257ZM84.8027 270.333V268.667H93.1361V263.667H94.8027V268.667H98.1361V267H99.8027V268.667H103.136V270.333H84.8027ZM86.4694 253.667H101.469V267H99.8027V262H86.4694V260.333H99.8027V255.333H86.4694V253.667ZM119.803 253.667H121.469V262H123.136V263.667H121.469V272H119.803V253.667ZM104.803 270.333V253.667H116.469V270.333H104.803ZM106.469 268.667H114.803V255.333H106.469V268.667ZM139.803 253.667H141.469V272H139.803V253.667ZM124.803 270.333V268.667H126.469V270.333H124.803ZM124.803 258.667V257H136.469V258.667H131.469V263.667H129.803V258.667H124.803ZM128.136 268.667H126.469V267H128.136V268.667ZM128.136 263.667H129.803V267H128.136V263.667ZM128.136 255.333V253.667H133.136V255.333H128.136ZM131.469 263.667H133.136V267H131.469V263.667ZM134.803 268.667H133.136V267H134.803V268.667ZM134.803 270.333V268.667H136.469V270.333H134.803ZM159.803 253.667H161.469V272H159.803V253.667ZM144.803 268.667V267H158.136V268.667H144.803ZM144.803 260.333V257H146.469V260.333H144.803ZM148.136 263.667V262H153.136V263.667H148.136ZM148.136 260.333V262H146.469V260.333H148.136ZM148.136 255.333V257H146.469V255.333H148.136ZM148.136 253.667H153.136V255.333H148.136V253.667ZM154.803 260.333V262H153.136V260.333H154.803ZM154.803 255.333V257H153.136V255.333H154.803ZM154.803 257H156.469V260.333H154.803V257ZM188.143 253.667H189.809V262H174.809V253.667H176.476V255.333H188.143V253.667ZM173.143 265.333V263.667H191.476V265.333H183.143V272H181.476V265.333H173.143ZM188.143 260.333V257H176.476V260.333H188.143ZM193.143 263.667V262H201.476V260.333H194.809V253.667H209.809V255.333H196.476V258.667H209.809V260.333H203.143V262H211.476V263.667H193.143ZM208.143 270.333V272H196.476V270.333H208.143ZM208.143 265.333V267H196.476V265.333H208.143ZM208.143 267H209.809V270.333H208.143V267ZM196.476 270.333H194.809V267H196.476V270.333ZM228.143 253.667H229.809V272H228.143V253.667ZM213.143 268.667V267H226.476V268.667H213.143ZM213.143 260.333V257H214.809V260.333H213.143ZM216.476 263.667V262H221.476V263.667H216.476ZM216.476 260.333V262H214.809V260.333H216.476ZM216.476 255.333V257H214.809V255.333H216.476ZM216.476 253.667H221.476V255.333H216.476V253.667ZM223.143 260.333V262H221.476V260.333H223.143ZM223.143 255.333V257H221.476V255.333H223.143ZM223.143 257H224.809V260.333H223.143V257ZM256.482 253.667H258.149V267H256.482V253.667ZM241.482 263.667V262H243.149V263.667H241.482ZM244.816 270.333H258.149V272H243.149V265.333H244.816V270.333ZM244.816 260.333V262H243.149V260.333H244.816ZM244.816 258.667H246.482V260.333H244.816V258.667ZM248.149 260.333V258.667H249.816V260.333H248.149ZM248.149 258.667H246.482V253.667H248.149V258.667ZM251.482 263.667V262H253.149V258.667H249.816V257H253.149V253.667H254.816V267H253.149V263.667H251.482ZM251.482 260.333V262H249.816V260.333H251.482ZM276.482 253.667H278.149V272H276.482V262H273.149V260.333H276.482V253.667ZM261.482 270.333V253.667H271.482V255.333H263.149V260.333H271.482V262H263.149V268.667H271.482V270.333H261.482ZM283.149 272V270.333H284.816V272H283.149ZM58.123 307.667H59.7897V321H58.123V312.667H54.7897V311H58.123V307.667ZM43.123 317.667V316H44.7897V317.667H43.123ZM43.123 309.333V307.667H54.7897V309.333H49.7897V312.667H48.123V309.333H43.123ZM46.4564 324.333H59.7897V326H44.7897V319.333H46.4564V324.333ZM46.4564 314.333V316H44.7897V314.333H46.4564ZM46.4564 312.667H48.123V314.333H46.4564V312.667ZM49.7897 314.333V312.667H51.4564V314.333H49.7897ZM53.123 317.667V316H54.7897V317.667H53.123ZM53.123 314.333V316H51.4564V314.333H53.123ZM78.123 307.667H79.7897V316H78.123V312.667H74.7897V311H78.123V307.667ZM63.123 316V314.333H64.7897V316H63.123ZM78.123 321V319.333H64.7897V317.667H79.7897V322.667H66.4564V324.333H79.7897V326H64.7897V321H78.123ZM66.4564 314.333H64.7897V312.667H66.4564V314.333ZM66.4564 312.667V311H68.123V312.667H66.4564ZM69.7897 311H71.4564V312.667H69.7897V311ZM69.7897 307.667V311H68.123V307.667H69.7897ZM73.123 314.333H71.4564V312.667H73.123V314.333ZM73.123 316V314.333H74.7897V316H73.123ZM98.123 307.667H99.7897V317.667H98.123V312.667H94.7897V311H98.123V307.667ZM83.123 317.667V316H84.7897V317.667H83.123ZM83.123 309.333V307.667H94.7897V309.333H89.7897V312.667H88.123V309.333H83.123ZM98.123 326V321H84.7897V319.333H99.7897V326H98.123ZM86.4564 314.333V316H84.7897V314.333H86.4564ZM86.4564 312.667H88.123V314.333H86.4564V312.667ZM89.7897 314.333V312.667H91.4564V314.333H89.7897ZM93.123 317.667V316H94.7897V317.667H93.123ZM93.123 314.333V316H91.4564V314.333H93.123ZM118.123 307.667H119.79V321H118.123V307.667ZM103.123 314.333V311H104.79V314.333H103.123ZM106.456 324.333H119.79V326H104.79V319.333H106.456V324.333ZM106.456 317.667V316H111.456V317.667H106.456ZM106.456 314.333V316H104.79V314.333H106.456ZM106.456 309.333V311H104.79V309.333H106.456ZM106.456 307.667H111.456V309.333H106.456V307.667ZM113.123 314.333V316H111.456V314.333H113.123ZM113.123 309.333V311H111.456V309.333H113.123ZM113.123 311H114.79V314.333H113.123V311ZM146.463 307.667H148.13V316H149.796V317.667H148.13V326H146.463V307.667ZM131.463 321V311H133.13V321H131.463ZM134.796 322.667H133.13V321H134.796V322.667ZM134.796 324.333V322.667H139.796V324.333H134.796ZM134.796 309.333V311H133.13V309.333H134.796ZM134.796 307.667H139.796V309.333H134.796V307.667ZM141.463 322.667H139.796V321H141.463V322.667ZM141.463 321V311H143.13V321H141.463ZM141.463 309.333V311H139.796V309.333H141.463ZM166.463 307.667H168.13V326H166.463V307.667ZM151.463 321V311H153.13V321H151.463ZM154.796 322.667H153.13V321H154.796V322.667ZM154.796 324.333V322.667H159.796V324.333H154.796ZM154.796 309.333V311H153.13V309.333H154.796ZM154.796 307.667H159.796V309.333H154.796V307.667ZM161.463 322.667H159.796V321H161.463V322.667ZM161.463 321V311H163.13V321H161.463ZM161.463 309.333V311H159.796V309.333H161.463ZM171.463 316V314.333H179.796V312.667H173.13V307.667H188.13V309.333H174.796V311H188.13V312.667H181.463V314.333H189.796V316H171.463ZM186.463 321V319.333H173.13V317.667H188.13V322.667H174.796V324.333H188.13V326H173.13V321H186.463ZM206.463 307.667H208.13V326H206.463V307.667ZM191.463 321V311H193.13V321H191.463ZM194.796 322.667H193.13V321H194.796V322.667ZM194.796 324.333V322.667H199.796V324.333H194.796ZM194.796 309.333V311H193.13V309.333H194.796ZM194.796 307.667H199.796V309.333H194.796V307.667ZM201.463 322.667H199.796V321H201.463V322.667ZM201.463 321V311H203.13V321H201.463ZM201.463 309.333V311H199.796V309.333H201.463ZM226.463 307.667H228.13V316H229.796V317.667H228.13V326H226.463V307.667ZM211.463 324.333V314.333H219.796V309.333H211.463V307.667H221.463V316H213.13V322.667H223.13V324.333H211.463ZM254.803 307.667H256.469V317.667H254.803V307.667ZM239.803 317.667V316H243.136V317.667H239.803ZM239.803 312.667V311H251.469V312.667H246.469V314.333H244.803V312.667H239.803ZM254.803 324.333V326H243.136V324.333H254.803ZM254.803 319.333V321H243.136V319.333H254.803ZM254.803 321H256.469V324.333H254.803V321ZM243.136 324.333H241.469V321H243.136V324.333ZM243.136 316V314.333H244.803V316H243.136ZM243.136 309.333V307.667H248.136V309.333H243.136ZM246.469 314.333H248.136V316H246.469V314.333ZM248.136 317.667V316H251.469V317.667H248.136ZM274.803 307.667H276.469V326H274.803V317.667H273.136V326H271.469V312.667H259.803V311H271.469V307.667H273.136V316H274.803V307.667ZM263.136 322.667H261.469V316H263.136V322.667ZM263.136 324.333V322.667H268.136V324.333H263.136ZM263.136 316V314.333H268.136V316H263.136ZM263.136 309.333V307.667H268.136V309.333H263.136ZM269.803 322.667H268.136V316H269.803V322.667ZM294.803 307.667H296.469V316H294.803V307.667ZM279.803 316V314.333H281.469V316H279.803ZM279.803 309.333V307.667H291.469V309.333H286.469V311H284.803V309.333H279.803ZM294.803 321V319.333H281.469V317.667H296.469V322.667H283.136V324.333H296.469V326H281.469V321H294.803ZM283.136 314.333H281.469V312.667H283.136V314.333ZM283.136 312.667V311H284.803V312.667H283.136ZM286.469 311H288.136V312.667H286.469V311ZM289.803 314.333H288.136V312.667H289.803V314.333ZM289.803 316V314.333H291.469V316H289.803ZM58.123 334.667H59.7897V344.667H58.123V339.667H54.7897V338H58.123V334.667ZM43.123 344.667V343H44.7897V344.667H43.123ZM43.123 336.333V334.667H54.7897V336.333H49.7897V339.667H48.123V336.333H43.123ZM58.123 351.333V353H46.4564V351.333H58.123ZM58.123 346.333V348H46.4564V346.333H58.123ZM58.123 348H59.7897V351.333H58.123V348ZM46.4564 351.333H44.7897V348H46.4564V351.333ZM46.4564 341.333V343H44.7897V341.333H46.4564ZM46.4564 339.667H48.123V341.333H46.4564V339.667ZM49.7897 341.333V339.667H51.4564V341.333H49.7897ZM53.123 344.667V343H54.7897V344.667H53.123ZM53.123 341.333V343H51.4564V341.333H53.123ZM63.123 351.333V349.667H71.4564V346.333H64.7897V334.667H79.7897V336.333H66.4564V344.667H79.7897V346.333H73.123V349.667H81.4564V351.333H63.123ZM83.123 351.333V349.667H91.4564V346.333H84.7897V339.667H98.123V336.333H84.7897V334.667H99.7897V341.333H86.4564V344.667H99.7897V346.333H93.123V349.667H101.456V351.333H83.123ZM126.463 334.667H128.13V348H126.463V334.667ZM111.463 341.333V338H113.13V341.333H111.463ZM114.796 351.333H128.13V353H113.13V346.333H114.796V351.333ZM114.796 344.667V343H119.796V344.667H114.796ZM114.796 341.333V343H113.13V341.333H114.796ZM114.796 336.333V338H113.13V336.333H114.796ZM114.796 334.667H119.796V336.333H114.796V334.667ZM121.463 341.333V343H119.796V341.333H121.463ZM121.463 336.333V338H119.796V336.333H121.463ZM121.463 338H123.13V341.333H121.463V338ZM146.463 334.667H148.13V353H146.463V334.667ZM131.463 351.333V349.667H134.796V351.333H131.463ZM131.463 336.333V334.667H141.463V343H139.796V336.333H131.463ZM134.796 349.667V348H136.463V349.667H134.796ZM136.463 348V346.333H138.13V348H136.463ZM138.13 346.333V343H139.796V346.333H138.13ZM151.463 343V341.333H153.13V338H166.463V336.333H153.13V334.667H168.13V339.667H154.796V341.333H169.796V343H151.463ZM166.463 348V346.333H153.13V344.667H168.13V349.667H154.796V351.333H168.13V353H153.13V348H166.463ZM179.803 343V341.333H186.469V336.333H181.469V334.667H188.136V341.333H194.803V336.333H189.803V334.667H196.469V341.333H198.136V343H179.803ZM194.803 348V346.333H181.469V344.667H196.469V349.667H183.136V351.333H196.469V353H181.469V348H194.803ZM214.803 334.667H216.469V346.333H214.803V339.667H211.469V341.333H209.803V338H214.803V334.667ZM199.803 341.333V338H201.469V341.333H199.803ZM214.803 349.667V351.333H213.136V349.667H214.803ZM214.803 351.333H216.469V353H214.803V351.333ZM206.469 349.667H208.136V351.333H206.469V349.667ZM206.469 346.333V349.667H204.803V346.333H206.469ZM213.136 349.667H211.469V346.333H213.136V349.667ZM204.803 349.667V351.333H203.136V349.667H204.803ZM211.469 349.667V351.333H209.803V349.667H211.469ZM203.136 351.333V353H201.469V351.333H203.136ZM203.136 344.667V343H208.136V344.667H203.136ZM203.136 341.333V343H201.469V341.333H203.136ZM203.136 336.333V338H201.469V336.333H203.136ZM203.136 334.667H208.136V336.333H203.136V334.667ZM209.803 351.333V353H208.136V351.333H209.803ZM209.803 341.333V343H208.136V341.333H209.803ZM209.803 336.333V338H208.136V336.333H209.803ZM234.803 334.667H236.469V343H238.136V344.667H236.469V353H234.803V334.667ZM219.803 351.333V334.667H231.469V336.333H221.469V349.667H231.469V351.333H219.803Z" fill="#2E2E2E"/>
<path d="M355.123 55.1073V53.7739H369.79V55.1073H364.456V56.4406H368.456V59.1073H361.79V57.7739H356.456V56.4406H361.79V55.1073H355.123ZM360.456 52.4406H356.456V51.1073H359.123V49.7739H356.456V47.1073H368.456V49.7739H365.79V51.1073H368.456V52.4406H364.456V51.1073H363.123V49.7739H361.79V51.1073H360.456V52.4406ZM356.456 59.1073H361.79V60.4406H368.456V61.7739H356.456V59.1073ZM371.123 60.4406V47.1073H373.79V51.1073H376.456V47.1073H379.123V60.4406H371.123ZM381.79 61.7739V47.1073H384.456V52.4406H385.79V55.1073H384.456V61.7739H381.79ZM373.79 57.7739H376.456V53.7739H373.79V57.7739ZM397.79 59.1073H395.123V56.4406H393.79V61.7739H391.123V56.4406H387.123V53.7739H389.79V49.7739H387.123V47.1073H396.456V56.4406H397.79V47.1073H400.456V61.7739H397.79V59.1073ZM392.456 53.7739H393.79V49.7739H392.456V53.7739ZM403.123 55.1073H417.79V57.7739H412.456V61.7739H409.79V57.7739H403.123V55.1073ZM408.456 52.4406V53.7739H404.456V51.1073H407.123V49.7739H404.456V47.1073H416.456V49.7739H413.79V51.1073H416.456V53.7739H412.456V52.4406H411.123V51.1073H409.79V52.4406H408.456ZM420.456 47.1073H423.123V49.7739H432.456V52.4406H420.456V47.1073ZM419.123 56.4406V53.7739H433.79V56.4406H419.123ZM420.456 61.7739V57.7739H423.123V59.1073H432.456V61.7739H420.456ZM441.795 60.4406V47.1073H448.462V49.7739H444.462V52.4406H448.462V55.1073H444.462V57.7739H448.462V60.4406H441.795ZM452.462 61.7739V55.1073H451.128V61.7739H449.795V47.1073H451.128V52.4406H452.462V47.1073H455.128V61.7739H452.462ZM457.795 60.4406V57.7739H472.462V60.4406H457.795ZM459.128 47.1073H471.128V56.4406H468.462V49.7739H459.128V47.1073Z" fill="#E774DD"/>
<path d="M485.795 47.1073H487.128V51.1073H488.462V52.4406H487.128V56.4406H488.462V57.7739H487.128V61.7739H485.795V47.1073ZM473.795 57.7739V49.7739H475.128V57.7739H473.795ZM476.462 59.1073H475.128V57.7739H476.462V59.1073ZM476.462 60.4406V59.1073H480.462V60.4406H476.462ZM476.462 48.4406V49.7739H475.128V48.4406H476.462ZM476.462 47.1073H480.462V48.4406H476.462V47.1073ZM481.795 59.1073H480.462V57.7739H481.795V59.1073ZM481.795 57.7739V49.7739H483.128V57.7739H481.795ZM481.795 48.4406V49.7739H480.462V48.4406H481.795ZM491.128 47.1073H492.462V57.7739H491.128V47.1073ZM491.128 59.1073H492.462V61.7739H491.128V59.1073ZM373.795 73.1073H375.128V75.7739H376.462V77.1073H375.128V81.1073H373.795V73.1073ZM361.795 81.1073V73.1073H369.795V81.1073H361.795ZM373.795 85.1073H375.128V86.4406H373.795V85.1073ZM373.795 86.4406V87.7739H369.795V86.4406H373.795ZM373.795 83.7739V85.1073H369.795V83.7739H368.462V82.4406H371.128V81.1073H372.462V82.4406H375.128V83.7739H373.795ZM364.462 86.4406H368.462V87.7739H363.128V82.4406H364.462V86.4406ZM369.795 85.1073V86.4406H368.462V85.1073H369.795ZM363.128 79.7739H368.462V74.4406H363.128V79.7739ZM389.795 73.1073V74.4406H380.462V73.1073H389.795ZM377.795 81.1073V79.7739H392.462V81.1073H377.795ZM379.128 87.7739V82.4406H380.462V86.4406H391.128V87.7739H379.128ZM389.795 78.4406H380.462V77.1073H389.795V78.4406ZM389.795 74.4406H391.128V77.1073H389.795V74.4406ZM379.128 74.4406H380.462V77.1073H379.128V74.4406ZM401.8 73.1073H413.8V78.4406H415.133V79.7739H400.467V78.4406H412.467V74.4406H401.8V73.1073ZM401.8 87.7739V83.7739H412.467V82.4406H401.8V81.1073H413.8V85.1073H403.133V86.4406H413.8V87.7739H401.8ZM428.467 73.1073V74.4406H419.133V73.1073H428.467ZM416.467 79.7739V78.4406H431.133V79.7739H416.467ZM428.467 83.7739V82.4406H417.8V81.1073H429.8V85.1073H419.133V86.4406H429.8V87.7739H417.8V83.7739H428.467ZM428.467 74.4406H429.8V75.7739H428.467V74.4406ZM428.467 75.7739V77.1073H419.133V75.7739H428.467ZM419.133 74.4406V75.7739H417.8V74.4406H419.133ZM451.139 73.1073H452.472V83.7739H451.139V79.7739H448.472V78.4406H451.139V77.1073H448.472V75.7739H451.139V73.1073ZM439.139 81.1073V79.7739H440.472V74.4406H439.139V73.1073H448.472V74.4406H445.805V79.7739H448.472V81.1073H439.139ZM441.805 86.4406H452.472V87.7739H440.472V82.4406H441.805V86.4406ZM441.805 79.7739H444.472V74.4406H441.805V79.7739ZM467.139 73.1073H468.472V79.7739H469.805V81.1073H468.472V87.7739H467.139V73.1073ZM455.139 77.1073V75.7739H465.805V77.1073H455.139ZM457.805 85.1073H456.472V79.7739H457.805V85.1073ZM457.805 86.4406V85.1073H463.139V86.4406H457.805ZM457.805 79.7739V78.4406H463.139V79.7739H457.805ZM457.805 74.4406V73.1073H463.139V74.4406H457.805ZM463.139 85.1073V79.7739H464.472V85.1073H463.139ZM483.139 73.1073H484.472V87.7739H483.139V73.1073ZM471.139 86.4406V85.1073H473.805V86.4406H471.139ZM471.139 74.4406V73.1073H477.805V78.4406H480.472V73.1073H481.805V87.7739H480.472V79.7739H477.805V81.1073H476.472V74.4406H471.139ZM473.805 85.1073V83.7739H475.139V85.1073H473.805ZM476.472 81.1073V83.7739H475.139V81.1073H476.472ZM505.811 73.1073H507.144V87.7739H505.811V82.4406H501.811V81.1073H505.811V73.1073ZM493.811 78.4406V75.7739H495.144V78.4406H493.811ZM496.477 85.1073V86.4406H500.477V87.7739H495.144V83.7739H499.144V82.4406H495.144V81.1073H496.477V79.7739H500.477V85.1073H496.477ZM496.477 78.4406V79.7739H495.144V78.4406H496.477ZM496.477 74.4406V75.7739H495.144V74.4406H496.477ZM496.477 73.1073H500.477V74.4406H496.477V73.1073ZM501.811 78.4406V79.7739H500.477V78.4406H501.811ZM501.811 74.4406V75.7739H500.477V74.4406H501.811ZM501.811 75.7739H503.144V78.4406H501.811V75.7739ZM521.811 73.1073V74.4406H512.477V73.1073H521.811ZM509.811 79.7739V78.4406H524.477V79.7739H509.811ZM521.811 83.7739V82.4406H511.144V81.1073H523.144V85.1073H512.477V86.4406H523.144V87.7739H511.144V83.7739H521.811ZM521.811 74.4406H523.144V75.7739H521.811V74.4406ZM521.811 75.7739V77.1073H512.477V75.7739H521.811ZM512.477 74.4406V75.7739H511.144V74.4406H512.477ZM544.482 73.1073H545.816V87.7739H544.482V82.4406H541.816V81.1073H544.482V78.4406H541.816V77.1073H544.482V73.1073ZM532.482 86.4406V78.4406H539.149V74.4406H532.482V73.1073H540.482V79.7739H533.816V85.1073H541.816V86.4406H532.482ZM560.482 73.1073H561.816V83.7739H560.482V79.7739H557.816V78.4406H560.482V77.1073H557.816V75.7739H560.482V73.1073ZM548.482 81.1073V73.1073H556.482V81.1073H548.482ZM551.149 86.4406H561.816V87.7739H549.816V82.4406H551.149V86.4406ZM549.816 79.7739H555.149V74.4406H549.816V79.7739ZM355.123 105.774V104.441H369.79V105.774H363.123V107.107H368.456V111.107H357.79V112.441H368.456V113.774H356.456V109.774H367.123V108.441H356.456V107.107H361.79V105.774H355.123ZM360.456 101.774V100.441H356.456V99.1073H368.456V100.441H364.456V101.774H363.123V100.441H361.79V101.774H360.456ZM360.456 103.107H356.456V101.774H360.456V103.107ZM368.456 101.774V103.107H364.456V101.774H368.456ZM383.123 99.1073V100.441H373.79V99.1073H383.123ZM371.123 105.774V104.441H385.79V105.774H371.123ZM383.123 109.774V108.441H372.456V107.107H384.456V111.107H373.79V112.441H384.456V113.774H372.456V109.774H383.123ZM383.123 100.441H384.456V101.774H383.123V100.441ZM383.123 101.774V103.107H373.79V101.774H383.123ZM373.79 100.441V101.774H372.456V100.441H373.79ZM405.795 99.1073H407.128V105.774H408.462V107.107H407.128V113.774H405.795V99.1073ZM393.795 112.441V99.1073H395.128V111.107H403.128V112.441H393.795ZM421.795 99.1073H423.128V113.774H421.795V111.107H417.795V109.774H421.795V99.1073ZM411.128 99.1073H412.462V104.441H419.128V105.774H411.128V99.1073ZM409.795 108.441V107.107H420.462V108.441H415.128V113.774H413.795V108.441H409.795ZM444.467 99.1073H445.8V113.774H444.467V111.107H440.467V109.774H444.467V99.1073ZM432.467 108.441V107.107H443.133V108.441H437.8V113.774H436.467V108.441H432.467ZM432.467 105.774V104.441H435.133V105.774H432.467ZM432.467 100.441V99.1073H441.8V100.441H437.8V103.107H436.467V100.441H432.467ZM435.133 104.441V103.107H436.467V104.441H435.133ZM437.8 104.441V103.107H439.133V104.441H437.8ZM439.133 104.441H441.8V105.774H439.133V104.441ZM460.467 99.1073H461.8V103.107H463.133V104.441H461.8V108.441H463.133V109.774H461.8V113.774H460.467V99.1073ZM448.467 109.774V101.774H449.8V109.774H448.467ZM451.133 111.107H449.8V109.774H451.133V111.107ZM451.133 112.441V111.107H455.133V112.441H451.133ZM451.133 100.441V101.774H449.8V100.441H451.133ZM451.133 99.1073H455.133V100.441H451.133V99.1073ZM456.467 111.107H455.133V109.774H456.467V111.107ZM456.467 109.774V101.774H457.8V109.774H456.467ZM456.467 100.441V101.774H455.133V100.441H456.467ZM476.467 99.1073H477.8V113.774H476.467V107.107H475.133V113.774H473.8V103.107H464.467V101.774H473.8V99.1073H475.133V105.774H476.467V99.1073ZM467.133 111.107H465.8V105.774H467.133V111.107ZM467.133 112.441V111.107H471.133V112.441H467.133ZM467.133 105.774V104.441H471.133V105.774H467.133ZM467.133 100.441V99.1073H471.133V100.441H467.133ZM472.467 111.107H471.133V105.774H472.467V111.107ZM481.8 99.1073H483.133V109.774H481.8V99.1073ZM481.8 111.107H483.133V113.774H481.8V111.107ZM487.128 99.1073H488.462V109.774H487.128V99.1073ZM487.128 111.107H488.462V113.774H487.128V111.107ZM373.795 125.107H375.128V127.774H376.462V129.107H375.128V133.107H373.795V125.107ZM361.795 133.107V125.107H369.795V126.441H363.128V131.774H369.795V133.107H361.795ZM373.795 138.441V137.107H364.462V138.441H373.795ZM373.795 135.774V134.441H375.128V139.774H363.128V134.441H364.462V135.774H373.795ZM389.795 125.107H391.128V127.774H392.462V129.107H391.128V133.107H389.795V125.107ZM377.795 133.107V125.107H385.795V126.441H379.128V131.774H385.795V133.107H377.795ZM389.795 138.441V137.107H380.462V138.441H389.795ZM389.795 135.774V134.441H391.128V139.774H379.128V134.441H380.462V135.774H389.795ZM405.795 125.107H407.128V129.107H408.462V130.441H407.128V135.774H405.795V125.107ZM393.795 127.774V126.441H397.795V125.107H399.128V126.441H404.462V127.774H401.795V129.107H396.462V127.774H393.795ZM396.462 138.441H407.128V139.774H395.128V134.441H396.462V138.441ZM396.462 133.107V131.774H401.795V133.107H396.462ZM396.462 131.774H395.128V129.107H396.462V131.774ZM401.795 131.774V129.107H403.128V131.774H401.795ZM417.8 125.107H429.8V130.441H431.133V131.774H416.467V130.441H428.467V126.441H417.8V125.107ZM417.8 139.774V135.774H428.467V134.441H417.8V133.107H429.8V137.107H419.133V138.441H429.8V139.774H417.8ZM444.467 125.107H445.8V134.441H440.467V137.107H447.133V138.441H432.467V137.107H439.133V134.441H433.8V125.107H435.133V127.774H444.467V125.107ZM444.467 133.107V129.107H435.133V133.107H444.467ZM460.467 125.107H461.8V131.774H463.133V133.107H461.8V139.774H460.467V125.107ZM448.467 138.441V125.107H457.8V126.441H449.8V137.107H457.8V138.441H448.467ZM464.467 141.107V139.774H465.8V141.107H464.467ZM465.8 139.774V138.441H467.133V139.774H465.8ZM488.467 125.107H489.8V139.774H488.467V125.107ZM476.467 138.441V137.107H487.133V138.441H476.467ZM476.467 134.441V125.107H485.8V126.441H481.8V133.107H485.8V134.441H476.467ZM477.8 133.107H480.467V126.441H477.8V133.107ZM504.467 125.107H505.8V139.774H504.467V131.774H501.8V135.774H500.467V127.774H501.8V130.441H504.467V125.107ZM492.467 135.774V127.774H493.8V135.774H492.467ZM495.133 137.107H493.8V135.774H495.133V137.107ZM495.133 138.441V137.107H499.133V138.441H495.133ZM495.133 126.441V127.774H493.8V126.441H495.133ZM495.133 125.107H499.133V126.441H495.133V125.107ZM500.467 137.107H499.133V135.774H500.467V137.107ZM500.467 126.441V127.774H499.133V126.441H500.467ZM508.467 138.441V137.107H523.133V138.441H508.467ZM520.467 134.441V131.774H521.8V134.441H520.467ZM520.467 131.774H519.133V129.107H520.467V131.774ZM511.133 134.441H509.8V131.774H511.133V134.441ZM511.133 131.774V129.107H512.467V131.774H511.133ZM513.8 131.774V129.107H515.133V131.774H513.8ZM513.8 129.107H512.467V125.107H513.8V129.107ZM516.467 134.441H515.133V131.774H516.467V134.441ZM516.467 131.774V129.107H517.8V131.774H516.467ZM519.133 129.107H517.8V125.107H519.133V129.107ZM536.467 125.107H537.8V139.774H536.467V125.107ZM524.467 138.441V137.107H527.133V138.441H524.467ZM524.467 126.441V125.107H532.467V131.774H531.133V126.441H524.467ZM527.133 137.107V135.774H528.467V137.107H527.133ZM528.467 135.774V134.441H529.8V135.774H528.467ZM529.8 134.441V131.774H531.133V134.441H529.8ZM552.467 125.107H553.8V131.774H555.133V133.107H553.8V139.774H552.467V125.107ZM540.467 138.441V137.107H543.133V138.441H540.467ZM540.467 126.441V125.107H548.467V131.774H547.133V126.441H540.467ZM543.133 137.107V135.774H544.467V137.107H543.133ZM545.8 134.441V135.774H544.467V134.441H545.8ZM545.8 131.774H547.133V134.441H545.8V131.774ZM367.123 151.107H368.456V153.774H369.79V155.107H368.456V157.774H367.123V151.107ZM355.123 157.774V156.441H356.456V157.774H355.123ZM355.123 152.441V151.107H364.456V152.441H360.456V153.774H359.123V152.441H355.123ZM367.123 161.774V160.441H356.456V159.107H368.456V163.107H357.79V164.441H368.456V165.774H356.456V161.774H367.123ZM357.79 156.441H356.456V155.107H357.79V156.441ZM357.79 155.107V153.774H359.123V155.107H357.79ZM360.456 153.774H361.79V155.107H360.456V153.774ZM363.123 156.441H361.79V155.107H363.123V156.441ZM363.123 157.774V156.441H364.456V157.774H363.123ZM389.795 151.107H391.128V161.774H389.795V151.107ZM377.795 159.107V157.774H383.128V156.441H379.128V151.107H387.128V152.441H380.462V155.107H387.128V156.441H384.462V157.774H388.462V159.107H377.795ZM380.462 164.441H391.128V165.774H379.128V160.441H380.462V164.441ZM401.8 151.107H413.8V156.441H415.133V157.774H400.467V156.441H412.467V152.441H401.8V151.107ZM401.8 165.774V161.774H412.467V160.441H401.8V159.107H413.8V163.107H403.133V164.441H413.8V165.774H401.8ZM428.467 151.107H429.8V165.774H428.467V151.107ZM416.467 161.774V153.774H417.8V161.774H416.467ZM419.133 163.107H417.8V161.774H419.133V163.107ZM419.133 164.441V163.107H423.133V164.441H419.133ZM419.133 152.441V153.774H417.8V152.441H419.133ZM419.133 151.107H423.133V152.441H419.133V151.107ZM424.467 163.107H423.133V161.774H424.467V163.107ZM424.467 161.774V153.774H425.8V161.774H424.467ZM424.467 152.441V153.774H423.133V152.441H424.467ZM451.139 151.107H452.472V163.107H441.805V164.441H452.472V165.774H440.472V161.774H451.139V160.441H440.472V159.107H443.139V156.441H439.139V155.107H440.472V153.774H439.139V152.441H443.139V151.107H444.472V152.441H448.472V153.774H447.139V155.107H449.805V156.441H451.139V151.107ZM451.139 159.107V157.774H448.472V156.441H444.472V159.107H451.139ZM441.805 153.774V155.107H445.805V153.774H441.805ZM467.139 151.107H468.472V161.774H467.139V151.107ZM455.139 159.107V157.774H456.472V159.107H455.139ZM457.805 164.441H468.472V165.774H456.472V160.441H457.805V164.441ZM457.805 157.774H456.472V155.107H457.805V157.774ZM457.805 155.107V151.107H459.139V155.107H457.805ZM460.472 159.107H459.139V155.107H460.472V159.107ZM460.472 155.107V151.107H461.805V155.107H460.472ZM463.139 159.107V157.774H464.472V159.107H463.139ZM463.139 157.774H461.805V155.107H463.139V157.774ZM489.811 151.107H491.144V160.441H485.811V163.107H492.477V164.441H477.811V163.107H484.477V160.441H479.144V151.107H480.477V153.774H489.811V151.107ZM489.811 159.107V155.107H480.477V159.107H489.811ZM505.811 151.107H507.144V165.774H505.811V151.107ZM493.811 164.441V163.107H496.477V164.441H493.811ZM493.811 152.441V151.107H501.811V157.774H500.477V152.441H493.811ZM496.477 163.107V161.774H497.811V163.107H496.477ZM497.811 161.774V160.441H499.144V161.774H497.811ZM499.144 160.441V157.774H500.477V160.441H499.144ZM516.482 159.107V157.774H523.149V156.441H524.482V157.774H531.149V159.107H524.482V160.441H529.816V161.774H527.149V163.107H520.482V161.774H517.816V160.441H523.149V159.107H516.482ZM528.482 163.107V164.441H527.149V163.107H528.482ZM519.149 164.441V163.107H520.482V164.441H519.149ZM524.482 152.441V153.774H523.149V152.441H517.816V151.107H529.816V152.441H524.482ZM524.482 153.774H527.149V155.107H524.482V153.774ZM527.149 164.441V165.774H520.482V164.441H527.149ZM527.149 156.441V155.107H529.816V156.441H527.149ZM517.816 156.441V155.107H520.482V156.441H517.816ZM520.482 155.107V153.774H523.149V155.107H520.482ZM544.482 151.107H545.816V165.774H544.482V151.107ZM532.482 164.441V163.107H533.816V164.441H532.482ZM532.482 152.441V151.107H541.816V152.441H537.816V156.441H536.482V152.441H532.482ZM535.149 163.107H533.816V160.441H535.149V163.107ZM535.149 160.441V156.441H536.482V160.441H535.149ZM537.816 160.441V156.441H539.149V160.441H537.816ZM540.482 163.107H539.149V160.441H540.482V163.107ZM540.482 164.441V163.107H541.816V164.441H540.482ZM549.816 151.107H553.816V152.441H549.816V151.107ZM548.482 152.441H549.816V155.107H548.482V152.441ZM551.149 163.107H552.482V165.774H551.149V163.107ZM551.149 161.774V157.774H552.482V161.774H551.149ZM552.482 157.774V156.441H553.816V157.774H552.482ZM553.816 156.441V152.441H555.149V156.441H553.816ZM356.456 177.107H368.456V182.441H356.456V177.107ZM355.123 185.107V183.774H369.79V185.107H363.123V187.774H361.79V185.107H355.123ZM356.456 191.774V186.441H357.79V190.441H368.456V191.774H356.456ZM367.123 178.441H357.79V181.107H367.123V178.441ZM383.123 177.107H384.456V179.774H385.79V181.107H384.456V185.107H383.123V177.107ZM371.123 185.107V183.774H372.456V185.107H371.123ZM371.123 178.441V177.107H380.456V178.441H376.456V181.107H375.123V178.441H371.123ZM383.123 190.441V191.774H373.79V190.441H383.123ZM383.123 186.441V187.774H373.79V186.441H383.123ZM383.123 187.774H384.456V190.441H383.123V187.774ZM373.79 190.441H372.456V187.774H373.79V190.441ZM373.79 182.441V183.774H372.456V182.441H373.79ZM373.79 181.107H375.123V182.441H373.79V181.107ZM376.456 182.441V181.107H377.79V182.441H376.456ZM379.123 185.107V183.774H380.456V185.107H379.123ZM379.123 182.441V183.774H377.79V182.441H379.123ZM399.123 177.107V178.441H389.79V177.107H399.123ZM387.123 183.774V182.441H401.79V183.774H387.123ZM399.123 187.774V186.441H388.456V185.107H400.456V189.107H389.79V190.441H400.456V191.774H388.456V187.774H399.123ZM399.123 178.441H400.456V179.774H399.123V178.441ZM399.123 179.774V181.107H389.79V179.774H399.123ZM389.79 178.441V179.774H388.456V178.441H389.79ZM421.795 177.107H423.128V183.774H424.462V185.107H423.128V191.774H421.795V177.107ZM409.795 190.441V177.107H411.128V189.107H419.128V190.441H409.795ZM437.795 177.107H439.128V191.774H437.795V189.107H433.795V187.774H437.795V177.107ZM427.128 177.107H428.462V182.441H435.128V183.774H427.128V177.107ZM425.795 186.441V185.107H436.462V186.441H431.128V191.774H429.795V186.441H425.795ZM453.795 177.107H455.128V191.774H453.795V183.774H451.128V182.441H453.795V177.107ZM441.795 190.441V189.107H443.128V190.441H441.795ZM444.462 189.107H443.128V186.441H444.462V189.107ZM444.462 186.441V183.774H445.795V186.441H444.462ZM447.128 186.441V183.774H448.462V186.441H447.128ZM447.128 183.774H445.795V177.107H447.128V183.774ZM449.795 189.107H448.462V186.441H449.795V189.107ZM449.795 190.441V189.107H451.128V190.441H449.795ZM476.467 177.107H477.8V179.774H479.133V181.107H477.8V185.107H476.467V177.107ZM464.467 185.107V183.774H468.467V185.107H464.467ZM464.467 178.441V177.107H472.467V181.107H471.133V178.441H464.467ZM476.467 190.441V191.774H467.133V190.441H476.467ZM476.467 186.441V187.774H467.133V186.441H476.467ZM476.467 187.774H477.8V190.441H476.467V187.774ZM467.133 190.441H465.8V187.774H467.133V190.441ZM469.8 182.441V183.774H468.467V182.441H469.8ZM469.8 181.107H471.133V182.441H469.8V181.107ZM480.467 190.441V189.107H487.133V185.107H488.467V189.107H495.133V190.441H480.467ZM485.8 182.441V183.774H484.467V182.441H485.8ZM485.8 181.107H487.133V182.441H485.8V181.107ZM488.467 182.441V181.107H489.8V182.441H488.467ZM488.467 181.107H487.133V178.441H481.8V177.107H493.8V178.441H488.467V181.107ZM491.133 185.107V183.774H493.8V185.107H491.133ZM491.133 182.441V183.774H489.8V182.441H491.133ZM481.8 185.107V183.774H484.467V185.107H481.8ZM508.467 177.107H509.8V183.774H511.133V185.107H509.8V191.774H508.467V177.107ZM496.467 181.107V179.774H507.133V181.107H496.467ZM499.133 189.107H497.8V183.774H499.133V189.107ZM499.133 190.441V189.107H504.467V190.441H499.133ZM499.133 183.774V182.441H504.467V183.774H499.133ZM499.133 178.441V177.107H504.467V178.441H499.133ZM504.467 189.107V183.774H505.8V189.107H504.467ZM512.467 190.441V189.107H519.133V183.774H520.467V189.107H527.133V190.441H512.467ZM513.8 177.107H525.8V186.441H524.467V178.441H513.8V177.107ZM523.133 187.774V186.441H524.467V187.774H523.133ZM547.139 177.107H548.472V185.107H547.139V177.107ZM535.139 185.107V183.774H536.472V185.107H535.139ZM537.805 182.441V183.774H536.472V182.441H537.805ZM537.805 181.107H539.139V182.441H537.805V181.107ZM540.472 190.441H544.472V187.774H540.472V190.441ZM540.472 182.441V181.107H541.805V182.441H540.472ZM540.472 181.107H539.139V177.107H540.472V181.107ZM543.139 185.107V183.774H544.472V185.107H543.139ZM543.139 182.441V183.774H541.805V182.441H543.139ZM545.805 190.441H548.472V191.774H536.472V190.441H539.139V187.774H536.472V186.441H548.472V187.774H545.805V190.441ZM563.139 177.107V178.441H553.805V177.107H563.139ZM551.139 183.774V182.441H565.805V183.774H551.139ZM563.139 187.774V186.441H552.472V185.107H564.472V189.107H553.805V190.441H564.472V191.774H552.472V187.774H563.139ZM563.139 178.441H564.472V179.774H563.139V178.441ZM563.139 179.774V181.107H553.805V179.774H563.139ZM553.805 178.441V179.774H552.472V178.441H553.805ZM355.123 216.441V203.107H363.123V204.441H360.456V215.107H363.123V216.441H355.123ZM365.79 217.774H364.456V203.107H365.79V209.774H367.123V203.107H368.456V217.774H367.123V211.107H365.79V217.774ZM356.456 215.107H359.123V204.441H356.456V215.107ZM371.123 219.107V217.774H372.456V219.107H371.123ZM372.456 217.774V216.441H373.79V217.774H372.456ZM395.123 203.107H396.456V217.774H395.123V211.107H393.79V217.774H392.456V203.107H393.79V209.774H395.123V203.107ZM383.123 216.441V203.107H384.456V215.107H391.123V216.441H383.123ZM411.123 203.107V204.441H401.79V203.107H411.123ZM399.123 211.107V209.774H403.123V208.441H401.79V207.107H411.123V208.441H409.79V209.774H413.79V211.107H399.123ZM411.123 216.441V217.774H401.79V216.441H411.123ZM411.123 212.441V213.774H401.79V212.441H411.123ZM411.123 213.774H412.456V216.441H411.123V213.774ZM411.123 204.441H412.456V207.107H411.123V204.441ZM401.79 216.441H400.456V213.774H401.79V216.441ZM401.79 204.441V207.107H400.456V204.441H401.79ZM404.456 208.441V209.774H408.456V208.441H404.456ZM427.123 203.107V204.441H417.79V203.107H427.123ZM415.123 209.774V208.441H429.79V209.774H415.123ZM427.123 213.774V212.441H416.456V211.107H428.456V215.107H417.79V216.441H428.456V217.774H416.456V213.774H427.123ZM427.123 204.441H428.456V205.774H427.123V204.441ZM427.123 205.774V207.107H417.79V205.774H427.123ZM417.79 204.441V205.774H416.456V204.441H417.79ZM439.128 203.107H451.128V208.441H449.795V204.441H439.128V203.107ZM437.795 211.107V209.774H448.462V208.441H449.795V209.774H452.462V211.107H445.795V217.774H444.462V211.107H437.795ZM465.795 203.107H467.128V208.441H455.128V203.107H456.462V204.441H465.795V203.107ZM453.795 211.107V209.774H468.462V211.107H461.795V213.774H460.462V211.107H453.795ZM465.795 207.107V205.774H456.462V207.107H465.795ZM456.462 216.441H467.128V217.774H455.128V212.441H456.462V216.441ZM481.795 203.107H483.128V209.774H484.462V211.107H483.128V217.774H481.795V203.107ZM469.795 207.107V205.774H480.462V207.107H469.795ZM472.462 215.107H471.128V209.774H472.462V215.107ZM472.462 216.441V215.107H477.795V216.441H472.462ZM472.462 209.774V208.441H477.795V209.774H472.462ZM472.462 204.441V203.107H477.795V204.441H472.462ZM477.795 215.107V209.774H479.128V215.107H477.795ZM485.795 216.441V215.107H492.462V209.774H493.795V215.107H500.462V216.441H485.795ZM487.128 203.107H499.128V212.441H497.795V204.441H487.128V203.107ZM496.462 213.774V212.441H497.795V213.774H496.462ZM520.467 203.107H521.8V211.107H520.467V203.107ZM508.467 211.107V209.774H509.8V211.107H508.467ZM511.133 208.441V209.774H509.8V208.441H511.133ZM511.133 207.107H512.467V208.441H511.133V207.107ZM513.8 216.441H517.8V213.774H513.8V216.441ZM513.8 208.441V207.107H515.133V208.441H513.8ZM513.8 207.107H512.467V203.107H513.8V207.107ZM516.467 211.107V209.774H517.8V211.107H516.467ZM516.467 208.441V209.774H515.133V208.441H516.467ZM519.133 216.441H521.8V217.774H509.8V216.441H512.467V213.774H509.8V212.441H521.8V213.774H519.133V216.441ZM536.467 203.107V204.441H527.133V203.107H536.467ZM524.467 209.774V208.441H539.133V209.774H524.467ZM536.467 213.774V212.441H525.8V211.107H537.8V215.107H527.133V216.441H537.8V217.774H525.8V213.774H536.467ZM536.467 204.441H537.8V205.774H536.467V204.441ZM536.467 205.774V207.107H527.133V205.774H536.467ZM527.133 204.441V205.774H525.8V204.441H527.133ZM547.139 216.441V203.107H555.139V204.441H552.472V215.107H555.139V216.441H547.139ZM557.805 217.774H556.472V203.107H557.805V209.774H559.139V203.107H560.472V217.774H559.139V211.107H557.805V217.774ZM548.472 215.107H551.139V204.441H548.472V215.107ZM367.123 229.107H368.456V243.774H367.123V235.774H364.456V234.441H367.123V229.107ZM355.123 242.441V239.774H356.456V242.441H355.123ZM357.79 239.774H356.456V235.774H357.79V239.774ZM357.79 235.774V229.107H359.123V235.774H357.79ZM360.456 242.441H359.123V235.774H360.456V242.441ZM360.456 235.774V229.107H361.79V235.774H360.456ZM363.123 242.441V239.774H364.456V242.441H363.123ZM363.123 239.774H361.79V235.774H363.123V239.774ZM383.123 229.107H384.456V235.774H385.79V237.107H384.456V243.774H383.123V229.107ZM371.123 242.441V241.107H375.123V237.107H371.123V229.107H372.456V231.774H379.123V229.107H380.456V237.107H376.456V241.107H381.79V242.441H371.123ZM379.123 235.774V233.107H372.456V235.774H379.123ZM388.456 229.107H389.79V239.774H388.456V229.107ZM388.456 241.107H389.79V243.774H388.456V241.107ZM367.123 255.107H368.456V257.774H369.79V259.107H368.456V261.774H367.123V255.107ZM355.123 261.774V260.441H356.456V261.774H355.123ZM355.123 256.441V255.107H364.456V259.107H363.123V256.441H359.123V259.107H357.79V256.441H355.123ZM367.123 265.774V264.441H356.456V263.107H368.456V267.107H357.79V268.441H368.456V269.774H356.456V265.774H367.123ZM357.79 260.441H356.456V259.107H357.79V260.441ZM360.456 261.774V260.441H361.79V261.774H360.456ZM363.123 260.441H361.79V259.107H363.123V260.441ZM372.456 255.107H377.79V260.441H376.456V256.441H372.456V255.107ZM371.123 263.107V261.774H385.79V263.107H371.123ZM372.456 269.774V264.441H384.456V269.774H372.456ZM383.123 268.441V265.774H373.79V268.441H383.123ZM383.123 260.441V256.441H379.123V255.107H384.456V260.441H383.123ZM399.123 255.107H400.456V259.107H401.79V260.441H400.456V265.774H399.123V255.107ZM387.123 257.774V256.441H391.123V255.107H392.456V256.441H397.79V257.774H395.123V259.107H389.79V257.774H387.123ZM389.79 268.441H400.456V269.774H388.456V264.441H389.79V268.441ZM389.79 263.107V261.774H395.123V263.107H389.79ZM389.79 261.774H388.456V259.107H389.79V261.774ZM395.123 261.774V259.107H396.456V261.774H395.123ZM409.795 265.774V264.441H424.462V265.774H417.795V269.774H416.462V265.774H409.795ZM417.795 260.441H420.462V261.774H417.795V260.441ZM417.795 259.107V260.441H416.462V259.107H411.128V257.774H423.128V259.107H417.795ZM420.462 263.107V261.774H423.128V263.107H420.462ZM420.462 256.441H413.795V255.107H420.462V256.441ZM411.128 263.107V261.774H413.795V263.107H411.128ZM413.795 261.774V260.441H416.462V261.774H413.795ZM425.795 268.441V267.107H432.462V264.441H427.128V255.107H439.128V264.441H433.795V267.107H440.462V268.441H425.795ZM437.795 263.107V256.441H428.462V263.107H437.795ZM453.795 255.107H455.128V259.107H456.462V260.441H455.128V265.774H453.795V255.107ZM441.795 263.107V261.774H445.795V259.107H447.128V261.774H452.462V263.107H441.795ZM444.462 268.441H455.128V269.774H443.128V264.441H444.462V268.441ZM449.795 260.441V256.441H443.128V255.107H451.128V260.441H449.795ZM469.795 255.107H471.128V265.774H469.795V255.107ZM457.795 260.441V257.774H459.128V260.441H457.795ZM460.462 268.441H471.128V269.774H459.128V264.441H460.462V268.441ZM460.462 263.107V261.774H463.128V263.107H460.462ZM460.462 260.441V261.774H459.128V260.441H460.462ZM460.462 256.441V257.774H459.128V256.441H460.462ZM460.462 255.107H463.128V256.441H460.462V255.107ZM463.128 261.774V260.441H464.462V261.774H463.128ZM463.128 256.441H464.462V257.774H463.128V256.441ZM465.795 260.441H464.462V257.774H467.128V255.107H468.462V265.774H467.128V259.107H465.795V260.441ZM480.467 263.107V261.774H487.133V260.441H485.8V256.441H481.8V255.107H487.133V259.107H488.467V261.774H495.133V263.107H480.467ZM492.467 269.774V265.774H481.8V264.441H493.8V269.774H492.467ZM492.467 260.441V256.441H488.467V255.107H493.8V260.441H492.467ZM515.139 255.107H516.472V261.774H515.139V255.107ZM503.139 261.774V260.441H505.805V256.441H503.139V255.107H513.805V256.441H511.139V260.441H513.805V261.774H503.139ZM515.139 265.774V264.441H504.472V263.107H516.472V267.107H505.805V268.441H516.472V269.774H504.472V265.774H515.139ZM507.139 260.441H509.805V256.441H507.139V260.441ZM519.139 268.441V267.107H523.139V263.107H529.805V267.107H533.805V268.441H519.139ZM531.139 263.107H529.805V261.774H531.139V263.107ZM531.139 261.774V257.774H532.472V261.774H531.139ZM531.139 256.441V257.774H529.805V256.441H531.139ZM521.805 263.107V261.774H523.139V263.107H521.805ZM521.805 261.774H520.472V257.774H521.805V261.774ZM521.805 257.774V256.441H523.139V257.774H521.805ZM524.472 267.107H528.472V264.441H524.472V267.107ZM529.805 256.441H523.139V255.107H529.805V256.441ZM547.139 255.107H548.472V259.107H549.805V260.441H548.472V265.774H547.139V255.107ZM535.139 257.774V256.441H539.139V255.107H540.472V256.441H545.805V257.774H543.139V259.107H537.805V257.774H535.139ZM537.805 268.441H548.472V269.774H536.472V264.441H537.805V268.441ZM537.805 263.107V261.774H543.139V263.107H537.805ZM537.805 261.774H536.472V259.107H537.805V261.774ZM543.139 261.774V259.107H544.472V261.774H543.139ZM367.123 281.107H368.456V291.774H367.123V281.107ZM355.123 289.107V287.774H357.79V289.107H355.123ZM355.123 285.107V283.774H364.456V285.107H360.456V286.441H359.123V285.107H355.123ZM357.79 294.441H368.456V295.774H356.456V290.441H357.79V294.441ZM357.79 287.774V286.441H359.123V287.774H357.79ZM357.79 282.441V281.107H361.79V282.441H357.79ZM360.456 286.441H361.79V287.774H360.456V286.441ZM361.79 289.107V287.774H364.456V289.107H361.79ZM372.456 281.107H384.456V286.441H383.123V282.441H372.456V281.107ZM371.123 289.107V287.774H381.79V286.441H383.123V287.774H385.79V289.107H379.123V295.774H377.79V289.107H371.123ZM399.123 281.107H400.456V285.107H401.79V286.441H400.456V290.441H401.79V291.774H400.456V295.774H399.123V281.107ZM387.123 291.774V283.774H388.456V291.774H387.123ZM389.79 293.107H388.456V291.774H389.79V293.107ZM389.79 294.441V293.107H393.79V294.441H389.79ZM389.79 282.441V283.774H388.456V282.441H389.79ZM389.79 281.107H393.79V282.441H389.79V281.107ZM395.123 293.107H393.79V291.774H395.123V293.107ZM395.123 291.774V283.774H396.456V291.774H395.123ZM395.123 282.441V283.774H393.79V282.441H395.123ZM404.456 281.107H405.79V291.774H404.456V281.107ZM404.456 293.107H405.79V295.774H404.456V293.107Z" fill="#2E2E2E"/>
</svg>
