<svg width="139" height="124" viewBox="0 0 139 124" fill="none" xmlns="http://www.w3.org/2000/svg">
<g clip-path="url(#clip0_4257_4503)">
<path d="M26.875 0.25H21.25V5.875H26.875V0.25Z" fill="#CB8A9C"/>
<path d="M32.5 0.25H26.875V5.875H32.5V0.25Z" fill="#CB8A9C"/>
<path d="M100 0.25H94.375V5.875H100V0.25Z" fill="#CB8A9C"/>
<path d="M105.625 0.25H100V5.875H105.625V0.25Z" fill="#CB8A9C"/>
<path d="M111.25 0.25H105.625V5.875H111.25V0.25Z" fill="#CB8A9C"/>
<path d="M15.625 5.875H10V11.5H15.625V5.875Z" fill="#CB8A9C"/>
<path d="M21.25 5.875H15.625V11.5H21.25V5.875Z" fill="#F2A8BC"/>
<path d="M26.875 5.875H21.25V11.5H26.875V5.875Z" fill="#F2A8BC"/>
<path d="M32.5 5.875H26.875V11.5H32.5V5.875Z" fill="#F2A8BC"/>
<path d="M38.125 5.875H32.5V11.5H38.125V5.875Z" fill="#CB8A9C"/>
<path d="M55 5.875H49.375V11.5H55V5.875Z" fill="#161723"/>
<path d="M60.625 5.875H55V11.5H60.625V5.875Z" fill="#161723"/>
<path d="M66.248 5.875H60.623V11.5H66.248V5.875Z" fill="#161723"/>
<path d="M71.875 5.875H66.25V11.5H71.875V5.875Z" fill="#161723"/>
<path d="M77.5 5.875H71.875V11.5H77.5V5.875Z" fill="#161723"/>
<path d="M83.125 5.875H77.5V11.5H83.125V5.875Z" fill="#161723"/>
<path d="M88.75 5.875H83.125V11.5H88.75V5.875Z" fill="#161723"/>
<path d="M94.375 5.875H88.75V11.5H94.375V5.875Z" fill="#CB8A9C"/>
<path d="M100 5.875H94.375V11.5H100V5.875Z" fill="#F2A8BC"/>
<path d="M105.625 5.875H100V11.5H105.625V5.875Z" fill="#F2A8BC"/>
<path d="M111.25 5.875H105.625V11.5H111.25V5.875Z" fill="#F2A8BC"/>
<path d="M116.875 5.875H111.25V11.5H116.875V5.875Z" fill="#CB8A9C"/>
<path d="M15.625 11.5H10V17.125H15.625V11.5Z" fill="#CB8A9C"/>
<path d="M21.25 11.5H15.625V17.125H21.25V11.5Z" fill="#F2A8BC"/>
<path d="M26.875 11.5H21.25V17.125H26.875V11.5Z" fill="#F2A8BC"/>
<path d="M32.5 11.5H26.875V17.125H32.5V11.5Z" fill="#CB8A9C"/>
<path d="M43.75 11.5H38.125V17.125H43.75V11.5Z" fill="#161723"/>
<path d="M49.375 11.5H43.75V17.125H49.375V11.5Z" fill="#161723"/>
<path d="M55 11.5H49.375V17.125H55V11.5Z" fill="#323345"/>
<path d="M60.625 11.5H55V17.125H60.625V11.5Z" fill="#323345"/>
<path d="M66.248 11.5H60.623V17.125H66.248V11.5Z" fill="#323345"/>
<path d="M71.875 11.5H66.25V17.125H71.875V11.5Z" fill="#202130"/>
<path d="M77.5 11.5H71.875V17.125H77.5V11.5Z" fill="#202130"/>
<path d="M83.125 11.5H77.5V17.125H83.125V11.5Z" fill="#202130"/>
<path d="M88.75 11.5H83.125V17.125H88.75V11.5Z" fill="#323345"/>
<path d="M94.375 11.5H88.75V17.125H94.375V11.5Z" fill="#323345"/>
<path d="M100 11.5H94.375V17.125H100V11.5Z" fill="#CB8A9C"/>
<path d="M105.625 11.5H100V17.125H105.625V11.5Z" fill="#F2A8BC"/>
<path d="M111.25 11.5H105.625V17.125H111.25V11.5Z" fill="#F2A8BC"/>
<path d="M116.875 11.5H111.25V17.125H116.875V11.5Z" fill="#CB8A9C"/>
<path d="M122.5 11.5H116.875V17.125H122.5V11.5Z" fill="#161723"/>
<path d="M15.625 17.125H10V22.75H15.625V17.125Z" fill="#CB8A9C"/>
<path d="M21.25 17.125H15.625V22.75H21.25V17.125Z" fill="#F2A8BC"/>
<path d="M26.875 17.125H21.25V22.75H26.875V17.125Z" fill="#F2A8BC"/>
<path d="M32.5 17.125H26.875V22.75H32.5V17.125Z" fill="#161723"/>
<path d="M38.125 17.125H32.5V22.75H38.125V17.125Z" fill="#161723"/>
<path d="M43.75 17.125H38.125V22.75H43.75V17.125Z" fill="#323345"/>
<path d="M49.375 17.125H43.75V22.75H49.375V17.125Z" fill="#323345"/>
<path d="M55 17.125H49.375V22.75H55V17.125Z" fill="#202130"/>
<path d="M60.625 17.125H55V22.75H60.625V17.125Z" fill="#323345"/>
<path d="M66.248 17.125H60.623V22.75H66.248V17.125Z" fill="#202130"/>
<path d="M71.875 17.125H66.25V22.75H71.875V17.125Z" fill="#323345"/>
<path d="M77.5 17.125H71.875V22.75H77.5V17.125Z" fill="#323345"/>
<path d="M83.125 17.125H77.5V22.75H83.125V17.125Z" fill="#323345"/>
<path d="M88.75 17.125H83.125V22.75H88.75V17.125Z" fill="#202130"/>
<path d="M94.375 17.125H88.75V22.75H94.375V17.125Z" fill="#202130"/>
<path d="M100 17.125H94.375V22.75H100V17.125Z" fill="#CB8A9C"/>
<path d="M105.625 17.125H100V22.75H105.625V17.125Z" fill="#F2A8BC"/>
<path d="M111.25 17.125H105.625V22.75H111.25V17.125Z" fill="#F2A8BC"/>
<path d="M116.875 17.125H111.25V22.75H116.875V17.125Z" fill="#CB8A9C"/>
<path d="M122.5 17.125H116.875V22.75H122.5V17.125Z" fill="#323345"/>
<path d="M128.125 17.125H122.5V22.75H128.125V17.125Z" fill="#161723"/>
<path d="M15.625 22.75H10V28.375H15.625V22.75Z" fill="#323345"/>
<path d="M21.25 22.75H15.625V28.375H21.25V22.75Z" fill="#CB8A9C"/>
<path d="M26.875 22.75H21.25V28.375H26.875V22.75Z" fill="#202130"/>
<path d="M32.5 22.75H26.875V28.375H32.5V22.75Z" fill="#323345"/>
<path d="M38.125 22.75H32.5V28.375H38.125V22.75Z" fill="#323345"/>
<path d="M43.75 22.75H38.125V28.375H43.75V22.75Z" fill="#323345"/>
<path d="M49.375 22.75H43.75V28.375H49.375V22.75Z" fill="#323345"/>
<path d="M55 22.75H49.375V28.375H55V22.75Z" fill="#323345"/>
<path d="M60.625 22.75H55V28.375H60.625V22.75Z" fill="#323345"/>
<path d="M66.248 22.75H60.623V28.375H66.248V22.75Z" fill="#323345"/>
<path d="M71.875 22.75H66.25V28.375H71.875V22.75Z" fill="#323345"/>
<path d="M77.5 22.75H71.875V28.375H77.5V22.75Z" fill="#323345"/>
<path d="M83.125 22.75H77.5V28.375H83.125V22.75Z" fill="#323345"/>
<path d="M88.75 22.75H83.125V28.375H88.75V22.75Z" fill="#323345"/>
<path d="M94.375 22.75H88.75V28.375H94.375V22.75Z" fill="#323345"/>
<path d="M100 22.75H94.375V28.375H100V22.75Z" fill="#202130"/>
<path d="M105.625 22.75H100V28.375H105.625V22.75Z" fill="#CB8A9C"/>
<path d="M111.25 22.75H105.625V28.375H111.25V22.75Z" fill="#CB8A9C"/>
<path d="M116.875 22.75H111.25V28.375H116.875V22.75Z" fill="#323345"/>
<path d="M122.5 22.75H116.875V28.375H122.5V22.75Z" fill="#323345"/>
<path d="M128.125 22.75H122.5V28.375H128.125V22.75Z" fill="#323345"/>
<path d="M133.75 22.75H128.125V28.375H133.75V22.75Z" fill="#161723"/>
<path d="M21.25 28.375H15.625V34H21.25V28.375Z" fill="#202130"/>
<path d="M26.875 28.375H21.25V34H26.875V28.375Z" fill="#323345"/>
<path d="M32.5 28.375H26.875V34H32.5V28.375Z" fill="#323345"/>
<path d="M38.125 28.375H32.5V34H38.125V28.375Z" fill="#323345"/>
<path d="M43.75 28.375H38.125V34H43.75V28.375Z" fill="#323345"/>
<path d="M49.375 28.375H43.75V34H49.375V28.375Z" fill="#323345"/>
<path d="M55 28.375H49.375V34H55V28.375Z" fill="#323345"/>
<path d="M60.625 28.375H55V34H60.625V28.375Z" fill="#323345"/>
<path d="M66.248 28.375H60.623V34H66.248V28.375Z" fill="#202130"/>
<path d="M71.875 28.375H66.25V34H71.875V28.375Z" fill="#323345"/>
<path d="M77.5 28.375H71.875V34H77.5V28.375Z" fill="#323345"/>
<path d="M83.125 28.375H77.5V34H83.125V28.375Z" fill="#323345"/>
<path d="M88.75 28.375H83.125V34H88.75V28.375Z" fill="#323345"/>
<path d="M94.375 28.375H88.75V34H94.375V28.375Z" fill="#323345"/>
<path d="M100 28.375H94.375V34H100V28.375Z" fill="#323345"/>
<path d="M105.625 28.375H100V34H105.625V28.375Z" fill="#CB8A9C"/>
<path d="M111.25 28.375H105.625V34H111.25V28.375Z" fill="#CB8A9C"/>
<path d="M116.875 28.375H111.25V34H116.875V28.375Z" fill="#323345"/>
<path d="M122.5 28.375H116.875V34H122.5V28.375Z" fill="#323345"/>
<path d="M128.125 28.375H122.5V34H128.125V28.375Z" fill="#323345"/>
<path d="M133.75 28.375H128.125V34H133.75V28.375Z" fill="#323345"/>
<path d="M139.377 28.375H133.752V34H139.377V28.375Z" fill="#161723"/>
<path d="M15.625 33.9995H10V39.6245H15.625V33.9995Z" fill="#202130"/>
<path d="M21.25 33.9995H15.625V39.6245H21.25V33.9995Z" fill="#323345"/>
<path d="M26.875 33.9995H21.25V39.6245H26.875V33.9995Z" fill="#323345"/>
<path d="M32.5 33.9995H26.875V39.6245H32.5V33.9995Z" fill="#323345"/>
<path d="M38.125 33.9995H32.5V39.6245H38.125V33.9995Z" fill="#323345"/>
<path d="M43.75 33.9995H38.125V39.6245H43.75V33.9995Z" fill="#202130"/>
<path d="M49.375 33.9995H43.75V39.6245H49.375V33.9995Z" fill="#323345"/>
<path d="M55 33.9995H49.375V39.6245H55V33.9995Z" fill="#323345"/>
<path d="M60.625 33.9995H55V39.6245H60.625V33.9995Z" fill="#323345"/>
<path d="M66.248 33.9995H60.623V39.6245H66.248V33.9995Z" fill="#323345"/>
<path d="M71.875 33.9995H66.25V39.6245H71.875V33.9995Z" fill="#202130"/>
<path d="M77.5 33.9995H71.875V39.6245H77.5V33.9995Z" fill="#323345"/>
<path d="M83.125 33.9995H77.5V39.6245H83.125V33.9995Z" fill="#323345"/>
<path d="M88.75 33.9995H83.125V39.6245H88.75V33.9995Z" fill="#323345"/>
<path d="M94.375 33.9995H88.75V39.6245H94.375V33.9995Z" fill="#323345"/>
<path d="M100 33.9995H94.375V39.6245H100V33.9995Z" fill="#323345"/>
<path d="M105.625 33.9995H100V39.6245H105.625V33.9995Z" fill="#CB8A9C"/>
<path d="M111.25 33.9995H105.625V39.6245H111.25V33.9995Z" fill="#F2A8BC"/>
<path d="M116.875 33.9995H111.25V39.6245H116.875V33.9995Z" fill="#CB8A9C"/>
<path d="M122.5 33.9995H116.875V39.6245H122.5V33.9995Z" fill="#323345"/>
<path d="M128.125 33.9995H122.5V39.6245H128.125V33.9995Z" fill="#323345"/>
<path d="M133.75 33.9995H128.125V39.6245H133.75V33.9995Z" fill="#323345"/>
<path d="M139.377 33.9995H133.752V39.6245H139.377V33.9995Z" fill="#161723"/>
<path d="M10 39.625H4.375V45.25H10V39.625Z" fill="#161723"/>
<path d="M15.625 39.625H10V45.25H15.625V39.625Z" fill="#202130"/>
<path d="M21.25 39.625H15.625V45.25H21.25V39.625Z" fill="#323345"/>
<path d="M26.875 39.625H21.25V45.25H26.875V39.625Z" fill="#323345"/>
<path d="M32.5 39.625H26.875V45.25H32.5V39.625Z" fill="#323345"/>
<path d="M38.125 39.625H32.5V45.25H38.125V39.625Z" fill="#202130"/>
<path d="M43.75 39.625H38.125V45.25H43.75V39.625Z" fill="#323345"/>
<path d="M49.375 39.625H43.75V45.25H49.375V39.625Z" fill="#323345"/>
<path d="M55 39.625H49.375V45.25H55V39.625Z" fill="#323345"/>
<path d="M60.625 39.625H55V45.25H60.625V39.625Z" fill="#323345"/>
<path d="M66.248 39.625H60.623V45.25H66.248V39.625Z" fill="#323345"/>
<path d="M71.875 39.625H66.25V45.25H71.875V39.625Z" fill="#202130"/>
<path d="M77.5 39.625H71.875V45.25H77.5V39.625Z" fill="#323345"/>
<path d="M83.125 39.625H77.5V45.25H83.125V39.625Z" fill="#F6F6F6"/>
<path d="M88.75 39.625H83.125V45.25H88.75V39.625Z" fill="#F6F6F6"/>
<path d="M94.375 39.625H88.75V45.25H94.375V39.625Z" fill="#F6F6F6"/>
<path d="M100 39.625H94.375V45.25H100V39.625Z" fill="#323345"/>
<path d="M105.625 39.625H100V45.25H105.625V39.625Z" fill="#CB8A9C"/>
<path d="M111.25 39.625H105.625V45.25H111.25V39.625Z" fill="#F2A8BC"/>
<path d="M116.875 39.625H111.25V45.25H116.875V39.625Z" fill="#F2A8BC"/>
<path d="M122.5 39.625H116.875V45.25H122.5V39.625Z" fill="#CB8A9C"/>
<path d="M128.125 39.625H122.5V45.25H128.125V39.625Z" fill="#323345"/>
<path d="M133.75 39.625H128.125V45.25H133.75V39.625Z" fill="#323345"/>
<path d="M139.377 39.625H133.752V45.25H139.377V39.625Z" fill="#161723"/>
<path d="M10 45.25H4.375V50.875H10V45.25Z" fill="#161723"/>
<path d="M15.625 45.25H10V50.875H15.625V45.25Z" fill="#323345"/>
<path d="M21.25 45.25H15.625V50.875H21.25V45.25Z" fill="#323345"/>
<path d="M26.875 45.25H21.25V50.875H26.875V45.25Z" fill="#323345"/>
<path d="M32.5 45.25H26.875V50.875H32.5V45.25Z" fill="#323345"/>
<path d="M38.125 45.25H32.5V50.875H38.125V45.25Z" fill="#202130"/>
<path d="M43.75 45.25H38.125V50.875H43.75V45.25Z" fill="#323345"/>
<path d="M49.375 45.25H43.75V50.875H49.375V45.25Z" fill="#323345"/>
<path d="M55 45.25H49.375V50.875H55V45.25Z" fill="#323345"/>
<path d="M60.625 45.25H55V50.875H60.625V45.25Z" fill="#323345"/>
<path d="M66.248 45.25H60.623V50.875H66.248V45.25Z" fill="#323345"/>
<path d="M71.875 45.25H66.25V50.875H71.875V45.25Z" fill="#202130"/>
<path d="M77.5 45.25H71.875V50.875H77.5V45.25Z" fill="#323345"/>
<path d="M83.125 45.25H77.5V50.875H83.125V45.25Z" fill="#F6F6F6"/>
<path d="M88.75 45.25H83.125V50.875H88.75V45.25Z" fill="#F6F6F6"/>
<path d="M94.375 45.25H88.75V50.875H94.375V45.25Z" fill="#F6F6F6"/>
<path d="M100 45.25H94.375V50.875H100V45.25Z" fill="#323345"/>
<path d="M105.625 45.25H100V50.875H105.625V45.25Z" fill="#202130"/>
<path d="M111.25 45.25H105.625V50.875H111.25V45.25Z" fill="#CB8A9C"/>
<path d="M116.875 45.25H111.25V50.875H116.875V45.25Z" fill="#F2A8BC"/>
<path d="M122.5 45.25H116.875V50.875H122.5V45.25Z" fill="#F2A8BC"/>
<path d="M128.125 45.25H122.5V50.875H128.125V45.25Z" fill="#CB8A9C"/>
<path d="M133.75 45.25H128.125V50.875H133.75V45.25Z" fill="#323345"/>
<path d="M139.377 45.25H133.752V50.875H139.377V45.25Z" fill="#161723"/>
<path d="M10 50.875H4.375V56.5H10V50.875Z" fill="#161723"/>
<path d="M15.625 50.875H10V56.5H15.625V50.875Z" fill="#323345"/>
<path d="M21.25 50.875H15.625V56.5H21.25V50.875Z" fill="#323345"/>
<path d="M26.875 50.875H21.25V56.5H26.875V50.875Z" fill="#323345"/>
<path d="M32.5 50.875H26.875V56.5H32.5V50.875Z" fill="#323345"/>
<path d="M38.125 50.875H32.5V56.5H38.125V50.875Z" fill="#202130"/>
<path d="M43.75 50.875H38.125V56.5H43.75V50.875Z" fill="#323345"/>
<path d="M49.375 50.875H43.75V56.5H49.375V50.875Z" fill="#323345"/>
<path d="M55 50.875H49.375V56.5H55V50.875Z" fill="#323345"/>
<path d="M60.625 50.875H55V56.5H60.625V50.875Z" fill="#323345"/>
<path d="M66.248 50.875H60.623V56.5H66.248V50.875Z" fill="#323345"/>
<path d="M71.875 50.875H66.25V56.5H71.875V50.875Z" fill="#202130"/>
<path d="M77.5 50.875H71.875V56.5H77.5V50.875Z" fill="#323345"/>
<path d="M83.125 50.875H77.5V56.5H83.125V50.875Z" fill="#F6F6F6"/>
<path d="M88.75 50.875H83.125V56.5H88.75V50.875Z" fill="#F6F6F6"/>
<path d="M94.375 50.875H88.75V56.5H94.375V50.875Z" fill="#323345"/>
<path d="M100 50.875H94.375V56.5H100V50.875Z" fill="#323345"/>
<path d="M105.625 50.875H100V56.5H105.625V50.875Z" fill="#202130"/>
<path d="M111.25 50.875H105.625V56.5H111.25V50.875Z" fill="#CB8A9C"/>
<path d="M116.875 50.875H111.25V56.5H116.875V50.875Z" fill="#F2A8BC"/>
<path d="M122.5 50.875H116.875V56.5H122.5V50.875Z" fill="#F2A8BC"/>
<path d="M128.125 50.875H122.5V56.5H128.125V50.875Z" fill="#CB8A9C"/>
<path d="M133.75 50.875H128.125V56.5H133.75V50.875Z" fill="#161723"/>
<path d="M10 56.5H4.375V62.125H10V56.5Z" fill="#161723"/>
<path d="M15.625 56.5H10V62.125H15.625V56.5Z" fill="#323345"/>
<path d="M21.25 56.5H15.625V62.125H21.25V56.5Z" fill="#323345"/>
<path d="M26.875 56.5H21.25V62.125H26.875V56.5Z" fill="#323345"/>
<path d="M32.5 56.5H26.875V62.125H32.5V56.5Z" fill="#202130"/>
<path d="M38.125 56.5H32.5V62.125H38.125V56.5Z" fill="#202130"/>
<path d="M43.75 56.5H38.125V62.125H43.75V56.5Z" fill="#323345"/>
<path d="M49.375 56.5H43.75V62.125H49.375V56.5Z" fill="#323345"/>
<path d="M55 56.5H49.375V62.125H55V56.5Z" fill="#323345"/>
<path d="M60.625 56.5H55V62.125H60.625V56.5Z" fill="#323345"/>
<path d="M66.248 56.5H60.623V62.125H66.248V56.5Z" fill="#323345"/>
<path d="M71.875 56.5H66.25V62.125H71.875V56.5Z" fill="#202130"/>
<path d="M77.5 56.5H71.875V62.125H77.5V56.5Z" fill="#202130"/>
<path d="M83.125 56.5H77.5V62.125H83.125V56.5Z" fill="#323345"/>
<path d="M88.75 56.5H83.125V62.125H88.75V56.5Z" fill="#202130"/>
<path d="M94.375 56.5H88.75V62.125H94.375V56.5Z" fill="#323345"/>
<path d="M100 56.5H94.375V62.125H100V56.5Z" fill="#323345"/>
<path d="M105.625 56.5H100V62.125H105.625V56.5Z" fill="#202130"/>
<path d="M111.25 56.5H105.625V62.125H111.25V56.5Z" fill="#202130"/>
<path d="M116.875 56.5H111.25V62.125H116.875V56.5Z" fill="#CB8A9C"/>
<path d="M122.5 56.5H116.875V62.125H122.5V56.5Z" fill="#CB8A9C"/>
<path d="M128.125 56.5H122.5V62.125H128.125V56.5Z" fill="#323345"/>
<path d="M133.75 56.5H128.125V62.125H133.75V56.5Z" fill="#161723"/>
<path d="M10 62.125H4.375V67.75H10V62.125Z" fill="#161723"/>
<path d="M15.625 62.125H10V67.75H15.625V62.125Z" fill="#323345"/>
<path d="M21.25 62.125H15.625V67.75H21.25V62.125Z" fill="#323345"/>
<path d="M26.875 62.125H21.25V67.75H26.875V62.125Z" fill="#202130"/>
<path d="M32.5 62.125H26.875V67.75H32.5V62.125Z" fill="#FFF5F3"/>
<path d="M38.125 62.125H32.5V67.75H38.125V62.125Z" fill="#FFF5F3"/>
<path d="M43.75 62.125H38.125V67.75H43.75V62.125Z" fill="#202130"/>
<path d="M49.375 62.125H43.75V67.75H49.375V62.125Z" fill="#323345"/>
<path d="M55 62.125H49.375V67.75H55V62.125Z" fill="#323345"/>
<path d="M60.625 62.125H55V67.75H60.625V62.125Z" fill="#323345"/>
<path d="M66.248 62.125H60.623V67.75H66.248V62.125Z" fill="#202130"/>
<path d="M71.875 62.125H66.25V67.75H71.875V62.125Z" fill="#FFF5F3"/>
<path d="M77.5 62.125H71.875V67.75H77.5V62.125Z" fill="#FFF5F3"/>
<path d="M83.125 62.125H77.5V67.75H83.125V62.125Z" fill="#202130"/>
<path d="M88.75 62.125H83.125V67.75H88.75V62.125Z" fill="#202130"/>
<path d="M94.375 62.125H88.75V67.75H94.375V62.125Z" fill="#323345"/>
<path d="M100 62.125H94.375V67.75H100V62.125Z" fill="#323345"/>
<path d="M105.625 62.125H100V67.75H105.625V62.125Z" fill="#202130"/>
<path d="M111.25 62.125H105.625V67.75H111.25V62.125Z" fill="#202130"/>
<path d="M116.875 62.125H111.25V67.75H116.875V62.125Z" fill="#323345"/>
<path d="M122.5 62.125H116.875V67.75H122.5V62.125Z" fill="#323345"/>
<path d="M128.125 62.125H122.5V67.75H128.125V62.125Z" fill="#161723"/>
<path d="M133.75 62.125H128.125V67.75H133.75V62.125Z" fill="#161723"/>
<path d="M10 67.75H4.375V73.375H10V67.75Z" fill="#161723"/>
<path d="M15.625 67.75H10V73.375H15.625V67.75Z" fill="#202130"/>
<path d="M21.25 67.75H15.625V73.375H21.25V67.75Z" fill="#323345"/>
<path d="M26.875 67.75H21.25V73.375H26.875V67.75Z" fill="#202130"/>
<path d="M32.5 67.75H26.875V73.375H32.5V67.75Z" fill="#1A080D"/>
<path d="M38.125 67.75H32.5V73.375H38.125V67.75Z" fill="#1A080D"/>
<path d="M43.75 67.75H38.125V73.375H43.75V67.75Z" fill="#1A080D"/>
<path d="M49.375 67.75H43.75V73.375H49.375V67.75Z" fill="#202130"/>
<path d="M55 67.75H49.375V73.375H55V67.75Z" fill="#202130"/>
<path d="M60.625 67.75H55V73.375H60.625V67.75Z" fill="#202130"/>
<path d="M66.248 67.75H60.623V73.375H66.248V67.75Z" fill="#1A080D"/>
<path d="M71.875 67.75H66.25V73.375H71.875V67.75Z" fill="#1A080D"/>
<path d="M77.5 67.75H71.875V73.375H77.5V67.75Z" fill="#1A080D"/>
<path d="M83.125 67.75H77.5V73.375H83.125V67.75Z" fill="#FFF5F3"/>
<path d="M88.75 67.75H83.125V73.375H88.75V67.75Z" fill="#202130"/>
<path d="M94.375 67.75H88.75V73.375H94.375V67.75Z" fill="#323345"/>
<path d="M100 67.75H94.375V73.375H100V67.75Z" fill="#323345"/>
<path d="M105.625 67.75H100V73.375H105.625V67.75Z" fill="#202130"/>
<path d="M111.25 67.75H105.625V73.375H111.25V67.75Z" fill="#202130"/>
<path d="M116.875 67.75H111.25V73.375H116.875V67.75Z" fill="#323345"/>
<path d="M122.5 67.75H116.875V73.375H122.5V67.75Z" fill="#323345"/>
<path d="M128.125 67.75H122.5V73.375H128.125V67.75Z" fill="#323345"/>
<path d="M133.75 67.75H128.125V73.375H133.75V67.75Z" fill="#161723"/>
<path d="M15.625 73.375H10V79H15.625V73.375Z" fill="#161723"/>
<path d="M21.25 73.375H15.625V79H21.25V73.375Z" fill="#202130"/>
<path d="M26.875 73.375H21.25V79H26.875V73.375Z" fill="#1A080D"/>
<path d="M32.5 73.375H26.875V79H32.5V73.375Z" fill="#D8CED1"/>
<path d="M38.125 73.375H32.5V79H38.125V73.375Z" fill="#FFF3F6"/>
<path d="M43.75 73.375H38.125V79H43.75V73.375Z" fill="#B1657A"/>
<path d="M49.375 73.375H43.75V79H49.375V73.375Z" fill="#FFF5F3"/>
<path d="M55 73.375H49.375V79H55V73.375Z" fill="#FFF5F3"/>
<path d="M60.625 73.375H55V79H60.625V73.375Z" fill="#FFF5F3"/>
<path d="M66.248 73.375H60.623V79H66.248V73.375Z" fill="#D8CED1"/>
<path d="M71.875 73.375H66.25V79H71.875V73.375Z" fill="#FFF3F6"/>
<path d="M77.5 73.375H71.875V79H77.5V73.375Z" fill="#B1657A"/>
<path d="M83.125 73.375H77.5V79H83.125V73.375Z" fill="#1A080D"/>
<path d="M88.75 73.375H83.125V79H88.75V73.375Z" fill="#202130"/>
<path d="M94.375 73.375H88.75V79H94.375V73.375Z" fill="#323345"/>
<path d="M100 73.375H94.375V79H100V73.375Z" fill="#202130"/>
<path d="M105.625 73.375H100V79H105.625V73.375Z" fill="#323345"/>
<path d="M111.25 73.375H105.625V79H111.25V73.375Z" fill="#202130"/>
<path d="M116.875 73.375H111.25V79H116.875V73.375Z" fill="#161723"/>
<path d="M122.5 73.375H116.875V79H122.5V73.375Z" fill="#323345"/>
<path d="M128.125 73.375H122.5V79H128.125V73.375Z" fill="#323345"/>
<path d="M133.75 73.375H128.125V79H133.75V73.375Z" fill="#323345"/>
<path d="M139.377 73.375H133.752V79H139.377V73.375Z" fill="#161723"/>
<path d="M10 79H4.375V84.625H10V79Z" fill="#161723"/>
<path d="M15.625 79H10V84.625H15.625V79Z" fill="#161723"/>
<path d="M21.25 79H15.625V84.625H21.25V79Z" fill="#323345"/>
<path d="M26.875 79H21.25V84.625H26.875V79Z" fill="#1A080D"/>
<path d="M32.5 79H26.875V84.625H32.5V79Z" fill="#FFEBF1"/>
<path d="M38.125 79H32.5V84.625H38.125V79Z" fill="#B1657A"/>
<path d="M43.75 79H38.125V84.625H43.75V79Z" fill="#CB8A9C"/>
<path d="M49.375 79H43.75V84.625H49.375V79Z" fill="#FFF5F3"/>
<path d="M55 79H49.375V84.625H55V79Z" fill="#FFF5F3"/>
<path d="M60.625 79H55V84.625H60.625V79Z" fill="#FFF5F3"/>
<path d="M66.248 79H60.623V84.625H66.248V79Z" fill="#FFEBF1"/>
<path d="M71.875 79H66.25V84.625H71.875V79Z" fill="#B1657A"/>
<path d="M77.5 79H71.875V84.625H77.5V79Z" fill="#CB8A9C"/>
<path d="M83.125 79H77.5V84.625H83.125V79Z" fill="#1A080D"/>
<path d="M88.75 79H83.125V84.625H88.75V79Z" fill="#202130"/>
<path d="M94.375 79H88.75V84.625H94.375V79Z" fill="#323345"/>
<path d="M100 79H94.375V84.625H100V79Z" fill="#202130"/>
<path d="M105.625 79H100V84.625H105.625V79Z" fill="#202130"/>
<path d="M116.875 79H111.25V84.625H116.875V79Z" fill="#161723"/>
<path d="M122.5 79H116.875V84.625H122.5V79Z" fill="#323345"/>
<path d="M128.125 79H122.5V84.625H128.125V79Z" fill="#323345"/>
<path d="M133.75 79H128.125V84.625H133.75V79Z" fill="#323345"/>
<path d="M139.377 79H133.752V84.625H139.377V79Z" fill="#161723"/>
<path d="M10 84.625H4.375V90.25H10V84.625Z" fill="#161723"/>
<path d="M15.625 84.625H10V90.25H15.625V84.625Z" fill="#161723"/>
<path d="M21.25 84.625H15.625V90.25H21.25V84.625Z" fill="#323345"/>
<path d="M26.875 84.625H21.25V90.25H26.875V84.625Z" fill="#FFF5F3"/>
<path d="M32.5 84.625H26.875V90.25H32.5V84.625Z" fill="#FFEBF1"/>
<path d="M38.125 84.625H32.5V90.25H38.125V84.625Z" fill="#CB8A9C"/>
<path d="M43.75 84.625H38.125V90.25H43.75V84.625Z" fill="#E5BBC6"/>
<path d="M49.375 84.625H43.75V90.25H49.375V84.625Z" fill="#FFF5F3"/>
<path d="M55 84.625H49.375V90.25H55V84.625Z" fill="#FFF5F3"/>
<path d="M60.625 84.625H55V90.25H60.625V84.625Z" fill="#FFF5F3"/>
<path d="M66.248 84.625H60.623V90.25H66.248V84.625Z" fill="#FFEBF1"/>
<path d="M71.875 84.625H66.25V90.25H71.875V84.625Z" fill="#CB8A9C"/>
<path d="M77.5 84.625H71.875V90.25H77.5V84.625Z" fill="#E5BBC6"/>
<path d="M83.125 84.625H77.5V90.25H83.125V84.625Z" fill="#202130"/>
<path d="M88.75 84.625H83.125V90.25H88.75V84.625Z" fill="#323345"/>
<path d="M94.375 84.625H88.75V90.25H94.375V84.625Z" fill="#202130"/>
<path d="M100 84.625H94.375V90.25H100V84.625Z" fill="#202130"/>
<path d="M111.25 84.625H105.625V90.25H111.25V84.625Z" fill="#161723"/>
<path d="M116.875 84.625H111.25V90.25H116.875V84.625Z" fill="#323345"/>
<path d="M122.5 84.625H116.875V90.25H122.5V84.625Z" fill="#323345"/>
<path d="M128.125 84.625H122.5V90.25H128.125V84.625Z" fill="#323345"/>
<path d="M133.75 84.625H128.125V90.25H133.75V84.625Z" fill="#323345"/>
<path d="M139.377 84.625H133.752V90.25H139.377V84.625Z" fill="#161723"/>
<path d="M10 90.25H4.375V95.875H10V90.25Z" fill="#161723"/>
<path d="M15.625 90.25H10V95.875H15.625V90.25Z" fill="#323345"/>
<path d="M21.25 90.25H15.625V95.875H21.25V90.25Z" fill="#323345"/>
<path d="M26.875 90.25H21.25V95.875H26.875V90.25Z" fill="#323345"/>
<path d="M32.5 90.25H26.875V95.875H32.5V90.25Z" fill="#FFF5F3"/>
<path d="M38.125 90.25H32.5V95.875H38.125V90.25Z" fill="#FFF5F3"/>
<path d="M43.75 90.25H38.125V95.875H43.75V90.25Z" fill="#FFF5F3"/>
<path d="M49.375 90.25H43.75V95.875H49.375V90.25Z" fill="#FFF5F3"/>
<path d="M55 90.25H49.375V95.875H55V90.25Z" fill="#FFF5F3"/>
<path d="M60.625 90.25H55V95.875H60.625V90.25Z" fill="#FFF5F3"/>
<path d="M66.248 90.25H60.623V95.875H66.248V90.25Z" fill="#FFF5F3"/>
<path d="M71.875 90.25H66.25V95.875H71.875V90.25Z" fill="#FFF5F3"/>
<path d="M77.5 90.25H71.875V95.875H77.5V90.25Z" fill="#FFF5F3"/>
<path d="M83.125 90.25H77.5V95.875H83.125V90.25Z" fill="#202130"/>
<path d="M88.75 90.25H83.125V95.875H88.75V90.25Z" fill="#202130"/>
<path d="M111.25 90.25H105.625V95.875H111.25V90.25Z" fill="#161723"/>
<path d="M116.875 90.25H111.25V95.875H116.875V90.25Z" fill="#323345"/>
<path d="M122.5 90.25H116.875V95.875H122.5V90.25Z" fill="#323345"/>
<path d="M128.125 90.25H122.5V95.875H128.125V90.25Z" fill="#323345"/>
<path d="M133.75 90.25H128.125V95.875H133.75V90.25Z" fill="#323345"/>
<path d="M139.377 90.25H133.752V95.875H139.377V90.25Z" fill="#161723"/>
<path d="M10 95.875H4.375V101.5H10V95.875Z" fill="#161723"/>
<path d="M15.625 95.875H10V101.5H15.625V95.875Z" fill="#323345"/>
<path d="M21.25 95.875H15.625V101.5H21.25V95.875Z" fill="#323345"/>
<path d="M26.875 95.875H21.25V101.5H26.875V95.875Z" fill="#323345"/>
<path d="M32.5 95.875H26.875V101.5H32.5V95.875Z" fill="#323345"/>
<path d="M38.125 95.875H32.5V101.5H38.125V95.875Z" fill="#323345"/>
<path d="M43.75 95.875H38.125V101.5H43.75V95.875Z" fill="#CB8A9C"/>
<path d="M49.375 95.875H43.75V101.5H49.375V95.875Z" fill="#F2A8BC"/>
<path d="M55 95.875H49.375V101.5H55V95.875Z" fill="#CB8A9C"/>
<path d="M60.625 95.875H55V101.5H60.625V95.875Z" fill="#E1CFCC"/>
<path d="M66.248 95.875H60.623V101.5H66.248V95.875Z" fill="#E1CFCC"/>
<path d="M71.875 95.875H66.25V101.5H71.875V95.875Z" fill="#CB8A9C"/>
<path d="M77.5 95.875H71.875V101.5H77.5V95.875Z" fill="#F2A8BC"/>
<path d="M83.125 95.875H77.5V101.5H83.125V95.875Z" fill="#F2A8BC"/>
<path d="M88.75 95.875H83.125V101.5H88.75V95.875Z" fill="#412C32"/>
<path d="M111.25 95.875H105.625V101.5H111.25V95.875Z" fill="#161723"/>
<path d="M116.875 95.875H111.25V101.5H116.875V95.875Z" fill="#323345"/>
<path d="M122.5 95.875H116.875V101.5H122.5V95.875Z" fill="#323345"/>
<path d="M128.125 95.875H122.5V101.5H128.125V95.875Z" fill="#323345"/>
<path d="M133.75 95.875H128.125V101.5H133.75V95.875Z" fill="#323345"/>
<path d="M139.377 95.875H133.752V101.5H139.377V95.875Z" fill="#161723"/>
<path d="M4.375 101.5H-1.25V107.125H4.375V101.5Z" fill="#161723"/>
<path d="M10 101.5H4.375V107.125H10V101.5Z" fill="#323345"/>
<path d="M15.625 101.5H10V107.125H15.625V101.5Z" fill="#323345"/>
<path d="M21.25 101.5H15.625V107.125H21.25V101.5Z" fill="#323345"/>
<path d="M26.875 101.5H21.25V107.125H26.875V101.5Z" fill="#323345"/>
<path d="M32.5 101.5H26.875V107.125H32.5V101.5Z" fill="#323345"/>
<path d="M38.125 101.5H32.5V107.125H38.125V101.5Z" fill="#CB8A9C"/>
<path d="M43.75 101.5H38.125V107.125H43.75V101.5Z" fill="#F2A8BC"/>
<path d="M49.375 101.5H43.75V107.125H49.375V101.5Z" fill="#161723"/>
<path d="M55 101.5H49.375V107.125H55V101.5Z" fill="#161723"/>
<path d="M60.625 101.5H55V107.125H60.625V101.5Z" fill="#CB8A9C"/>
<path d="M66.248 101.5H60.623V107.125H66.248V101.5Z" fill="#CB8A9C"/>
<path d="M71.875 101.5H66.25V107.125H71.875V101.5Z" fill="#161723"/>
<path d="M77.5 101.5H71.875V107.125H77.5V101.5Z" fill="#161723"/>
<path d="M83.125 101.5H77.5V107.125H83.125V101.5Z" fill="#F2A8BC"/>
<path d="M88.75 101.5H83.125V107.125H88.75V101.5Z" fill="#F2A8BC"/>
<path d="M94.375 101.5H88.75V107.125H94.375V101.5Z" fill="#412C32"/>
<path d="M105.625 101.5H100V107.125H105.625V101.5Z" fill="#161723"/>
<path d="M111.25 101.5H105.625V107.125H111.25V101.5Z" fill="#323345"/>
<path d="M116.875 101.5H111.25V107.125H116.875V101.5Z" fill="#323345"/>
<path d="M122.5 101.5H116.875V107.125H122.5V101.5Z" fill="#323345"/>
<path d="M128.125 101.5H122.5V107.125H128.125V101.5Z" fill="#323345"/>
<path d="M133.75 101.5H128.125V107.125H133.75V101.5Z" fill="#323345"/>
<path d="M139.377 101.5H133.752V107.125H139.377V101.5Z" fill="#161723"/>
<path d="M4.375 107.125H-1.25V112.75H4.375V107.125Z" fill="#161723"/>
<path d="M10 107.125H4.375V112.75H10V107.125Z" fill="#323345"/>
<path d="M15.625 107.125H10V112.75H15.625V107.125Z" fill="#323345"/>
<path d="M21.25 107.125H15.625V112.75H21.25V107.125Z" fill="#323345"/>
<path d="M26.875 107.125H21.25V112.75H26.875V107.125Z" fill="#323345"/>
<path d="M32.5 107.125H26.875V112.75H32.5V107.125Z" fill="#323345"/>
<path d="M38.125 107.125H32.5V112.75H38.125V107.125Z" fill="#CB8A9C"/>
<path d="M43.75 107.125H38.125V112.75H43.75V107.125Z" fill="#F2A8BC"/>
<path d="M49.375 107.125H43.75V112.75H49.375V107.125Z" fill="#161723"/>
<path d="M55 107.125H49.375V112.75H55V107.125Z" fill="#2A2B38"/>
<path d="M60.625 107.125H55V112.75H60.625V107.125Z" fill="#161723"/>
<path d="M66.248 107.125H60.623V112.75H66.248V107.125Z" fill="#161723"/>
<path d="M71.875 107.125H66.25V112.75H71.875V107.125Z" fill="#2A2B38"/>
<path d="M77.5 107.125H71.875V112.75H77.5V107.125Z" fill="#161723"/>
<path d="M83.125 107.125H77.5V112.75H83.125V107.125Z" fill="#F2A8BC"/>
<path d="M88.75 107.125H83.125V112.75H88.75V107.125Z" fill="#F2A8BC"/>
<path d="M94.375 107.125H88.75V112.75H94.375V107.125Z" fill="#412C32"/>
<path d="M105.625 107.125H100V112.75H105.625V107.125Z" fill="#161723"/>
<path d="M111.25 107.125H105.625V112.75H111.25V107.125Z" fill="#323345"/>
<path d="M116.875 107.125H111.25V112.75H116.875V107.125Z" fill="#323345"/>
<path d="M122.5 107.125H116.875V112.75H122.5V107.125Z" fill="#323345"/>
<path d="M128.125 107.125H122.5V112.75H128.125V107.125Z" fill="#323345"/>
<path d="M133.75 107.125H128.125V112.75H133.75V107.125Z" fill="#323345"/>
<path d="M139.377 107.125H133.752V112.75H139.377V107.125Z" fill="#161723"/>
<path d="M4.375 112.75H-1.25V118.375H4.375V112.75Z" fill="#161723"/>
<path d="M10 112.75H4.375V118.375H10V112.75Z" fill="#161723"/>
<path d="M15.625 112.75H10V118.375H15.625V112.75Z" fill="#161723"/>
<path d="M21.25 112.75H15.625V118.375H21.25V112.75Z" fill="#161723"/>
<path d="M26.875 112.75H21.25V118.375H26.875V112.75Z" fill="#161723"/>
<path d="M32.5 112.75H26.875V118.375H32.5V112.75Z" fill="#161723"/>
<path d="M38.125 112.75H32.5V118.375H38.125V112.75Z" fill="#412C32"/>
<path d="M43.75 112.75H38.125V118.375H43.75V112.75Z" fill="#412C32"/>
<path d="M49.375 112.75H43.75V118.375H49.375V112.75Z" fill="#161723"/>
<path d="M55 112.75H49.375V118.375H55V112.75Z" fill="#2A2B38"/>
<path d="M60.625 112.75H55V118.375H60.625V112.75Z" fill="#161723"/>
<path d="M66.248 112.75H60.623V118.375H66.248V112.75Z" fill="#161723"/>
<path d="M71.875 112.75H66.25V118.375H71.875V112.75Z" fill="#2A2B38"/>
<path d="M77.5 112.75H71.875V118.375H77.5V112.75Z" fill="#161723"/>
<path d="M83.125 112.75H77.5V118.375H83.125V112.75Z" fill="#412C32"/>
<path d="M88.75 112.75H83.125V118.375H88.75V112.75Z" fill="#412C32"/>
<path d="M94.375 112.75H88.75V118.375H94.375V112.75Z" fill="#412C32"/>
<path d="M105.625 112.75H100V118.375H105.625V112.75Z" fill="#161723"/>
<path d="M111.25 112.75H105.625V118.375H111.25V112.75Z" fill="#161723"/>
<path d="M116.875 112.75H111.25V118.375H116.875V112.75Z" fill="#161723"/>
<path d="M122.5 112.75H116.875V118.375H122.5V112.75Z" fill="#161723"/>
<path d="M128.125 112.75H122.5V118.375H128.125V112.75Z" fill="#161723"/>
<path d="M133.75 112.75H128.125V118.375H133.75V112.75Z" fill="#161723"/>
<path d="M49.375 118.375H43.75V124H49.375V118.375Z" fill="#161723"/>
<path d="M55 118.375H49.375V124H55V118.375Z" fill="#161723"/>
<path d="M71.875 118.375H66.25V124H71.875V118.375Z" fill="#161723"/>
<path d="M77.5 118.375H71.875V124H77.5V118.375Z" fill="#161723"/>
</g>
<defs>
<clipPath id="clip0_4257_4503">
<rect width="139" height="124" fill="white"/>
</clipPath>
</defs>
</svg>
