<svg width="1171" height="878" viewBox="0 0 1171 878" fill="none" xmlns="http://www.w3.org/2000/svg">
<rect width="1171" height="878" fill="#7F647F"/>
<rect width="754.004" height="125.197" transform="translate(209 63)" fill="white"/>
<path d="M540.43 92.8545H546.706V130.508H540.43V117.957H527.879V111.681H540.43V105.406H527.879V99.1301H540.43V92.8545ZM483.951 130.508V124.232H502.777V130.508H483.951ZM483.951 99.1301V92.8545H521.604V111.681H515.328V99.1301H483.951ZM540.43 155.61V161.885H496.502V155.61H540.43ZM540.43 136.783V143.059H496.502V136.783H540.43ZM540.43 143.059H546.706V155.61H540.43V143.059ZM496.502 155.61H490.226V143.059H496.502V155.61ZM509.053 117.957V124.232H502.777V117.957H509.053ZM509.053 111.681H515.328V117.957H509.053V111.681ZM613.477 155.61V149.334H644.855V124.232H651.131V149.334H682.508V155.61H613.477ZM619.753 92.8545H676.233V136.783H669.957V99.1301H619.753V92.8545ZM663.682 143.059V136.783H669.957V143.059H663.682Z" fill="#7F647F"/>
<path d="M65 310V273.333H101.667V310H65ZM81.6667 306.667H85V300H81.6667V306.667ZM81.6667 296.667H85V276.667H81.6667V296.667ZM151.68 273.333H155.013V293.333H151.68V286.667H145.013V283.333H151.68V280H145.013V276.667H151.68V273.333ZM121.68 293.333V290H131.68V293.333H121.68ZM121.68 276.667V273.333H141.68V283.333H138.346V276.667H121.68ZM151.68 306.667V310H128.346V306.667H151.68ZM151.68 296.667V300H128.346V296.667H151.68ZM151.68 300H155.013V306.667H151.68V300ZM128.346 306.667H125.013V300H128.346V306.667ZM135.013 286.667V290H131.68V286.667H135.013ZM135.013 283.333H138.346V286.667H135.013V283.333ZM161.68 306.667V303.333H178.346V290H181.68V303.333H198.346V306.667H161.68ZM165.013 273.333H195.013V296.667H191.68V276.667H165.013V273.333ZM188.346 300V296.667H191.68V300H188.346ZM205.013 303.333V296.667H208.346V303.333H205.013ZM205.013 290V283.333H208.346V290H205.013ZM231.68 306.667V303.333H268.346V306.667H231.68ZM261.68 293.333H258.346V290H261.68V293.333ZM261.68 296.667V293.333H265.013V296.667H261.68ZM238.346 293.333V296.667H235.013V293.333H238.346ZM238.346 290H241.68V293.333H238.346V290ZM245.013 286.667V290H241.68V286.667H245.013ZM245.013 283.333H248.346V286.667H245.013V283.333ZM251.68 286.667V283.333H255.013V286.667H251.68ZM251.68 283.333H248.346V273.333H251.68V283.333ZM258.346 286.667V290H255.013V286.667H258.346ZM271.68 306.667V303.333H288.346V296.667H275.013V293.333H281.68V276.667H275.013V273.333H305.013V276.667H298.346V293.333H305.013V296.667H291.68V303.333H308.346V306.667H271.68ZM285.013 293.333H295.013V276.667H285.013V293.333ZM341.68 273.333H345.013V303.333H318.346V306.667H345.013V310H315.013V300H341.68V296.667H315.013V293.333H318.346V290H328.346V293.333H341.68V273.333ZM311.68 286.667V280H315.013V286.667H311.68ZM318.346 286.667V290H315.013V286.667H318.346ZM318.346 276.667V280H315.013V276.667H318.346ZM318.346 273.333H328.346V276.667H318.346V273.333ZM331.68 286.667V290H328.346V286.667H331.68ZM331.68 276.667V280H328.346V276.667H331.68ZM331.68 280H335.013V286.667H331.68V280ZM381.68 273.333H385.013V310H381.68V290H375.013V286.667H381.68V273.333ZM351.68 306.667V286.667H368.346V276.667H351.68V273.333H371.68V290H355.013V303.333H375.013V306.667H351.68ZM438.359 273.333H441.693V280H445.026V283.333H441.693V303.333H415.026V306.667H441.693V310H411.693V300H438.359V296.667H411.693V293.333H415.026V290H425.026V293.333H438.359V273.333ZM408.359 286.667V280H411.693V286.667H408.359ZM415.026 286.667V290H411.693V286.667H415.026ZM415.026 276.667V280H411.693V276.667H415.026ZM415.026 273.333H425.026V276.667H415.026V273.333ZM428.359 286.667V290H425.026V286.667H428.359ZM428.359 276.667V280H425.026V276.667H428.359ZM428.359 280H431.693V286.667H428.359V280ZM478.359 273.333H481.693V293.333H478.359V273.333ZM448.359 293.333V280H465.026V276.667H448.359V273.333H468.359V283.333H451.693V290H471.693V293.333H448.359ZM451.693 310V296.667H481.693V310H451.693ZM478.359 306.667V300H455.026V306.667H478.359ZM505.039 310V273.333H541.706V310H505.039ZM521.706 306.667H525.039V300H521.706V306.667ZM521.706 296.667H525.039V276.667H521.706V296.667ZM95 326.333H98.3333V363H95V326.333ZM65 353V333H68.3333V353H65ZM71.6667 356.333H68.3333V353H71.6667V356.333ZM71.6667 359.667V356.333H81.6667V359.667H71.6667ZM71.6667 329.667V333H68.3333V329.667H71.6667ZM71.6667 326.333H81.6667V329.667H71.6667V326.333ZM85 356.333H81.6667V353H85V356.333ZM85 353V333H88.3333V353H85ZM85 329.667V333H81.6667V329.667H85ZM151.68 326.333H155.013V363H125.013V349.667H128.346V353H151.68V326.333ZM121.68 343V339.667H141.68V343H145.013V326.333H148.346V349.667H145.013V346.333H138.346V343H135.013V349.667H131.68V343H121.68ZM121.68 333V329.667H125.013V333H121.68ZM151.68 359.667V356.333H128.346V359.667H151.68ZM141.68 329.667V333H138.346V329.667H141.68ZM125.013 326.333H138.346V329.667H125.013V326.333ZM125.013 333H138.346V336.333H125.013V333ZM208.359 326.333H211.693V363H208.359V343H201.693V339.667H208.359V326.333ZM178.359 359.667V356.333H181.693V359.667H178.359ZM185.026 356.333H181.693V349.667H185.026V356.333ZM185.026 349.667V343H188.359V349.667H185.026ZM191.693 349.667V343H195.026V349.667H191.693ZM191.693 343H188.359V326.333H191.693V343ZM198.359 356.333H195.026V349.667H198.359V356.333ZM198.359 359.667V356.333H201.693V359.667H198.359ZM248.359 326.333H251.693V363H248.359V326.333ZM218.359 359.667V326.333H221.693V339.667H238.359V326.333H241.693V359.667H218.359ZM221.693 356.333H238.359V343H221.693V356.333ZM258.359 359.667V356.333H295.026V359.667H258.359ZM288.359 346.333H285.026V343H288.359V346.333ZM288.359 349.667V346.333H291.693V349.667H288.359ZM265.026 346.333V349.667H261.693V346.333H265.026ZM265.026 343H268.359V346.333H265.026V343ZM271.693 339.667V343H268.359V339.667H271.693ZM271.693 336.333H275.026V339.667H271.693V336.333ZM278.359 339.667V336.333H281.693V339.667H278.359ZM278.359 336.333H275.026V326.333H278.359V336.333ZM285.026 339.667V343H281.693V339.667H285.026ZM301.693 326.333H305.026V336.333H331.693V339.667H301.693V326.333ZM298.359 346.333V343H335.026V346.333H298.359ZM301.693 363V349.667H305.026V359.667H331.693V363H301.693ZM385.039 326.333H388.372V343H391.706V346.333H388.372V363H385.039V326.333ZM355.039 359.667V326.333H378.372V329.667H358.372V356.333H378.372V359.667H355.039ZM395.039 346.333V343H431.706V346.333H415.039V363H411.706V346.333H395.039ZM421.706 339.667V336.333H428.372V339.667H421.706ZM421.706 333V336.333H415.039V333H421.706ZM398.372 339.667V336.333H405.039V339.667H398.372ZM405.039 336.333V333H411.706V336.333H405.039ZM411.706 326.333H415.039V333H411.706V326.333ZM465.039 326.333H468.372V363H465.039V326.333ZM435.039 356.333V353H461.706V356.333H435.039ZM435.039 339.667V333H438.372V339.667H435.039ZM441.706 346.333V343H451.706V346.333H441.706ZM441.706 339.667V343H438.372V339.667H441.706ZM441.706 329.667V333H438.372V329.667H441.706ZM441.706 326.333H451.706V329.667H441.706V326.333ZM455.039 339.667V343H451.706V339.667H455.039ZM455.039 329.667V333H451.706V329.667H455.039ZM455.039 333H458.372V339.667H455.039V333ZM521.719 326.333H525.052V363H521.719V346.333H518.385V363H515.052V326.333H518.385V343H521.719V326.333ZM491.719 353V333H495.052V353H491.719ZM498.385 356.333H505.052V359.667H498.385V356.333ZM498.385 353V356.333H495.052V353H498.385ZM498.385 329.667V333H495.052V329.667H498.385ZM498.385 326.333H505.052V329.667H498.385V326.333ZM505.052 356.333V353H508.385V356.333H505.052ZM505.052 329.667H508.385V333H505.052V329.667ZM511.719 353H508.385V333H511.719V353ZM561.719 326.333H565.052V363H561.719V326.333ZM531.719 359.667V326.333H535.052V356.333H555.052V359.667H531.719ZM571.719 359.667V326.333H588.385V339.667H595.052V326.333H598.385V363H595.052V343H588.385V359.667H571.719ZM601.719 326.333H605.052V363H601.719V326.333ZM575.052 356.333H585.052V329.667H575.052V356.333ZM641.719 326.333H645.052V363H641.719V326.333ZM611.719 353V333H615.052V353H611.719ZM618.385 356.333H615.052V353H618.385V356.333ZM618.385 359.667V356.333H628.385V359.667H618.385ZM618.385 329.667V333H615.052V329.667H618.385ZM618.385 326.333H628.385V329.667H618.385V326.333ZM631.719 356.333H628.385V353H631.719V356.333ZM631.719 353V333H635.052V353H631.719ZM631.719 329.667V333H628.385V329.667H631.719ZM681.719 326.333H685.052V353H681.719V343H675.052V339.667H681.719V336.333H675.052V333H681.719V326.333ZM651.719 346.333V343H655.052V346.333H651.719ZM658.385 359.667H685.052V363H655.052V349.667H658.385V359.667ZM658.385 339.667V343H655.052V339.667H658.385ZM658.385 336.333H661.719V339.667H658.385V336.333ZM665.052 339.667V336.333H668.385V339.667H665.052ZM665.052 336.333H661.719V326.333H665.052V336.333ZM671.719 346.333V343H675.052V346.333H671.719ZM671.719 339.667V343H668.385V339.667H671.719ZM738.398 326.333H741.732V363H738.398V346.333H735.065V363H731.732V326.333H735.065V343H738.398V326.333ZM708.398 359.667V356.333H715.065V359.667H708.398ZM708.398 343V339.667H725.065V329.667H708.398V326.333H728.398V343H725.065V349.667H721.732V343H708.398ZM715.065 356.333V353H718.398V356.333H715.065ZM721.732 349.667V353H718.398V349.667H721.732ZM778.398 326.333H781.732V346.333H778.398V326.333ZM748.398 346.333V333H765.065V329.667H748.398V326.333H768.398V336.333H751.732V343H771.732V346.333H748.398ZM778.398 363V353H751.732V349.667H781.732V363H778.398ZM818.398 326.333H821.732V363H818.398V343H811.732V339.667H818.398V326.333ZM788.398 359.667V326.333H808.398V329.667H791.732V339.667H808.398V343H791.732V356.333H808.398V359.667H788.398ZM858.398 326.333H861.732V363H858.398V326.333ZM828.398 356.333V353H855.065V356.333H828.398ZM828.398 339.667V333H831.732V339.667H828.398ZM835.065 346.333V343H845.065V346.333H835.065ZM835.065 339.667V343H831.732V339.667H835.065ZM835.065 329.667V333H831.732V329.667H835.065ZM835.065 326.333H845.065V329.667H835.065V326.333ZM848.398 339.667V343H845.065V339.667H848.398ZM848.398 329.667V333H845.065V329.667H848.398ZM848.398 333H851.732V339.667H848.398V333ZM885.078 349.667V346.333H921.745V349.667H905.078V363H901.745V349.667H885.078ZM905.078 339.667V336.333H911.745V339.667H905.078ZM905.078 336.333H901.745V329.667H888.411V326.333H918.411V329.667H905.078V336.333ZM911.745 339.667H918.411V343H911.745V339.667ZM888.411 343V339.667H895.078V343H888.411ZM895.078 339.667V336.333H901.745V339.667H895.078ZM925.078 359.667V356.333H935.078V346.333H951.745V356.333H961.745V359.667H925.078ZM955.078 346.333H951.745V343H955.078V346.333ZM955.078 343V333H958.411V343H955.078ZM955.078 329.667V333H951.745V329.667H955.078ZM931.745 346.333V343H935.078V346.333H931.745ZM931.745 343H928.411V333H931.745V343ZM931.745 333V329.667H935.078V333H931.745ZM938.411 356.333H948.411V349.667H938.411V356.333ZM951.745 329.667H935.078V326.333H951.745V329.667ZM981.758 359.667V356.333H1018.42V359.667H981.758ZM1011.76 346.333H1008.42V343H1011.76V346.333ZM1011.76 349.667V346.333H1015.09V349.667H1011.76ZM988.424 346.333V349.667H985.091V346.333H988.424ZM988.424 343H991.758V346.333H988.424V343ZM995.091 339.667V343H991.758V339.667H995.091ZM995.091 336.333H998.424V339.667H995.091V336.333ZM1001.76 339.667V336.333H1005.09V339.667H1001.76ZM1001.76 336.333H998.424V326.333H1001.76V336.333ZM1008.42 339.667V343H1005.09V339.667H1008.42ZM1021.76 359.667V356.333H1038.42V349.667H1025.09V326.333H1055.09V329.667H1028.42V336.333H1055.09V339.667H1028.42V346.333H1055.09V349.667H1041.76V356.333H1058.42V359.667H1021.76ZM1091.76 326.333H1095.09V363H1091.76V326.333ZM1061.76 359.667V339.667H1078.42V329.667H1061.76V326.333H1081.76V343H1065.09V356.333H1085.09V359.667H1061.76ZM95 379.333H98.3333V416H95V379.333ZM65 406V386H68.3333V406H65ZM71.6667 409.333H78.3333V412.667H71.6667V409.333ZM71.6667 406V409.333H68.3333V406H71.6667ZM71.6667 382.667V386H68.3333V382.667H71.6667ZM71.6667 379.333H78.3333V382.667H71.6667V379.333ZM78.3333 409.333V406H81.6667V409.333H78.3333ZM78.3333 382.667H81.6667V386H78.3333V382.667ZM85 406H81.6667V386H85V392.667H88.3333V379.333H91.6667V416H88.3333V396H85V406ZM151.68 379.333H155.013V416H151.68V399.333H148.346V416H145.013V379.333H148.346V396H151.68V379.333ZM121.68 412.667V379.333H141.68V382.667H125.013V409.333H141.68V412.667H121.68ZM191.68 379.333H195.013V389.333H198.346V392.667H195.013V406H191.68V379.333ZM161.68 386V382.667H171.68V379.333H175.013V382.667H188.346V386H181.68V389.333H168.346V386H161.68ZM168.346 412.667H195.013V416H165.013V402.667H168.346V412.667ZM168.346 399.333V396H181.68V399.333H168.346ZM168.346 396H165.013V389.333H168.346V396ZM181.68 396V389.333H185.013V396H181.68ZM218.359 399.333V396H255.026V399.333H238.359V402.667H248.359V406H225.026V402.667H235.026V399.333H218.359ZM248.359 412.667V416H225.026V412.667H248.359ZM248.359 406H251.693V412.667H248.359V406ZM225.026 412.667H221.693V406H225.026V412.667ZM238.359 382.667V386H235.026V382.667H221.693V379.333H251.693V382.667H238.359ZM238.359 386H245.026V389.333H238.359V386ZM245.026 392.667V389.333H251.693V392.667H245.026ZM221.693 392.667V389.333H228.359V392.667H221.693ZM228.359 389.333V386H235.026V389.333H228.359ZM258.359 412.667V409.333H268.359V399.333H285.026V409.333H295.026V412.667H258.359ZM288.359 399.333H285.026V396H288.359V399.333ZM288.359 396V386H291.693V396H288.359ZM288.359 382.667V386H285.026V382.667H288.359ZM265.026 399.333V396H268.359V399.333H265.026ZM265.026 396H261.693V386H265.026V396ZM265.026 386V382.667H268.359V386H265.026ZM271.693 409.333H281.693V402.667H271.693V409.333ZM285.026 382.667H268.359V379.333H285.026V382.667ZM328.359 379.333H331.693V389.333H335.026V392.667H331.693V406H328.359V379.333ZM298.359 386V382.667H308.359V379.333H311.693V382.667H325.026V386H318.359V389.333H305.026V386H298.359ZM305.026 412.667H331.693V416H301.693V402.667H305.026V412.667ZM305.026 399.333V396H318.359V399.333H305.026ZM305.026 396H301.693V389.333H305.026V396ZM318.359 396V389.333H321.693V396H318.359ZM681.719 379.333H685.052V396H688.385V399.333H685.052V416H681.719V379.333ZM651.719 389.333V386H678.385V389.333H651.719ZM658.385 409.333H655.052V396H658.385V409.333ZM658.385 412.667V409.333H671.719V412.667H658.385ZM658.385 396V392.667H671.719V396H658.385ZM658.385 382.667V379.333H671.719V382.667H658.385ZM671.719 409.333V396H675.052V409.333H671.719ZM691.719 412.667V409.333H708.385V396H711.719V409.333H728.385V412.667H691.719ZM695.052 379.333H725.052V402.667H721.719V382.667H695.052V379.333ZM718.385 406V402.667H721.719V406H718.385ZM778.398 379.333H781.732V402.667H778.398V379.333ZM748.398 392.667V386H751.732V392.667H748.398ZM778.398 409.333V412.667H775.065V409.333H778.398ZM778.398 412.667H781.732V416H778.398V412.667ZM761.732 409.333H765.065V412.667H761.732V409.333ZM761.732 402.667V409.333H758.398V402.667H761.732ZM775.065 409.333H771.732V402.667H775.065V409.333ZM758.398 409.333V412.667H755.065V409.333H758.398ZM771.732 409.333V412.667H768.398V409.333H771.732ZM771.732 392.667H768.398V386H771.732V392.667ZM755.065 412.667V416H751.732V412.667H755.065ZM755.065 399.333V396H765.065V399.333H755.065ZM755.065 392.667V396H751.732V392.667H755.065ZM755.065 382.667V386H751.732V382.667H755.065ZM755.065 379.333H765.065V382.667H755.065V379.333ZM768.398 412.667V416H765.065V412.667H768.398ZM768.398 392.667V396H765.065V392.667H768.398ZM768.398 382.667V386H765.065V382.667H768.398ZM788.398 399.333V396H825.065V399.333H788.398ZM818.398 412.667V409.333H795.065V412.667H818.398ZM818.398 406V402.667H821.732V416H791.732V402.667H795.065V406H818.398ZM808.398 386H815.065V389.333H808.398V386ZM808.398 379.333V386H805.065V379.333H808.398ZM815.065 392.667V389.333H821.732V392.667H815.065ZM791.732 392.667V389.333H798.398V392.667H791.732ZM798.398 389.333V386H805.065V389.333H798.398ZM858.398 379.333H861.732V416H858.398V379.333ZM828.398 412.667V379.333H831.732V409.333H851.732V412.667H828.398ZM898.398 379.333H901.732V396H905.065V399.333H901.732V416H898.398V379.333ZM868.398 412.667V379.333H891.732V382.667H871.732V409.333H891.732V412.667H868.398ZM911.732 416V412.667H915.065V416H911.732ZM95 485.333H98.3333V502H101.667V505.333H98.3333V522H95V485.333ZM65 512V492H68.3333V512H65ZM71.6667 515.333H68.3333V512H71.6667V515.333ZM71.6667 518.667V515.333H81.6667V518.667H71.6667ZM71.6667 488.667V492H68.3333V488.667H71.6667ZM71.6667 485.333H81.6667V488.667H71.6667V485.333ZM85 515.333H81.6667V512H85V515.333ZM85 512V492H88.3333V512H85ZM85 488.667V492H81.6667V488.667H85ZM135 485.333H138.333V505.333H135V485.333ZM105 505.333V502H108.333V505.333H105ZM105 488.667V485.333H128.333V488.667H118.333V495.333H115V488.667H105ZM135 522V512H108.333V508.667H138.333V522H135ZM111.667 498.667V502H108.333V498.667H111.667ZM111.667 495.333H115V498.667H111.667V495.333ZM118.333 498.667V495.333H121.667V498.667H118.333ZM125 505.333V502H128.333V505.333H125ZM125 498.667V502H121.667V498.667H125ZM191.68 485.333H195.013V492H198.346V495.333H195.013V505.333H191.68V485.333ZM161.68 505.333V502H165.013V505.333H161.68ZM161.68 488.667V485.333H185.013V488.667H175.013V495.333H171.68V488.667H161.68ZM191.68 522V512H165.013V508.667H195.013V522H191.68ZM168.346 498.667V502H165.013V498.667H168.346ZM168.346 495.333H171.68V498.667H168.346V495.333ZM175.013 498.667V495.333H178.346V498.667H175.013ZM181.68 505.333V502H185.013V505.333H181.68ZM181.68 498.667V502H178.346V498.667H181.68ZM201.68 505.333V502H238.346V505.333H221.68V508.667H235.013V522H205.013V508.667H218.346V505.333H201.68ZM231.68 518.667V512H208.346V518.667H231.68ZM215.013 488.667V495.333H225.013V488.667H215.013ZM205.013 485.333H235.013V488.667H228.346V495.333H235.013V498.667H205.013V495.333H211.68V488.667H205.013V485.333ZM271.68 485.333V488.667H248.346V485.333H271.68ZM241.68 502V498.667H278.346V502H241.68ZM271.68 512V508.667H245.013V505.333H275.013V515.333H248.346V518.667H275.013V522H245.013V512H271.68ZM271.68 488.667H275.013V492H271.68V488.667ZM271.68 492V495.333H248.346V492H271.68ZM248.346 488.667V492H245.013V488.667H248.346ZM328.359 485.333H331.693V522H328.359V485.333ZM298.359 518.667V515.333H301.693V518.667H298.359ZM305.026 515.333H301.693V508.667H305.026V515.333ZM305.026 508.667V502H308.359V508.667H305.026ZM311.693 508.667V502H315.026V508.667H311.693ZM311.693 502H308.359V485.333H311.693V502ZM318.359 515.333H315.026V508.667H318.359V515.333ZM318.359 518.667V515.333H321.693V518.667H318.359ZM368.359 485.333H371.693V505.333H368.359V498.667H361.693V495.333H368.359V485.333ZM338.359 505.333V502H345.026V505.333H338.359ZM338.359 495.333V492H361.693V495.333H351.693V498.667H348.359V495.333H338.359ZM368.359 518.667V522H345.026V518.667H368.359ZM368.359 508.667V512H345.026V508.667H368.359ZM368.359 512H371.693V518.667H368.359V512ZM345.026 518.667H341.693V512H345.026V518.667ZM345.026 502V498.667H348.359V502H345.026ZM345.026 488.667V485.333H355.026V488.667H345.026ZM351.693 498.667H355.026V502H351.693V498.667ZM355.026 505.333V502H361.693V505.333H355.026ZM408.359 485.333H411.693V502H415.026V505.333H411.693V522H408.359V485.333ZM378.359 495.333V492H405.026V495.333H378.359ZM385.026 515.333H381.693V502H385.026V515.333ZM385.026 518.667V515.333H398.359V518.667H385.026ZM385.026 502V498.667H398.359V502H385.026ZM385.026 488.667V485.333H398.359V488.667H385.026ZM398.359 515.333V502H401.693V515.333H398.359ZM448.359 485.333H451.693V522H448.359V485.333ZM418.359 518.667V515.333H421.693V518.667H418.359ZM418.359 488.667V485.333H441.693V488.667H431.693V498.667H428.359V488.667H418.359ZM425.026 515.333H421.693V508.667H425.026V515.333ZM425.026 508.667V498.667H428.359V508.667H425.026ZM431.693 508.667V498.667H435.026V508.667H431.693ZM438.359 515.333H435.026V508.667H438.359V515.333ZM438.359 518.667V515.333H441.693V518.667H438.359ZM505.039 485.333H508.372V492H511.706V495.333H508.372V505.333H505.039V485.333ZM475.039 498.667V492H478.372V498.667H475.039ZM505.039 515.333H508.372V518.667H505.039V515.333ZM505.039 518.667V522H495.039V518.667H505.039ZM505.039 512V515.333H495.039V512H491.706V508.667H498.372V505.333H501.706V508.667H508.372V512H505.039ZM498.372 498.667H495.039V492H498.372V498.667ZM481.706 518.667H491.706V522H478.372V508.667H481.706V518.667ZM481.706 505.333V502H491.706V505.333H481.706ZM481.706 498.667V502H478.372V498.667H481.706ZM481.706 488.667V492H478.372V488.667H481.706ZM481.706 485.333H491.706V488.667H481.706V485.333ZM495.039 515.333V518.667H491.706V515.333H495.039ZM495.039 498.667V502H491.706V498.667H495.039ZM495.039 488.667V492H491.706V488.667H495.039ZM515.039 518.667V515.333H551.706V518.667H515.039ZM545.039 505.333H541.706V502H545.039V505.333ZM545.039 502V492H548.372V502H545.039ZM545.039 488.667V492H541.706V488.667H545.039ZM521.706 505.333V502H525.039V505.333H521.706ZM521.706 502H518.372V492H521.706V502ZM521.706 492V488.667H525.039V492H521.706ZM541.706 505.333V508.667H525.039V505.333H541.706ZM541.706 488.667H525.039V485.333H541.706V488.667ZM585.039 485.333H588.372V508.667H585.039V498.667H578.372V495.333H585.039V492H578.372V488.667H585.039V485.333ZM555.039 505.333V502H558.372V505.333H555.039ZM585.039 515.333V518.667H581.706V515.333H585.039ZM585.039 518.667H588.372V522H585.039V518.667ZM568.372 515.333H571.706V518.667H568.372V515.333ZM568.372 508.667V515.333H565.039V508.667H568.372ZM568.372 498.667V495.333H571.706V498.667H568.372ZM568.372 495.333H565.039V485.333H568.372V495.333ZM581.706 515.333H578.372V508.667H581.706V515.333ZM565.039 515.333V518.667H561.706V515.333H565.039ZM565.039 498.667H561.706V495.333H565.039V498.667ZM578.372 515.333V518.667H575.039V515.333H578.372ZM578.372 505.333H575.039V502H578.372V505.333ZM561.706 518.667V522H558.372V518.667H561.706ZM561.706 498.667V502H558.372V498.667H561.706ZM575.039 518.667V522H571.706V518.667H575.039ZM575.039 498.667V502H571.706V498.667H575.039ZM625.039 485.333H628.372V522H625.039V502H618.372V498.667H625.039V485.333ZM595.039 518.667V515.333H601.706V518.667H595.039ZM595.039 488.667V485.333H615.039V502H611.706V488.667H595.039ZM601.706 515.333V512H605.039V515.333H601.706ZM608.372 508.667V512H605.039V508.667H608.372ZM608.372 502H611.706V508.667H608.372V502ZM665.039 485.333H668.372V502H671.706V505.333H668.372V522H665.039V485.333ZM635.039 518.667V485.333H638.372V515.333H658.372V518.667H635.039ZM691.719 518.667V515.333H728.385V518.667H691.719ZM721.719 505.333H718.385V502H721.719V505.333ZM721.719 508.667V505.333H725.052V508.667H721.719ZM698.385 505.333V508.667H695.052V505.333H698.385ZM698.385 502H701.719V505.333H698.385V502ZM705.052 498.667V502H701.719V498.667H705.052ZM705.052 495.333H708.385V498.667H705.052V495.333ZM711.719 498.667V495.333H715.052V498.667H711.719ZM711.719 495.333H708.385V485.333H711.719V495.333ZM718.385 498.667V502H715.052V498.667H718.385ZM731.719 518.667V515.333H748.385V508.667H735.052V505.333H741.719V488.667H735.052V485.333H765.052V488.667H758.385V505.333H765.052V508.667H751.719V515.333H768.385V518.667H731.719ZM745.052 505.333H755.052V488.667H745.052V505.333ZM801.719 485.333H805.052V515.333H778.385V518.667H805.052V522H775.052V512H801.719V508.667H775.052V505.333H778.385V502H788.385V505.333H801.719V485.333ZM771.719 498.667V492H775.052V498.667H771.719ZM778.385 498.667V502H775.052V498.667H778.385ZM778.385 488.667V492H775.052V488.667H778.385ZM778.385 485.333H788.385V488.667H778.385V485.333ZM791.719 498.667V502H788.385V498.667H791.719ZM791.719 488.667V492H788.385V488.667H791.719ZM791.719 492H795.052V498.667H791.719V492ZM841.719 485.333H845.052V522H841.719V502H835.052V498.667H841.719V485.333ZM811.719 518.667V498.667H828.385V488.667H811.719V485.333H831.719V502H815.052V515.333H835.052V518.667H811.719ZM851.719 502V498.667H855.052V492H881.719V488.667H855.052V485.333H885.052V495.333H858.385V498.667H888.385V502H851.719ZM881.719 512V508.667H855.052V505.333H885.052V515.333H858.385V518.667H885.052V522H855.052V512H881.719ZM938.398 485.333H941.732V512H938.398V508.667H931.732V505.333H938.398V485.333ZM908.398 502V498.667H935.065V502H921.732V512H918.398V502H908.398ZM915.065 518.667H941.732V522H911.732V508.667H915.065V518.667ZM915.065 488.667V492H911.732V488.667H915.065ZM915.065 492H928.398V495.333H915.065V492ZM915.065 485.333H928.398V488.667H915.065V485.333ZM928.398 488.667H931.732V492H928.398V488.667ZM978.398 485.333H981.732V522H978.398V485.333ZM948.398 518.667V515.333H951.732V518.667H948.398ZM948.398 495.333V492H971.732V495.333H961.732V505.333H958.398V495.333H948.398ZM955.065 515.333H951.732V512H955.065V515.333ZM955.065 505.333H958.398V512H955.065V505.333ZM955.065 488.667V485.333H965.065V488.667H955.065ZM961.732 505.333H965.065V512H961.732V505.333ZM968.398 515.333H965.065V512H968.398V515.333ZM968.398 518.667V515.333H971.732V518.667H968.398ZM1035.08 485.333H1038.41V492H1041.74V495.333H1038.41V505.333H1035.08V485.333ZM1005.08 498.667V492H1008.41V498.667H1005.08ZM1035.08 515.333H1038.41V518.667H1035.08V515.333ZM1035.08 518.667V522H1025.08V518.667H1035.08ZM1035.08 512V515.333H1025.08V512H1021.74V508.667H1028.41V505.333H1031.74V508.667H1038.41V512H1035.08ZM1028.41 498.667H1025.08V492H1028.41V498.667ZM1011.74 518.667H1021.74V522H1008.41V508.667H1011.74V518.667ZM1011.74 505.333V502H1021.74V505.333H1011.74ZM1011.74 498.667V502H1008.41V498.667H1011.74ZM1011.74 488.667V492H1008.41V488.667H1011.74ZM1011.74 485.333H1021.74V488.667H1011.74V485.333ZM1025.08 515.333V518.667H1021.74V515.333H1025.08ZM1025.08 498.667V502H1021.74V498.667H1025.08ZM1025.08 488.667V492H1021.74V488.667H1025.08ZM1045.08 518.667V515.333H1081.74V518.667H1045.08ZM1075.08 505.333H1071.74V502H1075.08V505.333ZM1075.08 502V492H1078.41V502H1075.08ZM1075.08 488.667V492H1071.74V488.667H1075.08ZM1051.74 505.333V502H1055.08V505.333H1051.74ZM1051.74 502H1048.41V492H1051.74V502ZM1051.74 492V488.667H1055.08V492H1051.74ZM1071.74 505.333V508.667H1055.08V505.333H1071.74ZM1071.74 488.667H1055.08V485.333H1071.74V488.667ZM95 538.333H98.3333V565H95V538.333ZM65 558.333V555H68.3333V558.333H65ZM71.6667 571.667H98.3333V575H68.3333V561.667H71.6667V571.667ZM71.6667 551.667V555H68.3333V551.667H71.6667ZM71.6667 548.333H75V551.667H71.6667V548.333ZM78.3333 551.667V548.333H81.6667V551.667H78.3333ZM78.3333 548.333H75V538.333H78.3333V548.333ZM85 558.333V555H88.3333V558.333H85ZM85 551.667V555H81.6667V551.667H85ZM135 538.333H138.333V555H141.667V558.333H138.333V575H135V538.333ZM105 571.667V538.333H128.333V541.667H108.333V568.333H128.333V571.667H105ZM175 538.333H178.333V565H175V555H168.333V551.667H175V548.333H168.333V545H175V538.333ZM145 558.333V538.333H165V558.333H145ZM151.667 571.667H178.333V575H148.333V561.667H151.667V571.667ZM148.333 555H161.667V541.667H148.333V555ZM185 578.333V575H188.333V578.333H185ZM188.333 575V571.667H191.667V575H188.333ZM245 538.333H248.333V575H245V538.333ZM215 565V545H218.333V565H215ZM221.667 568.333H218.333V565H221.667V568.333ZM221.667 571.667V568.333H231.667V571.667H221.667ZM221.667 541.667V545H218.333V541.667H221.667ZM221.667 538.333H231.667V541.667H221.667V538.333ZM235 568.333H231.667V565H235V568.333ZM235 565V545H238.333V565H235ZM235 541.667V545H231.667V541.667H235ZM285 538.333V541.667H261.667V538.333H285ZM255 558.333V555H265V551.667H261.667V548.333H285V551.667H281.667V555H291.667V558.333H255ZM285 571.667V575H261.667V571.667H285ZM285 561.667V565H261.667V561.667H285ZM285 565H288.333V571.667H285V565ZM285 541.667H288.333V548.333H285V541.667ZM261.667 571.667H258.333V565H261.667V571.667ZM261.667 541.667V548.333H258.333V541.667H261.667ZM268.333 551.667V555H278.333V551.667H268.333ZM325 538.333H328.333V575H325V538.333ZM295 565V545H298.333V565H295ZM301.667 568.333H308.333V571.667H301.667V568.333ZM301.667 565V568.333H298.333V565H301.667ZM301.667 541.667V545H298.333V541.667H301.667ZM301.667 538.333H308.333V541.667H301.667V538.333ZM308.333 568.333V565H311.667V568.333H308.333ZM308.333 541.667H311.667V545H308.333V541.667ZM315 565H311.667V545H315V551.667H318.333V538.333H321.667V575H318.333V555H315V565ZM351.68 561.667V558.333H388.346V561.667H371.68V575H368.346V561.667H351.68ZM371.68 551.667V548.333H378.346V551.667H371.68ZM371.68 548.333H368.346V541.667H355.013V538.333H385.013V541.667H371.68V548.333ZM378.346 551.667H385.013V555H378.346V551.667ZM355.013 555V551.667H361.68V555H355.013ZM361.68 551.667V548.333H368.346V551.667H361.68ZM421.68 538.333H425.013V575H421.68V538.333ZM391.68 568.333V565H418.346V568.333H391.68ZM391.68 551.667V545H395.013V551.667H391.68ZM398.346 558.333V555H408.346V558.333H398.346ZM398.346 551.667V555H395.013V551.667H398.346ZM398.346 541.667V545H395.013V541.667H398.346ZM398.346 538.333H408.346V541.667H398.346V538.333ZM411.68 551.667V555H408.346V551.667H411.68ZM411.68 541.667V545H408.346V541.667H411.68ZM411.68 545H415.013V551.667H411.68V545ZM461.68 538.333H465.013V575H461.68V558.333H458.346V575H455.013V548.333H431.68V545H455.013V538.333H458.346V555H461.68V538.333ZM438.346 568.333H435.013V555H438.346V568.333ZM438.346 571.667V568.333H448.346V571.667H438.346ZM438.346 555V551.667H448.346V555H438.346ZM438.346 541.667V538.333H448.346V541.667H438.346ZM451.68 568.333H448.346V555H451.68V568.333ZM471.68 561.667V558.333H508.346V561.667H491.68V575H488.346V561.667H471.68ZM491.68 551.667V548.333H498.346V551.667H491.68ZM491.68 548.333H488.346V541.667H475.013V538.333H505.013V541.667H491.68V548.333ZM498.346 551.667H505.013V555H498.346V551.667ZM475.013 555V551.667H481.68V555H475.013ZM481.68 551.667V548.333H488.346V551.667H481.68ZM541.68 538.333H545.013V558.333H541.68V538.333ZM511.68 558.333V555H515.013V558.333H511.68ZM541.68 571.667V568.333H518.346V571.667H541.68ZM541.68 565V561.667H545.013V575H515.013V561.667H518.346V565H541.68ZM518.346 551.667V555H515.013V551.667H518.346ZM518.346 548.333H521.68V551.667H518.346V548.333ZM525.013 551.667V548.333H528.346V551.667H525.013ZM525.013 548.333H521.68V538.333H525.013V548.333ZM531.68 558.333V555H535.013V558.333H531.68ZM531.68 551.667V555H528.346V551.667H531.68ZM581.68 538.333H585.013V575H581.68V538.333ZM551.68 571.667V568.333H555.013V571.667H551.68ZM558.346 568.333H555.013V561.667H558.346V568.333ZM558.346 561.667V555H561.68V561.667H558.346ZM565.013 561.667V555H568.346V561.667H565.013ZM565.013 555H561.68V538.333H565.013V555ZM571.68 568.333H568.346V561.667H571.68V568.333ZM571.68 571.667V568.333H575.013V571.667H571.68ZM591.68 571.667V568.333H608.346V561.667H601.68V558.333H618.346V561.667H611.68V568.333H628.346V571.667H591.68ZM621.68 558.333H618.346V555H621.68V558.333ZM621.68 555V545H625.013V555H621.68ZM621.68 541.667V545H618.346V541.667H621.68ZM598.346 558.333V555H601.68V558.333H598.346ZM598.346 555H595.013V545H598.346V555ZM598.346 545V541.667H601.68V545H598.346ZM618.346 541.667H601.68V538.333H618.346V541.667ZM635.013 575V571.667H638.346V575H635.013ZM95 591.333H98.3333V628H95V591.333ZM65 624.667V621.333H71.6667V624.667H65ZM65 594.667V591.333H81.6667V601.333H88.3333V591.333H91.6667V628H88.3333V614.667H81.6667V611.333H88.3333V604.667H81.6667V611.333H78.3333V594.667H65ZM71.6667 621.333V618H75V621.333H71.6667ZM78.3333 611.333V618H75V611.333H78.3333ZM105 611.333V608H121.667V601.333H125V608H141.667V611.333H105ZM135 628V618H108.333V614.667H138.333V628H135ZM125 598H131.667V601.333H125V598ZM125 591.333V598H121.667V591.333H125ZM131.667 604.667V601.333H138.333V604.667H131.667ZM108.333 604.667V601.333H115V604.667H108.333ZM115 601.333V598H121.667V601.333H115ZM191.68 591.333H195.013V618H191.68V591.333ZM161.68 611.333V608H165.013V611.333H161.68ZM161.68 594.667V591.333H185.013V594.667H175.013V601.333H171.68V594.667H161.68ZM168.346 624.667H195.013V628H165.013V614.667H168.346V624.667ZM168.346 604.667V608H165.013V604.667H168.346ZM168.346 601.333H171.68V604.667H168.346V601.333ZM175.013 604.667V601.333H178.346V604.667H175.013ZM181.68 611.333V608H185.013V611.333H181.68ZM181.68 604.667V608H178.346V604.667H181.68ZM231.68 591.333H235.013V611.333H231.68V601.333H228.346V611.333H225.013V598H218.346V601.333H205.013V598H201.68V594.667H208.346V591.333H211.68V594.667H225.013V591.333H228.346V598H231.68V591.333ZM201.68 608V601.333H205.013V608H201.68ZM231.68 624.667V628H208.346V624.667H231.68ZM231.68 614.667V618H208.346V614.667H231.68ZM231.68 618H235.013V624.667H231.68V618ZM208.346 624.667H205.013V618H208.346V624.667ZM221.68 608H218.346V601.333H221.68V608ZM205.013 611.333V608H218.346V611.333H205.013ZM271.68 591.333H275.013V608H278.346V611.333H275.013V628H271.68V591.333ZM241.68 601.333V598H268.346V601.333H241.68ZM248.346 621.333H245.013V608H248.346V621.333ZM248.346 624.667V621.333H261.68V624.667H248.346ZM248.346 608V604.667H261.68V608H248.346ZM248.346 594.667V591.333H261.68V594.667H248.346ZM261.68 621.333V608H265.013V621.333H261.68ZM311.68 591.333H315.013V628H311.68V591.333ZM281.68 624.667V621.333H285.013V624.667H281.68ZM288.346 621.333H285.013V614.667H288.346V621.333ZM288.346 614.667V608H291.68V614.667H288.346ZM295.013 614.667V608H298.346V614.667H295.013ZM295.013 608H291.68V591.333H295.013V608ZM301.68 621.333H298.346V614.667H301.68V621.333ZM301.68 624.667V621.333H305.013V624.667H301.68ZM351.68 591.333H355.013V611.333H351.68V591.333ZM321.68 611.333V608H328.346V611.333H321.68ZM321.68 594.667V591.333H338.346V598H345.013V591.333H348.346V611.333H345.013V601.333H335.013V594.667H321.68ZM351.68 621.333V624.667H348.346V621.333H351.68ZM351.68 624.667H355.013V628H351.68V624.667ZM335.013 621.333H338.346V624.667H335.013V621.333ZM335.013 614.667V621.333H331.68V614.667H335.013ZM335.013 604.667H331.68V601.333H335.013V604.667ZM348.346 621.333H345.013V614.667H348.346V621.333ZM331.68 621.333V624.667H328.346V621.333H331.68ZM331.68 604.667V608H328.346V604.667H331.68ZM345.013 621.333V624.667H341.68V621.333H345.013ZM328.346 624.667V628H325.013V624.667H328.346ZM341.68 624.667V628H338.346V624.667H341.68ZM361.68 611.333V608H398.346V611.333H361.68ZM391.68 624.667V621.333H368.346V624.667H391.68ZM391.68 618V614.667H395.013V628H365.013V614.667H368.346V618H391.68ZM381.68 598H388.346V601.333H381.68V598ZM381.68 591.333V598H378.346V591.333H381.68ZM388.346 604.667V601.333H395.013V604.667H388.346ZM365.013 604.667V601.333H371.68V604.667H365.013ZM371.68 601.333V598H378.346V601.333H371.68ZM431.68 591.333H435.013V628H431.68V591.333ZM401.68 624.667V591.333H405.013V621.333H425.013V624.667H401.68ZM471.68 591.333H475.013V608H478.346V611.333H475.013V628H471.68V591.333ZM441.68 624.667V621.333H445.013V624.667H441.68ZM441.68 594.667V591.333H465.013V611.333H461.68V594.667H451.68V611.333H448.346V594.667H441.68ZM448.346 621.333H445.013V611.333H448.346V621.333ZM455.013 624.667V621.333H458.346V624.667H455.013ZM461.68 621.333H458.346V611.333H461.68V621.333ZM485.013 591.333H495.013V594.667H485.013V591.333ZM481.68 594.667H485.013V601.333H481.68V594.667ZM488.346 621.333H491.68V628H488.346V621.333ZM488.346 618V608H491.68V618H488.346ZM491.68 608V604.667H495.013V608H491.68ZM495.013 604.667V594.667H498.346V604.667H495.013Z" fill="white"/>
<path d="M355.039 412.667V409.333H391.706V412.667H355.039ZM385.039 399.333H381.706V396H385.039V399.333ZM385.039 402.667V399.333H388.372V402.667H385.039ZM361.706 399.333V402.667H358.372V399.333H361.706ZM361.706 396H365.039V399.333H361.706V396ZM368.372 392.667V396H365.039V392.667H368.372ZM368.372 389.333H371.706V392.667H368.372V389.333ZM375.039 392.667V389.333H378.372V392.667H375.039ZM375.039 389.333H371.706V379.333H375.039V389.333ZM381.706 392.667V396H378.372V392.667H381.706ZM395.039 412.667V409.333H411.706V402.667H398.372V399.333H405.039V382.667H398.372V379.333H428.372V382.667H421.706V399.333H428.372V402.667H415.039V409.333H431.706V412.667H395.039ZM408.372 399.333H418.372V382.667H408.372V399.333ZM465.039 379.333H468.372V409.333H441.706V412.667H468.372V416H438.372V406H465.039V402.667H438.372V399.333H441.706V396H451.706V399.333H465.039V379.333ZM435.039 392.667V386H438.372V392.667H435.039ZM441.706 392.667V396H438.372V392.667H441.706ZM441.706 382.667V386H438.372V382.667H441.706ZM441.706 379.333H451.706V382.667H441.706V379.333ZM455.039 392.667V396H451.706V392.667H455.039ZM455.039 382.667V386H451.706V382.667H455.039ZM455.039 386H458.372V392.667H455.039V386ZM505.039 379.333H508.372V416H505.039V396H498.372V392.667H505.039V379.333ZM475.039 412.667V392.667H491.706V382.667H475.039V379.333H495.039V396H478.372V409.333H498.372V412.667H475.039ZM515.039 396V392.667H518.372V386H545.039V382.667H518.372V379.333H548.372V389.333H521.706V392.667H551.706V396H515.039ZM545.039 406V402.667H518.372V399.333H548.372V409.333H521.706V412.667H548.372V416H518.372V406H545.039ZM571.719 412.667V409.333H588.385V402.667H575.052V399.333H581.719V382.667H575.052V379.333H605.052V382.667H598.385V399.333H605.052V402.667H591.719V409.333H608.385V412.667H571.719ZM585.052 399.333H595.052V382.667H585.052V399.333ZM641.719 379.333H645.052V386H648.385V389.333H645.052V399.333H641.719V379.333ZM611.719 386V382.667H621.719V379.333H625.052V382.667H638.385V386H631.719V389.333H618.385V386H611.719ZM641.719 412.667V406H618.385V412.667H641.719ZM618.385 399.333V396H631.719V399.333H618.385ZM618.385 396H615.052V389.333H618.385V396ZM631.719 396V389.333H635.052V396H631.719ZM615.052 416V402.667H645.052V416H615.052Z" fill="#FFBBF5"/>
</svg>
