<svg width="64" height="85" viewBox="0 0 64 85" fill="none" xmlns="http://www.w3.org/2000/svg">
<path d="M64 37.3333V53.3333H58.6667V37.3333H64ZM16 26.6667V21.3333H26.6667V26.6667H16ZM16 37.3333H10.6667V26.6667H16V37.3333ZM16 53.3333V64H10.6667V53.3333H16ZM16 69.3333V64H26.6667V69.3333H16ZM53.3333 26.6667H42.6667V21.3333H53.3333V26.6667ZM53.3333 37.3333V26.6667H58.6667V37.3333H53.3333ZM53.3333 53.3333H58.6667V64H53.3333V53.3333ZM53.3333 64V69.3333H42.6667V64H53.3333ZM5.33333 37.3333H10.6667V53.3333H5.33333V37.3333ZM42.6667 21.3333H26.6667V16H42.6667V21.3333ZM42.6667 69.3333V74.6667H26.6667V69.3333H42.6667Z" fill="#E774DD"/>
<path d="M37 64H32V35.6364H37V64ZM37 32.0909H32V25H37V32.0909Z" fill="#E774DD"/>
</svg>
