<svg width="194" height="77" viewBox="0 0 194 77" fill="none" xmlns="http://www.w3.org/2000/svg">
<path d="M194.003 71.8438H191.607V74.2391H194.003V71.8438Z" fill="white"/>
<path d="M194.003 59.876H191.607V62.2713H194.003V59.876Z" fill="white"/>
<path d="M189.209 69.4487H186.813H184.418V71.8441H186.813H189.209H191.604V69.4487H189.209Z" fill="white"/>
<path d="M189.209 57.4805H186.813H184.418V59.8758H186.813H189.209H191.604V57.4805H189.209Z" fill="white"/>
<path d="M182.023 67.061H179.628H177.232V69.4479H179.628H182.023H184.419V67.061H182.023Z" fill="white"/>
<path d="M182.023 55.085H179.628H177.232V57.4803H179.628H182.023H184.419V55.085H182.023Z" fill="white"/>
<path d="M174.838 64.6665H172.442H170.047V67.0619H172.442H174.838H177.233V64.6665H174.838Z" fill="white"/>
<path d="M174.838 52.6895H172.442H170.047V55.0848H172.442H174.838H177.233V52.6895H174.838Z" fill="white"/>
<path d="M167.652 62.2705H165.257H162.861V64.6659H165.257H167.652H170.047V62.2705H167.652Z" fill="white"/>
<path d="M167.651 50.2944H165.256V52.6898H167.651H170.047V50.2944H167.651Z" fill="white"/>
<path d="M162.858 47.8984H160.463V50.2938H162.858H165.254V47.8984H162.858Z" fill="white"/>
<path d="M160.464 59.876H158.068V62.2713H160.464H162.859V59.876H160.464Z" fill="white"/>
<path d="M158.069 45.5039H155.674V47.8993H158.069H160.465V45.5039H158.069Z" fill="white"/>
<path d="M155.675 57.4805H153.279V59.8758H155.675H158.07V57.4805H155.675Z" fill="white"/>
<path d="M153.28 43.1084H150.885V45.5038H153.28H155.676V43.1084H153.28Z" fill="white"/>
<path d="M150.884 55.085H148.488V57.4803H150.884H153.279V55.085H150.884Z" fill="white"/>
<path d="M148.489 40.7124H146.094V43.1078H148.489H150.884V40.7124H148.489Z" fill="white"/>
<path d="M146.091 52.6895H143.695V55.0848H146.091H148.486V52.6895H146.091Z" fill="white"/>
<path d="M146.091 38.3174H143.695V40.7128H146.091V38.3174Z" fill="white"/>
<path d="M141.303 50.2944H138.916V52.6898H141.303H143.698V50.2944H141.303Z" fill="white"/>
<path d="M143.696 35.9224H141.301V38.3177H143.696V35.9224Z" fill="white"/>
<path d="M141.303 33.5259H138.916V35.9213H141.303V33.5259Z" fill="white"/>
<path d="M136.52 47.8984H134.125V50.2938H136.52H138.916V47.8984H136.52Z" fill="white"/>
<path d="M138.915 31.1313H136.52V33.5267H138.915V31.1313Z" fill="white"/>
<path d="M136.52 28.7358H134.125V31.1312H136.52V28.7358Z" fill="white"/>
<path d="M131.727 26.3403H129.332V28.7357H131.727H134.123V26.3403H131.727Z" fill="white"/>
<path d="M134.124 45.5039H129.332V47.8993H134.124V45.5039Z" fill="white"/>
<path d="M129.333 43.1084H126.938V45.5038H129.333V43.1084Z" fill="white"/>
<path d="M126.939 23.9448H124.544H122.148V26.3402H124.544H126.939H129.335V23.9448H126.939Z" fill="white"/>
<path d="M126.938 40.7124H124.543V43.1078H126.938V40.7124Z" fill="white"/>
<path d="M124.544 38.3174H122.148V40.7128H124.544V38.3174Z" fill="white"/>
<path d="M124.544 7.1776H126.939V4.78223H124.544H122.148V7.1776H124.544Z" fill="white"/>
<path d="M122.147 35.9224H119.752V38.3177H122.147V35.9224Z" fill="white"/>
<path d="M122.147 21.5498H119.752V23.9452H122.147V21.5498Z" fill="white"/>
<path d="M119.753 31.1313H117.357V33.5267V35.9221H119.753V33.5267V31.1313Z" fill="white"/>
<path d="M117.355 26.3403H114.96H112.564V28.7357H114.96H117.355H119.751H122.146V26.3403H119.751H117.355Z" fill="white"/>
<path d="M117.356 21.5492H119.752V19.1538H117.356H114.961V21.5492H117.356Z" fill="white"/>
<path d="M114.961 4.78258H117.356H119.751H122.147V2.38721H119.751H117.356H114.961H112.565H110.17V4.78258H112.565H114.961Z" fill="white"/>
<path d="M110.171 23.9448H107.775V26.3402H110.171H112.566V23.9448H110.171Z" fill="white"/>
<path d="M112.565 19.1542H114.961V16.7588H112.565H110.17V19.1542H112.565Z" fill="white"/>
<path d="M110.172 7.1776V4.78223H107.776H105.381V7.1776H107.776H110.172Z" fill="white"/>
<path d="M107.776 21.5498H105.381V23.9452H107.776V21.5498Z" fill="white"/>
<path d="M107.775 16.7591H110.17V14.3638H107.775H105.38H102.984V16.7591H105.38H107.775Z" fill="white"/>
<path d="M105.38 19.1538H102.984V21.5492H105.38V19.1538Z" fill="white"/>
<path d="M105.38 7.17773H102.984V9.5731H105.38V7.17773Z" fill="white"/>
<path d="M102.983 16.7588H100.588V19.1542H102.983V16.7588Z" fill="white"/>
<path d="M102.983 9.57324H100.588V11.9686H102.983V9.57324Z" fill="white"/>
<path d="M95.7997 16.7588H93.4043V19.1542H95.7997V16.7588Z" fill="white"/>
<path d="M95.7997 9.57324H93.4043V11.9686H95.7997V9.57324Z" fill="white"/>
<path d="M93.4012 19.1538H91.0059V21.5492H93.4012V19.1538Z" fill="white"/>
<path d="M93.4012 7.17773H91.0059V9.5731H93.4012V7.17773Z" fill="white"/>
<path d="M91.0067 21.5498H88.6113V23.9452H91.0067V21.5498Z" fill="white"/>
<path d="M91.0095 16.7591H93.4049V14.3638H91.0095H88.6141H86.2188V16.7591H88.6141H91.0095Z" fill="white"/>
<path d="M88.6141 4.78223H86.2188V7.1776H88.6141H91.0095V4.78223H88.6141Z" fill="white"/>
<path d="M83.8203 23.9448V26.3402H86.2157H88.6111V23.9448H86.2157H83.8203Z" fill="white"/>
<path d="M86.2165 19.1542V16.7588H83.8212H81.4258V19.1542H83.8212H86.2165Z" fill="white"/>
<path d="M83.8217 2.38721H81.4263H79.031H76.6356H74.2402V4.78258H76.6356H79.031H81.4263H83.8217H86.2171V2.38721H83.8217Z" fill="white"/>
<path d="M79.031 26.3403H76.6356H74.2402V28.7357H76.6356H79.031H81.4263H83.8217V26.3403H81.4263H79.031Z" fill="white"/>
<path d="M81.4255 21.5492V19.1538H79.0301H76.6348V21.5492H79.0301H81.4255Z" fill="white"/>
<path d="M76.6348 33.5267V35.9221H79.0301V33.5267V31.1313H76.6348V33.5267Z" fill="white"/>
<path d="M76.6356 35.9224H74.2402V38.3177H76.6356V35.9224Z" fill="white"/>
<path d="M76.6356 21.5498H74.2402V23.9452H76.6356V21.5498Z" fill="white"/>
<path d="M74.2403 38.3174H71.8535V40.7128H74.2403V38.3174Z" fill="white"/>
<path d="M71.8513 23.9448H69.4559H67.0605V26.3402H69.4559H71.8513H74.2381V23.9448H71.8513Z" fill="white"/>
<path d="M71.8524 40.7124H69.457V43.1078H71.8524V40.7124Z" fill="white"/>
<path d="M69.457 4.78223V7.1776H71.8524H74.2392V4.78223H71.8524H69.457Z" fill="white"/>
<path d="M69.4559 43.1084H67.0605V45.5038H69.4559V43.1084Z" fill="white"/>
<path d="M62.2715 45.5039V47.8993H64.6669H67.0622V45.5039H64.6669H62.2715Z" fill="white"/>
<path d="M62.2715 26.3403V28.7357H64.6669H67.0622V26.3403H64.6669H62.2715Z" fill="white"/>
<path d="M62.2704 28.7358H59.875V31.1312H62.2704V28.7358Z" fill="white"/>
<path d="M57.4824 47.8984V50.2938H59.8778H62.2732V47.8984H59.8778H57.4824Z" fill="white"/>
<path d="M59.8778 31.1313H57.4824V33.5267H59.8778V31.1313Z" fill="white"/>
<path d="M57.4794 33.5259H55.084V35.9213H57.4794V33.5259Z" fill="white"/>
<path d="M52.6895 50.2944V52.6898H55.0848H57.4802V50.2944H55.0848H52.6895Z" fill="white"/>
<path d="M55.0848 35.9224H52.6895V38.3177H55.0848V35.9224Z" fill="white"/>
<path d="M52.6922 38.3174H50.2969V40.7128H52.6922V38.3174Z" fill="white"/>
<path d="M47.8984 52.6895V55.0848H50.2938H52.6892V52.6895H50.2938H47.8984Z" fill="white"/>
<path d="M45.5039 40.7124V43.1078H47.8993H50.2946V40.7124H47.8993H45.5039Z" fill="white"/>
<path d="M43.1074 55.085V57.4803H45.5028H47.8982V55.085H45.5028H43.1074Z" fill="white"/>
<path d="M40.7109 43.1084V45.5038H43.1063H45.5017V43.1084H43.1063H40.7109Z" fill="white"/>
<path d="M38.3164 57.4805V59.8758H40.7118H43.1071V57.4805H40.7118H38.3164Z" fill="white"/>
<path d="M35.9238 45.5039V47.8993H38.3192H40.7146V45.5039H38.3192H35.9238Z" fill="white"/>
<path d="M33.5273 59.876V62.2713H35.9227H38.3181V59.876H35.9227H33.5273Z" fill="white"/>
<path d="M31.1309 47.8984V50.2938H33.5262H35.9216V47.8984H33.5262H31.1309Z" fill="white"/>
<path d="M28.7352 62.2705H26.3398V64.6659H28.7352H31.1306H33.526V62.2705H31.1306H28.7352Z" fill="white"/>
<path d="M26.3398 50.2944V52.6898H28.7352H31.1306V50.2944H28.7352H26.3398Z" fill="white"/>
<path d="M21.5516 64.6665H19.1562V67.0619H21.5516H23.947H26.3424V64.6665H23.947H21.5516Z" fill="white"/>
<path d="M21.5516 52.6895H19.1562V55.0848H21.5516H23.947H26.3424V52.6895H23.947H21.5516Z" fill="white"/>
<path d="M14.3641 67.061H11.9688V69.4479H14.3641H16.7595H19.1549V67.061H16.7595H14.3641Z" fill="white"/>
<path d="M14.3641 55.085H11.9688V57.4803H14.3641H16.7595H19.1549V55.085H16.7595H14.3641Z" fill="white"/>
<path d="M7.17857 69.4487H4.7832V71.8441H7.17857H9.57394H11.9693V69.4487H9.57394H7.17857Z" fill="white"/>
<path d="M7.17857 57.4805H4.7832V59.8758H7.17857H9.57394H11.9693V57.4805H9.57394H7.17857Z" fill="white"/>
<path d="M0 71.8438V74.2391H2.39537H4.78219V71.8438H2.39537H0Z" fill="white"/>
<path d="M0 59.876V62.2713H2.39537H4.78219V59.876H2.39537H0Z" fill="white"/>
<path d="M194.003 74.2393H191.607V76.6346H194.003V74.2393Z" fill="#FF8EF6"/>
<path d="M194.003 57.4805H191.607V59.8758H194.003V57.4805Z" fill="#FF8EF6"/>
<path d="M189.209 55.085H186.813H184.418V57.4803H186.813H189.209H191.604V55.085H189.209Z" fill="#FF8EF6"/>
<path d="M186.813 74.2396H189.209H191.604V71.8442H189.209H186.813H184.418V74.2396H186.813Z" fill="#FF8EF6"/>
<path d="M182.023 52.6899H179.628H177.232V55.0853H179.628H182.023H184.419V52.6899H182.023Z" fill="#FF8EF6"/>
<path d="M179.628 71.8441H182.023H184.419V69.4487H182.023H179.628H177.232V71.8441H179.628Z" fill="#FF8EF6"/>
<path d="M174.838 50.2944H172.442H170.047V52.6898H172.442H174.838H177.233V50.2944H174.838Z" fill="#FF8EF6"/>
<path d="M172.442 69.4483H174.838H177.233V67.0615H174.838H172.442H170.047V69.4483H172.442Z" fill="#FF8EF6"/>
<path d="M167.651 47.8989H165.256V50.2943H167.651H170.047V47.8989H167.651Z" fill="#FF8EF6"/>
<path d="M165.257 67.0619H167.652H170.047V64.6665H167.652H165.257H162.861V67.0619H165.257Z" fill="#FF8EF6"/>
<path d="M162.858 45.5039H160.463V47.8993H162.858H165.254V45.5039H162.858Z" fill="#FF8EF6"/>
<path d="M160.464 64.6659H162.859V62.2705H160.464H158.068V64.6659H160.464Z" fill="#FF8EF6"/>
<path d="M158.069 43.1084H155.674V45.5038H158.069H160.465V43.1084H158.069Z" fill="#FF8EF6"/>
<path d="M155.675 62.2713H158.07V59.876H155.675H153.279V62.2713H155.675Z" fill="#FF8EF6"/>
<path d="M153.28 40.7129H150.885V43.1083H153.28H155.676V40.7129H153.28Z" fill="#FF8EF6"/>
<path d="M150.884 59.8758H153.279V57.4805H150.884H148.488V59.8758H150.884Z" fill="#FF8EF6"/>
<path d="M148.489 38.3174H146.094V40.7128H148.489H150.884V38.3174H148.489Z" fill="#FF8EF6"/>
<path d="M146.091 57.4803H148.486V55.085H146.091H143.695V57.4803H146.091Z" fill="#FF8EF6"/>
<path d="M146.091 35.9224H143.695V38.3177H146.091V35.9224Z" fill="#FF8EF6"/>
<path d="M143.696 33.5264H141.301V35.9217H143.696V33.5264Z" fill="#FF8EF6"/>
<path d="M141.303 55.0853H143.698V52.6899H141.303H138.916V55.0853H141.303Z" fill="#FF8EF6"/>
<path d="M141.303 31.1313H138.916V33.5267H141.303V31.1313Z" fill="#FF8EF6"/>
<path d="M138.915 28.7358H136.52V31.1312H138.915V28.7358Z" fill="#FF8EF6"/>
<path d="M136.52 52.6898H138.916V50.2944H136.52H134.125V52.6898H136.52Z" fill="#FF8EF6"/>
<path d="M136.52 26.3408H134.125V28.7362H136.52V26.3408Z" fill="#FF8EF6"/>
<path d="M131.727 23.9458V21.5504V19.1551V16.7597V14.3643V11.969V9.57359V7.17822H129.332V9.57359V11.969V14.3643V16.7597V19.1551V21.5504V23.9458V26.3412H131.727H134.123V23.9458H131.727Z" fill="#FF8EF6"/>
<path d="M131.727 50.2943H134.123V47.8989H131.727H129.332V50.2943H131.727Z" fill="#FF8EF6"/>
<path d="M129.333 45.5039H126.938V47.8993H129.333V45.5039Z" fill="#FF8EF6"/>
<path d="M129.333 4.78223H126.938V7.1776H129.333V4.78223Z" fill="#FF8EF6"/>
<path d="M126.938 43.1084H124.543V45.5038H126.938V43.1084Z" fill="#FF8EF6"/>
<path d="M124.544 26.3408H122.148V28.7362H124.544H126.939H129.335V26.3408H126.939H124.544Z" fill="#FF8EF6"/>
<path d="M124.544 40.7129H122.148V43.1083H124.544V40.7129Z" fill="#FF8EF6"/>
<path d="M124.544 4.78258H126.939V2.38721H124.544H122.148V4.78258H124.544Z" fill="#FF8EF6"/>
<path d="M122.147 38.3174H119.752V40.7128H122.147V38.3174Z" fill="#FF8EF6"/>
<path d="M122.147 23.9448H119.752V26.3402H122.147V23.9448Z" fill="#FF8EF6"/>
<path d="M119.753 35.9224H117.357V38.3177H119.753V35.9224Z" fill="#FF8EF6"/>
<path d="M117.355 28.7358H114.96H112.564V31.1312H114.96V33.5266V35.922H117.355V33.5266V31.1312H119.751H122.146V28.7358H119.751H117.355Z" fill="#FF8EF6"/>
<path d="M117.356 23.9452H119.752V21.5498H117.356H114.961V23.9452H117.356Z" fill="#FF8EF6"/>
<path d="M114.961 2.38682H117.356H119.751H122.147V0H119.751H117.356H114.961H112.565H110.17V2.38682H112.565H114.961Z" fill="#FF8EF6"/>
<path d="M110.171 26.3408H107.775V28.7362H110.171H112.566V26.3408H110.171Z" fill="#FF8EF6"/>
<path d="M112.565 21.5497H114.961V19.1543H112.565H110.17V21.5497H112.565Z" fill="#FF8EF6"/>
<path d="M112.566 11.9686H114.962V9.57324H112.566H110.171H107.775V11.9686H110.171H112.566Z" fill="#FF8EF6"/>
<path d="M110.172 4.78258V2.38721H107.776H105.381V4.78258H107.776H110.172Z" fill="#FF8EF6"/>
<path d="M107.776 23.9448H105.381V26.3402H107.776V23.9448Z" fill="#FF8EF6"/>
<path d="M105.38 21.5498H102.984V23.9452H105.38V21.5498Z" fill="#FF8EF6"/>
<path d="M105.38 19.1542H107.775H110.17V16.7588H107.775H105.38H102.984V19.1542H105.38Z" fill="#FF8EF6"/>
<path d="M105.38 4.78223H102.984V7.1776H105.38V4.78223Z" fill="#FF8EF6"/>
<path d="M102.983 19.1543H100.588V21.5497H102.983V19.1543Z" fill="#FF8EF6"/>
<path d="M100.588 16.7595H102.983V14.3641H105.379H107.774V11.9688H105.379H102.983H100.588V14.3641V16.7595Z" fill="#FF8EF6"/>
<path d="M102.983 7.17822H100.588V9.57359H102.983V7.17822Z" fill="#FF8EF6"/>
<path d="M98.1922 16.7588H95.7969V19.1542H98.1922H100.588V16.7588H98.1922Z" fill="#FF8EF6"/>
<path d="M98.1922 11.9686H100.588V9.57324H98.1922H95.7969V11.9686H98.1922Z" fill="#FF8EF6"/>
<path d="M95.7997 19.1543H93.4043V21.5497H95.7997V19.1543Z" fill="#FF8EF6"/>
<path d="M95.7974 11.9688H93.4021H91.0067H88.6113V14.3641H91.0067H93.4021V16.7595H95.7974V14.3641V11.9688Z" fill="#FF8EF6"/>
<path d="M95.7997 7.17822H93.4043V9.57359H95.7997V7.17822Z" fill="#FF8EF6"/>
<path d="M93.4012 21.5498H91.0059V23.9452H93.4012V21.5498Z" fill="#FF8EF6"/>
<path d="M93.4012 4.78223H91.0059V7.1776H93.4012V4.78223Z" fill="#FF8EF6"/>
<path d="M91.0067 23.9448H88.6113V26.3402H91.0067V23.9448Z" fill="#FF8EF6"/>
<path d="M88.6141 16.7588H86.2188V19.1542H88.6141H91.0095H93.4049V16.7588H91.0095H88.6141Z" fill="#FF8EF6"/>
<path d="M86.2165 9.57324H83.8212H81.4258V11.9686H83.8212H86.2165H88.6119V9.57324H86.2165Z" fill="#FF8EF6"/>
<path d="M88.6141 4.78258H91.0095V2.38721H88.6141H86.2188V4.78258H88.6141Z" fill="#FF8EF6"/>
<path d="M83.8203 26.3408V28.7362H86.2157H88.6111V26.3408H86.2157H83.8203Z" fill="#FF8EF6"/>
<path d="M81.4258 19.1543V21.5497H83.8212H86.2165V19.1543H83.8212H81.4258Z" fill="#FF8EF6"/>
<path d="M79.031 28.7358H76.6356H74.2402V31.1312H76.6356H79.031V33.5266V35.922H81.4263V33.5266V31.1312H83.8217V28.7358H81.4263H79.031Z" fill="#FF8EF6"/>
<path d="M79.0301 35.9224H76.6348V38.3177H79.0301V35.9224Z" fill="#FF8EF6"/>
<path d="M76.6348 21.5498V23.9452H79.0301H81.4255V21.5498H79.0301H76.6348Z" fill="#FF8EF6"/>
<path d="M79.031 2.38682H81.4263H83.8217H86.2171V0H83.8217H81.4263H79.031H76.6356H74.2402V2.38682H76.6356H79.031Z" fill="#FF8EF6"/>
<path d="M76.6356 38.3174H74.2402V40.7128H76.6356V38.3174Z" fill="#FF8EF6"/>
<path d="M76.6356 23.9448H74.2402V26.3402H76.6356V23.9448Z" fill="#FF8EF6"/>
<path d="M74.2403 40.7129H71.8535V43.1083H74.2403V40.7129Z" fill="#FF8EF6"/>
<path d="M71.8513 26.3408H69.4559H67.0605V28.7362H69.4559H71.8513H74.2381V26.3408H71.8513Z" fill="#FF8EF6"/>
<path d="M74.2392 4.78258V2.38721H71.8524H69.457V4.78258H71.8524H74.2392Z" fill="#FF8EF6"/>
<path d="M71.8524 43.1084H69.457V45.5038H71.8524V43.1084Z" fill="#FF8EF6"/>
<path d="M69.4559 45.5039H67.0605V47.8993H69.4559V45.5039Z" fill="#FF8EF6"/>
<path d="M69.4559 4.78223H67.0605V7.1776H69.4559V4.78223Z" fill="#FF8EF6"/>
<path d="M67.0622 21.5504V19.1551V16.7597V14.3643V11.969V9.57359V7.17822H64.6669V9.57359V11.969V14.3643V16.7597V19.1551V21.5504V23.9458H62.2715V26.3412H64.6669H67.0622V23.9458V21.5504Z" fill="#FF8EF6"/>
<path d="M62.2715 47.8989V50.2943H64.6669H67.0622V47.8989H64.6669H62.2715Z" fill="#FF8EF6"/>
<path d="M62.2704 26.3408H59.875V28.7362H62.2704V26.3408Z" fill="#FF8EF6"/>
<path d="M57.4824 50.2944V52.6898H59.8778H62.2732V50.2944H59.8778H57.4824Z" fill="#FF8EF6"/>
<path d="M59.8778 28.7358H57.4824V31.1312H59.8778V28.7358Z" fill="#FF8EF6"/>
<path d="M57.4794 31.1313H55.084V33.5267H57.4794V31.1313Z" fill="#FF8EF6"/>
<path d="M52.6895 52.6899V55.0853H55.0848H57.4802V52.6899H55.0848H52.6895Z" fill="#FF8EF6"/>
<path d="M55.0848 33.5264H52.6895V35.9217H55.0848V33.5264Z" fill="#FF8EF6"/>
<path d="M52.6922 35.9224H50.2969V38.3177H52.6922V35.9224Z" fill="#FF8EF6"/>
<path d="M47.8984 55.085V57.4803H50.2938H52.6892V55.085H50.2938H47.8984Z" fill="#FF8EF6"/>
<path d="M45.5039 38.3174V40.7128H47.8993H50.2946V38.3174H47.8993H45.5039Z" fill="#FF8EF6"/>
<path d="M43.1074 57.4805V59.8758H45.5028H47.8982V57.4805H45.5028H43.1074Z" fill="#FF8EF6"/>
<path d="M40.7109 40.7129V43.1083H43.1063H45.5017V40.7129H43.1063H40.7109Z" fill="#FF8EF6"/>
<path d="M38.3164 59.876V62.2713H40.7118H43.1071V59.876H40.7118H38.3164Z" fill="#FF8EF6"/>
<path d="M35.9238 43.1084V45.5038H38.3192H40.7146V43.1084H38.3192H35.9238Z" fill="#FF8EF6"/>
<path d="M33.5273 62.2705V64.6659H35.9227H38.3181V62.2705H35.9227H33.5273Z" fill="#FF8EF6"/>
<path d="M31.1309 45.5039V47.8993H33.5262H35.9216V45.5039H33.5262H31.1309Z" fill="#FF8EF6"/>
<path d="M28.7352 64.6665H26.3398V67.0619H28.7352H31.1306H33.526V64.6665H31.1306H28.7352Z" fill="#FF8EF6"/>
<path d="M26.3398 47.8989V50.2943H28.7352H31.1306V47.8989H28.7352H26.3398Z" fill="#FF8EF6"/>
<path d="M21.5516 67.0615H19.1562V69.4483H21.5516H23.947H26.3424V67.0615H23.947H21.5516Z" fill="#FF8EF6"/>
<path d="M21.5516 50.2944H19.1562V52.6898H21.5516H23.947H26.3424V50.2944H23.947H21.5516Z" fill="#FF8EF6"/>
<path d="M14.3641 69.4487H11.9688V71.8441H14.3641H16.7595H19.1549V69.4487H16.7595H14.3641Z" fill="#FF8EF6"/>
<path d="M14.3641 52.6899H11.9688V55.0853H14.3641H16.7595H19.1549V52.6899H16.7595H14.3641Z" fill="#FF8EF6"/>
<path d="M7.17857 71.8442H4.7832V74.2396H7.17857H9.57394H11.9693V71.8442H9.57394H7.17857Z" fill="#FF8EF6"/>
<path d="M7.17857 55.085H4.7832V57.4803H7.17857H9.57394H11.9693V55.085H9.57394H7.17857Z" fill="#FF8EF6"/>
<path d="M0 74.2393V76.6346H2.39537H4.78219V74.2393H2.39537H0Z" fill="#FF8EF6"/>
<path d="M0 57.4805V59.8758H2.39537H4.78219V57.4805H2.39537H0Z" fill="#FF8EF6"/>
<path d="M191.605 62.271V59.8756H189.209H186.814H184.418V57.4803H182.023H179.628H177.232V55.0849H174.837H172.442H170.046V52.6895H167.651H165.255V50.2942H162.86H160.465V47.8988H158.069H155.674V45.5034H153.279H150.883V43.1081H148.488H146.092V40.7127H143.697V38.3173H141.302V35.922H138.915V33.5266H136.52V31.1312H134.124V28.7358H131.729H129.333H126.938H124.543H122.147V31.1312H119.752V33.5266V35.922H122.147V38.3173H124.543V40.7127H126.938V43.1081H129.333V45.5034H131.729H134.124V47.8988H136.52H138.915V50.2942H141.302H143.697V52.6895H146.092H148.488V55.0849H150.883H153.279V57.4803H155.674H158.069V59.8756H160.465H162.86V62.271H165.255H167.651H170.046V64.6664H172.442H174.837H177.232V67.0618H179.628H182.023H184.418V69.4486H186.814H189.209H191.605V71.8439H194V69.4486V67.0618V64.6664V62.271H191.605Z" fill="#FFBBF5"/>
<path d="M119.753 23.945H117.358H114.962V21.5497H112.567H110.172V19.1543H107.776H105.381V21.5497H107.776V23.945H110.172H112.567V26.3404H114.962H117.358H119.753V23.945Z" fill="#FFBBF5"/>
<path d="M107.775 11.9683V9.57297H110.17H112.566H114.961V11.9683H112.566H110.17H107.775V14.3637H110.17V16.7591H112.566H114.961V19.1544H117.357H119.752V21.5498H122.147V23.9452H124.543H126.938H129.333V21.5498V19.1544V16.7591V14.3637V11.9683V9.57297V7.1776H126.938H124.543H122.147V4.78223H119.752H117.357H114.961H112.566H110.17V7.1776H107.775H105.38V9.57297H102.984V11.9683H105.38H107.775Z" fill="#FFBBF5"/>
<path d="M95.7969 11.9688V14.3641V16.7595H98.1922H100.588V14.3641V11.9688H98.1922H95.7969Z" fill="#FFBBF5"/>
<path d="M91.0057 7.1776H88.6103H86.215V4.78223H83.8196H81.4242H79.0288H76.6335H74.2381V7.1776H71.8513H69.4559H67.0605V9.57297V11.9683V14.3637V16.7591V19.1544V21.5498V23.9452H69.4559H71.8513H74.2381V21.5498H76.6335V19.1544H79.0288H81.4242V16.7591H83.8196H86.215V14.3637H88.6103V11.9683H86.215H83.8196H81.4242V9.57297H83.8196H86.215H88.6103V11.9683H91.0057H93.4011V9.57297H91.0057V7.1776Z" fill="#FFBBF5"/>
<path d="M86.2162 19.1543V21.5497H83.8209H81.4255V23.945H79.0301H76.6348V26.3404H79.0301H81.4255H83.8209V23.945H86.2162H88.6116V21.5497H91.007V19.1543H88.6116H86.2162Z" fill="#FFBBF5"/>
<path d="M74.2394 28.7358H71.8525H69.4572H67.0618H64.6664H62.2711V31.1312H59.8757V33.5266H57.4803V35.922H55.085V38.3173H52.6896V40.7127H50.2942V43.1081H47.8988H45.5035V45.5034H43.1081H40.7127V47.8988H38.3174H35.922V50.2942H33.5266H31.1313V52.6895H28.7359H26.3405V55.0849H23.9451H21.5498H19.1544V57.4803H16.759H14.3637H11.9683V59.8756H9.57292H7.17756H4.78219V62.271H2.39537H0V64.6664V67.0618V69.4486V71.8439H2.39537H4.78219V69.4486H7.17756H9.57292H11.9683V67.0618H14.3637H16.759H19.1544V64.6664H21.5498H23.9451H26.3405V62.271H28.7359H31.1313H33.5266V59.8756H35.922H38.3174V57.4803H40.7127H43.1081V55.0849H45.5035H47.8988V52.6895H50.2942H52.6896V50.2942H55.085H57.4803V47.8988H59.8757H62.2711V45.5034H64.6664H67.0618V43.1081H69.4572V40.7127H71.8525V38.3173H74.2394V35.922H76.6347V33.5266V31.1312H74.2394V28.7358Z" fill="#FFBBF5"/>
</svg>
