<svg width="73" height="26" viewBox="0 0 73 26" fill="none" xmlns="http://www.w3.org/2000/svg">
<path d="M21.9793 12.1798L21.8351 17.7711C20.9373 17.5115 18.6561 17.2479 17.6212 17.2721L17.7531 11.7114C18.7937 11.6541 21.1244 11.8028 21.9793 12.1798Z" fill="#DCAFDD"/>
<path d="M22.2206 6.95722L21.974 12.1827C21.0901 11.8764 18.8023 11.6643 17.7478 11.7143L17.8808 6.14292C18.9247 6.06624 21.358 6.54723 22.2206 6.95722Z" fill="#FFD3FB"/>
<path d="M14.0717 18.1082L14.2004 12.7032C15.1196 12.28 16.7223 11.8722 17.7516 11.7113L17.6197 17.2719C16.6139 17.4235 15.0004 17.7634 14.0717 18.1082Z" fill="#FFBBF5"/>
<path d="M8.11527 17.1239L7.14459 17.4932C7.13677 17.2826 7.13888 17.0424 7.15192 16.8365L8.12487 16.4457C8.12976 16.6625 8.12682 16.9006 8.11527 17.1239Z" fill="#FFBBF5"/>
<path d="M9.90898 17.2913L8.69078 17.7696L8.71925 16.8522C9.11962 16.6899 9.52653 16.5302 9.93541 16.3825L9.90898 17.2913Z" fill="#FFBBF5"/>
<path d="M11.8504 16.2928C11.8318 16.6554 11.8432 17.0318 11.8209 17.3985L10.4466 17.9287L10.4764 16.8307L11.8504 16.2928Z" fill="#FFBBF5"/>
<path d="M6.44351 16.7036L5.74003 16.979C5.7352 16.8033 5.73742 16.6043 5.74904 16.422C5.9875 16.3243 6.22157 16.2155 6.46446 16.1289L6.44351 16.7036Z" fill="#FFBBF5"/>
<path d="M4.78817 16.2373C4.60929 16.3139 4.4333 16.4046 4.25082 16.4722L4.2656 15.9979C4.44276 15.9169 4.61991 15.836 4.80061 15.7639L4.78817 16.2373Z" fill="#FFBBF5"/>
<path d="M8.1534 15.3692L7.18214 15.7438L7.19035 15.0894C7.52243 14.9672 7.8439 14.8184 8.17449 14.6994L8.1534 15.3692Z" fill="#FFBBF5"/>
<path d="M9.94564 15.5503L8.73765 16.027L8.75381 15.1197C9.15887 14.9555 9.56395 14.7912 9.97356 14.6384L9.94564 15.5503Z" fill="#FFBBF5"/>
<path d="M11.8662 15.6342L10.4818 16.153L10.5132 15.0723L11.8866 14.5398L11.8662 15.6342Z" fill="#FFBBF5"/>
<path d="M6.49126 14.8858C6.25394 14.9727 6.01931 15.0869 5.77697 15.1681L5.79178 14.5779L6.49818 14.3167C6.50947 14.4949 6.50581 14.6972 6.49126 14.8858Z" fill="#FFBBF5"/>
<path d="M4.83218 14.4275L4.29453 14.6548L4.30081 14.1865C4.47062 14.1007 4.66069 14.0249 4.84373 13.9519L4.83218 14.4275Z" fill="#FFBBF5"/>
<path d="M14.2017 12.7063L14.3364 7.23459C15.2604 6.82998 16.8766 6.34736 17.8859 6.14295L17.7528 11.7143C16.7247 11.844 15.1263 12.3169 14.2017 12.7063Z" fill="#FF8EF6"/>
<path d="M8.24089 11.7634L7.26905 12.1433L7.27753 11.4759C7.60553 11.3503 7.92987 11.2157 8.26107 11.0913L8.24089 11.7634Z" fill="#FF8EF6"/>
<path d="M8.83162 12.4238L8.84424 11.5076L10.0527 11.0255L10.0401 11.9417L8.83162 12.4238Z" fill="#FF8EF6"/>
<path d="M11.9513 11.97L10.5749 12.5088L10.5986 11.4158L11.9708 10.8736L11.9513 11.97Z" fill="#FF8EF6"/>
<path d="M6.58022 11.2662C6.35467 11.369 6.10855 11.4543 5.87568 11.5525L5.87438 10.9765C6.09727 10.867 6.35194 10.7962 6.58164 10.697L6.58022 11.2662Z" fill="#FF8EF6"/>
<path d="M4.91286 10.8046C4.73398 10.8812 4.56034 10.971 4.37462 11.0373L4.39176 10.562L4.91939 10.3232L4.91286 10.8046Z" fill="#FF8EF6"/>
<path d="M8.28342 9.96735C7.95958 10.0965 7.63394 10.2212 7.30482 10.3372L7.32007 9.67991C7.64807 9.55433 7.96977 9.41302 8.29954 9.29182L8.28342 9.96735Z" fill="#FF8EF6"/>
<path d="M10.0757 10.1485C9.67204 10.3095 9.26869 10.4781 8.8583 10.6289L8.88441 9.71244C9.28857 9.54595 9.69494 9.39174 10.1018 9.23208L10.0757 10.1485Z" fill="#FF8EF6"/>
<path d="M11.9887 10.2485L10.62 10.7791L10.6419 9.68157L12.0183 9.14278L11.9887 10.2485Z" fill="#FF8EF6"/>
<path d="M6.61675 9.47255L5.90805 9.75527L5.91582 9.16791C6.15961 9.0835 6.38985 8.9788 6.63216 8.89755L6.61675 9.47255Z" fill="#FF8EF6"/>
<path d="M4.95915 9.0005L4.42359 9.2399L4.43045 8.76616C4.60316 8.67407 4.78976 8.60997 4.966 8.52675L4.95915 9.0005Z" fill="#FF8EF6"/>
<path d="M8.12913 18.9373C7.74843 19.0944 7.3627 19.2456 6.97336 19.388L6.99104 18.6346C7.37589 18.4811 7.76753 18.3377 8.15529 18.1778L8.12913 18.9373Z" fill="#2E2E2E"/>
<path d="M14.0938 8.28195L12.3735 8.98109L12.4111 7.31625C12.973 7.02004 13.5404 6.72419 14.1365 6.50698L14.0938 8.28195Z" fill="#2E2E2E"/>
<path d="M5.055 7.26884L4.40561 7.54332L4.41233 7.00784C4.6311 6.9153 4.84819 6.81856 5.0688 6.73055L5.055 7.26884Z" fill="#2E2E2E"/>
<path d="M6.72143 7.6583C6.42691 7.76552 6.13681 7.88381 5.83908 7.98974L5.85645 7.36508C6.15332 7.25693 6.4413 7.12651 6.74173 7.02735L6.72143 7.6583Z" fill="#2E2E2E"/>
<path d="M12.1401 8.48149L10.5066 9.12544L10.5332 7.81498L12.1718 7.17672L12.1401 8.48149Z" fill="#2E2E2E"/>
<path d="M8.7694 8.91686L8.78536 7.92728L10.2248 7.35571L10.2044 8.35476L8.7694 8.91686Z" fill="#2E2E2E"/>
<path d="M8.38663 8.16686L7.22853 8.61858L7.24094 7.87236C7.62579 7.71883 8.00771 7.55106 8.40254 7.40897L8.38663 8.16686Z" fill="#2E2E2E"/>
<path d="M14.0549 10.0172C13.4853 10.2599 12.9116 10.4991 12.3352 10.7316L12.3731 9.19018L14.0906 8.49733L14.0549 10.0172Z" fill="#2E2E2E"/>
<path d="M14.0093 11.7881L12.2934 12.4984L12.2822 12.4976L12.3154 10.958L14.0445 10.2399L14.0093 11.7881Z" fill="#2E2E2E"/>
<path d="M4.28003 12.9019L4.28853 12.3709L4.94379 12.0838L4.93592 12.63L4.28003 12.9019Z" fill="#2E2E2E"/>
<path d="M12.2478 14.2501L12.2805 12.7159L13.9996 12.0069L13.9726 13.5414L12.2478 14.2501Z" fill="#2E2E2E"/>
<path d="M6.59086 13.0739L5.71115 13.412L5.72853 12.7873C6.0254 12.6792 6.31104 12.5497 6.61147 12.4505L6.59086 13.0739Z" fill="#2E2E2E"/>
<path d="M12.0087 13.8776L10.3734 14.5171L10.3981 13.2152L12.039 12.5761L12.0087 13.8776Z" fill="#2E2E2E"/>
<path d="M10.0769 13.7654L8.65063 14.329L8.6371 14.3292L8.66334 13.3381L10.1004 12.7674L10.0769 13.7654Z" fill="#2E2E2E"/>
<path d="M8.25833 13.5881L7.10169 14.0367L7.11175 13.2914C7.49947 13.1315 7.89229 12.9774 8.28454 12.8288L8.25833 13.5881Z" fill="#2E2E2E"/>
<path d="M13.9301 15.3251L13.9293 15.3434L12.2101 16.0524L12.238 14.4789L13.9674 13.7685L13.9301 15.3251Z" fill="#2E2E2E"/>
<path d="M13.8868 17.1016L12.1709 17.8325L12.1574 17.8326L12.1999 16.2687L13.9185 15.5651L13.8868 17.1016Z" fill="#2E2E2E"/>
<path d="M4.80201 18.0506C4.58112 18.131 4.37084 18.238 4.14732 18.3118L4.16201 17.7963C4.37787 17.6896 4.60257 17.6051 4.82429 17.5063L4.80201 18.0506Z" fill="#2E2E2E"/>
<path d="M13.8399 18.9916C13.2573 19.2086 12.6806 19.4335 12.1187 19.7091L12.1567 18.0519L13.884 17.3293L13.8399 18.9916Z" fill="#2E2E2E"/>
<path d="M6.46856 18.4927L5.58801 18.8493L5.59454 18.2315C5.89257 18.1126 6.18237 17.9868 6.48304 17.8745L6.46856 18.4927Z" fill="#2E2E2E"/>
<path d="M11.8803 19.2462L10.2476 19.8718L10.2802 18.5693L11.9102 17.9371L11.8803 19.2462Z" fill="#2E2E2E"/>
<path d="M8.51789 19.6849L8.53969 18.6827L9.97234 18.1214L9.9514 19.1259L8.51789 19.6849Z" fill="#2E2E2E"/>
<path fill-rule="evenodd" clip-rule="evenodd" d="M21.5962 7.89487C21.3405 7.56143 20.7568 7.46584 20.0412 7.64147C19.4514 7.78623 18.93 8.2058 18.4749 8.90172L18.3999 11.0736C19.4529 11.0267 20.5288 11.0533 21.4117 11.3574L21.4666 10.3736L21.5045 9.83772L21.5243 9.32676L21.5736 8.53928L21.5962 7.89487ZM21.409 12.6823C20.5541 12.3052 19.4076 12.27 18.3693 12.3265L18.2792 16.3828C19.3442 16.1271 20.6836 15.1391 21.3318 14.3811L21.409 12.6823ZM23.1101 6.42772L22.807 19.0527C20.9978 17.9882 18.533 17.8441 16.2998 18.3077C15.5321 18.4698 14.7745 18.664 14.0458 18.9238L14.1444 15.0773C14.7793 15.8036 16.0354 16.1803 17.012 16.4485L17.0846 12.4403C16.0553 12.6012 15.1037 12.9499 14.1845 13.3733L14.2109 12.0347C15.1331 11.6462 16.0868 11.33 17.115 11.2004L17.097 9.02218C16.5376 8.13337 15.235 7.78333 14.311 8.18794L14.3481 6.41262C16.48 5.55187 19.1761 5.13009 21.4617 5.77289C22.038 5.92904 22.5933 6.13456 23.1101 6.42772Z" fill="#2E2E2E"/>
<path d="M14.0938 8.28195L12.3735 8.98109L12.4111 7.31625C12.973 7.02004 13.5404 6.72419 14.1365 6.50698L14.0938 8.28195Z" fill="#2E2E2E"/>
<path d="M14.0093 11.7881L12.2934 12.4984L12.2822 12.4976L12.3154 10.958L14.0445 10.2399L14.0093 11.7881Z" fill="#2E2E2E"/>
<path d="M39.7241 6.00171H33.569V7.54047H32.0303V12.1568H33.569V13.6955H38.1853V18.3118H35.1078V16.7731H32.0303V18.3118H33.569V19.8506H39.7241V18.3118H41.2629V13.6955H39.7241V12.1568H35.1078V7.54047H38.1853V9.07924H41.2629V7.54047H39.7241V6.00171Z" fill="#2E2E2E"/>
<path d="M47.4179 18.3118H48.9567V19.8506H45.8792V18.3118H44.3404V7.54047H47.4179V10.618H48.9567V12.1568H47.4179V18.3118Z" fill="#2E2E2E"/>
<path fill-rule="evenodd" clip-rule="evenodd" d="M52.0342 10.618H58.1893V12.1568H59.728V19.8506H52.0342V18.3118H50.4954V15.2343H52.0342V13.6955H56.6505V12.1568H52.0342V10.618ZM56.6505 18.3118H53.573V15.2343H56.6505V18.3118Z" fill="#2E2E2E"/>
<path d="M65.8831 10.618H61.2668V19.8506H64.3443V12.1568H65.8831V10.618Z" fill="#2E2E2E"/>
<path d="M70.4994 10.618H72.0382V12.1568H70.4994V18.3118H72.0382V19.8506H68.9606V18.3118H67.4219V7.54047H70.4994V10.618Z" fill="#2E2E2E"/>
</svg>
