<svg width="780" height="181" viewBox="0 0 780 181" fill="none" xmlns="http://www.w3.org/2000/svg">
<g clip-path="url(#clip0_2610_9440)">
<rect width="778.855" height="180" transform="translate(0.195312 0.346191)" fill="white"/>
<path d="M194.56 102.273L178.099 142.781C172.593 138.259 157.509 129.667 150.269 126.823L166.56 86.5024C173.932 89.1214 189.676 97.0163 194.56 102.273Z" fill="#DCAFDD"/>
<path d="M210.683 64.7477L194.524 102.279C189.244 97.4556 173.971 89.2222 166.523 86.5091L182.852 46.1138C190.3 48.6008 205.837 59.2274 210.683 64.7477Z" fill="#FFD3FB"/>
<path d="M123.362 122.579L139.201 83.3892C146.743 82.9749 158.98 84.6704 166.56 86.498L150.269 126.818C142.878 124.991 130.754 122.767 123.362 122.579Z" fill="#FFBBF5"/>
<path d="M84.7951 97.9797L77.0455 97.848C77.5734 96.2842 78.2522 94.532 78.9121 93.0623L86.7371 93.0431C86.1714 94.6446 85.4928 96.3784 84.7951 97.9797Z" fill="#FFBBF5"/>
<path d="M96.766 104.443L86.9991 104.387L89.7332 97.7545C92.9574 97.7352 96.2196 97.7544 99.4624 97.8673L96.766 104.443Z" fill="#FFBBF5"/>
<path d="M112.985 102.803C111.853 105.403 110.892 108.192 109.723 110.811L98.7302 110.679L101.973 102.728L112.985 102.803Z" fill="#FFBBF5"/>
<path d="M74.3689 90.0212L68.731 89.9827C69.1833 88.6826 69.7492 87.2318 70.3337 85.9317C72.257 85.9125 74.1802 85.8001 76.1034 85.8754L74.3689 90.0212Z" fill="#FFBBF5"/>
<path d="M64.184 81.7733C62.7321 81.8119 61.2614 81.9619 59.8096 81.9238L61.2237 78.4948C62.6756 78.4195 64.1274 78.3443 65.5793 78.3443L64.184 81.7733Z" fill="#FFBBF5"/>
<path d="M89.9117 85.2462L82.1432 85.1521L84.0098 80.3854C86.6496 80.4606 89.2895 80.3101 91.9101 80.4047L89.9117 85.2462Z" fill="#FFBBF5"/>
<path d="M101.834 91.8059L92.1427 91.7673L94.7637 85.1728C98.0256 85.1535 101.288 85.1343 104.55 85.2115L101.834 91.8059Z" fill="#FFBBF5"/>
<path d="M114.915 98.028L103.885 97.783L107.09 89.9638L118.083 90.0767L114.915 98.028Z" fill="#FFBBF5"/>
<path d="M79.7268 76.8536C77.8413 76.7971 75.8992 76.9476 73.9948 76.8343L75.7294 72.5573L81.3485 72.7078C80.9339 74.0455 80.3491 75.5158 79.7268 76.8536Z" fill="#FFBBF5"/>
<path d="M69.4936 68.654L65.1381 68.748L66.4768 65.3378C67.891 65.2061 69.4182 65.2061 70.8889 65.2061L69.4936 68.654Z" fill="#FFBBF5"/>
<path d="M139.194 83.4138L155.259 43.753C162.782 43.4892 175.321 44.6763 182.882 46.127L166.553 86.5223C159.067 84.4687 146.68 83.263 139.194 83.4138Z" fill="#FF8EF6"/>
<path d="M100.482 59.1042L92.6946 59.0478L94.599 54.1868C97.2199 54.2254 99.8406 54.1868 102.48 54.2433L100.482 59.1042Z" fill="#FF8EF6"/>
<path d="M102.751 65.6639L105.372 58.9942H115.082L112.461 65.6639H102.751Z" fill="#FF8EF6"/>
<path d="M125.63 71.4519L114.6 71.3767L117.786 63.4448L128.798 63.4833L125.63 71.4519Z" fill="#FF8EF6"/>
<path d="M90.3454 50.6152C88.4976 50.7093 86.5555 50.6152 84.6699 50.6538L86.2537 46.4334C88.1015 46.2829 90.0624 46.5086 91.9292 46.4527L90.3454 50.6152Z" fill="#FF8EF6"/>
<path d="M80.0639 42.3673C78.612 42.4058 77.1602 42.5558 75.6895 42.4989L77.1225 39.0698L81.4404 38.8624L80.0639 42.3673Z" fill="#FF8EF6"/>
<path d="M105.743 46.0812C103.141 46.0812 100.539 46.0426 97.9372 45.9307L99.8604 41.1639C102.481 41.2025 105.102 41.1075 107.723 41.1833L105.743 46.0812Z" fill="#FF8EF6"/>
<path d="M117.666 52.641C114.423 52.641 111.161 52.6974 107.899 52.6024L110.614 45.9703C113.876 45.9317 117.12 45.9896 120.381 46.0089L117.666 52.641Z" fill="#FF8EF6"/>
<path d="M130.651 58.9595L119.696 58.8466L122.882 50.8766L133.913 50.9518L130.651 58.9595Z" fill="#FF8EF6"/>
<path d="M95.5585 37.5922H89.8641L91.5422 33.3153C93.4655 33.4093 95.351 33.3152 97.2554 33.4281L95.5585 37.5922Z" fill="#FF8EF6"/>
<path d="M85.3736 29.2961L80.9992 29.4846L82.3567 26.0368C83.8086 25.867 85.2793 25.9427 86.7312 25.8481L85.3736 29.2961Z" fill="#FF8EF6"/>
<path d="M79.8716 111.293C76.7982 111.331 73.7061 111.312 70.6135 111.217L72.8196 105.753C75.9119 105.753 79.0232 105.848 82.153 105.81L79.8716 111.293Z" fill="#2E2E2E"/>
<path d="M150.683 50.7116L136.824 50.8057L141.689 38.7285C146.403 38.201 151.154 37.6923 155.887 37.843L150.683 50.7116Z" fill="#2E2E2E"/>
<path d="M90.8288 16.9001L85.5683 17.013L87.0956 13.1128C88.868 13.0742 90.6404 13 92.413 13L90.8288 16.9001Z" fill="#2E2E2E"/>
<path d="M101.303 24.6174C98.9652 24.5422 96.6272 24.561 94.2704 24.4669L96.1182 19.9451C98.4751 20.0203 100.832 19.9065 103.189 20.058L101.303 24.6174Z" fill="#2E2E2E"/>
<path d="M136.588 46.467L123.484 46.4106L127.293 36.8956L140.416 37.0085L136.588 46.467Z" fill="#2E2E2E"/>
<path d="M112.019 39.8109L114.866 32.6135L126.425 32.6328L123.521 39.8866L112.019 39.8109Z" fill="#2E2E2E"/>
<path d="M111.44 33.2029L102.163 33.1277L104.313 27.7014C107.405 27.7014 110.516 27.5886 113.646 27.7014L111.44 33.2029Z" fill="#2E2E2E"/>
<path d="M145.615 63.3005C140.995 63.4134 136.357 63.4891 131.719 63.5079L136.244 52.3352L150.065 52.2787L145.615 63.3005Z" fill="#2E2E2E"/>
<path d="M140.402 76.1305L126.543 76.3191L126.468 76.2805L130.955 65.1078L144.927 64.9004L140.402 76.1305Z" fill="#2E2E2E"/>
<path d="M69.8797 55.8725L71.4071 52.0101L76.7433 51.8215L75.1783 55.7969L69.8797 55.8725Z" fill="#2E2E2E"/>
<path d="M121.383 89.0087L125.852 77.8736L139.73 77.7038L135.299 88.8578L121.383 89.0087Z" fill="#2E2E2E"/>
<path d="M85.4225 63.8793L78.3897 63.7852L80.2375 59.2633C82.5944 59.3386 84.9325 59.2248 87.2892 59.3762L85.4225 63.8793Z" fill="#2E2E2E"/>
<path d="M120.756 85.5842L107.652 85.4901L111.423 76.032L124.565 76.145L120.756 85.5842Z" fill="#2E2E2E"/>
<path d="M107.675 79.121L96.2297 79.0823L96.1355 79.0438L99.0581 71.8652L110.597 71.8845L107.675 79.121Z" fill="#2E2E2E"/>
<path d="M95.5592 72.5129L86.3011 72.4189L88.4318 66.9927C91.5617 66.9541 94.7107 66.9734 97.8405 67.0313L95.5592 72.5129Z" fill="#2E2E2E"/>
<path d="M130.072 101.791L130.015 101.922L116.138 102.092L120.682 90.6554L134.635 90.505L130.072 101.791Z" fill="#2E2E2E"/>
<path d="M124.859 114.669L110.944 115.008L110.85 114.969L115.469 103.646L129.328 103.514L124.859 114.669Z" fill="#2E2E2E"/>
<path d="M59.2604 95.0862C57.5069 95.0297 55.7533 95.199 54 95.0862L55.5273 91.3556C57.3185 91.2051 59.1098 91.2427 60.92 91.167L59.2604 95.0862Z" fill="#2E2E2E"/>
<path d="M119.308 128.367C114.669 128.254 110.05 128.217 105.393 128.593L110.238 116.573L124.21 116.328L119.308 128.367Z" fill="#2E2E2E"/>
<path d="M69.5901 103.189L62.5003 103.228L64.2538 98.7249C66.6485 98.7249 69.0054 98.6497 71.4001 98.7057L69.5901 103.189Z" fill="#2E2E2E"/>
<path d="M105.02 124.508L91.9723 124.32L95.7999 114.881L108.848 115.013L105.02 124.508Z" fill="#2E2E2E"/>
<path d="M80.4991 117.9L83.4216 110.628L94.9045 110.703L91.9819 117.995L80.4991 117.9Z" fill="#2E2E2E"/>
<path fill-rule="evenodd" clip-rule="evenodd" d="M203.758 69.7865C202.908 66.5992 199.126 64.1948 193.68 63.3908C189.192 62.7281 184.417 64.2768 179.338 68.0422L172.812 83.7219C180.241 86.4539 187.625 89.7902 192.905 94.5943L196.006 87.5528L197.75 83.7409L199.301 80.0585L201.82 74.438L203.758 69.7865ZM189.223 104.285C184.339 99.0283 176.489 95.4223 169.136 92.8037L157.295 122.234C165.384 123.472 177.4 120.151 183.99 116.495L189.223 104.285ZM218.31 63.4679L181.297 155C171.7 141.924 155.013 133.672 138.25 130.544C132.481 129.489 126.692 128.698 120.922 128.472L132.242 100.602C134.635 107.773 142.3 114.199 148.329 119.014L159.916 89.8851C152.336 88.0575 144.775 87.8314 137.233 88.2459L141.117 78.524C148.584 78.3735 156.069 78.8443 163.555 80.8979L169.454 64.9004C168.034 56.7603 159.972 50.394 152.449 50.6577L157.615 37.7704C174.773 37.6951 194.628 42.4806 208.694 53.8604C212.258 56.6866 215.539 59.8127 218.31 63.4679Z" fill="#2E2E2E"/>
<path d="M150.683 50.7116L136.824 50.8057L141.689 38.7285C146.403 38.201 151.154 37.6923 155.887 37.843L150.683 50.7116Z" fill="#2E2E2E"/>
<path d="M140.402 76.1305L126.543 76.3191L126.468 76.2805L130.955 65.1078L144.927 64.9004L140.402 76.1305Z" fill="#2E2E2E"/>
<path d="M221.516 63V40.375H228.923C233.798 40.375 236.266 43.4062 236.266 47.4062C236.266 51.375 233.798 54.4375 228.954 54.4375H223.735V63H221.516ZM223.735 52.4375H228.86C232.391 52.4375 234.079 50.3125 234.079 47.4062C234.079 44.4688 232.391 42.375 228.829 42.375H223.735V52.4375ZM235.894 63H233.55L241.769 40.375H244.175L252.394 63H250.05L247.675 56.2812H238.269L235.894 63ZM238.988 54.3125H246.988L243.05 43.25H242.894L238.988 54.3125ZM253.115 63V40.375H260.521C265.396 40.375 267.865 43.2188 267.865 47.1875C267.865 50.2188 266.428 52.5469 263.615 53.4688L268.803 63H266.24L261.334 53.9062L260.553 53.9375H255.334V63H253.115ZM255.334 51.9062H260.459C263.99 51.9062 265.678 50.0938 265.678 47.1875C265.678 44.2812 263.99 42.375 260.428 42.375H255.334V51.9062ZM269.993 63H267.649L275.868 40.375H278.274L286.493 63H284.149L281.774 56.2812H272.368L269.993 63ZM273.086 54.3125H281.086L277.149 43.25H276.993L273.086 54.3125ZM293.933 63H287.214V40.375H294.308C300.808 40.375 304.651 44.5938 304.651 51.625C304.651 58.75 300.745 63 293.933 63ZM289.433 61H293.808C299.558 61 302.495 57.4688 302.464 51.625C302.464 45.8438 299.62 42.375 294.183 42.375H289.433V61ZM325.122 51.6875C325.122 58.7812 321.029 63.3125 315.31 63.3125C309.56 63.3125 305.466 58.7812 305.466 51.6875C305.466 44.5938 309.56 40.0625 315.31 40.0625C321.029 40.0625 325.122 44.5938 325.122 51.6875ZM322.966 51.6875C322.966 45.6562 319.685 42.1562 315.31 42.1562C310.935 42.1562 307.654 45.6562 307.654 51.6875C307.654 57.6875 310.904 61.2188 315.31 61.2188C319.685 61.2188 322.966 57.7188 322.966 51.6875ZM327.281 40.375L333.406 50.0938H333.562L339.75 40.375H342.375L335.125 51.6875L342.375 63H339.75L333.562 53.4062H333.406L327.25 63H324.625L332 51.6875L324.625 40.375H327.281Z" fill="#FFBBF5"/>
<path d="M644.275 118.969V114.438L670.056 74.4375H676.775V114.047H684.509V118.969H676.775V131H671.463V118.969H644.275ZM650.447 114.047H671.463V81.8594H670.916L650.447 113.656V114.047ZM686.547 118.969V114.438L712.328 74.4375H719.047V114.047H726.781V118.969H719.047V131H713.734V118.969H686.547ZM692.719 114.047H713.734V81.8594H713.188L692.719 113.656V114.047Z" fill="#2E2E2E"/>
<path d="M262.891 135.752L243.216 68.8761H262.799L272.22 110.72H272.775L283.767 68.8761H299.285L310.369 110.904H310.923L320.345 68.8761H339.928L320.253 135.752H303.349L291.803 97.5108H291.249L279.702 135.752H262.891ZM338.549 135.752V85.5951H356.007V135.752H338.549ZM347.232 80.1453C342.429 80.1453 338.549 76.5428 338.549 72.1091C338.549 67.6753 342.429 64.0729 347.232 64.0729C352.035 64.0729 355.915 67.6753 355.915 72.1091C355.915 76.5428 352.035 80.1453 347.232 80.1453ZM375.228 107.394V135.752H357.77V85.5951H374.304V95.0168H374.858C377.075 88.7357 382.802 84.9485 390.192 84.9485C400.814 84.9485 407.742 92.7076 407.649 103.792V135.752H390.192V107.394C390.284 102.222 387.513 99.1735 382.802 99.1735C378.183 99.1735 375.228 102.222 375.228 107.394ZM427.424 136.399C416.617 136.399 407.564 127.993 407.564 110.72C407.564 92.6152 417.171 84.9485 427.239 84.9485C434.814 84.9485 439.432 89.2899 441.372 94.2779H441.649V68.8761H459.107V135.752H441.834V127.531H441.372C439.34 132.519 434.629 136.399 427.424 136.399ZM433.705 123.005C438.97 123.005 442.111 118.202 442.111 110.627C442.111 103.053 438.97 98.4345 433.705 98.4345C428.532 98.4345 425.577 103.053 425.577 110.627C425.577 118.294 428.532 123.005 433.705 123.005ZM484.608 136.676C468.628 136.676 458.837 126.977 458.837 110.812C458.837 95.2939 468.721 84.9485 484.239 84.9485C499.11 84.9485 508.994 94.555 508.994 110.627V114.784H476.11V115.431C476.11 120.603 479.436 124.298 484.978 124.298C488.765 124.298 491.813 122.635 492.922 119.772H508.902C507.147 130.117 498.279 136.676 484.608 136.676ZM476.11 104.993H492.829C492.737 100.467 489.227 97.3261 484.608 97.3261C479.944 97.3261 476.249 100.513 476.11 104.993ZM506.507 121.896C506.507 110.812 514.728 106.563 524.981 105.916L536.712 105.455V101.39C536.712 98.6193 534.403 97.049 530.985 97.049C527.383 97.049 525.074 98.6193 524.612 101.76H508.447C509.094 92.6152 516.483 84.9485 531.263 84.9485C545.21 84.9485 554.17 91.7839 554.17 101.483V135.752H537.821V128.732H537.451C534.496 134.182 529.508 136.583 522.857 136.583C513.25 136.583 506.507 131.872 506.507 121.896ZM522.949 120.88C522.949 123.836 525.259 125.407 528.491 125.407C532.833 125.407 536.897 122.635 536.805 117.925V115.246C535.05 115.292 530.431 115.477 528.122 115.708C524.981 116.077 522.949 118.202 522.949 120.88ZM584.937 85.5951V98.2498H576.162V119.68C576.162 122.081 577.363 123.005 579.764 123.097C581.057 123.19 583.644 123.005 585.583 122.82V135.844C583.921 136.121 581.242 136.491 577.27 136.491C565.077 136.491 558.611 131.872 558.704 121.435V98.2498H552.238V85.5951H558.704V73.587H576.162V85.5951H584.937ZM603.418 107.394V135.752H585.96V68.8761H602.772V95.0168H603.326C605.543 88.7357 610.993 84.9485 618.382 84.9485C629.005 84.9485 635.932 92.7076 635.932 103.792V135.752H618.475V107.394C618.475 102.222 615.796 99.1735 610.993 99.1735C606.466 99.1735 603.418 102.222 603.418 107.394Z" fill="#2E2E2E"/>
</g>
<defs>
<clipPath id="clip0_2610_9440">
<rect width="778.855" height="180" fill="white" transform="translate(0.195312 0.346191)"/>
</clipPath>
</defs>
</svg>
