<svg width="424" height="367" viewBox="0 0 424 367" fill="none" xmlns="http://www.w3.org/2000/svg">
<path d="M362.622 230.81L320.155 335.315C305.951 323.649 267.037 301.484 248.357 294.144L290.386 190.125C309.405 196.881 350.023 217.249 362.622 230.81Z" fill="#DCAFDD"/>
<path d="M404.215 134L362.527 230.825C348.906 218.381 309.506 197.14 290.291 190.141L332.416 85.9276C351.631 92.3438 391.714 119.759 404.215 134Z" fill="#FFD3FB"/>
<path d="M178.945 283.197L219.805 182.094C239.262 181.025 270.832 185.399 290.387 190.114L248.359 294.133C229.291 289.419 198.012 283.683 178.945 283.197Z" fill="#FFBBF5"/>
<path d="M79.4471 219.735L59.4541 219.395C60.8161 215.361 62.5673 210.84 64.2699 207.049L84.457 206.999C82.9976 211.131 81.2469 215.604 79.4471 219.735Z" fill="#FFBBF5"/>
<path d="M110.33 236.409L85.1329 236.264L92.1864 219.154C100.504 219.104 108.92 219.154 117.286 219.445L110.33 236.409Z" fill="#FFBBF5"/>
<path d="M152.171 232.178C149.253 238.886 146.772 246.08 143.756 252.837L115.397 252.497L123.764 231.986L152.171 232.178Z" fill="#FFBBF5"/>
<path d="M52.5491 199.203L38.0042 199.104C39.1711 195.75 40.631 192.007 42.1389 188.653C47.1006 188.603 52.0623 188.314 57.0237 188.508L52.5491 199.203Z" fill="#FFBBF5"/>
<path d="M26.2736 177.925C22.5281 178.025 18.7338 178.412 14.9883 178.313L18.6366 169.467C22.3821 169.273 26.1277 169.079 29.8732 169.079L26.2736 177.925Z" fill="#FFBBF5"/>
<path d="M92.647 186.885L72.6054 186.642L77.4211 174.345C84.2313 174.539 91.0418 174.15 97.8024 174.394L92.647 186.885Z" fill="#FFBBF5"/>
<path d="M123.405 203.808L98.4026 203.708L105.164 186.695C113.58 186.646 121.995 186.596 130.411 186.795L123.405 203.808Z" fill="#FFBBF5"/>
<path d="M157.152 219.86L128.695 219.227L136.965 199.055L165.325 199.347L157.152 219.86Z" fill="#FFBBF5"/>
<path d="M66.3716 165.233C61.5072 165.087 56.4969 165.476 51.5839 165.183L56.059 154.149L70.5553 154.538C69.4856 157.989 67.9769 161.782 66.3716 165.233Z" fill="#FFBBF5"/>
<path d="M39.9717 144.079L28.735 144.322L32.1887 135.524C35.837 135.184 39.777 135.184 43.5713 135.184L39.9717 144.079Z" fill="#FFBBF5"/>
<path d="M219.789 182.156L261.233 79.8379C280.642 79.1573 312.989 82.2197 332.495 85.9624L290.37 190.176C271.058 184.878 239.101 181.767 219.789 182.156Z" fill="#FF8EF6"/>
<path d="M119.918 119.441L99.8277 119.296L104.741 106.755C111.502 106.855 118.263 106.755 125.074 106.901L119.918 119.441Z" fill="#FF8EF6"/>
<path d="M125.77 136.364L132.532 119.158H157.583L150.822 136.364H125.77Z" fill="#FF8EF6"/>
<path d="M184.797 151.297L156.34 151.103L164.56 130.639L192.968 130.739L184.797 151.297Z" fill="#FF8EF6"/>
<path d="M93.7669 97.5413C88.9999 97.7839 83.9897 97.5412 79.125 97.6408L83.2111 86.7528C87.9781 86.3646 93.037 86.9469 97.853 86.8025L93.7669 97.5413Z" fill="#FF8EF6"/>
<path d="M67.2424 76.2629C63.4968 76.3624 59.7513 76.7494 55.957 76.6026L59.6541 67.7561L70.7935 67.221L67.2424 76.2629Z" fill="#FF8EF6"/>
<path d="M133.491 85.8443C126.778 85.8443 120.066 85.7447 113.353 85.456L118.314 73.1584C125.076 73.258 131.837 73.013 138.599 73.2084L133.491 85.8443Z" fill="#FF8EF6"/>
<path d="M164.25 102.767C155.883 102.767 147.467 102.913 139.053 102.668L146.057 85.5582C154.473 85.4586 162.84 85.6079 171.254 85.6577L164.25 102.767Z" fill="#FF8EF6"/>
<path d="M197.748 119.068L169.486 118.777L177.707 98.2155L206.164 98.4096L197.748 119.068Z" fill="#FF8EF6"/>
<path d="M107.216 63.944H92.5253L96.8546 52.9102C101.816 53.1529 106.681 52.9101 111.594 53.2013L107.216 63.944Z" fill="#FF8EF6"/>
<path d="M80.9405 42.5413L69.6552 43.0278L73.1576 34.1329C76.9031 33.6949 80.6973 33.8901 84.4429 33.6462L80.9405 42.5413Z" fill="#FF8EF6"/>
<path d="M66.7446 254.079C58.8156 254.179 50.8387 254.129 42.8602 253.885L48.5515 239.789C56.5291 239.789 64.5557 240.032 72.6301 239.935L66.7446 254.079Z" fill="#2E2E2E"/>
<path d="M249.427 97.7899L213.674 98.0326L226.224 66.8755C238.384 65.5144 250.642 64.2021 262.852 64.5909L249.427 97.7899Z" fill="#2E2E2E"/>
<path d="M95.0123 10.5616L81.4411 10.8529L85.3814 0.791072C89.9538 0.691525 94.5263 0.5 99.0993 0.5L95.0123 10.5616Z" fill="#2E2E2E"/>
<path d="M122.035 30.4711C116.003 30.277 109.971 30.3254 103.891 30.0828L108.658 18.4171C114.739 18.6112 120.819 18.3176 126.899 18.7084L122.035 30.4711Z" fill="#2E2E2E"/>
<path d="M213.065 86.8396L179.258 86.6939L189.084 62.1468L222.94 62.4381L213.065 86.8396Z" fill="#2E2E2E"/>
<path d="M149.68 69.6677L157.025 51.0996L186.844 51.1495L179.352 69.863L149.68 69.6677Z" fill="#2E2E2E"/>
<path d="M148.186 52.6202L124.253 52.4261L129.798 38.4273C137.776 38.4273 145.803 38.1361 153.877 38.4273L148.186 52.6202Z" fill="#2E2E2E"/>
<path d="M236.351 130.267C224.434 130.558 212.467 130.754 200.501 130.802L212.176 101.978L247.832 101.833L236.351 130.267Z" fill="#2E2E2E"/>
<path d="M222.902 163.366L187.149 163.853L186.955 163.754L198.532 134.93L234.577 134.395L222.902 163.366Z" fill="#2E2E2E"/>
<path d="M40.9671 111.104L44.9074 101.14L58.6739 100.653L54.6365 110.909L40.9671 111.104Z" fill="#2E2E2E"/>
<path d="M173.838 196.59L185.367 167.864L221.169 167.425L209.737 196.201L173.838 196.59Z" fill="#2E2E2E"/>
<path d="M81.0651 131.76L62.9214 131.518L67.6884 119.852C73.7689 120.046 79.8007 119.752 85.8808 120.143L81.0651 131.76Z" fill="#2E2E2E"/>
<path d="M172.22 187.755L138.413 187.513L148.141 163.113L182.045 163.404L172.22 187.755Z" fill="#2E2E2E"/>
<path d="M138.472 171.081L108.946 170.982L108.703 170.882L116.243 152.363L146.012 152.413L138.472 171.081Z" fill="#2E2E2E"/>
<path d="M107.216 154.034L83.3317 153.791L88.8284 139.792C96.9032 139.693 105.027 139.743 113.101 139.892L107.216 154.034Z" fill="#2E2E2E"/>
<path d="M196.253 229.565L196.108 229.905L160.306 230.343L172.029 200.838L208.025 200.45L196.253 229.565Z" fill="#2E2E2E"/>
<path d="M182.804 262.789L146.905 263.664L146.663 263.565L158.58 234.351L194.334 234.011L182.804 262.789Z" fill="#2E2E2E"/>
<path d="M13.571 212.269C9.04717 212.123 4.52335 212.56 0 212.269L3.94014 202.645C8.56124 202.257 13.1825 202.354 17.8524 202.158L13.571 212.269Z" fill="#2E2E2E"/>
<path d="M168.484 298.128C156.517 297.837 144.599 297.74 132.585 298.712L145.086 267.701L181.131 267.068L168.484 298.128Z" fill="#2E2E2E"/>
<path d="M40.22 233.174L21.9294 233.274L26.4532 221.657C32.6311 221.657 38.7115 221.462 44.8896 221.607L40.22 233.174Z" fill="#2E2E2E"/>
<path d="M131.623 288.174L97.9623 287.688L107.837 263.336L141.498 263.676L131.623 288.174Z" fill="#2E2E2E"/>
<path d="M68.3635 271.126L75.903 252.364L105.527 252.558L97.9871 271.369L68.3635 271.126Z" fill="#2E2E2E"/>
<path fill-rule="evenodd" clip-rule="evenodd" d="M386.353 147C384.16 138.777 374.403 132.574 360.353 130.5C348.772 128.79 336.455 132.786 323.353 142.5L306.516 182.951C325.683 189.999 344.732 198.606 358.353 211L366.353 192.834L370.853 183L374.853 173.5L381.353 159L386.353 147ZM348.853 236C336.254 222.439 316.003 213.136 297.031 206.381L266.483 282.305C287.353 285.5 318.353 276.932 335.353 267.5L348.853 236ZM423.894 130.699L328.406 366.837C303.646 333.104 260.597 311.814 217.352 303.745C202.467 301.023 187.534 298.982 172.649 298.399L201.853 226.5C208.025 245 227.801 261.577 243.353 274L273.245 198.851C253.691 194.136 234.185 193.553 214.727 194.622L224.748 169.541C244.011 169.153 263.323 170.368 282.633 175.666L297.853 134.395C294.189 113.395 273.391 96.9704 253.982 97.6509L267.31 64.4035C311.576 64.2094 362.798 76.5551 399.085 105.913C408.279 113.204 416.743 121.269 423.894 130.699Z" fill="#2E2E2E"/>
<path d="M249.427 97.7899L213.674 98.0326L226.224 66.8755C238.384 65.5144 250.642 64.2021 262.852 64.5909L249.427 97.7899Z" fill="#2E2E2E"/>
<path d="M222.902 163.366L187.149 163.853L186.955 163.754L198.532 134.93L234.577 134.395L222.902 163.366Z" fill="#2E2E2E"/>
</svg>
