<svg width="373" height="108" viewBox="0 0 373 108" fill="none" xmlns="http://www.w3.org/2000/svg">
<path d="M372.083 0H-95.2305V108H372.083V0Z" fill="white"/>
<path d="M37.5625 37.5916V24.0166H42.0067C44.9317 24.0166 46.4125 25.8353 46.4125 28.2353C46.4125 30.6166 44.9317 32.4541 42.0253 32.4541H38.8939V37.5916H37.5625ZM38.8939 31.2541H41.9689C44.0875 31.2541 45.1003 29.9791 45.1003 28.2353C45.1003 26.4729 44.0875 25.2166 41.9503 25.2166H38.8939V31.2541ZM46.1893 37.5916H44.7829L49.7143 24.0166H51.1579L56.0893 37.5916H54.6829L53.2579 33.5603H47.6143L46.1893 37.5916ZM48.0457 32.3791H52.8457L50.4829 25.7416H50.3893L48.0457 32.3791ZM56.5219 37.5916V24.0166H60.9655C63.8905 24.0166 65.3719 25.7229 65.3719 28.1041C65.3719 29.9229 64.5097 31.3197 62.8219 31.8729L65.9347 37.5916H64.3969L61.4533 32.1353L60.9847 32.1541H57.8533V37.5916H56.5219ZM57.8533 30.9353H60.9283C63.0469 30.9353 64.0597 29.8479 64.0597 28.1041C64.0597 26.3603 63.0469 25.2166 60.9097 25.2166H57.8533V30.9353ZM66.6487 37.5916H65.2423L70.1737 24.0166H71.6173L76.5487 37.5916H75.1423L73.7173 33.5603H68.0737L66.6487 37.5916ZM68.5045 32.3791H73.3045L70.9423 25.7416H70.8487L68.5045 32.3791ZM81.0127 37.5916H76.9813V24.0166H81.2377C85.1377 24.0166 87.4435 26.5479 87.4435 30.7666C87.4435 35.0416 85.0999 37.5916 81.0127 37.5916ZM78.3127 36.3916H80.9377C84.3877 36.3916 86.1499 34.2729 86.1313 30.7666C86.1313 27.2979 84.4249 25.2166 81.1627 25.2166H78.3127V36.3916ZM99.7261 30.8041C99.7261 35.0603 97.2703 37.7791 93.8389 37.7791C90.3889 37.7791 87.9325 35.0603 87.9325 30.8041C87.9325 26.5479 90.3889 23.8291 93.8389 23.8291C97.2703 23.8291 99.7261 26.5479 99.7261 30.8041ZM98.4325 30.8041C98.4325 27.1853 96.4639 25.0853 93.8389 25.0853C91.2139 25.0853 89.2453 27.1853 89.2453 30.8041C89.2453 34.4041 91.1953 36.5229 93.8389 36.5229C96.4639 36.5229 98.4325 34.4229 98.4325 30.8041ZM101.022 24.0166L104.697 29.8479H104.79L108.503 24.0166H110.078L105.728 30.8041L110.078 37.5916H108.503L104.79 31.8353H104.697L101.003 37.5916H99.4279L103.853 30.8041L99.4279 24.0166H101.022Z" fill="#FFBBF5"/>
<path d="M291.219 71.173V68.4544L306.687 44.4541H310.719V68.2198H315.359V71.173H310.719V78.3916H307.532V71.173H291.219ZM294.922 68.2198H307.532V48.9072H307.203L294.922 67.9852V68.2198ZM316.582 71.173V68.4544L332.051 44.4541H336.082V68.2198H340.722V71.173H336.082V78.3916H332.894V71.173H316.582ZM320.285 68.2198H332.894V48.9072H332.567L320.285 67.9852V68.2198Z" fill="#2E2E2E"/>
<path d="M62.387 81.2438L50.582 41.1182H62.3318L67.9844 66.2246H68.3174L74.9126 41.1182H84.2234L90.8738 66.335H91.2062L96.8594 41.1182H108.609L96.8042 81.2438H86.6618L79.7342 58.2991H79.4018L72.4736 81.2438H62.387ZM107.782 81.2438V51.1496H118.257V81.2438H107.782ZM112.992 47.8798C110.11 47.8798 107.782 45.7183 107.782 43.058C107.782 40.3978 110.11 38.2363 112.992 38.2363C115.873 38.2363 118.201 40.3978 118.201 43.058C118.201 45.7183 115.873 47.8798 112.992 47.8798ZM129.789 64.229V81.2438H119.314V51.1496H129.235V56.8027H129.567C130.897 53.034 134.334 50.7617 138.768 50.7617C145.141 50.7617 149.298 55.4171 149.242 62.0678V81.2438H138.768V64.229C138.823 61.1258 137.16 59.2967 134.334 59.2967C131.562 59.2967 129.789 61.1258 129.789 64.229ZM161.107 81.632C154.623 81.632 149.191 76.5884 149.191 66.2246C149.191 55.3617 154.955 50.7617 160.996 50.7617C165.541 50.7617 168.312 53.3665 169.476 56.3593H169.642V41.1182H180.117V81.2438H169.753V76.3112H169.476C168.256 79.304 165.43 81.632 161.107 81.632ZM164.875 73.5956C168.034 73.5956 169.919 70.7138 169.919 66.1688C169.919 61.6244 168.034 58.8533 164.875 58.8533C161.772 58.8533 159.999 61.6244 159.999 66.1688C159.999 70.769 161.772 73.5956 164.875 73.5956ZM195.417 81.7982C185.829 81.7982 179.955 75.9788 179.955 66.2798C179.955 56.9689 185.885 50.7617 195.196 50.7617C204.118 50.7617 210.049 56.5256 210.049 66.1688V68.663H190.318V69.0512C190.318 72.1544 192.314 74.3714 195.639 74.3714C197.911 74.3714 199.74 73.3736 200.406 71.6558H209.994C208.941 77.8628 203.62 81.7982 195.417 81.7982ZM190.318 62.7884H200.35C200.295 60.0728 198.189 58.1883 195.417 58.1883C192.619 58.1883 190.402 60.1004 190.318 62.7884ZM208.557 72.9302C208.557 66.2798 213.489 63.7304 219.641 63.3422L226.68 63.0656V60.6266C226.68 58.9642 225.294 58.022 223.243 58.022C221.082 58.022 219.697 58.9642 219.42 60.8486H209.721C210.109 55.3617 214.542 50.7617 223.41 50.7617C231.778 50.7617 237.154 54.8629 237.154 60.6824V81.2438H227.345V77.0318H227.123C225.35 80.3018 222.357 81.7424 218.367 81.7424C212.602 81.7424 208.557 78.9158 208.557 72.9302ZM218.422 72.3206C218.422 74.0942 219.808 75.0368 221.747 75.0368C224.352 75.0368 226.791 73.3736 226.735 70.5476V68.9402C225.682 68.9678 222.911 69.0788 221.526 69.2174C219.641 69.4388 218.422 70.7138 218.422 72.3206ZM255.615 51.1496V58.7425H250.35V71.6006C250.35 73.0412 251.07 73.5956 252.511 73.6508C253.287 73.7066 254.839 73.5956 256.002 73.4846V81.299C255.005 81.4652 253.398 81.6872 251.014 81.6872C243.699 81.6872 239.819 78.9158 239.875 72.6536V58.7425H235.995V51.1496H239.875V43.9448H250.35V51.1496H255.615ZM266.703 64.229V81.2438H256.228V41.1182H266.316V56.8027H266.648C267.978 53.034 271.248 50.7617 275.682 50.7617C282.055 50.7617 286.212 55.4171 286.212 62.0678V81.2438H275.737V64.229C275.737 61.1258 274.13 59.2967 271.248 59.2967C268.532 59.2967 266.703 61.1258 266.703 64.229Z" fill="#2E2E2E"/>
</svg>
