<?xml version="1.0" encoding="UTF-8" ?>
<svg version="1.1" width="24" height="24" xmlns="http://www.w3.org/2000/svg" shape-rendering="crispEdges">
<rect x="2" y="3" width="3" height="1" fill="#CB8A9C" />
<rect x="16" y="3" width="3" height="1" fill="#CB8A9C" />
<rect x="1" y="4" width="1" height="4" fill="#CB8A9C" />
<rect x="2" y="4" width="3" height="1" fill="#F2A8BC" />
<rect x="5" y="4" width="1" height="1" fill="#CB8A9C" />
<rect x="8" y="4" width="7" height="1" fill="#161723" />
<rect x="15" y="4" width="1" height="1" fill="#CB8A9C" />
<rect x="16" y="4" width="3" height="1" fill="#F2A8BC" />
<rect x="19" y="4" width="1" height="3" fill="#CB8A9C" />
<rect x="2" y="5" width="2" height="2" fill="#F2A8BC" />
<rect x="4" y="5" width="1" height="1" fill="#CB8A9C" />
<rect x="6" y="5" width="2" height="1" fill="#161723" />
<rect x="8" y="5" width="3" height="1" fill="#323345" />
<rect x="11" y="5" width="3" height="1" fill="#202130" />
<rect x="14" y="5" width="2" height="1" fill="#323345" />
<rect x="16" y="5" width="1" height="2" fill="#CB8A9C" />
<rect x="17" y="5" width="2" height="2" fill="#F2A8BC" />
<rect x="20" y="5" width="1" height="1" fill="#161723" />
<rect x="4" y="6" width="2" height="1" fill="#161723" />
<rect x="6" y="6" width="2" height="3" fill="#323345" />
<rect x="8" y="6" width="1" height="1" fill="#202130" />
<rect x="9" y="6" width="1" height="9" fill="#323345" />
<rect x="10" y="6" width="1" height="1" fill="#202130" />
<rect x="11" y="6" width="3" height="3" fill="#323345" />
<rect x="14" y="6" width="2" height="1" fill="#202130" />
<rect x="20" y="6" width="1" height="4" fill="#323345" />
<rect x="21" y="6" width="1" height="1" fill="#161723" />
<rect x="2" y="7" width="1" height="1" fill="#CB8A9C" />
<rect x="3" y="7" width="1" height="1" fill="#202130" />
<rect x="4" y="7" width="2" height="3" fill="#323345" />
<rect x="8" y="7" width="1" height="8" fill="#323345" />
<rect x="10" y="7" width="1" height="1" fill="#323345" />
<rect x="14" y="7" width="2" height="3" fill="#323345" />
<rect x="16" y="7" width="1" height="1" fill="#202130" />
<rect x="17" y="7" width="2" height="2" fill="#CB8A9C" />
<rect x="19" y="7" width="1" height="2" fill="#323345" />
<rect x="21" y="7" width="1" height="4" fill="#323345" />
<rect x="22" y="7" width="1" height="1" fill="#161723" />
<rect x="2" y="8" width="1" height="1" fill="#202130" />
<rect x="3" y="8" width="1" height="6" fill="#323345" />
<rect x="10" y="8" width="1" height="1" fill="#202130" />
<rect x="16" y="8" width="1" height="8" fill="#323345" />
<rect x="22" y="8" width="1" height="4" fill="#323345" />
<rect x="23" y="8" width="1" height="4" fill="#161723" />
<rect x="1" y="9" width="1" height="2" fill="#202130" />
<rect x="2" y="9" width="1" height="7" fill="#323345" />
<rect x="6" y="9" width="1" height="1" fill="#202130" />
<rect x="7" y="9" width="1" height="6" fill="#323345" />
<rect x="10" y="9" width="1" height="5" fill="#323345" />
<rect x="11" y="9" width="1" height="5" fill="#202130" />
<rect x="12" y="9" width="2" height="1" fill="#323345" />
<rect x="17" y="9" width="1" height="2" fill="#CB8A9C" />
<rect x="18" y="9" width="1" height="2" fill="#F2A8BC" />
<rect x="19" y="9" width="1" height="1" fill="#CB8A9C" />
<rect x="0" y="10" width="1" height="6" fill="#161723" />
<rect x="4" y="10" width="1" height="3" fill="#323345" />
<rect x="5" y="10" width="1" height="4" fill="#202130" />
<rect x="6" y="10" width="1" height="4" fill="#323345" />
<rect x="12" y="10" width="1" height="3" fill="#323345" />
<rect x="13" y="10" width="3" height="2" fill="#F6F6F6" />
<rect x="19" y="10" width="1" height="3" fill="#F2A8BC" />
<rect x="20" y="10" width="1" height="1" fill="#CB8A9C" />
<rect x="1" y="11" width="1" height="4" fill="#323345" />
<rect x="17" y="11" width="1" height="5" fill="#202130" />
<rect x="18" y="11" width="1" height="2" fill="#CB8A9C" />
<rect x="20" y="11" width="1" height="2" fill="#F2A8BC" />
<rect x="21" y="11" width="1" height="2" fill="#CB8A9C" />
<rect x="13" y="12" width="2" height="1" fill="#F6F6F6" />
<rect x="15" y="12" width="1" height="6" fill="#323345" />
<rect x="22" y="12" width="1" height="4" fill="#161723" />
<rect x="4" y="13" width="1" height="1" fill="#202130" />
<rect x="12" y="13" width="1" height="1" fill="#202130" />
<rect x="13" y="13" width="1" height="1" fill="#323345" />
<rect x="14" y="13" width="1" height="5" fill="#202130" />
<rect x="18" y="13" width="1" height="4" fill="#202130" />
<rect x="19" y="13" width="2" height="1" fill="#CB8A9C" />
<rect x="21" y="13" width="1" height="1" fill="#323345" />
<rect x="3" y="14" width="1" height="2" fill="#202130" />
<rect x="4" y="14" width="2" height="1" fill="#FFF5F3" />
<rect x="6" y="14" width="1" height="1" fill="#202130" />
<rect x="10" y="14" width="1" height="1" fill="#202130" />
<rect x="11" y="14" width="2" height="1" fill="#FFF5F3" />
<rect x="13" y="14" width="1" height="1" fill="#202130" />
<rect x="19" y="14" width="2" height="2" fill="#323345" />
<rect x="21" y="14" width="1" height="1" fill="#161723" />
<rect x="1" y="15" width="1" height="1" fill="#202130" />
<rect x="4" y="15" width="3" height="1" fill="#1A080D" />
<rect x="7" y="15" width="3" height="1" fill="#202130" />
<rect x="10" y="15" width="3" height="1" fill="#1A080D" />
<rect x="13" y="15" width="1" height="1" fill="#FFF5F3" />
<rect x="21" y="15" width="1" height="5" fill="#323345" />
<rect x="1" y="16" width="1" height="3" fill="#161723" />
<rect x="2" y="16" width="1" height="1" fill="#202130" />
<rect x="3" y="16" width="1" height="2" fill="#1A080D" />
<rect x="4" y="16" width="1" height="1" fill="#D8CED1" />
<rect x="5" y="16" width="1" height="1" fill="#FFF3F6" />
<rect x="6" y="16" width="1" height="1" fill="#B1657A" />
<rect x="7" y="16" width="3" height="4" fill="#FFF5F3" />
<rect x="10" y="16" width="1" height="1" fill="#D8CED1" />
<rect x="11" y="16" width="1" height="1" fill="#FFF3F6" />
<rect x="12" y="16" width="1" height="1" fill="#B1657A" />
<rect x="13" y="16" width="1" height="2" fill="#1A080D" />
<rect x="16" y="16" width="1" height="3" fill="#202130" />
<rect x="17" y="16" width="1" height="1" fill="#323345" />
<rect x="19" y="16" width="1" height="2" fill="#161723" />
<rect x="20" y="16" width="1" height="4" fill="#323345" />
<rect x="22" y="16" width="1" height="4" fill="#323345" />
<rect x="23" y="16" width="1" height="5" fill="#161723" />
<rect x="0" y="17" width="1" height="4" fill="#161723" />
<rect x="2" y="17" width="1" height="3" fill="#323345" />
<rect x="4" y="17" width="1" height="2" fill="#FFEBF1" />
<rect x="5" y="17" width="1" height="1" fill="#B1657A" />
<rect x="6" y="17" width="1" height="1" fill="#CB8A9C" />
<rect x="10" y="17" width="1" height="2" fill="#FFEBF1" />
<rect x="11" y="17" width="1" height="1" fill="#B1657A" />
<rect x="12" y="17" width="1" height="1" fill="#CB8A9C" />
<rect x="17" y="17" width="1" height="1" fill="#202130" />
<rect x="3" y="18" width="1" height="1" fill="#FFF5F3" />
<rect x="5" y="18" width="1" height="1" fill="#CB8A9C" />
<rect x="6" y="18" width="1" height="1" fill="#E5BBC6" />
<rect x="11" y="18" width="1" height="1" fill="#CB8A9C" />
<rect x="12" y="18" width="1" height="1" fill="#E5BBC6" />
<rect x="13" y="18" width="1" height="2" fill="#202130" />
<rect x="14" y="18" width="1" height="1" fill="#323345" />
<rect x="15" y="18" width="1" height="1" fill="#202130" />
<rect x="18" y="18" width="1" height="3" fill="#161723" />
<rect x="19" y="18" width="1" height="2" fill="#323345" />
<rect x="1" y="19" width="1" height="1" fill="#323345" />
<rect x="3" y="19" width="1" height="1" fill="#323345" />
<rect x="4" y="19" width="3" height="1" fill="#FFF5F3" />
<rect x="10" y="19" width="3" height="1" fill="#FFF5F3" />
<rect x="14" y="19" width="1" height="1" fill="#202130" />
<rect x="1" y="20" width="5" height="1" fill="#161723" />
<rect x="19" y="20" width="4" height="1" fill="#161723" />
</svg>