<?xml version="1.0" encoding="UTF-8" ?>
<svg version="1.1" width="24" height="24" xmlns="http://www.w3.org/2000/svg" shape-rendering="crispEdges">
<rect x="4" y="2" width="4" height="1" fill="#CB8A9C" />
<rect x="15" y="2" width="5" height="1" fill="#CB8A9C" />
<rect x="3" y="3" width="1" height="3" fill="#CB8A9C" />
<rect x="4" y="3" width="4" height="2" fill="#F2A8BC" />
<rect x="8" y="3" width="2" height="1" fill="#CB8A9C" />
<rect x="13" y="3" width="2" height="1" fill="#CB8A9C" />
<rect x="15" y="3" width="5" height="1" fill="#F2A8BC" />
<rect x="20" y="3" width="1" height="4" fill="#CB8A9C" />
<rect x="8" y="4" width="8" height="1" fill="#9CCFD8" />
<rect x="16" y="4" width="4" height="1" fill="#F2A8BC" />
<rect x="4" y="5" width="2" height="1" fill="#F2A8BC" />
<rect x="6" y="5" width="2" height="1" fill="#9CCFD8" />
<rect x="8" y="5" width="3" height="1" fill="#D8FAFF" />
<rect x="11" y="5" width="3" height="1" fill="#B0D2D8" />
<rect x="14" y="5" width="2" height="1" fill="#D8FAFF" />
<rect x="16" y="5" width="2" height="1" fill="#9CCFD8" />
<rect x="18" y="5" width="2" height="1" fill="#F2A8BC" />
<rect x="4" y="6" width="2" height="1" fill="#9CCFD8" />
<rect x="6" y="6" width="2" height="3" fill="#D8FAFF" />
<rect x="8" y="6" width="1" height="1" fill="#B0D2D8" />
<rect x="9" y="6" width="1" height="9" fill="#D8FAFF" />
<rect x="10" y="6" width="1" height="1" fill="#B0D2D8" />
<rect x="11" y="6" width="3" height="3" fill="#D8FAFF" />
<rect x="14" y="6" width="2" height="1" fill="#B0D2D8" />
<rect x="16" y="6" width="2" height="1" fill="#D8FAFF" />
<rect x="18" y="6" width="1" height="2" fill="#9CCFD8" />
<rect x="19" y="6" width="1" height="1" fill="#F2A8BC" />
<rect x="3" y="7" width="1" height="1" fill="#9CCFD8" />
<rect x="4" y="7" width="2" height="3" fill="#D8FAFF" />
<rect x="8" y="7" width="1" height="8" fill="#D8FAFF" />
<rect x="10" y="7" width="1" height="1" fill="#D8FAFF" />
<rect x="14" y="7" width="2" height="3" fill="#D8FAFF" />
<rect x="16" y="7" width="1" height="1" fill="#B0D2D8" />
<rect x="17" y="7" width="1" height="1" fill="#D8FAFF" />
<rect x="19" y="7" width="1" height="1" fill="#9CCFD8" />
<rect x="2" y="8" width="1" height="1" fill="#9CCFD8" />
<rect x="3" y="8" width="1" height="6" fill="#D8FAFF" />
<rect x="10" y="8" width="1" height="1" fill="#B0D2D8" />
<rect x="16" y="8" width="1" height="10" fill="#D8FAFF" />
<rect x="17" y="8" width="1" height="10" fill="#B0D2D8" />
<rect x="18" y="8" width="2" height="12" fill="#D8FAFF" />
<rect x="20" y="8" width="1" height="2" fill="#9CCFD8" />
<rect x="1" y="9" width="1" height="2" fill="#9CCFD8" />
<rect x="2" y="9" width="1" height="7" fill="#D8FAFF" />
<rect x="6" y="9" width="1" height="1" fill="#B0D2D8" />
<rect x="7" y="9" width="1" height="6" fill="#D8FAFF" />
<rect x="10" y="9" width="1" height="5" fill="#D8FAFF" />
<rect x="11" y="9" width="1" height="5" fill="#B0D2D8" />
<rect x="12" y="9" width="2" height="1" fill="#D8FAFF" />
<rect x="4" y="10" width="1" height="3" fill="#D8FAFF" />
<rect x="5" y="10" width="1" height="4" fill="#B0D2D8" />
<rect x="6" y="10" width="1" height="4" fill="#D8FAFF" />
<rect x="12" y="10" width="1" height="3" fill="#D8FAFF" />
<rect x="13" y="10" width="3" height="2" fill="#B3B5D8" />
<rect x="20" y="10" width="1" height="10" fill="#D8FAFF" />
<rect x="21" y="10" width="1" height="7" fill="#9CCFD8" />
<rect x="0" y="11" width="1" height="4" fill="#9CCFD8" />
<rect x="1" y="11" width="1" height="4" fill="#D8FAFF" />
<rect x="13" y="12" width="2" height="1" fill="#B3B5D8" />
<rect x="15" y="12" width="1" height="7" fill="#D8FAFF" />
<rect x="4" y="13" width="1" height="1" fill="#B0D2D8" />
<rect x="12" y="13" width="1" height="1" fill="#B0D2D8" />
<rect x="13" y="13" width="1" height="1" fill="#D8FAFF" />
<rect x="14" y="13" width="1" height="5" fill="#B0D2D8" />
<rect x="3" y="14" width="1" height="2" fill="#B0D2D8" />
<rect x="4" y="14" width="2" height="1" fill="#FFF5F3" />
<rect x="6" y="14" width="1" height="1" fill="#B0D2D8" />
<rect x="10" y="14" width="1" height="1" fill="#B0D2D8" />
<rect x="11" y="14" width="2" height="1" fill="#FFF5F3" />
<rect x="13" y="14" width="1" height="1" fill="#B0D2D8" />
<rect x="1" y="15" width="1" height="3" fill="#9CCFD8" />
<rect x="4" y="15" width="3" height="1" fill="#6F3A49" />
<rect x="7" y="15" width="3" height="1" fill="#B0D2D8" />
<rect x="10" y="15" width="3" height="1" fill="#6F3A49" />
<rect x="13" y="15" width="1" height="1" fill="#FFF5F3" />
<rect x="2" y="16" width="1" height="1" fill="#B0D2D8" />
<rect x="3" y="16" width="1" height="2" fill="#6F3A49" />
<rect x="4" y="16" width="1" height="1" fill="#D8CED1" />
<rect x="5" y="16" width="1" height="1" fill="#FFF3F6" />
<rect x="6" y="16" width="1" height="1" fill="#B1657A" />
<rect x="7" y="16" width="3" height="4" fill="#FFF5F3" />
<rect x="10" y="16" width="1" height="1" fill="#D8CED1" />
<rect x="11" y="16" width="1" height="1" fill="#FFF3F6" />
<rect x="12" y="16" width="1" height="1" fill="#B1657A" />
<rect x="13" y="16" width="1" height="2" fill="#6F3A49" />
<rect x="2" y="17" width="1" height="3" fill="#D8FAFF" />
<rect x="4" y="17" width="1" height="2" fill="#FFEBF1" />
<rect x="5" y="17" width="1" height="1" fill="#B1657A" />
<rect x="6" y="17" width="1" height="1" fill="#CB8A9C" />
<rect x="10" y="17" width="1" height="2" fill="#FFEBF1" />
<rect x="11" y="17" width="1" height="1" fill="#B1657A" />
<rect x="12" y="17" width="1" height="1" fill="#CB8A9C" />
<rect x="21" y="17" width="1" height="3" fill="#D8FAFF" />
<rect x="22" y="17" width="1" height="4" fill="#9CCFD8" />
<rect x="0" y="18" width="1" height="3" fill="#9CCFD8" />
<rect x="1" y="18" width="1" height="2" fill="#D8FAFF" />
<rect x="3" y="18" width="1" height="1" fill="#FFF5F3" />
<rect x="5" y="18" width="1" height="1" fill="#CB8A9C" />
<rect x="6" y="18" width="1" height="1" fill="#E5BBC6" />
<rect x="11" y="18" width="1" height="1" fill="#CB8A9C" />
<rect x="12" y="18" width="1" height="1" fill="#E5BBC6" />
<rect x="13" y="18" width="1" height="2" fill="#B0D2D8" />
<rect x="14" y="18" width="1" height="1" fill="#D8FAFF" />
<rect x="16" y="18" width="1" height="1" fill="#B0D2D8" />
<rect x="17" y="18" width="1" height="2" fill="#D8FAFF" />
<rect x="3" y="19" width="1" height="1" fill="#D8FAFF" />
<rect x="4" y="19" width="3" height="1" fill="#FFF5F3" />
<rect x="10" y="19" width="3" height="1" fill="#FFF5F3" />
<rect x="14" y="19" width="2" height="1" fill="#B0D2D8" />
<rect x="16" y="19" width="1" height="1" fill="#D8FAFF" />
<rect x="1" y="20" width="21" height="1" fill="#9CCFD8" />
</svg>