<?xml version="1.0" encoding="UTF-8" ?>
<svg version="1.1" width="64" height="64" xmlns="http://www.w3.org/2000/svg" shape-rendering="crispEdges">
<rect x="22" y="6" width="20" height="2" fill="#FF8EF6" />
<rect x="16" y="8" width="6" height="2" fill="#FF8EF6" />
<rect x="22" y="8" width="20" height="2" fill="#FFEEFD" />
<rect x="42" y="8" width="6" height="2" fill="#FF8EF6" />
<rect x="12" y="10" width="4" height="2" fill="#FF8EF6" />
<rect x="16" y="10" width="6" height="2" fill="#FFEEFD" />
<rect x="22" y="10" width="20" height="14" fill="#FFD3FB" />
<rect x="42" y="10" width="6" height="2" fill="#FFEEFD" />
<rect x="48" y="10" width="4" height="2" fill="#FF8EF6" />
<rect x="8" y="12" width="4" height="2" fill="#FF8EF6" />
<rect x="12" y="12" width="4" height="2" fill="#FFEEFD" />
<rect x="16" y="12" width="6" height="12" fill="#FFD3FB" />
<rect x="42" y="12" width="6" height="12" fill="#FFD3FB" />
<rect x="48" y="12" width="4" height="2" fill="#FFEEFD" />
<rect x="52" y="12" width="4" height="2" fill="#FF8EF6" />
<rect x="6" y="14" width="2" height="2" fill="#FF8EF6" />
<rect x="8" y="14" width="4" height="2" fill="#FFEEFD" />
<rect x="12" y="14" width="4" height="10" fill="#FFD3FB" />
<rect x="48" y="14" width="4" height="10" fill="#FFD3FB" />
<rect x="52" y="14" width="4" height="2" fill="#FFEEFD" />
<rect x="56" y="14" width="2" height="2" fill="#FF8EF6" />
<rect x="4" y="16" width="2" height="2" fill="#FF8EF6" />
<rect x="6" y="16" width="2" height="2" fill="#FFEEFD" />
<rect x="8" y="16" width="4" height="22" fill="#FFD3FB" />
<rect x="52" y="16" width="4" height="22" fill="#FFD3FB" />
<rect x="56" y="16" width="2" height="2" fill="#FFEEFD" />
<rect x="58" y="16" width="2" height="2" fill="#FF8EF6" />
<rect x="2" y="18" width="2" height="4" fill="#FF8EF6" />
<rect x="4" y="18" width="2" height="4" fill="#FFEEFD" />
<rect x="6" y="18" width="2" height="18" fill="#FFD3FB" />
<rect x="56" y="18" width="4" height="14" fill="#FFD3FB" />
<rect x="60" y="18" width="2" height="4" fill="#231F20" />
<rect x="0" y="22" width="2" height="10" fill="#FF8EF6" />
<rect x="2" y="22" width="2" height="10" fill="#FFEEFD" />
<rect x="4" y="22" width="2" height="14" fill="#FFD3FB" />
<rect x="60" y="22" width="2" height="10" fill="#DCAFDD" />
<rect x="62" y="22" width="2" height="10" fill="#231F20" />
<rect x="12" y="24" width="2" height="16" fill="#FFD3FB" />
<rect x="14" y="24" width="6" height="6" fill="#231F20" />
<rect x="20" y="24" width="10" height="18" fill="#FFD3FB" />
<rect x="30" y="24" width="6" height="6" fill="#231F20" />
<rect x="36" y="24" width="10" height="20" fill="#FFD3FB" />
<rect x="46" y="24" width="6" height="6" fill="#231F20" />
<rect x="14" y="30" width="6" height="10" fill="#FFD3FB" />
<rect x="30" y="30" width="6" height="14" fill="#FFD3FB" />
<rect x="46" y="30" width="6" height="10" fill="#FFD3FB" />
<rect x="2" y="32" width="2" height="2" fill="#FF8EF6" />
<rect x="56" y="32" width="2" height="4" fill="#FFD3FB" />
<rect x="58" y="32" width="2" height="4" fill="#DCAFDD" />
<rect x="60" y="32" width="2" height="4" fill="#231F20" />
<rect x="2" y="34" width="2" height="2" fill="#231F20" />
<rect x="4" y="36" width="2" height="2" fill="#231F20" />
<rect x="6" y="36" width="2" height="2" fill="#DCAFDD" />
<rect x="56" y="36" width="2" height="2" fill="#DCAFDD" />
<rect x="58" y="36" width="2" height="2" fill="#231F20" />
<rect x="6" y="38" width="2" height="2" fill="#231F20" />
<rect x="8" y="38" width="4" height="2" fill="#DCAFDD" />
<rect x="52" y="38" width="4" height="2" fill="#DCAFDD" />
<rect x="56" y="38" width="2" height="2" fill="#231F20" />
<rect x="8" y="40" width="4" height="2" fill="#231F20" />
<rect x="12" y="40" width="4" height="2" fill="#DCAFDD" />
<rect x="16" y="40" width="4" height="2" fill="#FFD3FB" />
<rect x="46" y="40" width="2" height="2" fill="#FFD3FB" />
<rect x="48" y="40" width="6" height="2" fill="#DCAFDD" />
<rect x="54" y="40" width="2" height="2" fill="#231F20" />
<rect x="12" y="42" width="4" height="2" fill="#231F20" />
<rect x="16" y="42" width="6" height="2" fill="#DCAFDD" />
<rect x="22" y="42" width="8" height="2" fill="#FFD3FB" />
<rect x="46" y="42" width="4" height="2" fill="#DCAFDD" />
<rect x="50" y="42" width="4" height="2" fill="#231F20" />
<rect x="16" y="44" width="6" height="2" fill="#231F20" />
<rect x="22" y="44" width="12" height="2" fill="#DCAFDD" />
<rect x="34" y="44" width="10" height="2" fill="#FFD3FB" />
<rect x="44" y="44" width="2" height="2" fill="#DCAFDD" />
<rect x="46" y="44" width="4" height="2" fill="#231F20" />
<rect x="22" y="46" width="12" height="2" fill="#231F20" />
<rect x="34" y="46" width="2" height="10" fill="#DCAFDD" />
<rect x="36" y="46" width="6" height="2" fill="#FFD3FB" />
<rect x="42" y="46" width="2" height="2" fill="#DCAFDD" />
<rect x="44" y="46" width="2" height="2" fill="#231F20" />
<rect x="32" y="48" width="2" height="12" fill="#231F20" />
<rect x="36" y="48" width="4" height="2" fill="#FFD3FB" />
<rect x="40" y="48" width="2" height="2" fill="#DCAFDD" />
<rect x="42" y="48" width="2" height="2" fill="#231F20" />
<rect x="36" y="50" width="2" height="2" fill="#FFD3FB" />
<rect x="38" y="50" width="2" height="2" fill="#DCAFDD" />
<rect x="40" y="50" width="2" height="2" fill="#231F20" />
<rect x="36" y="52" width="2" height="2" fill="#DCAFDD" />
<rect x="38" y="52" width="2" height="2" fill="#231F20" />
<rect x="36" y="54" width="2" height="2" fill="#231F20" />
<rect x="34" y="56" width="2" height="2" fill="#231F20" />
</svg>