<?xml version="1.0" encoding="UTF-8"?>
<svg id="Layer_2" data-name="Layer 2" xmlns="http://www.w3.org/2000/svg" viewBox="0 0 260 288">
  <defs>
    <style>
      .cls-1 {
        fill: #231f20;
      }

      .cls-2 {
        fill: #ffd3fb;
      }

      .cls-3 {
        fill: #fff;
      }

      .cls-4 {
        fill: #009345;
      }

      .cls-5 {
        fill: #ff8ef6;
      }
    </style>
  </defs>
  <g id="Layer_1-2" data-name="Layer 1">
    <g>
      <g>
        <polygon class="cls-1" points="250 86 250 96 250 106 250 115 260 115 260 106 260 96 260 86 250 86"/>
        <polygon class="cls-1" points="240 125 240 134 240 144 240 154 250 154 250 144 250 134 250 125 250 115 240 115 240 125"/>
        <polygon class="cls-1" points="231 163 231 173 231 182 231 192 240 192 240 182 240 173 240 163 240 154 231 154 231 163"/>
        <polygon class="cls-1" points="221 202 221 211 221 221 221 230 231 230 231 221 231 211 231 202 231 192 221 192 221 202"/>
        <polygon class="cls-1" points="212 240 212 250 212 259 221 259 221 250 221 240 221 230 212 230 212 240"/>
        <polygon class="cls-1" points="192 259 192 269 202 269 212 269 212 259 202 259 192 259"/>
        <polygon class="cls-1" points="173 269 173 278 183 278 192 278 192 269 183 269 173 269"/>
        <polygon class="cls-1" points="154 278 154 288 164 288 173 288 173 278 164 278 154 278"/>
        <polygon class="cls-1" points="144 269 135 269 135 278 144 278 154 278 154 269 144 269"/>
        <polygon class="cls-1" points="125 259 116 259 116 269 125 269 135 269 135 259 125 259"/>
        <polygon class="cls-1" points="106 250 96 250 96 259 106 259 116 259 116 250 106 250"/>
        <polygon class="cls-1" points="87 240 77 240 77 250 87 250 96 250 96 240 87 240"/>
        <polygon class="cls-1" points="96 86 96 77 96 67 96 58 96 48 96 38 96 29 96 19 87 19 87 29 87 38 87 48 87 58 87 67 87 77 87 86 87 96 96 96 96 86"/>
        <polygon class="cls-1" points="68 230 58 230 58 240 68 240 77 240 77 230 68 230"/>
        <rect class="cls-1" x="48" y="221" width="10" height="9"/>
      </g>
      <g>
        <polygon class="cls-4" points="135 182 135 192 125 192 125 202 116 202 106 202 106 192 106 182 96 182 96 192 87 192 87 202 77 202 77 211 87 211 87 221 96 221 96 230 106 230 106 221 116 221 125 221 135 221 135 211 144 211 144 202 144 192 144 182 144 173 135 173 135 182"/>
        <polygon class="cls-4" points="135 125 135 134 125 134 125 125 116 125 116 115 106 115 96 115 96 125 87 125 77 125 77 134 87 134 96 134 106 134 106 144 116 144 116 154 106 154 106 163 116 163 125 163 135 163 144 163 144 154 144 144 144 134 144 125 135 125"/>
        <rect class="cls-4" x="58" y="202" width="10" height="9"/>
        <polygon class="cls-4" points="58 134 48 134 39 134 39 144 48 144 48 154 48 163 48 173 48 182 48 192 48 202 58 202 58 192 58 182 58 173 58 163 68 163 68 173 77 173 77 163 77 154 77 144 77 134 68 134 58 134"/>
      </g>
      <g>
        <polygon class="cls-2" points="221 86 212 86 212 77 202 77 202 67 192 67 183 67 183 58 173 58 164 58 164 48 154 48 144 48 144 38 135 38 125 38 125 29 116 29 106 29 106 38 116 38 116 48 116 58 125 58 125 67 135 67 135 77 135 86 144 86 144 96 154 96 154 106 154 115 164 115 173 115 183 115 183 106 192 106 202 106 202 96 212 96 221 96 231 96 231 86 221 86"/>
        <polygon class="cls-2" points="144 125 144 134 144 144 144 154 144 163 135 163 125 163 116 163 106 163 106 154 116 154 116 144 106 144 106 134 96 134 87 134 77 134 77 144 77 154 77 163 77 173 68 173 68 163 58 163 58 173 58 182 58 192 68 192 68 202 68 211 68 221 77 221 77 230 87 230 96 230 96 221 87 221 87 211 77 211 77 202 87 202 87 192 96 192 96 182 106 182 106 192 106 202 116 202 125 202 125 192 135 192 135 182 135 173 144 173 144 182 144 192 144 202 144 211 135 211 135 221 125 221 116 221 106 221 106 230 96 230 96 240 106 240 116 240 116 250 125 250 135 250 135 259 144 259 154 259 154 269 164 269 164 259 164 250 164 240 164 230 164 221 164 211 164 202 164 192 164 182 164 173 164 163 164 154 164 144 164 134 164 125 154 125 144 125"/>
        <polygon class="cls-2" points="125 125 125 134 135 134 135 125 135 115 125 115 116 115 116 125 125 125"/>
        <polygon class="cls-2" points="87 125 87 115 96 115 106 115 116 115 116 106 106 106 96 106 87 106 87 96 77 96 68 96 68 86 58 86 48 86 48 77 39 77 29 77 29 67 20 67 10 67 10 77 20 77 20 86 20 96 20 106 20 115 29 115 29 125 29 134 29 144 29 154 39 154 39 163 39 173 39 182 39 192 48 192 48 182 48 173 48 163 48 154 48 144 39 144 39 134 48 134 58 134 68 134 77 134 77 125 87 125"/>
        <rect class="cls-2" x="48" y="202" width="10" height="9"/>
      </g>
      <g>
        <polygon class="cls-3" points="240 86 231 86 231 96 240 96 250 96 250 86 240 86"/>
        <polygon class="cls-3" points="221 77 212 77 212 86 221 86 231 86 231 77 221 77"/>
        <polygon class="cls-3" points="212 96 202 96 202 106 212 106 221 106 231 106 231 96 221 96 212 96"/>
        <rect class="cls-3" x="202" y="67" width="10" height="10"/>
        <polygon class="cls-3" points="192 58 183 58 183 67 192 67 202 67 202 58 192 58"/>
        <polygon class="cls-3" points="183 106 183 115 192 115 202 115 202 106 192 106 183 106"/>
        <polygon class="cls-3" points="173 48 164 48 164 58 173 58 183 58 183 48 173 48"/>
        <polygon class="cls-3" points="164 115 154 115 144 115 135 115 135 125 144 125 154 125 164 125 173 125 183 125 183 115 173 115 164 115"/>
        <polygon class="cls-3" points="154 38 144 38 144 48 154 48 164 48 164 38 154 38"/>
        <polygon class="cls-3" points="135 29 125 29 125 38 135 38 144 38 144 29 135 29"/>
        <polygon class="cls-3" points="125 106 116 106 116 115 125 115 135 115 135 106 125 106"/>
        <polygon class="cls-3" points="116 19 106 19 106 29 116 29 125 29 125 19 116 19"/>
        <polygon class="cls-3" points="106 96 96 96 87 96 87 106 96 106 106 106 116 106 116 96 106 96"/>
        <rect class="cls-3" x="96" y="10" width="10" height="9"/>
        <polygon class="cls-3" points="77 86 68 86 68 96 77 96 87 96 87 86 77 86"/>
        <rect class="cls-3" x="77" y="10" width="10" height="9"/>
        <polygon class="cls-3" points="58 77 48 77 48 86 58 86 68 86 68 77 58 77"/>
        <polygon class="cls-3" points="68 29 77 29 77 19 68 19 58 19 48 19 48 29 58 29 68 29"/>
        <polygon class="cls-3" points="39 67 29 67 29 77 39 77 48 77 48 67 39 67"/>
        <polygon class="cls-3" points="48 38 48 29 39 29 29 29 29 38 39 38 48 38"/>
        <polygon class="cls-3" points="20 58 20 48 29 48 29 38 20 38 10 38 10 48 10 58 10 67 20 67 29 67 29 58 20 58"/>
      </g>
      <g>
        <polygon class="cls-5" points="240 86 250 86 250 77 240 77 231 77 231 86 240 86"/>
        <polygon class="cls-5" points="221 67 212 67 212 77 221 77 231 77 231 67 221 67"/>
        <rect class="cls-5" x="202" y="58" width="10" height="9"/>
        <polygon class="cls-5" points="192 48 183 48 183 58 192 58 202 58 202 48 192 48"/>
        <polygon class="cls-5" points="173 38 164 38 164 48 173 48 183 48 183 38 173 38"/>
        <polygon class="cls-5" points="164 278 173 278 173 269 183 269 192 269 192 259 202 259 212 259 212 250 212 240 212 230 221 230 221 221 221 211 221 202 221 192 231 192 231 182 231 173 231 163 231 154 240 154 240 144 240 134 240 125 240 115 250 115 250 106 250 96 240 96 231 96 231 106 221 106 212 106 202 106 202 115 192 115 183 115 183 125 173 125 164 125 164 134 164 144 164 154 164 163 164 173 164 182 164 192 164 202 164 211 164 221 164 230 164 240 164 250 164 259 164 269 154 269 154 278 164 278"/>
        <polygon class="cls-5" points="154 29 144 29 144 38 154 38 164 38 164 29 154 29"/>
        <polygon class="cls-5" points="144 269 154 269 154 259 144 259 135 259 135 269 144 269"/>
        <polygon class="cls-5" points="135 19 125 19 125 29 135 29 144 29 144 19 135 19"/>
        <polygon class="cls-5" points="125 259 135 259 135 250 125 250 116 250 116 259 125 259"/>
        <polygon class="cls-5" points="116 10 106 10 106 19 116 19 125 19 125 10 116 10"/>
        <polygon class="cls-5" points="106 250 116 250 116 240 106 240 96 240 96 250 106 250"/>
        <polygon class="cls-5" points="96 29 96 38 96 48 96 58 96 67 96 77 96 86 96 96 106 96 116 96 116 106 125 106 135 106 135 115 144 115 154 115 154 106 154 96 144 96 144 86 135 86 135 77 135 67 125 67 125 58 116 58 116 48 116 38 106 38 106 29 106 19 96 19 96 29"/>
        <polygon class="cls-5" points="106 10 106 0 96 0 87 0 77 0 77 10 87 10 87 19 96 19 96 10 106 10"/>
        <rect class="cls-5" x="87" y="115" width="9" height="10"/>
        <polygon class="cls-5" points="87 240 96 240 96 230 87 230 77 230 77 240 87 240"/>
        <polygon class="cls-5" points="77 29 68 29 58 29 48 29 48 38 39 38 29 38 29 48 20 48 20 58 29 58 29 67 39 67 48 67 48 77 58 77 68 77 68 86 77 86 87 86 87 77 87 67 87 58 87 48 87 38 87 29 87 19 77 19 77 29"/>
        <rect class="cls-5" x="58" y="192" width="10" height="10"/>
        <polygon class="cls-5" points="68 19 77 19 77 10 68 10 58 10 48 10 48 19 58 19 68 19"/>
        <polygon class="cls-5" points="39 211 39 221 48 221 58 221 58 230 68 230 77 230 77 221 68 221 68 211 58 211 48 211 48 202 48 192 39 192 39 202 39 211"/>
        <polygon class="cls-5" points="48 29 48 19 39 19 29 19 29 29 39 29 48 29"/>
        <polygon class="cls-5" points="29 173 29 182 29 192 39 192 39 182 39 173 39 163 39 154 29 154 29 163 29 173"/>
        <polygon class="cls-5" points="20 134 20 144 20 154 29 154 29 144 29 134 29 125 29 115 20 115 20 125 20 134"/>
        <polygon class="cls-5" points="20 29 10 29 10 38 20 38 29 38 29 29 20 29"/>
        <polygon class="cls-5" points="10 96 10 106 10 115 20 115 20 106 20 96 20 86 20 77 10 77 10 86 10 96"/>
        <polygon class="cls-5" points="0 48 0 58 0 67 0 77 10 77 10 67 10 58 10 48 10 38 0 38 0 48"/>
      </g>
    </g>
  </g>
</svg>