<?xml version="1.0" encoding="UTF-8"?>
<svg id="Layer_2" data-name="Layer 2" xmlns="http://www.w3.org/2000/svg" viewBox="0 0 278.4 288">
  <defs>
    <style>
      .cls-1 {
        fill: #231f20;
      }

      .cls-2 {
        fill: #ffd3fb;
      }

      .cls-3 {
        fill: #fff;
      }

      .cls-4 {
        fill: #ff8ef6;
      }

      .cls-5 {
        fill: #ec1c24;
      }
    </style>
  </defs>
  <g id="Layer_1-2" data-name="Layer 1">
    <g>
      <rect class="cls-1" x="268.8" y="211.2" width="9.6" height="9.6"/>
      <rect class="cls-1" x="268.8" y="201.6" width="9.6" height="9.6"/>
      <rect class="cls-1" x="268.8" y="192" width="9.6" height="9.6"/>
      <rect class="cls-1" x="268.8" y="182.4" width="9.6" height="9.6"/>
      <rect class="cls-1" x="268.8" y="172.8" width="9.6" height="9.6"/>
      <rect class="cls-1" x="268.8" y="163.2" width="9.6" height="9.6"/>
      <rect class="cls-1" x="268.8" y="153.6" width="9.6" height="9.6"/>
      <rect class="cls-1" x="259.2" y="220.8" width="9.6" height="9.6"/>
      <rect class="cls-4" x="259.2" y="211.2" width="9.6" height="9.6"/>
      <rect class="cls-4" x="259.2" y="201.6" width="9.6" height="9.6"/>
      <rect class="cls-4" x="259.2" y="192" width="9.6" height="9.6"/>
      <rect class="cls-4" x="259.2" y="182.4" width="9.6" height="9.6"/>
      <rect class="cls-4" x="259.2" y="172.8" width="9.6" height="9.6"/>
      <rect class="cls-4" x="259.2" y="163.2" width="9.6" height="9.6"/>
      <rect class="cls-4" x="259.2" y="153.6" width="9.6" height="9.6"/>
      <rect class="cls-4" x="259.2" y="144" width="9.6" height="9.6"/>
      <rect class="cls-1" x="249.6" y="220.8" width="9.6" height="9.6"/>
      <rect class="cls-4" x="249.6" y="211.2" width="9.6" height="9.6"/>
      <rect class="cls-4" x="249.6" y="201.6" width="9.6" height="9.6"/>
      <rect class="cls-4" x="249.6" y="192" width="9.6" height="9.6"/>
      <rect class="cls-4" x="249.6" y="182.4" width="9.6" height="9.6"/>
      <rect class="cls-4" x="249.6" y="172.8" width="9.6" height="9.6"/>
      <rect class="cls-2" x="249.6" y="163.2" width="9.6" height="9.6"/>
      <rect class="cls-2" x="249.6" y="153.6" width="9.6" height="9.6"/>
      <rect class="cls-2" x="249.6" y="144" width="9.6" height="9.6"/>
      <rect class="cls-4" x="249.6" y="134.4" width="9.6" height="9.6"/>
      <rect class="cls-1" x="240" y="230.4" width="9.6" height="9.6"/>
      <rect class="cls-4" x="240" y="220.8" width="9.6" height="9.6"/>
      <rect class="cls-4" x="240" y="211.2" width="9.6" height="9.6"/>
      <rect class="cls-4" x="240" y="201.6" width="9.6" height="9.6"/>
      <rect class="cls-4" x="240" y="192" width="9.6" height="9.6"/>
      <rect class="cls-4" x="240" y="182.4" width="9.6" height="9.6"/>
      <rect class="cls-2" x="240" y="172.8" width="9.6" height="9.6"/>
      <rect class="cls-2" x="240" y="163.2" width="9.6" height="9.6"/>
      <rect class="cls-2" x="240" y="153.6" width="9.6" height="9.6"/>
      <rect class="cls-2" x="240" y="144" width="9.6" height="9.6"/>
      <rect class="cls-4" x="240" y="134.4" width="9.6" height="9.6"/>
      <rect class="cls-1" x="230.4" y="230.4" width="9.6" height="9.6"/>
      <rect class="cls-4" x="230.4" y="220.8" width="9.6" height="9.6"/>
      <rect class="cls-4" x="230.4" y="211.2" width="9.6" height="9.6"/>
      <rect class="cls-4" x="230.4" y="201.6" width="9.6" height="9.6"/>
      <rect class="cls-4" x="230.4" y="192" width="9.6" height="9.6"/>
      <rect class="cls-4" x="230.4" y="182.4" width="9.6" height="9.6"/>
      <rect class="cls-2" x="230.4" y="172.8" width="9.6" height="9.6"/>
      <rect class="cls-2" x="230.4" y="163.2" width="9.6" height="9.6"/>
      <rect class="cls-2" x="230.4" y="153.6" width="9.6" height="9.6"/>
      <rect class="cls-2" x="230.4" y="144" width="9.6" height="9.6"/>
      <rect class="cls-4" x="230.4" y="134.4" width="9.6" height="9.6"/>
      <rect class="cls-1" x="220.8" y="240" width="9.6" height="9.6"/>
      <rect class="cls-4" x="220.8" y="230.4" width="9.6" height="9.6"/>
      <rect class="cls-4" x="220.8" y="220.8" width="9.6" height="9.6"/>
      <rect class="cls-4" x="220.8" y="211.2" width="9.6" height="9.6"/>
      <rect class="cls-4" x="220.8" y="201.6" width="9.6" height="9.6"/>
      <rect class="cls-4" x="220.8" y="192" width="9.6" height="9.6"/>
      <rect class="cls-2" x="220.8" y="182.4" width="9.6" height="9.6"/>
      <rect class="cls-4" x="220.8" y="172.8" width="9.6" height="9.6"/>
      <rect class="cls-1" x="220.8" y="163.2" width="9.6" height="9.6"/>
      <rect class="cls-2" x="220.8" y="153.6" width="9.6" height="9.6"/>
      <rect class="cls-2" x="220.8" y="144" width="9.6" height="9.6"/>
      <rect class="cls-2" x="220.8" y="134.4" width="9.6" height="9.6"/>
      <rect class="cls-4" x="220.8" y="124.8" width="9.6" height="9.6"/>
      <rect class="cls-1" x="211.2" y="240" width="9.6" height="9.6"/>
      <rect class="cls-4" x="211.2" y="230.4" width="9.6" height="9.6"/>
      <rect class="cls-4" x="211.2" y="220.8" width="9.6" height="9.6"/>
      <rect class="cls-4" x="211.2" y="211.2" width="9.6" height="9.6"/>
      <rect class="cls-4" x="211.2" y="201.6" width="9.6" height="9.6"/>
      <rect class="cls-4" x="211.2" y="192" width="9.6" height="9.6"/>
      <rect class="cls-2" x="211.2" y="182.4" width="9.6" height="9.6"/>
      <rect class="cls-5" x="211.2" y="172.8" width="9.6" height="9.6"/>
      <rect class="cls-2" x="211.2" y="163.2" width="9.6" height="9.6"/>
      <rect class="cls-5" x="211.2" y="153.6" width="9.6" height="9.6"/>
      <rect class="cls-2" x="211.2" y="144" width="9.6" height="9.6"/>
      <rect class="cls-2" x="211.2" y="134.4" width="9.6" height="9.6"/>
      <rect class="cls-4" x="211.2" y="124.8" width="9.6" height="9.6"/>
      <rect class="cls-1" x="201.6" y="249.6" width="9.6" height="9.6"/>
      <rect class="cls-4" x="201.6" y="240" width="9.6" height="9.6"/>
      <rect class="cls-4" x="201.6" y="230.4" width="9.6" height="9.6"/>
      <rect class="cls-4" x="201.6" y="220.8" width="9.6" height="9.6"/>
      <rect class="cls-4" x="201.6" y="211.2" width="9.6" height="9.6"/>
      <rect class="cls-4" x="201.6" y="201.6" width="9.6" height="9.6"/>
      <rect class="cls-2" x="201.6" y="192" width="9.6" height="9.6"/>
      <rect class="cls-2" x="201.6" y="182.4" width="9.6" height="9.6"/>
      <rect class="cls-5" x="201.6" y="172.8" width="9.6" height="9.6"/>
      <rect class="cls-2" x="201.6" y="163.2" width="9.6" height="9.6"/>
      <rect class="cls-5" x="201.6" y="153.6" width="9.6" height="9.6"/>
      <rect class="cls-2" x="201.6" y="144" width="9.6" height="9.6"/>
      <rect class="cls-2" x="201.6" y="134.4" width="9.6" height="9.6"/>
      <rect class="cls-4" x="201.6" y="124.8" width="9.6" height="9.6"/>
      <rect class="cls-1" x="192" y="249.6" width="9.6" height="9.6"/>
      <rect class="cls-4" x="192" y="240" width="9.6" height="9.6"/>
      <rect class="cls-4" x="192" y="230.4" width="9.6" height="9.6"/>
      <rect class="cls-4" x="192" y="220.8" width="9.6" height="9.6"/>
      <rect class="cls-4" x="192" y="211.2" width="9.6" height="9.6"/>
      <rect class="cls-4" x="192" y="201.6" width="9.6" height="9.6"/>
      <rect class="cls-2" x="192" y="192" width="9.6" height="9.6"/>
      <rect class="cls-2" x="192" y="182.4" width="9.6" height="9.6"/>
      <rect class="cls-4" x="192" y="172.8" width="9.6" height="9.6"/>
      <rect class="cls-5" x="192" y="163.2" width="9.6" height="9.6"/>
      <rect class="cls-2" x="192" y="153.6" width="9.6" height="9.6"/>
      <rect class="cls-2" x="192" y="144" width="9.6" height="9.6"/>
      <rect class="cls-2" x="192" y="134.4" width="9.6" height="9.6"/>
      <rect class="cls-2" x="192" y="124.8" width="9.6" height="9.6"/>
      <rect class="cls-4" x="192" y="115.2" width="9.6" height="9.6"/>
      <rect class="cls-1" x="182.4" y="259.2" width="9.6" height="9.6"/>
      <rect class="cls-4" x="182.4" y="249.6" width="9.6" height="9.6"/>
      <rect class="cls-4" x="182.4" y="240" width="9.6" height="9.6"/>
      <rect class="cls-4" x="182.4" y="230.4" width="9.6" height="9.6"/>
      <rect class="cls-4" x="182.4" y="220.8" width="9.6" height="9.6"/>
      <rect class="cls-4" x="182.4" y="211.2" width="9.6" height="9.6"/>
      <rect class="cls-2" x="182.4" y="201.6" width="9.6" height="9.6"/>
      <rect class="cls-2" x="182.4" y="192" width="9.6" height="9.6"/>
      <rect class="cls-2" x="182.4" y="182.4" width="9.6" height="9.6"/>
      <rect class="cls-2" x="182.4" y="172.8" width="9.6" height="9.6"/>
      <rect class="cls-2" x="182.4" y="163.2" width="9.6" height="9.6"/>
      <rect class="cls-2" x="182.4" y="153.6" width="9.6" height="9.6"/>
      <rect class="cls-2" x="182.4" y="144" width="9.6" height="9.6"/>
      <rect class="cls-2" x="182.4" y="134.4" width="9.6" height="9.6"/>
      <rect class="cls-2" x="182.4" y="124.8" width="9.6" height="9.6"/>
      <rect class="cls-4" x="182.4" y="115.2" width="9.6" height="9.6"/>
      <rect class="cls-1" x="172.8" y="259.2" width="9.6" height="9.6"/>
      <rect class="cls-4" x="172.8" y="249.6" width="9.6" height="9.6"/>
      <rect class="cls-4" x="172.8" y="240" width="9.6" height="9.6"/>
      <rect class="cls-4" x="172.8" y="230.4" width="9.6" height="9.6"/>
      <rect class="cls-4" x="172.8" y="220.8" width="9.6" height="9.6"/>
      <rect class="cls-4" x="172.8" y="211.2" width="9.6" height="9.6"/>
      <rect class="cls-2" x="172.8" y="201.6" width="9.6" height="9.6"/>
      <rect class="cls-2" x="172.8" y="192" width="9.6" height="9.6"/>
      <rect class="cls-2" x="172.8" y="182.4" width="9.6" height="9.6"/>
      <rect class="cls-2" x="172.8" y="172.8" width="9.6" height="9.6"/>
      <rect class="cls-1" x="172.8" y="163.2" width="9.6" height="9.6"/>
      <rect class="cls-1" x="172.8" y="153.6" width="9.6" height="9.6"/>
      <rect class="cls-2" x="172.8" y="144" width="9.6" height="9.6"/>
      <rect class="cls-2" x="172.8" y="134.4" width="9.6" height="9.6"/>
      <rect class="cls-2" x="172.8" y="124.8" width="9.6" height="9.6"/>
      <rect class="cls-2" x="172.8" y="115.2" width="9.6" height="9.6"/>
      <rect class="cls-4" x="172.8" y="105.6" width="9.6" height="9.6"/>
      <rect class="cls-1" x="163.2" y="268.8" width="9.6" height="9.6"/>
      <rect class="cls-4" x="163.2" y="259.2" width="9.6" height="9.6"/>
      <rect class="cls-4" x="163.2" y="249.6" width="9.6" height="9.6"/>
      <rect class="cls-4" x="163.2" y="240" width="9.6" height="9.6"/>
      <rect class="cls-4" x="163.2" y="230.4" width="9.6" height="9.6"/>
      <rect class="cls-4" x="163.2" y="220.8" width="9.6" height="9.6"/>
      <rect class="cls-2" x="163.2" y="211.2" width="9.6" height="9.6"/>
      <rect class="cls-2" x="163.2" y="201.6" width="9.6" height="9.6"/>
      <rect class="cls-2" x="163.2" y="192" width="9.6" height="9.6"/>
      <rect class="cls-2" x="163.2" y="182.4" width="9.6" height="9.6"/>
      <rect class="cls-1" x="163.2" y="172.8" width="9.6" height="9.6"/>
      <rect class="cls-4" x="163.2" y="163.2" width="9.6" height="9.6"/>
      <rect class="cls-4" x="163.2" y="153.6" width="9.6" height="9.6"/>
      <rect class="cls-1" x="163.2" y="144" width="9.6" height="9.6"/>
      <rect class="cls-2" x="163.2" y="134.4" width="9.6" height="9.6"/>
      <rect class="cls-2" x="163.2" y="124.8" width="9.6" height="9.6"/>
      <rect class="cls-2" x="163.2" y="115.2" width="9.6" height="9.6"/>
      <rect class="cls-1" x="163.2" y="105.6" width="9.6" height="9.6"/>
      <rect class="cls-1" x="163.2" y="96" width="9.6" height="9.6"/>
      <rect class="cls-1" x="163.2" y="86.4" width="9.6" height="9.6"/>
      <rect class="cls-1" x="163.2" y="76.8" width="9.6" height="9.6"/>
      <rect class="cls-1" x="163.2" y="67.2" width="9.6" height="9.6"/>
      <rect class="cls-1" x="163.2" y="57.6" width="9.6" height="9.6"/>
      <rect class="cls-1" x="163.2" y="48" width="9.6" height="9.6"/>
      <rect class="cls-1" x="163.2" y="38.4" width="9.6" height="9.6"/>
      <rect class="cls-1" x="163.2" y="28.8" width="9.6" height="9.6"/>
      <rect class="cls-1" x="163.2" y="19.2" width="9.6" height="9.6"/>
      <rect class="cls-1" x="163.2" y="9.6" width="9.6" height="9.6"/>
      <rect class="cls-1" x="153.6" y="278.4" width="9.6" height="9.6"/>
      <rect class="cls-4" x="153.6" y="268.8" width="9.6" height="9.6"/>
      <rect class="cls-4" x="153.6" y="259.2" width="9.6" height="9.6"/>
      <rect class="cls-4" x="153.6" y="249.6" width="9.6" height="9.6"/>
      <rect class="cls-4" x="153.6" y="240" width="9.6" height="9.6"/>
      <rect class="cls-4" x="153.6" y="230.4" width="9.6" height="9.6"/>
      <rect class="cls-3" x="153.6" y="220.8" width="9.6" height="9.6"/>
      <rect class="cls-2" x="153.6" y="211.2" width="9.6" height="9.6"/>
      <rect class="cls-2" x="153.6" y="201.6" width="9.6" height="9.6"/>
      <rect class="cls-2" x="153.6" y="192" width="9.6" height="9.6"/>
      <rect class="cls-1" x="153.6" y="182.4" width="9.6" height="9.6"/>
      <rect class="cls-4" x="153.6" y="172.8" width="9.6" height="9.6"/>
      <rect class="cls-4" x="153.6" y="163.2" width="9.6" height="9.6"/>
      <rect class="cls-1" x="153.6" y="153.6" width="9.6" height="9.6"/>
      <rect class="cls-1" x="153.6" y="144" width="9.6" height="9.6"/>
      <rect class="cls-1" x="153.6" y="134.4" width="9.6" height="9.6"/>
      <rect class="cls-1" x="153.6" y="124.8" width="9.6" height="9.6"/>
      <rect class="cls-1" x="153.6" y="115.2" width="9.6" height="9.6"/>
      <rect class="cls-4" x="153.6" y="105.6" width="9.6" height="9.6"/>
      <rect class="cls-4" x="153.6" y="96" width="9.6" height="9.6"/>
      <rect class="cls-4" x="153.6" y="86.4" width="9.6" height="9.6"/>
      <rect class="cls-4" x="153.6" y="76.8" width="9.6" height="9.6"/>
      <rect class="cls-4" x="153.6" y="67.2" width="9.6" height="9.6"/>
      <rect class="cls-4" x="153.6" y="57.6" width="9.6" height="9.6"/>
      <rect class="cls-4" x="153.6" y="48" width="9.6" height="9.6"/>
      <rect class="cls-4" x="153.6" y="38.4" width="9.6" height="9.6"/>
      <rect class="cls-4" x="153.6" y="28.8" width="9.6" height="9.6"/>
      <rect class="cls-3" x="153.6" y="19.2" width="9.6" height="9.6"/>
      <rect class="cls-2" x="153.6" y="9.6" width="9.6" height="9.6"/>
      <rect class="cls-4" x="153.6" width="9.6" height="9.6"/>
      <rect class="cls-1" x="144" y="278.4" width="9.6" height="9.6"/>
      <rect class="cls-4" x="144" y="268.8" width="9.6" height="9.6"/>
      <rect class="cls-4" x="144" y="259.2" width="9.6" height="9.6"/>
      <rect class="cls-4" x="144" y="249.6" width="9.6" height="9.6"/>
      <rect class="cls-4" x="144" y="240" width="9.6" height="9.6"/>
      <rect class="cls-3" x="144" y="230.4" width="9.6" height="9.6"/>
      <rect class="cls-3" x="144" y="220.8" width="9.6" height="9.6"/>
      <rect class="cls-2" x="144" y="211.2" width="9.6" height="9.6"/>
      <rect class="cls-2" x="144" y="201.6" width="9.6" height="9.6"/>
      <rect class="cls-2" x="144" y="192" width="9.6" height="9.6"/>
      <rect class="cls-1" x="144" y="182.4" width="9.6" height="9.6"/>
      <rect class="cls-2" x="144" y="172.8" width="9.6" height="9.6"/>
      <rect class="cls-1" x="144" y="163.2" width="9.6" height="9.6"/>
      <rect class="cls-4" x="144" y="153.6" width="9.6" height="9.6"/>
      <rect class="cls-4" x="144" y="144" width="9.6" height="9.6"/>
      <rect class="cls-4" x="144" y="134.4" width="9.6" height="9.6"/>
      <rect class="cls-4" x="144" y="124.8" width="9.6" height="9.6"/>
      <rect class="cls-1" x="144" y="115.2" width="9.6" height="9.6"/>
      <rect class="cls-4" x="144" y="105.6" width="9.6" height="9.6"/>
      <rect class="cls-4" x="144" y="96" width="9.6" height="9.6"/>
      <rect class="cls-4" x="144" y="86.4" width="9.6" height="9.6"/>
      <rect class="cls-4" x="144" y="76.8" width="9.6" height="9.6"/>
      <rect class="cls-4" x="144" y="67.2" width="9.6" height="9.6"/>
      <rect class="cls-4" x="144" y="57.6" width="9.6" height="9.6"/>
      <rect class="cls-4" x="144" y="48" width="9.6" height="9.6"/>
      <rect class="cls-4" x="144" y="38.4" width="9.6" height="9.6"/>
      <rect class="cls-4" x="144" y="28.8" width="9.6" height="9.6"/>
      <rect class="cls-3" x="144" y="19.2" width="9.6" height="9.6"/>
      <rect class="cls-2" x="144" y="9.6" width="9.6" height="9.6"/>
      <rect class="cls-4" x="144" width="9.6" height="9.6"/>
      <rect class="cls-1" x="134.4" y="278.4" width="9.6" height="9.6"/>
      <rect class="cls-4" x="134.4" y="268.8" width="9.6" height="9.6"/>
      <rect class="cls-2" x="134.4" y="259.2" width="9.6" height="9.6"/>
      <rect class="cls-2" x="134.4" y="249.6" width="9.6" height="9.6"/>
      <rect class="cls-2" x="134.4" y="240" width="9.6" height="9.6"/>
      <rect class="cls-3" x="134.4" y="230.4" width="9.6" height="9.6"/>
      <rect class="cls-3" x="134.4" y="220.8" width="9.6" height="9.6"/>
      <rect class="cls-2" x="134.4" y="211.2" width="9.6" height="9.6"/>
      <rect class="cls-2" x="134.4" y="201.6" width="9.6" height="9.6"/>
      <rect class="cls-2" x="134.4" y="192" width="9.6" height="9.6"/>
      <rect class="cls-1" x="134.4" y="182.4" width="9.6" height="9.6"/>
      <rect class="cls-2" x="134.4" y="172.8" width="9.6" height="9.6"/>
      <rect class="cls-1" x="134.4" y="163.2" width="9.6" height="9.6"/>
      <rect class="cls-2" x="134.4" y="153.6" width="9.6" height="9.6"/>
      <rect class="cls-2" x="134.4" y="144" width="9.6" height="9.6"/>
      <rect class="cls-2" x="134.4" y="134.4" width="9.6" height="9.6"/>
      <rect class="cls-2" x="134.4" y="124.8" width="9.6" height="9.6"/>
      <rect class="cls-1" x="134.4" y="115.2" width="9.6" height="9.6"/>
      <rect class="cls-2" x="134.4" y="105.6" width="9.6" height="9.6"/>
      <rect class="cls-2" x="134.4" y="96" width="9.6" height="9.6"/>
      <rect class="cls-2" x="134.4" y="86.4" width="9.6" height="9.6"/>
      <rect class="cls-2" x="134.4" y="76.8" width="9.6" height="9.6"/>
      <rect class="cls-2" x="134.4" y="67.2" width="9.6" height="9.6"/>
      <rect class="cls-2" x="134.4" y="57.6" width="9.6" height="9.6"/>
      <rect class="cls-2" x="134.4" y="48" width="9.6" height="9.6"/>
      <rect class="cls-2" x="134.4" y="38.4" width="9.6" height="9.6"/>
      <rect class="cls-2" x="134.4" y="28.8" width="9.6" height="9.6"/>
      <rect class="cls-3" x="134.4" y="19.2" width="9.6" height="9.6"/>
      <rect class="cls-2" x="134.4" y="9.6" width="9.6" height="9.6"/>
      <rect class="cls-4" x="134.4" width="9.6" height="9.6"/>
      <rect class="cls-1" x="124.8" y="268.8" width="9.6" height="9.6"/>
      <rect class="cls-4" x="124.8" y="259.2" width="9.6" height="9.6"/>
      <rect class="cls-2" x="124.8" y="249.6" width="9.6" height="9.6"/>
      <rect class="cls-2" x="124.8" y="240" width="9.6" height="9.6"/>
      <rect class="cls-2" x="124.8" y="230.4" width="9.6" height="9.6"/>
      <rect class="cls-3" x="124.8" y="220.8" width="9.6" height="9.6"/>
      <rect class="cls-3" x="124.8" y="211.2" width="9.6" height="9.6"/>
      <rect class="cls-2" x="124.8" y="201.6" width="9.6" height="9.6"/>
      <rect class="cls-2" x="124.8" y="192" width="9.6" height="9.6"/>
      <rect class="cls-4" x="124.8" y="182.4" width="9.6" height="9.6"/>
      <rect class="cls-3" x="124.8" y="172.8" width="9.6" height="9.6"/>
      <rect class="cls-1" x="124.8" y="163.2" width="9.6" height="9.6"/>
      <rect class="cls-3" x="124.8" y="153.6" width="9.6" height="9.6"/>
      <rect class="cls-3" x="124.8" y="144" width="9.6" height="9.6"/>
      <rect class="cls-3" x="124.8" y="134.4" width="9.6" height="9.6"/>
      <rect class="cls-3" x="124.8" y="124.8" width="9.6" height="9.6"/>
      <rect class="cls-1" x="124.8" y="115.2" width="9.6" height="9.6"/>
      <rect class="cls-2" x="124.8" y="105.6" width="9.6" height="9.6"/>
      <rect class="cls-2" x="124.8" y="96" width="9.6" height="9.6"/>
      <rect class="cls-2" x="124.8" y="86.4" width="9.6" height="9.6"/>
      <rect class="cls-2" x="124.8" y="76.8" width="9.6" height="9.6"/>
      <rect class="cls-2" x="124.8" y="67.2" width="9.6" height="9.6"/>
      <rect class="cls-2" x="124.8" y="57.6" width="9.6" height="9.6"/>
      <rect class="cls-2" x="124.8" y="48" width="9.6" height="9.6"/>
      <rect class="cls-2" x="124.8" y="38.4" width="9.6" height="9.6"/>
      <rect class="cls-2" x="124.8" y="28.8" width="9.6" height="9.6"/>
      <rect class="cls-3" x="124.8" y="19.2" width="9.6" height="9.6"/>
      <rect class="cls-2" x="124.8" y="9.6" width="9.6" height="9.6"/>
      <rect class="cls-4" x="124.8" width="9.6" height="9.6"/>
      <rect class="cls-1" x="115.2" y="268.8" width="9.6" height="9.6"/>
      <rect class="cls-4" x="115.2" y="259.2" width="9.6" height="9.6"/>
      <rect class="cls-2" x="115.2" y="249.6" width="9.6" height="9.6"/>
      <rect class="cls-2" x="115.2" y="240" width="9.6" height="9.6"/>
      <rect class="cls-2" x="115.2" y="230.4" width="9.6" height="9.6"/>
      <rect class="cls-3" x="115.2" y="220.8" width="9.6" height="9.6"/>
      <rect class="cls-3" x="115.2" y="211.2" width="9.6" height="9.6"/>
      <rect class="cls-2" x="115.2" y="201.6" width="9.6" height="9.6"/>
      <rect class="cls-2" x="115.2" y="192" width="9.6" height="9.6"/>
      <rect class="cls-4" x="115.2" y="182.4" width="9.6" height="9.6"/>
      <rect class="cls-3" x="115.2" y="172.8" width="9.6" height="9.6"/>
      <rect class="cls-3" x="115.2" y="163.2" width="9.6" height="9.6"/>
      <rect class="cls-4" x="115.2" y="153.6" width="9.6" height="9.6"/>
      <rect class="cls-4" x="115.2" y="144" width="9.6" height="9.6"/>
      <rect class="cls-4" x="115.2" y="134.4" width="9.6" height="9.6"/>
      <rect class="cls-4" x="115.2" y="124.8" width="9.6" height="9.6"/>
      <rect class="cls-1" x="115.2" y="115.2" width="9.6" height="9.6"/>
      <rect class="cls-4" x="115.2" y="105.6" width="9.6" height="9.6"/>
      <rect class="cls-3" x="115.2" y="96" width="9.6" height="9.6"/>
      <rect class="cls-3" x="115.2" y="86.4" width="9.6" height="9.6"/>
      <rect class="cls-3" x="115.2" y="76.8" width="9.6" height="9.6"/>
      <rect class="cls-3" x="115.2" y="67.2" width="9.6" height="9.6"/>
      <rect class="cls-3" x="115.2" y="57.6" width="9.6" height="9.6"/>
      <rect class="cls-3" x="115.2" y="48" width="9.6" height="9.6"/>
      <rect class="cls-3" x="115.2" y="38.4" width="9.6" height="9.6"/>
      <rect class="cls-3" x="115.2" y="28.8" width="9.6" height="9.6"/>
      <rect class="cls-3" x="115.2" y="19.2" width="9.6" height="9.6"/>
      <rect class="cls-2" x="115.2" y="9.6" width="9.6" height="9.6"/>
      <rect class="cls-4" x="115.2" width="9.6" height="9.6"/>
      <rect class="cls-1" x="105.6" y="268.8" width="9.6" height="9.6"/>
      <rect class="cls-4" x="105.6" y="259.2" width="9.6" height="9.6"/>
      <rect class="cls-2" x="105.6" y="249.6" width="9.6" height="9.6"/>
      <rect class="cls-2" x="105.6" y="240" width="9.6" height="9.6"/>
      <rect class="cls-2" x="105.6" y="230.4" width="9.6" height="9.6"/>
      <rect class="cls-3" x="105.6" y="220.8" width="9.6" height="9.6"/>
      <rect class="cls-3" x="105.6" y="211.2" width="9.6" height="9.6"/>
      <rect class="cls-2" x="105.6" y="201.6" width="9.6" height="9.6"/>
      <rect class="cls-2" x="105.6" y="192" width="9.6" height="9.6"/>
      <rect class="cls-2" x="105.6" y="182.4" width="9.6" height="9.6"/>
      <rect class="cls-4" x="105.6" y="172.8" width="9.6" height="9.6"/>
      <rect class="cls-3" x="105.6" y="163.2" width="9.6" height="9.6"/>
      <rect class="cls-3" x="105.6" y="153.6" width="9.6" height="9.6"/>
      <rect class="cls-4" x="105.6" y="144" width="9.6" height="9.6"/>
      <rect class="cls-2" x="105.6" y="134.4" width="9.6" height="9.6"/>
      <rect class="cls-2" x="105.6" y="124.8" width="9.6" height="9.6"/>
      <rect class="cls-2" x="105.6" y="115.2" width="9.6" height="9.6"/>
      <rect class="cls-4" x="105.6" y="105.6" width="9.6" height="9.6"/>
      <rect class="cls-4" x="105.6" y="96" width="9.6" height="9.6"/>
      <rect class="cls-4" x="105.6" y="86.4" width="9.6" height="9.6"/>
      <rect class="cls-4" x="105.6" y="76.8" width="9.6" height="9.6"/>
      <rect class="cls-4" x="105.6" y="67.2" width="9.6" height="9.6"/>
      <rect class="cls-4" x="105.6" y="57.6" width="9.6" height="9.6"/>
      <rect class="cls-4" x="105.6" y="48" width="9.6" height="9.6"/>
      <rect class="cls-4" x="105.6" y="38.4" width="9.6" height="9.6"/>
      <rect class="cls-4" x="105.6" y="28.8" width="9.6" height="9.6"/>
      <rect class="cls-4" x="105.6" y="19.2" width="9.6" height="9.6"/>
      <rect class="cls-4" x="105.6" y="9.6" width="9.6" height="9.6"/>
      <rect class="cls-1" x="96" y="259.2" width="9.6" height="9.6"/>
      <rect class="cls-4" x="96" y="249.6" width="9.6" height="9.6"/>
      <rect class="cls-2" x="96" y="240" width="9.6" height="9.6"/>
      <rect class="cls-2" x="96" y="230.4" width="9.6" height="9.6"/>
      <rect class="cls-2" x="96" y="220.8" width="9.6" height="9.6"/>
      <rect class="cls-3" x="96" y="211.2" width="9.6" height="9.6"/>
      <rect class="cls-3" x="96" y="201.6" width="9.6" height="9.6"/>
      <rect class="cls-2" x="96" y="192" width="9.6" height="9.6"/>
      <rect class="cls-2" x="96" y="182.4" width="9.6" height="9.6"/>
      <rect class="cls-2" x="96" y="172.8" width="9.6" height="9.6"/>
      <rect class="cls-4" x="96" y="163.2" width="9.6" height="9.6"/>
      <rect class="cls-4" x="96" y="153.6" width="9.6" height="9.6"/>
      <rect class="cls-2" x="96" y="144" width="9.6" height="9.6"/>
      <rect class="cls-2" x="96" y="134.4" width="9.6" height="9.6"/>
      <rect class="cls-2" x="96" y="124.8" width="9.6" height="9.6"/>
      <rect class="cls-4" x="96" y="115.2" width="9.6" height="9.6"/>
      <rect class="cls-1" x="86.4" y="259.2" width="9.6" height="9.6"/>
      <rect class="cls-4" x="86.4" y="249.6" width="9.6" height="9.6"/>
      <rect class="cls-2" x="86.4" y="240" width="9.6" height="9.6"/>
      <rect class="cls-2" x="86.4" y="230.4" width="9.6" height="9.6"/>
      <rect class="cls-2" x="86.4" y="220.8" width="9.6" height="9.6"/>
      <rect class="cls-3" x="86.4" y="211.2" width="9.6" height="9.6"/>
      <rect class="cls-3" x="86.4" y="201.6" width="9.6" height="9.6"/>
      <rect class="cls-2" x="86.4" y="192" width="9.6" height="9.6"/>
      <rect class="cls-2" x="86.4" y="182.4" width="9.6" height="9.6"/>
      <rect class="cls-2" x="86.4" y="172.8" width="9.6" height="9.6"/>
      <rect class="cls-2" x="86.4" y="163.2" width="9.6" height="9.6"/>
      <rect class="cls-2" x="86.4" y="153.6" width="9.6" height="9.6"/>
      <rect class="cls-2" x="86.4" y="144" width="9.6" height="9.6"/>
      <rect class="cls-2" x="86.4" y="134.4" width="9.6" height="9.6"/>
      <rect class="cls-2" x="86.4" y="124.8" width="9.6" height="9.6"/>
      <rect class="cls-4" x="86.4" y="115.2" width="9.6" height="9.6"/>
      <rect class="cls-1" x="76.8" y="249.6" width="9.6" height="9.6"/>
      <rect class="cls-4" x="76.8" y="240" width="9.6" height="9.6"/>
      <rect class="cls-2" x="76.8" y="230.4" width="9.6" height="9.6"/>
      <rect class="cls-2" x="76.8" y="220.8" width="9.6" height="9.6"/>
      <rect class="cls-2" x="76.8" y="211.2" width="9.6" height="9.6"/>
      <rect class="cls-3" x="76.8" y="201.6" width="9.6" height="9.6"/>
      <rect class="cls-3" x="76.8" y="192" width="9.6" height="9.6"/>
      <rect class="cls-2" x="76.8" y="182.4" width="9.6" height="9.6"/>
      <rect class="cls-2" x="76.8" y="172.8" width="9.6" height="9.6"/>
      <rect class="cls-2" x="76.8" y="163.2" width="9.6" height="9.6"/>
      <rect class="cls-2" x="76.8" y="153.6" width="9.6" height="9.6"/>
      <rect class="cls-2" x="76.8" y="144" width="9.6" height="9.6"/>
      <rect class="cls-2" x="76.8" y="134.4" width="9.6" height="9.6"/>
      <rect class="cls-4" x="76.8" y="124.8" width="9.6" height="9.6"/>
      <rect class="cls-1" x="67.2" y="249.6" width="9.6" height="9.6"/>
      <rect class="cls-4" x="67.2" y="240" width="9.6" height="9.6"/>
      <rect class="cls-2" x="67.2" y="230.4" width="9.6" height="9.6"/>
      <rect class="cls-2" x="67.2" y="220.8" width="9.6" height="9.6"/>
      <rect class="cls-2" x="67.2" y="211.2" width="9.6" height="9.6"/>
      <rect class="cls-3" x="67.2" y="201.6" width="9.6" height="9.6"/>
      <rect class="cls-3" x="67.2" y="192" width="9.6" height="9.6"/>
      <rect class="cls-2" x="67.2" y="182.4" width="9.6" height="9.6"/>
      <rect class="cls-2" x="67.2" y="172.8" width="9.6" height="9.6"/>
      <rect class="cls-2" x="67.2" y="163.2" width="9.6" height="9.6"/>
      <rect class="cls-2" x="67.2" y="153.6" width="9.6" height="9.6"/>
      <rect class="cls-2" x="67.2" y="144" width="9.6" height="9.6"/>
      <rect class="cls-2" x="67.2" y="134.4" width="9.6" height="9.6"/>
      <rect class="cls-4" x="67.2" y="124.8" width="9.6" height="9.6"/>
      <rect class="cls-1" x="57.6" y="249.6" width="9.6" height="9.6"/>
      <rect class="cls-4" x="57.6" y="240" width="9.6" height="9.6"/>
      <rect class="cls-2" x="57.6" y="230.4" width="9.6" height="9.6"/>
      <rect class="cls-2" x="57.6" y="220.8" width="9.6" height="9.6"/>
      <rect class="cls-2" x="57.6" y="211.2" width="9.6" height="9.6"/>
      <rect class="cls-3" x="57.6" y="201.6" width="9.6" height="9.6"/>
      <rect class="cls-3" x="57.6" y="192" width="9.6" height="9.6"/>
      <rect class="cls-2" x="57.6" y="182.4" width="9.6" height="9.6"/>
      <rect class="cls-2" x="57.6" y="172.8" width="9.6" height="9.6"/>
      <rect class="cls-2" x="57.6" y="163.2" width="9.6" height="9.6"/>
      <rect class="cls-2" x="57.6" y="153.6" width="9.6" height="9.6"/>
      <rect class="cls-2" x="57.6" y="144" width="9.6" height="9.6"/>
      <rect class="cls-4" x="57.6" y="134.4" width="9.6" height="9.6"/>
      <rect class="cls-1" x="48" y="240" width="9.6" height="9.6"/>
      <rect class="cls-4" x="48" y="230.4" width="9.6" height="9.6"/>
      <rect class="cls-2" x="48" y="220.8" width="9.6" height="9.6"/>
      <rect class="cls-2" x="48" y="211.2" width="9.6" height="9.6"/>
      <rect class="cls-2" x="48" y="201.6" width="9.6" height="9.6"/>
      <rect class="cls-3" x="48" y="192" width="9.6" height="9.6"/>
      <rect class="cls-3" x="48" y="182.4" width="9.6" height="9.6"/>
      <rect class="cls-2" x="48" y="172.8" width="9.6" height="9.6"/>
      <rect class="cls-2" x="48" y="163.2" width="9.6" height="9.6"/>
      <rect class="cls-2" x="48" y="153.6" width="9.6" height="9.6"/>
      <rect class="cls-2" x="48" y="144" width="9.6" height="9.6"/>
      <rect class="cls-4" x="48" y="134.4" width="9.6" height="9.6"/>
      <rect class="cls-1" x="38.4" y="240" width="9.6" height="9.6"/>
      <rect class="cls-4" x="38.4" y="230.4" width="9.6" height="9.6"/>
      <rect class="cls-2" x="38.4" y="220.8" width="9.6" height="9.6"/>
      <rect class="cls-2" x="38.4" y="211.2" width="9.6" height="9.6"/>
      <rect class="cls-2" x="38.4" y="201.6" width="9.6" height="9.6"/>
      <rect class="cls-3" x="38.4" y="192" width="9.6" height="9.6"/>
      <rect class="cls-3" x="38.4" y="182.4" width="9.6" height="9.6"/>
      <rect class="cls-2" x="38.4" y="172.8" width="9.6" height="9.6"/>
      <rect class="cls-2" x="38.4" y="163.2" width="9.6" height="9.6"/>
      <rect class="cls-2" x="38.4" y="153.6" width="9.6" height="9.6"/>
      <rect class="cls-4" x="38.4" y="144" width="9.6" height="9.6"/>
      <rect class="cls-1" x="28.8" y="240" width="9.6" height="9.6"/>
      <rect class="cls-4" x="28.8" y="230.4" width="9.6" height="9.6"/>
      <rect class="cls-2" x="28.8" y="220.8" width="9.6" height="9.6"/>
      <rect class="cls-2" x="28.8" y="211.2" width="9.6" height="9.6"/>
      <rect class="cls-2" x="28.8" y="201.6" width="9.6" height="9.6"/>
      <rect class="cls-3" x="28.8" y="192" width="9.6" height="9.6"/>
      <rect class="cls-3" x="28.8" y="182.4" width="9.6" height="9.6"/>
      <rect class="cls-2" x="28.8" y="172.8" width="9.6" height="9.6"/>
      <rect class="cls-2" x="28.8" y="163.2" width="9.6" height="9.6"/>
      <rect class="cls-2" x="28.8" y="153.6" width="9.6" height="9.6"/>
      <rect class="cls-4" x="28.8" y="144" width="9.6" height="9.6"/>
      <rect class="cls-1" x="19.2" y="230.4" width="9.6" height="9.6"/>
      <rect class="cls-4" x="19.2" y="220.8" width="9.6" height="9.6"/>
      <rect class="cls-2" x="19.2" y="211.2" width="9.6" height="9.6"/>
      <rect class="cls-2" x="19.2" y="201.6" width="9.6" height="9.6"/>
      <rect class="cls-2" x="19.2" y="192" width="9.6" height="9.6"/>
      <rect class="cls-3" x="19.2" y="182.4" width="9.6" height="9.6"/>
      <rect class="cls-3" x="19.2" y="172.8" width="9.6" height="9.6"/>
      <rect class="cls-2" x="19.2" y="163.2" width="9.6" height="9.6"/>
      <rect class="cls-4" x="19.2" y="153.6" width="9.6" height="9.6"/>
      <rect class="cls-1" x="9.6" y="230.4" width="9.6" height="9.6"/>
      <rect class="cls-4" x="9.6" y="220.8" width="9.6" height="9.6"/>
      <rect class="cls-2" x="9.6" y="211.2" width="9.6" height="9.6"/>
      <rect class="cls-2" x="9.6" y="201.6" width="9.6" height="9.6"/>
      <rect class="cls-2" x="9.6" y="192" width="9.6" height="9.6"/>
      <rect class="cls-3" x="9.6" y="182.4" width="9.6" height="9.6"/>
      <rect class="cls-3" x="9.6" y="172.8" width="9.6" height="9.6"/>
      <rect class="cls-4" x="9.6" y="163.2" width="9.6" height="9.6"/>
      <rect class="cls-4" y="230.4" width="9.6" height="9.6"/>
      <rect class="cls-4" y="220.8" width="9.6" height="9.6"/>
      <rect class="cls-4" y="211.2" width="9.6" height="9.6"/>
      <rect class="cls-4" y="201.6" width="9.6" height="9.6"/>
      <rect class="cls-4" y="192" width="9.6" height="9.6"/>
      <rect class="cls-4" y="182.4" width="9.6" height="9.6"/>
      <rect class="cls-4" y="172.8" width="9.6" height="9.6"/>
    </g>
  </g>
</svg>