<?xml version="1.0" encoding="UTF-8"?>
<svg id="Layer_2" data-name="Layer 2" xmlns="http://www.w3.org/2000/svg" viewBox="0 0 249 288">
  <defs>
    <style>
      .cls-1 {
        fill: #1b75bb;
      }

      .cls-2 {
        fill: #c97bb2;
      }

      .cls-3 {
        fill: #2b388f;
      }

      .cls-4 {
        fill: #231f20;
      }

      .cls-5 {
        fill: #ffd3fb;
      }

      .cls-6 {
        fill: #fff;
      }

      .cls-7 {
        fill: #37b34a;
      }

      .cls-8 {
        fill: #8bc53f;
      }

      .cls-9 {
        fill: #262261;
      }

      .cls-10 {
        fill: #ff8ef6;
      }
    </style>
  </defs>
  <g id="Layer_1-2" data-name="Layer 1">
    <g>
      <g>
        <polygon class="cls-2" points="230 192 221 192 221 202 230 202 240 202 240 192 230 192"/>
        <polygon class="cls-2" points="201 202 201 211 211 211 221 211 221 202 211 202 201 202"/>
        <polygon class="cls-2" points="182 211 182 221 192 221 201 221 201 211 192 211 182 211"/>
        <polygon class="cls-2" points="163 221 163 231 173 231 182 231 182 221 173 221 163 221"/>
        <polygon class="cls-2" points="144 231 144 240 153 240 163 240 163 231 153 231 144 231"/>
      </g>
      <rect class="cls-3" x="125" y="96" width="9" height="10"/>
      <g>
        <polygon class="cls-1" points="115 96 105 96 105 106 105 115 115 115 115 125 105 125 96 125 96 135 86 135 86 144 96 144 96 154 105 154 115 154 115 163 125 163 125 154 125 144 125 135 125 125 125 115 125 106 125 96 115 96"/>
        <polygon class="cls-1" points="96 87 86 87 86 77 77 77 67 77 67 67 57 67 48 67 48 77 48 87 48 96 48 106 48 115 48 125 57 125 57 135 67 135 77 135 77 125 67 125 67 115 67 106 57 106 57 96 67 96 67 87 77 87 77 96 86 96 86 106 96 106 96 96 105 96 105 87 96 87"/>
      </g>
      <g>
        <polygon class="cls-9" points="125 106 125 115 125 125 125 135 125 144 125 154 125 163 115 163 115 173 125 173 125 183 134 183 134 173 134 163 134 154 134 144 134 135 134 125 134 115 134 106 125 106"/>
        <polygon class="cls-9" points="105 154 96 154 96 163 105 163 115 163 115 154 105 154"/>
        <polygon class="cls-9" points="115 96 125 96 125 87 115 87 105 87 105 96 115 96"/>
        <polygon class="cls-9" points="86 144 77 144 77 154 86 154 96 154 96 144 86 144"/>
        <polygon class="cls-9" points="96 87 105 87 105 77 96 77 86 77 86 87 96 87"/>
        <polygon class="cls-9" points="67 135 57 135 57 144 67 144 77 144 77 135 67 135"/>
        <polygon class="cls-9" points="77 77 86 77 86 67 77 67 67 67 67 77 77 77"/>
        <polygon class="cls-9" points="67 67 67 58 57 58 48 58 48 67 57 67 67 67"/>
        <rect class="cls-9" x="48" y="125" width="9" height="10"/>
      </g>
      <rect class="cls-7" x="38" y="202" width="10" height="9"/>
      <rect class="cls-8" x="29" y="192" width="9" height="10"/>
      <g>
        <polygon class="cls-4" points="240 183 240 192 240 202 240 211 240 221 240 231 240 240 249 240 249 231 249 221 249 211 249 202 249 192 249 183 240 183"/>
        <polygon class="cls-4" points="230 173 221 173 221 183 230 183 240 183 240 173 230 173"/>
        <polygon class="cls-4" points="240 135 240 125 240 115 240 106 240 96 240 87 240 77 240 67 240 58 230 58 230 67 230 77 230 87 230 96 230 106 230 115 230 125 230 135 230 144 240 144 240 135"/>
        <polygon class="cls-4" points="221 240 221 250 230 250 240 250 240 240 230 240 221 240"/>
        <rect class="cls-4" x="221" y="144" width="9" height="10"/>
        <polygon class="cls-4" points="221 154 211 154 211 163 201 163 201 173 211 173 221 173 221 163 221 154"/>
        <polygon class="cls-4" points="201 250 201 259 211 259 221 259 221 250 211 250 201 250"/>
        <polygon class="cls-4" points="182 259 182 269 192 269 201 269 201 259 192 259 182 259"/>
        <polygon class="cls-4" points="192 163 192 154 192 144 192 135 192 125 192 115 192 106 192 96 192 87 192 77 192 67 192 58 182 58 182 67 182 77 182 87 182 96 182 106 182 115 182 125 182 135 182 144 182 154 182 163 182 173 182 183 182 192 182 202 192 202 192 192 192 183 201 183 201 173 192 173 192 163"/>
        <polygon class="cls-4" points="163 269 163 279 173 279 182 279 182 269 173 269 163 269"/>
        <polygon class="cls-4" points="163 202 163 211 173 211 182 211 182 202 173 202 163 202"/>
        <polygon class="cls-4" points="144 279 134 279 134 288 144 288 153 288 163 288 163 279 153 279 144 279"/>
        <polygon class="cls-4" points="144 211 134 211 134 221 144 221 153 221 163 221 163 211 153 211 144 211"/>
        <polygon class="cls-4" points="125 269 115 269 115 279 125 279 134 279 134 269 125 269"/>
        <polygon class="cls-4" points="125 202 115 202 115 211 125 211 134 211 134 202 125 202"/>
        <rect class="cls-4" x="105" y="259" width="10" height="10"/>
        <rect class="cls-4" x="105" y="192" width="10" height="10"/>
        <polygon class="cls-4" points="96 250 86 250 86 259 96 259 105 259 105 250 96 250"/>
        <polygon class="cls-4" points="96 183 86 183 86 192 96 192 105 192 105 183 96 183"/>
        <polygon class="cls-4" points="77 240 67 240 67 250 77 250 86 250 86 240 77 240"/>
        <polygon class="cls-4" points="77 173 67 173 67 183 77 183 86 183 86 173 77 173"/>
        <polygon class="cls-4" points="57 231 48 231 48 240 57 240 67 240 67 231 57 231"/>
        <polygon class="cls-4" points="57 163 48 163 48 173 57 173 67 173 67 163 57 163"/>
        <polygon class="cls-4" points="38 221 29 221 29 231 38 231 48 231 48 221 38 221"/>
        <polygon class="cls-4" points="38 154 29 154 29 163 38 163 48 163 48 154 38 154"/>
        <polygon class="cls-4" points="48 125 48 115 48 106 48 96 48 87 48 77 48 67 48 58 48 48 38 48 38 58 38 67 38 77 38 87 38 96 38 106 38 115 38 125 38 135 48 135 48 125"/>
        <polygon class="cls-4" points="19 211 9 211 9 221 19 221 29 221 29 211 19 211"/>
        <rect class="cls-4" x="19" y="144" width="10" height="10"/>
      </g>
      <g>
        <rect class="cls-6" x="134" y="231" width="10" height="9"/>
        <polygon class="cls-6" points="125 221 115 221 115 231 125 231 134 231 134 221 125 221"/>
        <rect class="cls-6" x="125" y="67" width="9" height="10"/>
        <rect class="cls-6" x="105" y="211" width="10" height="10"/>
        <polygon class="cls-6" points="115 67 125 67 125 58 115 58 105 58 105 67 115 67"/>
        <polygon class="cls-6" points="96 202 86 202 86 211 96 211 105 211 105 202 96 202"/>
        <polygon class="cls-6" points="96 58 105 58 105 48 96 48 86 48 86 58 96 58"/>
        <polygon class="cls-6" points="77 192 67 192 67 202 77 202 86 202 86 192 77 192"/>
        <polygon class="cls-6" points="77 48 86 48 86 39 77 39 67 39 67 48 77 48"/>
        <polygon class="cls-6" points="57 183 48 183 48 192 57 192 67 192 67 183 57 183"/>
        <polygon class="cls-6" points="38 173 29 173 29 183 38 183 48 183 48 173 38 173"/>
        <polygon class="cls-6" points="19 163 9 163 9 173 9 183 9 192 9 202 9 211 19 211 19 202 19 192 19 183 19 173 29 173 29 163 19 163"/>
        <polygon class="cls-6" points="29 125 29 115 29 106 29 96 29 87 29 77 29 67 29 58 29 48 29 39 38 39 48 39 57 39 67 39 67 29 57 29 48 29 38 29 29 29 19 29 19 39 19 48 19 58 19 67 19 77 19 87 19 96 19 106 19 115 19 125 19 135 29 135 29 125"/>
      </g>
      <g>
        <polygon class="cls-5" points="211 48 201 48 201 39 192 39 182 39 182 29 173 29 163 29 153 29 144 29 144 39 153 39 163 39 163 48 173 48 182 48 182 58 192 58 192 67 201 67 201 58 211 58 221 58 221 48 211 48"/>
        <polygon class="cls-5" points="163 58 163 48 153 48 144 48 144 39 134 39 125 39 125 29 115 29 115 19 105 19 96 19 96 10 86 10 77 10 67 10 57 10 57 19 48 19 38 19 38 29 48 29 57 29 67 29 67 39 77 39 86 39 86 48 96 48 105 48 105 58 115 58 125 58 125 67 134 67 134 77 125 77 125 87 134 87 134 96 134 106 134 115 134 125 134 135 134 144 134 154 134 163 134 173 134 183 134 192 125 192 125 183 115 183 115 173 105 173 96 173 96 163 86 163 77 163 77 154 67 154 57 154 57 144 48 144 38 144 29 144 29 154 38 154 48 154 48 163 57 163 67 163 67 173 77 173 86 173 86 183 96 183 105 183 105 192 115 192 115 202 125 202 134 202 134 211 144 211 144 202 144 192 144 183 144 173 144 163 144 154 144 144 144 135 144 125 144 115 144 106 144 96 144 87 144 77 153 77 163 77 163 67 173 67 182 67 182 58 173 58 163 58"/>
        <rect class="cls-5" x="134" y="221" width="10" height="10"/>
        <path class="cls-5" d="M115,231v-10h-10v-10h-19v-9h-19v-10h-19v-9h-19v-10h-10v38h10v10h19v10h19v9h19v10h19v9h10v10h19v10h10v-39h-10v-9h-19ZM38,211v-9h-9v-10h9v10h10v9h-10Z"/>
        <polygon class="cls-5" points="115 211 115 221 125 221 134 221 134 211 125 211 115 211"/>
        <rect class="cls-5" x="105" y="202" width="10" height="9"/>
        <polygon class="cls-5" points="105 67 105 77 115 77 125 77 125 67 115 67 105 67"/>
        <polygon class="cls-5" points="86 192 86 202 96 202 105 202 105 192 96 192 86 192"/>
        <polygon class="cls-5" points="86 58 86 67 96 67 105 67 105 58 96 58 86 58"/>
        <polygon class="cls-5" points="67 183 67 192 77 192 86 192 86 183 77 183 67 183"/>
        <polygon class="cls-5" points="67 115 67 125 77 125 77 135 77 144 86 144 86 135 96 135 96 125 105 125 115 125 115 115 105 115 105 106 105 96 96 96 96 106 86 106 86 96 77 96 77 87 67 87 67 96 57 96 57 106 67 106 67 115"/>
        <polygon class="cls-5" points="67 48 67 58 77 58 86 58 86 48 77 48 67 48"/>
        <polygon class="cls-5" points="48 173 48 183 57 183 67 183 67 173 57 173 48 173"/>
        <polygon class="cls-5" points="48 173 48 163 38 163 29 163 29 173 38 173 48 173"/>
        <polygon class="cls-5" points="38 125 38 115 38 106 38 96 38 87 38 77 38 67 38 58 38 48 48 48 57 48 67 48 67 39 57 39 48 39 38 39 29 39 29 48 29 58 29 67 29 77 29 87 29 96 29 106 29 115 29 125 29 135 38 135 38 125"/>
        <polygon class="cls-5" points="19 154 9 154 9 163 19 163 29 163 29 154 19 154"/>
        <rect class="cls-5" x="19" y="135" width="10" height="9"/>
      </g>
      <g>
        <polygon class="cls-10" points="230 192 240 192 240 183 230 183 221 183 221 173 211 173 201 173 201 183 192 183 192 192 192 202 182 202 182 211 192 211 201 211 201 202 211 202 221 202 221 192 230 192"/>
        <polygon class="cls-10" points="211 211 201 211 201 221 192 221 182 221 182 231 173 231 163 231 163 240 153 240 144 240 144 250 144 259 144 269 144 279 153 279 163 279 163 269 173 269 182 269 182 259 192 259 201 259 201 250 211 250 221 250 221 240 230 240 240 240 240 231 240 221 240 211 240 202 230 202 221 202 221 211 211 211"/>
        <polygon class="cls-10" points="211 39 201 39 201 48 211 48 221 48 221 39 211 39"/>
        <polygon class="cls-10" points="211 163 211 154 221 154 221 144 230 144 230 135 230 125 230 115 230 106 230 96 230 87 230 77 230 67 230 58 230 48 221 48 221 58 211 58 201 58 201 67 192 67 192 77 192 87 192 96 192 106 192 115 192 125 192 135 192 144 192 154 192 163 192 173 201 173 201 163 211 163"/>
        <polygon class="cls-10" points="192 29 182 29 182 39 192 39 201 39 201 29 192 29"/>
        <polygon class="cls-10" points="182 221 182 211 173 211 163 211 163 221 173 221 182 221"/>
        <polygon class="cls-10" points="173 19 163 19 153 19 144 19 134 19 125 19 115 19 115 29 125 29 125 39 134 39 144 39 144 29 153 29 163 29 173 29 182 29 182 19 173 19"/>
        <polygon class="cls-10" points="173 202 182 202 182 192 182 183 182 173 182 163 182 154 182 144 182 135 182 125 182 115 182 106 182 96 182 87 182 77 182 67 173 67 163 67 163 77 153 77 144 77 144 87 144 96 144 106 144 115 144 125 144 135 144 144 144 154 144 163 144 173 144 183 144 192 144 202 144 211 153 211 163 211 163 202 173 202"/>
        <polygon class="cls-10" points="173 58 182 58 182 48 173 48 163 48 163 58 173 58"/>
        <polygon class="cls-10" points="153 221 144 221 144 231 153 231 163 231 163 221 153 221"/>
        <polygon class="cls-10" points="153 48 163 48 163 39 153 39 144 39 144 48 153 48"/>
        <rect class="cls-10" x="125" y="183" width="9" height="9"/>
        <rect class="cls-10" x="125" y="87" width="9" height="9"/>
        <rect class="cls-10" x="115" y="173" width="10" height="10"/>
        <polygon class="cls-10" points="115 77 105 77 105 87 115 87 125 87 125 77 115 77"/>
        <polygon class="cls-10" points="105 163 96 163 96 173 105 173 115 173 115 163 105 163"/>
        <polygon class="cls-10" points="105 10 96 10 96 19 105 19 115 19 115 10 105 10"/>
        <polygon class="cls-10" points="96 67 86 67 86 77 96 77 105 77 105 67 96 67"/>
        <polygon class="cls-10" points="86 154 77 154 77 163 86 163 96 163 96 154 86 154"/>
        <polygon class="cls-10" points="86 0 77 0 67 0 57 0 57 10 67 10 77 10 86 10 96 10 96 0 86 0"/>
        <polygon class="cls-10" points="77 58 67 58 67 67 77 67 86 67 86 58 77 58"/>
        <polygon class="cls-10" points="67 144 57 144 57 154 67 154 77 154 77 144 67 144"/>
        <polygon class="cls-10" points="57 48 48 48 48 58 57 58 67 58 67 48 57 48"/>
        <polygon class="cls-10" points="48 135 38 135 29 135 29 144 38 144 48 144 57 144 57 135 48 135"/>
        <polygon class="cls-10" points="38 10 38 19 48 19 57 19 57 10 48 10 38 10"/>
        <polygon class="cls-10" points="19 19 19 29 29 29 38 29 38 19 29 19 19 19"/>
        <polygon class="cls-10" points="9 39 9 48 9 58 9 67 9 77 9 87 9 96 9 106 9 115 9 125 9 135 9 144 9 154 19 154 19 144 19 135 19 125 19 115 19 106 19 96 19 87 19 77 19 67 19 58 19 48 19 39 19 29 9 29 9 39"/>
        <polygon class="cls-10" points="0 163 0 173 0 183 0 192 0 202 0 211 9 211 9 202 9 192 9 183 9 173 9 163 9 154 0 154 0 163"/>
      </g>
    </g>
  </g>
</svg>