<?xml version="1.0" encoding="UTF-8"?>
<svg id="Layer_2" data-name="Layer 2" xmlns="http://www.w3.org/2000/svg" viewBox="0 0 288.5 288.5">
  <defs>
    <style>
      .cls-1 {
        fill: #231f20;
      }

      .cls-2 {
        fill: #ffd3fb;
      }

      .cls-3 {
        fill: #fff;
      }

      .cls-4 {
        fill: #ff8ef6;
      }
    </style>
  </defs>
  <g id="Layer_1-2" data-name="Layer 1">
    <g>
      <rect class="cls-1" x="278.65" y="163.45" width="9.6" height="9.6"/>
      <rect class="cls-4" x="278.65" y="153.85" width="9.6" height="9.6"/>
      <rect class="cls-4" x="278.65" y="144.25" width="9.6" height="9.6"/>
      <rect class="cls-3" x="278.65" y="134.65" width="9.6" height="9.6"/>
      <rect class="cls-3" x="278.65" y="125.05" width="9.6" height="9.6"/>
      <rect class="cls-3" x="278.65" y="115.45" width="9.6" height="9.6"/>
      <rect class="cls-4" x="278.65" y="105.85" width="9.6" height="9.6"/>
      <rect class="cls-4" x="278.65" y="96.25" width="9.6" height="9.6"/>
      <rect class="cls-1" x="269.05" y="173.05" width="9.6" height="9.6"/>
      <rect class="cls-4" x="269.05" y="163.45" width="9.6" height="9.6"/>
      <rect class="cls-4" x="269.05" y="153.85" width="9.6" height="9.6"/>
      <rect class="cls-3" x="269.05" y="144.25" width="9.6" height="9.6"/>
      <rect class="cls-3" x="269.05" y="134.65" width="9.6" height="9.6"/>
      <rect class="cls-3" x="269.05" y="125.05" width="9.6" height="9.6"/>
      <rect class="cls-4" x="269.05" y="115.45" width="9.6" height="9.6"/>
      <rect class="cls-4" x="269.05" y="105.85" width="9.6" height="9.6"/>
      <rect class="cls-1" x="269.05" y="96.25" width="9.6" height="9.6"/>
      <rect class="cls-1" x="259.45" y="182.65" width="9.6" height="9.6"/>
      <rect class="cls-4" x="259.45" y="173.05" width="9.6" height="9.6"/>
      <rect class="cls-4" x="259.45" y="163.45" width="9.6" height="9.6"/>
      <rect class="cls-3" x="259.45" y="153.85" width="9.6" height="9.6"/>
      <rect class="cls-3" x="259.45" y="144.25" width="9.6" height="9.6"/>
      <rect class="cls-3" x="259.45" y="134.65" width="9.6" height="9.6"/>
      <rect class="cls-4" x="259.45" y="125.05" width="9.6" height="9.6"/>
      <rect class="cls-4" x="259.45" y="115.45" width="9.6" height="9.6"/>
      <rect class="cls-1" x="259.45" y="105.85" width="9.6" height="9.6"/>
      <rect class="cls-1" x="259.45" y="96.25" width="9.6" height="9.6"/>
      <rect class="cls-1" x="249.85" y="182.65" width="9.6" height="9.6"/>
      <rect class="cls-4" x="249.85" y="173.05" width="9.6" height="9.6"/>
      <rect class="cls-4" x="249.85" y="163.45" width="9.6" height="9.6"/>
      <rect class="cls-3" x="249.85" y="153.85" width="9.6" height="9.6"/>
      <rect class="cls-3" x="249.85" y="144.25" width="9.6" height="9.6"/>
      <rect class="cls-4" x="249.85" y="134.65" width="9.6" height="9.6"/>
      <rect class="cls-4" x="249.85" y="125.05" width="9.6" height="9.6"/>
      <rect class="cls-1" x="249.85" y="115.45" width="9.6" height="9.6"/>
      <rect class="cls-1" x="249.85" y="105.85" width="9.6" height="9.6"/>
      <rect class="cls-1" x="240.25" y="182.65" width="9.6" height="9.6"/>
      <rect class="cls-4" x="240.25" y="173.05" width="9.6" height="9.6"/>
      <rect class="cls-4" x="240.25" y="163.45" width="9.6" height="9.6"/>
      <rect class="cls-3" x="240.25" y="153.85" width="9.6" height="9.6"/>
      <rect class="cls-2" x="240.25" y="144.25" width="9.6" height="9.6"/>
      <rect class="cls-4" x="240.25" y="134.65" width="9.6" height="9.6"/>
      <rect class="cls-1" x="240.25" y="125.05" width="9.6" height="9.6"/>
      <rect class="cls-1" x="240.25" y="115.45" width="9.6" height="9.6"/>
      <rect class="cls-4" x="240.25" y="105.85" width="9.6" height="9.6"/>
      <rect class="cls-4" x="240.25" y="96.25" width="9.6" height="9.6"/>
      <rect class="cls-1" x="230.65" y="182.65" width="9.6" height="9.6"/>
      <rect class="cls-1" x="230.65" y="173.05" width="9.6" height="9.6"/>
      <rect class="cls-1" x="230.65" y="163.45" width="9.6" height="9.6"/>
      <rect class="cls-2" x="230.65" y="153.85" width="9.6" height="9.6"/>
      <rect class="cls-3" x="230.65" y="144.25" width="9.6" height="9.6"/>
      <rect class="cls-4" x="230.65" y="134.65" width="9.6" height="9.6"/>
      <rect class="cls-1" x="230.65" y="125.05" width="9.6" height="9.6"/>
      <rect class="cls-4" x="230.65" y="115.45" width="9.6" height="9.6"/>
      <rect class="cls-4" x="230.65" y="105.85" width="9.6" height="9.6"/>
      <rect class="cls-1" x="230.65" y="96.25" width="9.6" height="9.6"/>
      <rect class="cls-1" x="221.05" y="182.65" width="9.6" height="9.6"/>
      <rect class="cls-4" x="221.05" y="173.05" width="9.6" height="9.6"/>
      <rect class="cls-4" x="221.05" y="163.45" width="9.6" height="9.6"/>
      <rect class="cls-3" x="221.05" y="153.85" width="9.6" height="9.6"/>
      <rect class="cls-3" x="221.05" y="144.25" width="9.6" height="9.6"/>
      <rect class="cls-3" x="221.05" y="134.65" width="9.6" height="9.6"/>
      <rect class="cls-4" x="221.05" y="125.05" width="9.6" height="9.6"/>
      <rect class="cls-4" x="221.05" y="115.45" width="9.6" height="9.6"/>
      <rect class="cls-1" x="221.05" y="105.85" width="9.6" height="9.6"/>
      <rect class="cls-1" x="221.05" y="96.25" width="9.6" height="9.6"/>
      <rect class="cls-1" x="211.45" y="182.65" width="9.6" height="9.6"/>
      <rect class="cls-4" x="211.45" y="173.05" width="9.6" height="9.6"/>
      <rect class="cls-4" x="211.45" y="163.45" width="9.6" height="9.6"/>
      <rect class="cls-3" x="211.45" y="153.85" width="9.6" height="9.6"/>
      <rect class="cls-3" x="211.45" y="144.25" width="9.6" height="9.6"/>
      <rect class="cls-4" x="211.45" y="134.65" width="9.6" height="9.6"/>
      <rect class="cls-4" x="211.45" y="125.05" width="9.6" height="9.6"/>
      <rect class="cls-1" x="211.45" y="115.45" width="9.6" height="9.6"/>
      <rect class="cls-1" x="211.45" y="105.85" width="9.6" height="9.6"/>
      <rect class="cls-1" x="201.85" y="182.65" width="9.6" height="9.6"/>
      <rect class="cls-4" x="201.85" y="173.05" width="9.6" height="9.6"/>
      <rect class="cls-4" x="201.85" y="163.45" width="9.6" height="9.6"/>
      <rect class="cls-3" x="201.85" y="153.85" width="9.6" height="9.6"/>
      <rect class="cls-2" x="201.85" y="144.25" width="9.6" height="9.6"/>
      <rect class="cls-4" x="201.85" y="134.65" width="9.6" height="9.6"/>
      <rect class="cls-1" x="201.85" y="125.05" width="9.6" height="9.6"/>
      <rect class="cls-1" x="201.85" y="115.45" width="9.6" height="9.6"/>
      <rect class="cls-4" x="201.85" y="105.85" width="9.6" height="9.6"/>
      <rect class="cls-1" x="192.25" y="182.65" width="9.6" height="9.6"/>
      <rect class="cls-1" x="192.25" y="173.05" width="9.6" height="9.6"/>
      <rect class="cls-1" x="192.25" y="163.45" width="9.6" height="9.6"/>
      <rect class="cls-2" x="192.25" y="153.85" width="9.6" height="9.6"/>
      <rect class="cls-3" x="192.25" y="144.25" width="9.6" height="9.6"/>
      <rect class="cls-4" x="192.25" y="134.65" width="9.6" height="9.6"/>
      <rect class="cls-1" x="192.25" y="125.05" width="9.6" height="9.6"/>
      <rect class="cls-2" x="192.25" y="115.45" width="9.6" height="9.6"/>
      <rect class="cls-4" x="192.25" y="105.85" width="9.6" height="9.6"/>
      <rect class="cls-1" x="182.65" y="182.65" width="9.6" height="9.6"/>
      <rect class="cls-4" x="182.65" y="173.05" width="9.6" height="9.6"/>
      <rect class="cls-4" x="182.65" y="163.45" width="9.6" height="9.6"/>
      <rect class="cls-3" x="182.65" y="153.85" width="9.6" height="9.6"/>
      <rect class="cls-3" x="182.65" y="144.25" width="9.6" height="9.6"/>
      <rect class="cls-3" x="182.65" y="134.65" width="9.6" height="9.6"/>
      <rect class="cls-2" x="182.65" y="125.05" width="9.6" height="9.6"/>
      <rect class="cls-3" x="182.65" y="115.45" width="9.6" height="9.6"/>
      <rect class="cls-4" x="182.65" y="105.85" width="9.6" height="9.6"/>
      <rect class="cls-4" x="182.65" y="96.25" width="9.6" height="9.6"/>
      <rect class="cls-1" x="173.05" y="182.65" width="9.6" height="9.6"/>
      <rect class="cls-4" x="173.05" y="173.05" width="9.6" height="9.6"/>
      <rect class="cls-4" x="173.05" y="163.45" width="9.6" height="9.6"/>
      <rect class="cls-3" x="173.05" y="153.85" width="9.6" height="9.6"/>
      <rect class="cls-3" x="173.05" y="144.25" width="9.6" height="9.6"/>
      <rect class="cls-2" x="173.05" y="134.65" width="9.6" height="9.6"/>
      <rect class="cls-3" x="173.05" y="125.05" width="9.6" height="9.6"/>
      <rect class="cls-4" x="173.05" y="115.45" width="9.6" height="9.6"/>
      <rect class="cls-4" x="173.05" y="105.85" width="9.6" height="9.6"/>
      <rect class="cls-1" x="173.05" y="96.25" width="9.6" height="9.6"/>
      <rect class="cls-1" x="163.45" y="182.65" width="9.6" height="9.6"/>
      <rect class="cls-4" x="163.45" y="173.05" width="9.6" height="9.6"/>
      <rect class="cls-4" x="163.45" y="163.45" width="9.6" height="9.6"/>
      <rect class="cls-3" x="163.45" y="153.85" width="9.6" height="9.6"/>
      <rect class="cls-2" x="163.45" y="144.25" width="9.6" height="9.6"/>
      <rect class="cls-3" x="163.45" y="134.65" width="9.6" height="9.6"/>
      <rect class="cls-4" x="163.45" y="125.05" width="9.6" height="9.6"/>
      <rect class="cls-4" x="163.45" y="115.45" width="9.6" height="9.6"/>
      <rect class="cls-1" x="163.45" y="105.85" width="9.6" height="9.6"/>
      <rect class="cls-1" x="163.45" y="96.25" width="9.6" height="9.6"/>
      <rect class="cls-1" x="153.85" y="182.65" width="9.6" height="9.6"/>
      <rect class="cls-1" x="153.85" y="173.05" width="9.6" height="9.6"/>
      <rect class="cls-1" x="153.85" y="163.45" width="9.6" height="9.6"/>
      <rect class="cls-2" x="153.85" y="153.85" width="9.6" height="9.6"/>
      <rect class="cls-3" x="153.85" y="144.25" width="9.6" height="9.6"/>
      <rect class="cls-4" x="153.85" y="134.65" width="9.6" height="9.6"/>
      <rect class="cls-4" x="153.85" y="125.05" width="9.6" height="9.6"/>
      <rect class="cls-1" x="153.85" y="115.45" width="9.6" height="9.6"/>
      <rect class="cls-1" x="153.85" y="105.85" width="9.6" height="9.6"/>
      <rect class="cls-1" x="144.25" y="182.65" width="9.6" height="9.6"/>
      <rect class="cls-4" x="144.25" y="173.05" width="9.6" height="9.6"/>
      <rect class="cls-4" x="144.25" y="163.45" width="9.6" height="9.6"/>
      <rect class="cls-3" x="144.25" y="153.85" width="9.6" height="9.6"/>
      <rect class="cls-3" x="144.25" y="144.25" width="9.6" height="9.6"/>
      <rect class="cls-4" x="144.25" y="134.65" width="9.6" height="9.6"/>
      <rect class="cls-1" x="144.25" y="125.05" width="9.6" height="9.6"/>
      <rect class="cls-1" x="144.25" y="115.45" width="9.6" height="9.6"/>
      <rect class="cls-4" x="144.25" y="105.85" width="9.6" height="9.6"/>
      <rect class="cls-4" x="144.25" y="96.25" width="9.6" height="9.6"/>
      <rect class="cls-1" x="134.65" y="182.65" width="9.6" height="9.6"/>
      <rect class="cls-4" x="134.65" y="173.05" width="9.6" height="9.6"/>
      <rect class="cls-4" x="134.65" y="163.45" width="9.6" height="9.6"/>
      <rect class="cls-3" x="134.65" y="153.85" width="9.6" height="9.6"/>
      <rect class="cls-3" x="134.65" y="144.25" width="9.6" height="9.6"/>
      <rect class="cls-4" x="134.65" y="134.65" width="9.6" height="9.6"/>
      <rect class="cls-1" x="134.65" y="125.05" width="9.6" height="9.6"/>
      <rect class="cls-4" x="134.65" y="115.45" width="9.6" height="9.6"/>
      <rect class="cls-4" x="134.65" y="105.85" width="9.6" height="9.6"/>
      <rect class="cls-1" x="134.65" y="96.25" width="9.6" height="9.6"/>
      <rect class="cls-1" x="125.05" y="182.65" width="9.6" height="9.6"/>
      <rect class="cls-4" x="125.05" y="173.05" width="9.6" height="9.6"/>
      <rect class="cls-4" x="125.05" y="163.45" width="9.6" height="9.6"/>
      <rect class="cls-3" x="125.05" y="153.85" width="9.6" height="9.6"/>
      <rect class="cls-2" x="125.05" y="144.25" width="9.6" height="9.6"/>
      <rect class="cls-3" x="125.05" y="134.65" width="9.6" height="9.6"/>
      <rect class="cls-4" x="125.05" y="125.05" width="9.6" height="9.6"/>
      <rect class="cls-4" x="125.05" y="115.45" width="9.6" height="9.6"/>
      <rect class="cls-1" x="125.05" y="105.85" width="9.6" height="9.6"/>
      <rect class="cls-1" x="125.05" y="96.25" width="9.6" height="9.6"/>
      <rect class="cls-1" x="115.45" y="182.65" width="9.6" height="9.6"/>
      <rect class="cls-1" x="115.45" y="173.05" width="9.6" height="9.6"/>
      <rect class="cls-1" x="115.45" y="163.45" width="9.6" height="9.6"/>
      <rect class="cls-2" x="115.45" y="153.85" width="9.6" height="9.6"/>
      <rect class="cls-3" x="115.45" y="144.25" width="9.6" height="9.6"/>
      <rect class="cls-4" x="115.45" y="134.65" width="9.6" height="9.6"/>
      <rect class="cls-4" x="115.45" y="125.05" width="9.6" height="9.6"/>
      <rect class="cls-1" x="115.45" y="115.45" width="9.6" height="9.6"/>
      <rect class="cls-1" x="115.45" y="105.85" width="9.6" height="9.6"/>
      <rect class="cls-1" x="105.85" y="182.65" width="9.6" height="9.6"/>
      <rect class="cls-4" x="105.85" y="173.05" width="9.6" height="9.6"/>
      <rect class="cls-4" x="105.85" y="163.45" width="9.6" height="9.6"/>
      <rect class="cls-3" x="105.85" y="153.85" width="9.6" height="9.6"/>
      <rect class="cls-3" x="105.85" y="144.25" width="9.6" height="9.6"/>
      <rect class="cls-4" x="105.85" y="134.65" width="9.6" height="9.6"/>
      <rect class="cls-1" x="105.85" y="125.05" width="9.6" height="9.6"/>
      <rect class="cls-1" x="105.85" y="115.45" width="9.6" height="9.6"/>
      <rect class="cls-4" x="105.85" y="105.85" width="9.6" height="9.6"/>
      <rect class="cls-4" x="105.85" y="96.25" width="9.6" height="9.6"/>
      <rect class="cls-1" x="96.25" y="182.65" width="9.6" height="9.6"/>
      <rect class="cls-4" x="96.25" y="173.05" width="9.6" height="9.6"/>
      <rect class="cls-4" x="96.25" y="163.45" width="9.6" height="9.6"/>
      <rect class="cls-3" x="96.25" y="153.85" width="9.6" height="9.6"/>
      <rect class="cls-3" x="96.25" y="144.25" width="9.6" height="9.6"/>
      <rect class="cls-4" x="96.25" y="134.65" width="9.6" height="9.6"/>
      <rect class="cls-1" x="96.25" y="125.05" width="9.6" height="9.6"/>
      <rect class="cls-4" x="96.25" y="115.45" width="9.6" height="9.6"/>
      <rect class="cls-4" x="96.25" y="105.85" width="9.6" height="9.6"/>
      <rect class="cls-1" x="96.25" y="96.25" width="9.6" height="9.6"/>
      <rect class="cls-1" x="86.65" y="182.65" width="9.6" height="9.6"/>
      <rect class="cls-4" x="86.65" y="173.05" width="9.6" height="9.6"/>
      <rect class="cls-4" x="86.65" y="163.45" width="9.6" height="9.6"/>
      <rect class="cls-3" x="86.65" y="153.85" width="9.6" height="9.6"/>
      <rect class="cls-2" x="86.65" y="144.25" width="9.6" height="9.6"/>
      <rect class="cls-3" x="86.65" y="134.65" width="9.6" height="9.6"/>
      <rect class="cls-4" x="86.65" y="125.05" width="9.6" height="9.6"/>
      <rect class="cls-4" x="86.65" y="115.45" width="9.6" height="9.6"/>
      <rect class="cls-1" x="86.65" y="105.85" width="9.6" height="9.6"/>
      <rect class="cls-1" x="86.65" y="96.25" width="9.6" height="9.6"/>
      <rect class="cls-1" x="77.05" y="182.65" width="9.6" height="9.6"/>
      <rect class="cls-1" x="77.05" y="173.05" width="9.6" height="9.6"/>
      <rect class="cls-1" x="77.05" y="163.45" width="9.6" height="9.6"/>
      <rect class="cls-2" x="77.05" y="153.85" width="9.6" height="9.6"/>
      <rect class="cls-3" x="77.05" y="144.25" width="9.6" height="9.6"/>
      <rect class="cls-4" x="77.05" y="134.65" width="9.6" height="9.6"/>
      <rect class="cls-4" x="77.05" y="125.05" width="9.6" height="9.6"/>
      <rect class="cls-1" x="77.05" y="115.45" width="9.6" height="9.6"/>
      <rect class="cls-1" x="77.05" y="105.85" width="9.6" height="9.6"/>
      <rect class="cls-1" x="67.45" y="182.65" width="9.6" height="9.6"/>
      <rect class="cls-4" x="67.45" y="173.05" width="9.6" height="9.6"/>
      <rect class="cls-4" x="67.45" y="163.45" width="9.6" height="9.6"/>
      <rect class="cls-3" x="67.45" y="153.85" width="9.6" height="9.6"/>
      <rect class="cls-3" x="67.45" y="144.25" width="9.6" height="9.6"/>
      <rect class="cls-4" x="67.45" y="134.65" width="9.6" height="9.6"/>
      <rect class="cls-1" x="67.45" y="125.05" width="9.6" height="9.6"/>
      <rect class="cls-1" x="67.45" y="115.45" width="9.6" height="9.6"/>
      <rect class="cls-4" x="67.45" y="105.85" width="9.6" height="9.6"/>
      <rect class="cls-1" x="57.85" y="182.65" width="9.6" height="9.6"/>
      <rect class="cls-4" x="57.85" y="173.05" width="9.6" height="9.6"/>
      <rect class="cls-4" x="57.85" y="163.45" width="9.6" height="9.6"/>
      <rect class="cls-3" x="57.85" y="153.85" width="9.6" height="9.6"/>
      <rect class="cls-3" x="57.85" y="144.25" width="9.6" height="9.6"/>
      <rect class="cls-4" x="57.85" y="134.65" width="9.6" height="9.6"/>
      <rect class="cls-1" x="57.85" y="125.05" width="9.6" height="9.6"/>
      <rect class="cls-3" x="57.85" y="115.45" width="9.6" height="9.6"/>
      <rect class="cls-4" x="57.85" y="105.85" width="9.6" height="9.6"/>
      <rect class="cls-1" x="48.25" y="182.65" width="9.6" height="9.6"/>
      <rect class="cls-4" x="48.25" y="173.05" width="9.6" height="9.6"/>
      <rect class="cls-4" x="48.25" y="163.45" width="9.6" height="9.6"/>
      <rect class="cls-3" x="48.25" y="153.85" width="9.6" height="9.6"/>
      <rect class="cls-2" x="48.25" y="144.25" width="9.6" height="9.6"/>
      <rect class="cls-3" x="48.25" y="134.65" width="9.6" height="9.6"/>
      <rect class="cls-3" x="48.25" y="125.05" width="9.6" height="9.6"/>
      <rect class="cls-4" x="48.25" y="115.45" width="9.6" height="9.6"/>
      <rect class="cls-1" x="38.65" y="182.65" width="9.6" height="9.6"/>
      <rect class="cls-1" x="38.65" y="173.05" width="9.6" height="9.6"/>
      <rect class="cls-1" x="38.65" y="163.45" width="9.6" height="9.6"/>
      <rect class="cls-2" x="38.65" y="153.85" width="9.6" height="9.6"/>
      <rect class="cls-3" x="38.65" y="144.25" width="9.6" height="9.6"/>
      <rect class="cls-3" x="38.65" y="134.65" width="9.6" height="9.6"/>
      <rect class="cls-4" x="38.65" y="125.05" width="9.6" height="9.6"/>
      <rect class="cls-1" x="29.05" y="182.65" width="9.6" height="9.6"/>
      <rect class="cls-4" x="29.05" y="173.05" width="9.6" height="9.6"/>
      <rect class="cls-4" x="29.05" y="163.45" width="9.6" height="9.6"/>
      <rect class="cls-3" x="29.05" y="153.85" width="9.6" height="9.6"/>
      <rect class="cls-3" x="29.05" y="144.25" width="9.6" height="9.6"/>
      <rect class="cls-4" x="29.05" y="134.65" width="9.6" height="9.6"/>
      <rect class="cls-1" x="19.45" y="182.65" width="9.6" height="9.6"/>
      <rect class="cls-4" x="19.45" y="173.05" width="9.6" height="9.6"/>
      <rect class="cls-4" x="19.45" y="163.45" width="9.6" height="9.6"/>
      <rect class="cls-3" x="19.45" y="153.85" width="9.6" height="9.6"/>
      <rect class="cls-4" x="19.45" y="144.25" width="9.6" height="9.6"/>
      <rect class="cls-1" x="9.85" y="182.65" width="9.6" height="9.6"/>
      <rect class="cls-4" x="9.85" y="173.05" width="9.6" height="9.6"/>
      <rect class="cls-4" x="9.85" y="163.45" width="9.6" height="9.6"/>
      <rect class="cls-4" x="9.85" y="153.85" width="9.6" height="9.6"/>
      <rect class="cls-1" x=".25" y="182.65" width="9.6" height="9.6"/>
      <rect class="cls-1" x=".25" y="173.05" width="9.6" height="9.6"/>
      <rect class="cls-1" x=".25" y="163.45" width="9.6" height="9.6"/>
    </g>
  </g>
</svg>