<?xml version="1.0" encoding="UTF-8"?>
<svg id="Layer_2" data-name="Layer 2" xmlns="http://www.w3.org/2000/svg" viewBox="0 0 278.4 288">
  <defs>
    <style>
      .cls-1 {
        fill: #1b75bb;
      }

      .cls-2 {
        fill: #2b388f;
      }

      .cls-3 {
        fill: #231f20;
      }

      .cls-4 {
        fill: #00a69c;
      }

      .cls-5 {
        fill: #26a9e0;
      }

      .cls-6 {
        fill: #ffd3fb;
      }

      .cls-7 {
        fill: #fff;
      }

      .cls-8 {
        fill: #ff8ef6;
      }
    </style>
  </defs>
  <g id="Layer_1-2" data-name="Layer 1">
    <g>
      <rect class="cls-2" x="192" y="268.8" width="9.6" height="9.6"/>
      <rect class="cls-2" x="182.4" y="259.2" width="9.6" height="9.6"/>
      <rect class="cls-2" x="172.8" y="249.6" width="9.6" height="9.6"/>
      <rect class="cls-2" x="163.2" y="240" width="9.6" height="9.6"/>
      <rect class="cls-2" x="153.6" y="230.4" width="9.6" height="9.6"/>
      <rect class="cls-2" x="144" y="220.8" width="9.6" height="9.6"/>
      <polygon class="cls-1" points="211.2 249.6 211.2 240 201.6 240 201.6 230.4 192 230.4 192 220.8 182.4 220.8 182.4 211.2 172.8 211.2 172.8 201.6 163.2 201.6 163.2 192 153.6 192 153.6 182.4 144 182.4 144 192 144 201.6 153.6 201.6 153.6 211.2 163.2 211.2 163.2 220.8 172.8 220.8 172.8 230.4 182.4 230.4 182.4 240 192 240 192 249.6 201.6 249.6 201.6 259.2 211.2 259.2 211.2 268.8 211.2 278.4 220.8 278.4 220.8 268.8 220.8 259.2 220.8 249.6 211.2 249.6"/>
      <rect class="cls-2" x="134.4" y="211.2" width="9.6" height="9.6"/>
      <rect class="cls-2" x="124.8" y="201.6" width="9.6" height="9.6"/>
      <g>
        <polygon class="cls-4" points="124.8 105.6 124.8 115.2 124.8 124.8 124.8 134.4 124.8 144 134.4 144 134.4 134.4 134.4 124.8 134.4 115.2 134.4 105.6 124.8 105.6"/>
        <polygon class="cls-4" points="115.2 153.6 105.6 153.6 105.6 163.2 96 163.2 96 172.8 105.6 172.8 115.2 172.8 115.2 163.2 124.8 163.2 124.8 153.6 124.8 144 115.2 144 115.2 153.6"/>
        <polygon class="cls-4" points="76.8 172.8 67.2 172.8 57.6 172.8 48 172.8 48 182.4 57.6 182.4 67.2 182.4 76.8 182.4 86.4 182.4 96 182.4 96 172.8 86.4 172.8 76.8 172.8"/>
      </g>
      <g>
        <polygon class="cls-3" points="268.8 67.2 268.8 57.6 259.2 57.6 259.2 67.2 249.6 67.2 240 67.2 230.4 67.2 220.8 67.2 211.2 67.2 211.2 76.8 220.8 76.8 230.4 76.8 240 76.8 249.6 76.8 259.2 76.8 268.8 76.8 268.8 86.4 268.8 96 268.8 105.6 268.8 115.2 268.8 124.8 268.8 134.4 268.8 144 268.8 153.6 268.8 163.2 268.8 172.8 268.8 182.4 268.8 192 268.8 201.6 268.8 211.2 268.8 220.8 268.8 230.4 268.8 240 268.8 249.6 268.8 259.2 259.2 259.2 249.6 259.2 240 259.2 230.4 259.2 230.4 249.6 220.8 249.6 220.8 259.2 220.8 268.8 220.8 278.4 230.4 278.4 230.4 268.8 240 268.8 249.6 268.8 259.2 268.8 268.8 268.8 278.4 268.8 278.4 259.2 278.4 249.6 278.4 240 278.4 230.4 278.4 220.8 278.4 211.2 278.4 201.6 278.4 192 278.4 182.4 278.4 172.8 278.4 163.2 278.4 153.6 278.4 144 278.4 134.4 278.4 124.8 278.4 115.2 278.4 105.6 278.4 96 278.4 86.4 278.4 76.8 278.4 67.2 268.8 67.2"/>
        <rect class="cls-3" x="249.6" y="48" width="9.6" height="9.6"/>
        <rect class="cls-3" x="240" y="38.4" width="9.6" height="9.6"/>
        <rect class="cls-3" x="230.4" y="28.8" width="9.6" height="9.6"/>
        <rect class="cls-3" x="220.8" y="19.2" width="9.6" height="9.6"/>
        <rect class="cls-3" x="211.2" y="240" width="9.6" height="9.6"/>
        <rect class="cls-3" x="211.2" y="9.6" width="9.6" height="9.6"/>
        <polygon class="cls-3" points="201.6 278.4 192 278.4 192 288 201.6 288 211.2 288 220.8 288 220.8 278.4 211.2 278.4 201.6 278.4"/>
        <rect class="cls-3" x="201.6" y="230.4" width="9.6" height="9.6"/>
        <rect class="cls-3" x="192" y="220.8" width="9.6" height="9.6"/>
        <rect class="cls-3" x="182.4" y="268.8" width="9.6" height="9.6"/>
        <rect class="cls-3" x="182.4" y="211.2" width="9.6" height="9.6"/>
        <polygon class="cls-3" points="172.8 259.2 163.2 259.2 153.6 259.2 144 259.2 134.4 259.2 124.8 259.2 115.2 259.2 105.6 259.2 96 259.2 86.4 259.2 76.8 259.2 67.2 259.2 57.6 259.2 57.6 268.8 67.2 268.8 76.8 268.8 86.4 268.8 96 268.8 105.6 268.8 115.2 268.8 124.8 268.8 134.4 268.8 144 268.8 153.6 268.8 163.2 268.8 172.8 268.8 182.4 268.8 182.4 259.2 172.8 259.2"/>
        <rect class="cls-3" x="172.8" y="201.6" width="9.6" height="9.6"/>
        <rect class="cls-3" x="163.2" y="192" width="9.6" height="9.6"/>
        <rect class="cls-3" x="153.6" y="182.4" width="9.6" height="9.6"/>
        <rect class="cls-3" x="144" y="172.8" width="9.6" height="9.6"/>
        <rect class="cls-3" x="134.4" y="163.2" width="9.6" height="9.6"/>
        <polygon class="cls-3" points="144 134.4 144 124.8 144 115.2 144 105.6 134.4 105.6 134.4 115.2 134.4 124.8 134.4 134.4 134.4 144 144 144 144 134.4"/>
        <polygon class="cls-3" points="134.4 144 124.8 144 124.8 153.6 124.8 163.2 134.4 163.2 134.4 153.6 134.4 144"/>
        <polygon class="cls-3" points="134.4 86.4 124.8 86.4 124.8 96 124.8 105.6 134.4 105.6 134.4 96 134.4 86.4"/>
        <rect class="cls-3" x="115.2" y="163.2" width="9.6" height="9.6"/>
        <rect class="cls-3" x="115.2" y="76.8" width="9.6" height="9.6"/>
        <polygon class="cls-3" points="105.6 67.2 96 67.2 96 76.8 105.6 76.8 115.2 76.8 115.2 67.2 105.6 67.2"/>
        <polygon class="cls-3" points="96 172.8 96 182.4 105.6 182.4 115.2 182.4 115.2 172.8 105.6 172.8 96 172.8"/>
        <rect class="cls-3" x="86.4" y="57.6" width="9.6" height="9.6"/>
        <polygon class="cls-3" points="76.8 182.4 67.2 182.4 57.6 182.4 48 182.4 48 192 57.6 192 67.2 192 76.8 192 86.4 192 96 192 96 182.4 86.4 182.4 76.8 182.4"/>
        <polygon class="cls-3" points="38.4 172.8 28.8 172.8 28.8 182.4 38.4 182.4 48 182.4 48 172.8 38.4 172.8"/>
      </g>
      <g>
        <polygon class="cls-6" points="259.2 76.8 259.2 86.4 259.2 96 259.2 105.6 259.2 115.2 259.2 124.8 259.2 134.4 259.2 144 259.2 153.6 259.2 163.2 259.2 172.8 259.2 182.4 259.2 192 259.2 201.6 259.2 211.2 259.2 220.8 259.2 230.4 259.2 240 259.2 249.6 249.6 249.6 240 249.6 230.4 249.6 230.4 259.2 240 259.2 249.6 259.2 259.2 259.2 268.8 259.2 268.8 249.6 268.8 240 268.8 230.4 268.8 220.8 268.8 211.2 268.8 201.6 268.8 192 268.8 182.4 268.8 172.8 268.8 163.2 268.8 153.6 268.8 144 268.8 134.4 268.8 124.8 268.8 115.2 268.8 105.6 268.8 96 268.8 86.4 268.8 76.8 259.2 76.8"/>
        <rect class="cls-6" x="240" y="57.6" width="9.6" height="9.6"/>
        <rect class="cls-6" x="230.4" y="48" width="9.6" height="9.6"/>
        <rect class="cls-6" x="220.8" y="38.4" width="9.6" height="9.6"/>
        <rect class="cls-6" x="211.2" y="220.8" width="9.6" height="9.6"/>
        <rect class="cls-6" x="211.2" y="28.8" width="9.6" height="9.6"/>
        <polygon class="cls-6" points="201.6 201.6 192 201.6 192 211.2 201.6 211.2 211.2 211.2 220.8 211.2 220.8 201.6 211.2 201.6 201.6 201.6"/>
        <polygon class="cls-6" points="201.6 182.4 192 182.4 182.4 182.4 172.8 182.4 172.8 192 182.4 192 192 192 201.6 192 211.2 192 220.8 192 220.8 182.4 211.2 182.4 201.6 182.4"/>
        <polygon class="cls-6" points="201.6 163.2 192 163.2 182.4 163.2 172.8 163.2 163.2 163.2 153.6 163.2 153.6 172.8 163.2 172.8 172.8 172.8 182.4 172.8 192 172.8 201.6 172.8 211.2 172.8 220.8 172.8 220.8 163.2 211.2 163.2 201.6 163.2"/>
        <polygon class="cls-6" points="201.6 144 192 144 182.4 144 172.8 144 163.2 144 153.6 144 144 144 144 153.6 153.6 153.6 163.2 153.6 172.8 153.6 182.4 153.6 192 153.6 201.6 153.6 211.2 153.6 220.8 153.6 220.8 144 211.2 144 201.6 144"/>
        <polygon class="cls-6" points="201.6 124.8 192 124.8 182.4 124.8 172.8 124.8 163.2 124.8 153.6 124.8 153.6 134.4 163.2 134.4 172.8 134.4 182.4 134.4 192 134.4 201.6 134.4 211.2 134.4 220.8 134.4 220.8 124.8 211.2 124.8 201.6 124.8"/>
        <polygon class="cls-6" points="201.6 105.6 192 105.6 182.4 105.6 172.8 105.6 163.2 105.6 153.6 105.6 153.6 115.2 163.2 115.2 172.8 115.2 182.4 115.2 192 115.2 201.6 115.2 211.2 115.2 220.8 115.2 220.8 105.6 211.2 105.6 201.6 105.6"/>
        <polygon class="cls-6" points="153.6 249.6 144 249.6 134.4 249.6 124.8 249.6 115.2 249.6 105.6 249.6 96 249.6 86.4 249.6 76.8 249.6 67.2 249.6 67.2 259.2 76.8 259.2 86.4 259.2 96 259.2 105.6 259.2 115.2 259.2 124.8 259.2 134.4 259.2 144 259.2 153.6 259.2 163.2 259.2 172.8 259.2 172.8 249.6 163.2 249.6 153.6 249.6"/>
        <rect class="cls-6" x="144" y="96" width="9.6" height="9.6"/>
        <polygon class="cls-6" points="144 76.8 153.6 76.8 163.2 76.8 172.8 76.8 182.4 76.8 182.4 67.2 172.8 67.2 163.2 67.2 153.6 67.2 144 67.2 134.4 67.2 124.8 67.2 124.8 76.8 134.4 76.8 144 76.8"/>
        <rect class="cls-6" x="124.8" y="182.4" width="9.6" height="9.6"/>
        <rect class="cls-6" x="115.2" y="192" width="9.6" height="9.6"/>
        <rect class="cls-6" x="115.2" y="172.8" width="9.6" height="9.6"/>
        <rect class="cls-6" x="115.2" y="96" width="9.6" height="9.6"/>
        <rect class="cls-6" x="105.6" y="182.4" width="9.6" height="9.6"/>
        <rect class="cls-6" x="105.6" y="144" width="9.6" height="9.6"/>
        <rect class="cls-6" x="105.6" y="124.8" width="9.6" height="9.6"/>
        <rect class="cls-6" x="105.6" y="105.6" width="9.6" height="9.6"/>
        <rect class="cls-6" x="105.6" y="86.4" width="9.6" height="9.6"/>
        <rect class="cls-6" x="105.6" y="57.6" width="9.6" height="9.6"/>
        <rect class="cls-6" x="96" y="96" width="9.6" height="9.6"/>
        <rect class="cls-6" x="96" y="76.8" width="9.6" height="9.6"/>
        <polygon class="cls-6" points="86.4 230.4 96 230.4 105.6 230.4 115.2 230.4 124.8 230.4 134.4 230.4 144 230.4 144 220.8 134.4 220.8 124.8 220.8 115.2 220.8 105.6 220.8 96 220.8 86.4 220.8 86.4 230.4"/>
        <polygon class="cls-6" points="86.4 211.2 96 211.2 105.6 211.2 115.2 211.2 115.2 201.6 105.6 201.6 96 201.6 86.4 201.6 86.4 211.2"/>
        <rect class="cls-6" x="86.4" y="163.2" width="9.6" height="9.6"/>
        <rect class="cls-6" x="86.4" y="144" width="9.6" height="9.6"/>
        <rect class="cls-6" x="86.4" y="124.8" width="9.6" height="9.6"/>
        <rect class="cls-6" x="86.4" y="105.6" width="9.6" height="9.6"/>
        <rect class="cls-6" x="86.4" y="86.4" width="9.6" height="9.6"/>
        <rect class="cls-6" x="76.8" y="96" width="9.6" height="9.6"/>
        <rect class="cls-6" x="76.8" y="76.8" width="9.6" height="9.6"/>
        <rect class="cls-6" x="67.2" y="163.2" width="9.6" height="9.6"/>
        <rect class="cls-6" x="67.2" y="144" width="9.6" height="9.6"/>
        <rect class="cls-6" x="67.2" y="124.8" width="9.6" height="9.6"/>
        <rect class="cls-6" x="67.2" y="105.6" width="9.6" height="9.6"/>
        <rect class="cls-6" x="67.2" y="86.4" width="9.6" height="9.6"/>
        <polygon class="cls-6" points="67.2 153.6 57.6 153.6 57.6 144 67.2 144 67.2 134.4 57.6 134.4 57.6 124.8 67.2 124.8 67.2 115.2 57.6 115.2 57.6 105.6 67.2 105.6 67.2 96 57.6 96 57.6 86.4 57.6 76.8 57.6 67.2 48 67.2 48 76.8 48 86.4 48 96 48 105.6 48 115.2 48 124.8 48 134.4 48 144 48 153.6 48 163.2 48 172.8 57.6 172.8 57.6 163.2 67.2 163.2 67.2 153.6"/>
        <rect class="cls-6" x="28.8" y="163.2" width="9.6" height="9.6"/>
        <rect class="cls-6" x="19.2" y="153.6" width="9.6" height="9.6"/>
      </g>
      <g>
        <polygon class="cls-5" points="201.6 259.2 201.6 249.6 192 249.6 192 240 182.4 240 182.4 230.4 172.8 230.4 172.8 220.8 163.2 220.8 163.2 211.2 153.6 211.2 153.6 201.6 144 201.6 144 192 134.4 192 134.4 201.6 134.4 211.2 144 211.2 144 220.8 153.6 220.8 153.6 230.4 163.2 230.4 163.2 240 172.8 240 172.8 249.6 182.4 249.6 182.4 259.2 192 259.2 192 268.8 201.6 268.8 201.6 278.4 211.2 278.4 211.2 268.8 211.2 259.2 201.6 259.2"/>
        <rect class="cls-5" x="115.2" y="124.8" width="9.6" height="9.6"/>
        <rect class="cls-5" x="115.2" y="105.6" width="9.6" height="9.6"/>
        <rect class="cls-5" x="115.2" y="86.4" width="9.6" height="9.6"/>
        <rect class="cls-5" x="105.6" y="96" width="9.6" height="9.6"/>
        <rect class="cls-5" x="105.6" y="76.8" width="9.6" height="9.6"/>
        <rect class="cls-5" x="96" y="144" width="9.6" height="9.6"/>
        <rect class="cls-5" x="96" y="124.8" width="9.6" height="9.6"/>
        <rect class="cls-5" x="96" y="105.6" width="9.6" height="9.6"/>
        <rect class="cls-5" x="96" y="86.4" width="9.6" height="9.6"/>
        <rect class="cls-5" x="86.4" y="96" width="9.6" height="9.6"/>
        <polygon class="cls-5" points="96 76.8 96 67.2 86.4 67.2 86.4 76.8 86.4 86.4 96 86.4 96 76.8"/>
        <rect class="cls-5" x="76.8" y="163.2" width="9.6" height="9.6"/>
        <rect class="cls-5" x="76.8" y="144" width="9.6" height="9.6"/>
        <rect class="cls-5" x="76.8" y="124.8" width="9.6" height="9.6"/>
        <rect class="cls-5" x="76.8" y="105.6" width="9.6" height="9.6"/>
        <rect class="cls-5" x="76.8" y="86.4" width="9.6" height="9.6"/>
        <rect class="cls-5" x="67.2" y="153.6" width="9.6" height="9.6"/>
        <rect class="cls-5" x="67.2" y="134.4" width="9.6" height="9.6"/>
        <rect class="cls-5" x="67.2" y="115.2" width="9.6" height="9.6"/>
        <rect class="cls-5" x="67.2" y="96" width="9.6" height="9.6"/>
        <rect class="cls-5" x="67.2" y="67.2" width="9.6" height="9.6"/>
        <rect class="cls-5" x="57.6" y="163.2" width="9.6" height="9.6"/>
        <rect class="cls-5" x="57.6" y="144" width="9.6" height="9.6"/>
        <rect class="cls-5" x="57.6" y="124.8" width="9.6" height="9.6"/>
        <rect class="cls-5" x="57.6" y="105.6" width="9.6" height="9.6"/>
        <rect class="cls-5" x="57.6" y="76.8" width="9.6" height="9.6"/>
        <rect class="cls-5" x="38.4" y="163.2" width="9.6" height="9.6"/>
        <rect class="cls-5" x="38.4" y="144" width="9.6" height="9.6"/>
        <rect class="cls-5" x="38.4" y="124.8" width="9.6" height="9.6"/>
        <rect class="cls-5" x="38.4" y="105.6" width="9.6" height="9.6"/>
        <rect class="cls-5" x="38.4" y="86.4" width="9.6" height="9.6"/>
        <rect class="cls-5" x="28.8" y="153.6" width="9.6" height="9.6"/>
        <rect class="cls-5" x="28.8" y="134.4" width="9.6" height="9.6"/>
        <rect class="cls-5" x="28.8" y="115.2" width="9.6" height="9.6"/>
        <rect class="cls-5" x="28.8" y="96" width="9.6" height="9.6"/>
        <rect class="cls-5" x="28.8" y="76.8" width="9.6" height="9.6"/>
        <rect class="cls-5" x="19.2" y="144" width="9.6" height="9.6"/>
        <rect class="cls-5" x="19.2" y="124.8" width="9.6" height="9.6"/>
        <rect class="cls-5" x="19.2" y="105.6" width="9.6" height="9.6"/>
        <rect class="cls-5" x="19.2" y="86.4" width="9.6" height="9.6"/>
        <rect class="cls-5" x="9.6" y="134.4" width="9.6" height="9.6"/>
        <rect class="cls-5" x="9.6" y="115.2" width="9.6" height="9.6"/>
      </g>
      <g>
        <polygon class="cls-7" points="249.6 76.8 240 76.8 230.4 76.8 220.8 76.8 211.2 76.8 201.6 76.8 201.6 67.2 201.6 57.6 201.6 48 201.6 38.4 201.6 28.8 201.6 19.2 201.6 9.6 192 9.6 182.4 9.6 172.8 9.6 163.2 9.6 153.6 9.6 144 9.6 134.4 9.6 124.8 9.6 115.2 9.6 105.6 9.6 96 9.6 86.4 9.6 76.8 9.6 67.2 9.6 67.2 19.2 67.2 28.8 67.2 38.4 67.2 48 67.2 57.6 76.8 57.6 86.4 57.6 96 57.6 105.6 57.6 115.2 57.6 115.2 67.2 124.8 67.2 134.4 67.2 144 67.2 153.6 67.2 163.2 67.2 172.8 67.2 182.4 67.2 182.4 76.8 172.8 76.8 163.2 76.8 153.6 76.8 144 76.8 134.4 76.8 134.4 86.4 144 86.4 144 96 153.6 96 153.6 105.6 163.2 105.6 172.8 105.6 182.4 105.6 192 105.6 201.6 105.6 211.2 105.6 220.8 105.6 220.8 115.2 211.2 115.2 201.6 115.2 192 115.2 182.4 115.2 172.8 115.2 163.2 115.2 153.6 115.2 153.6 124.8 163.2 124.8 172.8 124.8 182.4 124.8 192 124.8 201.6 124.8 211.2 124.8 220.8 124.8 220.8 134.4 211.2 134.4 201.6 134.4 192 134.4 182.4 134.4 172.8 134.4 163.2 134.4 153.6 134.4 153.6 144 163.2 144 172.8 144 182.4 144 192 144 201.6 144 211.2 144 220.8 144 220.8 153.6 211.2 153.6 201.6 153.6 192 153.6 182.4 153.6 172.8 153.6 163.2 153.6 153.6 153.6 144 153.6 144 163.2 153.6 163.2 163.2 163.2 172.8 163.2 182.4 163.2 192 163.2 201.6 163.2 211.2 163.2 220.8 163.2 220.8 172.8 211.2 172.8 201.6 172.8 192 172.8 182.4 172.8 172.8 172.8 163.2 172.8 163.2 182.4 172.8 182.4 182.4 182.4 192 182.4 201.6 182.4 211.2 182.4 220.8 182.4 220.8 192 211.2 192 201.6 192 192 192 182.4 192 182.4 201.6 192 201.6 201.6 201.6 211.2 201.6 220.8 201.6 220.8 211.2 211.2 211.2 201.6 211.2 201.6 220.8 211.2 220.8 220.8 220.8 220.8 230.4 220.8 240 230.4 240 230.4 249.6 240 249.6 249.6 249.6 259.2 249.6 259.2 240 259.2 230.4 259.2 220.8 259.2 211.2 259.2 201.6 259.2 192 259.2 182.4 259.2 172.8 259.2 163.2 259.2 153.6 259.2 144 259.2 134.4 259.2 124.8 259.2 115.2 259.2 105.6 259.2 96 259.2 86.4 259.2 76.8 249.6 76.8"/>
        <polygon class="cls-7" points="230.4 67.2 240 67.2 240 57.6 230.4 57.6 230.4 48 220.8 48 220.8 38.4 211.2 38.4 211.2 48 211.2 57.6 211.2 67.2 220.8 67.2 230.4 67.2"/>
        <polygon class="cls-7" points="153.6 230.4 144 230.4 134.4 230.4 124.8 230.4 115.2 230.4 105.6 230.4 96 230.4 86.4 230.4 86.4 220.8 96 220.8 105.6 220.8 115.2 220.8 124.8 220.8 134.4 220.8 134.4 211.2 124.8 211.2 115.2 211.2 105.6 211.2 96 211.2 86.4 211.2 86.4 201.6 96 201.6 105.6 201.6 105.6 192 96 192 86.4 192 76.8 192 67.2 192 67.2 201.6 67.2 211.2 67.2 220.8 67.2 230.4 67.2 240 67.2 249.6 76.8 249.6 86.4 249.6 96 249.6 105.6 249.6 115.2 249.6 124.8 249.6 134.4 249.6 144 249.6 153.6 249.6 163.2 249.6 163.2 240 153.6 240 153.6 230.4"/>
        <rect class="cls-7" x="124.8" y="192" width="9.6" height="9.6"/>
        <rect class="cls-7" x="115.2" y="182.4" width="9.6" height="9.6"/>
        <rect class="cls-7" x="76.8" y="67.2" width="9.6" height="9.6"/>
        <rect class="cls-7" x="67.2" y="76.8" width="9.6" height="9.6"/>
        <rect class="cls-7" x="57.6" y="86.4" width="9.6" height="9.6"/>
        <rect class="cls-7" x="57.6" y="67.2" width="9.6" height="9.6"/>
        <rect class="cls-7" x="38.4" y="153.6" width="9.6" height="9.6"/>
        <rect class="cls-7" x="38.4" y="134.4" width="9.6" height="9.6"/>
        <rect class="cls-7" x="38.4" y="115.2" width="9.6" height="9.6"/>
        <rect class="cls-7" x="38.4" y="96" width="9.6" height="9.6"/>
        <rect class="cls-7" x="38.4" y="76.8" width="9.6" height="9.6"/>
        <rect class="cls-7" x="28.8" y="144" width="9.6" height="9.6"/>
        <rect class="cls-7" x="28.8" y="124.8" width="9.6" height="9.6"/>
        <rect class="cls-7" x="28.8" y="105.6" width="9.6" height="9.6"/>
        <rect class="cls-7" x="28.8" y="86.4" width="9.6" height="9.6"/>
        <rect class="cls-7" x="19.2" y="134.4" width="9.6" height="9.6"/>
        <rect class="cls-7" x="19.2" y="115.2" width="9.6" height="9.6"/>
        <rect class="cls-7" x="19.2" y="96" width="9.6" height="9.6"/>
        <rect class="cls-7" x="9.6" y="124.8" width="9.6" height="9.6"/>
        <rect class="cls-7" x="9.6" y="105.6" width="9.6" height="9.6"/>
      </g>
      <g>
        <rect class="cls-8" x="249.6" y="57.6" width="9.6" height="9.6"/>
        <rect class="cls-8" x="240" y="48" width="9.6" height="9.6"/>
        <rect class="cls-8" x="230.4" y="38.4" width="9.6" height="9.6"/>
        <rect class="cls-8" x="220.8" y="240" width="9.6" height="9.6"/>
        <rect class="cls-8" x="220.8" y="28.8" width="9.6" height="9.6"/>
        <rect class="cls-8" x="211.2" y="230.4" width="9.6" height="9.6"/>
        <polygon class="cls-8" points="211.2 19.2 211.2 9.6 211.2 0 201.6 0 192 0 182.4 0 172.8 0 163.2 0 153.6 0 144 0 134.4 0 124.8 0 115.2 0 105.6 0 96 0 86.4 0 76.8 0 67.2 0 57.6 0 57.6 9.6 57.6 19.2 57.6 28.8 57.6 38.4 57.6 48 57.6 57.6 48 57.6 48 67.2 57.6 67.2 67.2 67.2 76.8 67.2 86.4 67.2 86.4 57.6 76.8 57.6 67.2 57.6 67.2 48 67.2 38.4 67.2 28.8 67.2 19.2 67.2 9.6 76.8 9.6 86.4 9.6 96 9.6 105.6 9.6 115.2 9.6 124.8 9.6 134.4 9.6 144 9.6 153.6 9.6 163.2 9.6 172.8 9.6 182.4 9.6 192 9.6 201.6 9.6 201.6 19.2 201.6 28.8 201.6 38.4 201.6 48 201.6 57.6 201.6 67.2 201.6 76.8 211.2 76.8 211.2 67.2 211.2 57.6 211.2 48 211.2 38.4 211.2 28.8 220.8 28.8 220.8 19.2 211.2 19.2"/>
        <rect class="cls-8" x="201.6" y="220.8" width="9.6" height="9.6"/>
        <rect class="cls-8" x="192" y="211.2" width="9.6" height="9.6"/>
        <rect class="cls-8" x="182.4" y="201.6" width="9.6" height="9.6"/>
        <rect class="cls-8" x="172.8" y="192" width="9.6" height="9.6"/>
        <rect class="cls-8" x="163.2" y="182.4" width="9.6" height="9.6"/>
        <rect class="cls-8" x="153.6" y="172.8" width="9.6" height="9.6"/>
        <rect class="cls-8" x="144" y="163.2" width="9.6" height="9.6"/>
        <polygon class="cls-8" points="153.6 134.4 153.6 124.8 153.6 115.2 153.6 105.6 144 105.6 144 115.2 144 124.8 144 134.4 144 144 153.6 144 153.6 134.4"/>
        <polygon class="cls-8" points="144 153.6 144 144 134.4 144 134.4 153.6 134.4 163.2 144 163.2 144 153.6"/>
        <polygon class="cls-8" points="144 86.4 134.4 86.4 134.4 96 134.4 105.6 144 105.6 144 96 144 86.4"/>
        <polygon class="cls-8" points="134.4 163.2 124.8 163.2 124.8 172.8 124.8 182.4 134.4 182.4 134.4 192 144 192 144 182.4 144 172.8 134.4 172.8 134.4 163.2"/>
        <rect class="cls-8" x="124.8" y="76.8" width="9.6" height="9.6"/>
        <rect class="cls-8" x="115.2" y="201.6" width="9.6" height="9.6"/>
        <rect class="cls-8" x="115.2" y="67.2" width="9.6" height="9.6"/>
        <rect class="cls-8" x="105.6" y="192" width="9.6" height="9.6"/>
        <rect class="cls-8" x="96" y="182.4" width="9.6" height="9.6"/>
        <polygon class="cls-8" points="105.6 163.2 105.6 153.6 96 153.6 86.4 153.6 76.8 153.6 76.8 163.2 86.4 163.2 96 163.2 105.6 163.2"/>
        <rect class="cls-8" x="96" y="57.6" width="9.6" height="9.6"/>
        <polygon class="cls-8" points="86.4 115.2 76.8 115.2 76.8 124.8 86.4 124.8 96 124.8 105.6 124.8 115.2 124.8 124.8 124.8 124.8 115.2 115.2 115.2 105.6 115.2 96 115.2 86.4 115.2"/>
        <polygon class="cls-8" points="76.8 144 86.4 144 96 144 105.6 144 115.2 144 124.8 144 124.8 134.4 115.2 134.4 105.6 134.4 96 134.4 86.4 134.4 76.8 134.4 76.8 144"/>
        <polygon class="cls-8" points="57.6 201.6 57.6 211.2 57.6 220.8 57.6 230.4 57.6 240 57.6 249.6 57.6 259.2 67.2 259.2 67.2 249.6 67.2 240 67.2 230.4 67.2 220.8 67.2 211.2 67.2 201.6 67.2 192 57.6 192 57.6 201.6"/>
        <polygon class="cls-8" points="28.8 67.2 28.8 76.8 38.4 76.8 48 76.8 48 67.2 38.4 67.2 28.8 67.2"/>
        <rect class="cls-8" x="19.2" y="163.2" width="9.6" height="9.6"/>
        <rect class="cls-8" x="19.2" y="76.8" width="9.6" height="9.6"/>
        <polygon class="cls-8" points="9.6 163.2 19.2 163.2 19.2 153.6 19.2 144 9.6 144 9.6 153.6 9.6 163.2"/>
        <polygon class="cls-8" points="9.6 96 9.6 105.6 19.2 105.6 19.2 96 19.2 86.4 9.6 86.4 9.6 96"/>
        <polygon class="cls-8" points="0 115.2 0 124.8 0 134.4 0 144 9.6 144 9.6 134.4 9.6 124.8 9.6 115.2 9.6 105.6 0 105.6 0 115.2"/>
      </g>
    </g>
  </g>
</svg>