<?xml version="1.0" encoding="UTF-8"?>
<svg id="Layer_2" data-name="Layer 2" xmlns="http://www.w3.org/2000/svg" viewBox="0 0 230.4 220.8">
  <defs>
    <style>
      .cls-1 {
        fill: #231f20;
      }

      .cls-2 {
        fill: #ffd3fb;
      }

      .cls-3 {
        fill: #e1b61a;
      }

      .cls-4 {
        fill: #fff;
      }

      .cls-5 {
        fill: #ff8ef6;
      }

      .cls-6 {
        fill: #fff100;
      }
    </style>
  </defs>
  <g id="Layer_1-2" data-name="Layer 1">
    <g>
      <g>
        <rect class="cls-6" x="201.6" y="134.4" width="9.6" height="9.6"/>
        <rect class="cls-6" x="182.4" y="134.4" width="9.6" height="9.6"/>
        <rect class="cls-6" x="182.4" y="96" width="9.6" height="9.6"/>
        <rect class="cls-6" x="172.8" y="163.2" width="9.6" height="9.6"/>
        <rect class="cls-6" x="172.8" y="144" width="9.6" height="9.6"/>
        <rect class="cls-6" x="172.8" y="124.8" width="9.6" height="9.6"/>
        <rect class="cls-6" x="172.8" y="105.6" width="9.6" height="9.6"/>
        <rect class="cls-6" x="172.8" y="86.4" width="9.6" height="9.6"/>
        <rect class="cls-6" x="163.2" y="153.6" width="9.6" height="9.6"/>
        <rect class="cls-6" x="163.2" y="134.4" width="9.6" height="9.6"/>
        <rect class="cls-6" x="163.2" y="115.2" width="9.6" height="9.6"/>
        <rect class="cls-6" x="163.2" y="96" width="9.6" height="9.6"/>
        <rect class="cls-6" x="153.6" y="144" width="9.6" height="9.6"/>
        <rect class="cls-6" x="153.6" y="105.6" width="9.6" height="9.6"/>
        <rect class="cls-6" x="144" y="153.6" width="9.6" height="9.6"/>
        <rect class="cls-6" x="124.8" y="172.8" width="9.6" height="9.6"/>
        <rect class="cls-6" x="124.8" y="153.6" width="9.6" height="9.6"/>
        <rect class="cls-6" x="115.2" y="182.4" width="9.6" height="9.6"/>
        <rect class="cls-6" x="115.2" y="163.2" width="9.6" height="9.6"/>
        <rect class="cls-6" x="105.6" y="153.6" width="9.6" height="9.6"/>
        <rect class="cls-6" x="86.4" y="153.6" width="9.6" height="9.6"/>
        <rect class="cls-6" x="76.8" y="163.2" width="9.6" height="9.6"/>
        <rect class="cls-6" x="76.8" y="144" width="9.6" height="9.6"/>
        <rect class="cls-6" x="76.8" y="105.6" width="9.6" height="9.6"/>
        <rect class="cls-6" x="67.2" y="172.8" width="9.6" height="9.6"/>
        <rect class="cls-6" x="67.2" y="134.4" width="9.6" height="9.6"/>
        <rect class="cls-6" x="67.2" y="96" width="9.6" height="9.6"/>
        <polygon class="cls-6" points="57.6 192 57.6 201.6 57.6 211.2 67.2 211.2 67.2 201.6 67.2 192 67.2 182.4 57.6 182.4 57.6 192"/>
        <rect class="cls-6" x="57.6" y="163.2" width="9.6" height="9.6"/>
        <rect class="cls-6" x="57.6" y="124.8" width="9.6" height="9.6"/>
        <rect class="cls-6" x="57.6" y="86.4" width="9.6" height="9.6"/>
        <rect class="cls-6" x="48" y="134.4" width="9.6" height="9.6"/>
      </g>
      <g>
        <rect class="cls-4" x="211.2" y="134.4" width="9.6" height="9.6"/>
        <rect class="cls-4" x="192" y="134.4" width="9.6" height="9.6"/>
        <rect class="cls-4" x="182.4" y="163.2" width="9.6" height="9.6"/>
        <rect class="cls-4" x="182.4" y="124.8" width="9.6" height="9.6"/>
        <rect class="cls-4" x="182.4" y="86.4" width="9.6" height="9.6"/>
        <rect class="cls-4" x="172.8" y="172.8" width="9.6" height="9.6"/>
        <rect class="cls-4" x="172.8" y="134.4" width="9.6" height="9.6"/>
        <rect class="cls-4" x="172.8" y="115.2" width="9.6" height="9.6"/>
        <rect class="cls-4" x="172.8" y="96" width="9.6" height="9.6"/>
        <rect class="cls-4" x="163.2" y="163.2" width="9.6" height="9.6"/>
        <rect class="cls-4" x="163.2" y="144" width="9.6" height="9.6"/>
        <rect class="cls-4" x="163.2" y="105.6" width="9.6" height="9.6"/>
        <rect class="cls-4" x="153.6" y="153.6" width="9.6" height="9.6"/>
        <rect class="cls-4" x="153.6" y="124.8" width="9.6" height="9.6"/>
        <rect class="cls-4" x="134.4" y="153.6" width="9.6" height="9.6"/>
        <rect class="cls-4" x="124.8" y="182.4" width="9.6" height="9.6"/>
        <rect class="cls-4" x="124.8" y="163.2" width="9.6" height="9.6"/>
        <rect class="cls-4" x="115.2" y="172.8" width="9.6" height="9.6"/>
        <rect class="cls-4" x="115.2" y="153.6" width="9.6" height="9.6"/>
        <polygon class="cls-4" points="124.8 76.8 134.4 76.8 134.4 67.2 124.8 67.2 115.2 67.2 105.6 67.2 105.6 76.8 115.2 76.8 124.8 76.8"/>
        <polygon class="cls-4" points="115.2 134.4 115.2 124.8 115.2 115.2 115.2 105.6 115.2 96 115.2 86.4 105.6 86.4 105.6 96 105.6 105.6 105.6 115.2 105.6 124.8 105.6 134.4 105.6 144 115.2 144 115.2 134.4"/>
        <polygon class="cls-4" points="115.2 48 115.2 38.4 115.2 28.8 115.2 19.2 105.6 19.2 105.6 28.8 105.6 38.4 105.6 48 105.6 57.6 115.2 57.6 115.2 48"/>
        <rect class="cls-4" x="96" y="153.6" width="9.6" height="9.6"/>
        <rect class="cls-4" x="86.4" y="144" width="9.6" height="9.6"/>
        <rect class="cls-4" x="86.4" y="124.8" width="9.6" height="9.6"/>
        <rect class="cls-4" x="86.4" y="105.6" width="9.6" height="9.6"/>
        <polygon class="cls-4" points="86.4 67.2 76.8 67.2 76.8 76.8 86.4 76.8 96 76.8 96 67.2 96 57.6 86.4 57.6 86.4 67.2"/>
        <rect class="cls-4" x="76.8" y="153.6" width="9.6" height="9.6"/>
        <rect class="cls-4" x="76.8" y="134.4" width="9.6" height="9.6"/>
        <rect class="cls-4" x="76.8" y="96" width="9.6" height="9.6"/>
        <rect class="cls-4" x="67.2" y="163.2" width="9.6" height="9.6"/>
        <rect class="cls-4" x="67.2" y="144" width="9.6" height="9.6"/>
        <polygon class="cls-4" points="76.8 124.8 86.4 124.8 86.4 115.2 76.8 115.2 76.8 105.6 67.2 105.6 67.2 115.2 67.2 124.8 67.2 134.4 76.8 134.4 76.8 124.8"/>
        <rect class="cls-4" x="67.2" y="86.4" width="9.6" height="9.6"/>
        <polygon class="cls-4" points="76.8 57.6 76.8 48 86.4 48 86.4 38.4 76.8 38.4 67.2 38.4 57.6 38.4 57.6 48 57.6 57.6 67.2 57.6 76.8 57.6"/>
        <rect class="cls-4" x="57.6" y="134.4" width="9.6" height="9.6"/>
        <rect class="cls-4" x="57.6" y="96" width="9.6" height="9.6"/>
        <rect class="cls-4" x="57.6" y="67.2" width="9.6" height="9.6"/>
        <rect class="cls-4" x="38.4" y="134.4" width="9.6" height="9.6"/>
        <rect class="cls-4" x="38.4" y="86.4" width="9.6" height="9.6"/>
      </g>
      <g>
        <polygon class="cls-3" points="211.2 144 201.6 144 192 144 192 153.6 192 163.2 201.6 163.2 201.6 172.8 211.2 172.8 220.8 172.8 220.8 163.2 220.8 153.6 220.8 144 211.2 144"/>
        <polygon class="cls-3" points="182.4 182.4 172.8 182.4 172.8 172.8 163.2 172.8 153.6 172.8 144 172.8 144 182.4 144 192 153.6 192 163.2 192 163.2 201.6 172.8 201.6 172.8 211.2 182.4 211.2 192 211.2 192 201.6 192 192 192 182.4 192 172.8 182.4 172.8 182.4 182.4"/>
        <polygon class="cls-3" points="192 115.2 192 105.6 182.4 105.6 182.4 115.2 182.4 124.8 192 124.8 192 115.2"/>
        <rect class="cls-3" x="172.8" y="153.6" width="9.6" height="9.6"/>
        <rect class="cls-3" x="153.6" y="96" width="9.6" height="9.6"/>
        <rect class="cls-3" x="134.4" y="163.2" width="9.6" height="9.6"/>
        <polygon class="cls-3" points="115.2 192 115.2 182.4 115.2 172.8 115.2 163.2 105.6 163.2 105.6 172.8 96 172.8 86.4 172.8 86.4 182.4 76.8 182.4 76.8 192 76.8 201.6 86.4 201.6 86.4 192 96 192 105.6 192 105.6 201.6 115.2 201.6 115.2 211.2 124.8 211.2 134.4 211.2 134.4 201.6 134.4 192 124.8 192 115.2 192"/>
        <rect class="cls-3" x="86.4" y="96" width="9.6" height="9.6"/>
        <rect class="cls-3" x="67.2" y="153.6" width="9.6" height="9.6"/>
        <polygon class="cls-3" points="76.8 86.4 76.8 76.8 67.2 76.8 57.6 76.8 57.6 86.4 67.2 86.4 76.8 86.4"/>
        <polygon class="cls-3" points="57.6 144 48 144 38.4 144 38.4 153.6 38.4 163.2 38.4 172.8 48 172.8 48 163.2 57.6 163.2 57.6 153.6 67.2 153.6 67.2 144 57.6 144"/>
        <polygon class="cls-3" points="67.2 115.2 67.2 105.6 57.6 105.6 57.6 115.2 57.6 124.8 67.2 124.8 67.2 115.2"/>
        <polygon class="cls-3" points="48 192 48 201.6 48 211.2 57.6 211.2 57.6 201.6 57.6 192 57.6 182.4 67.2 182.4 67.2 172.8 57.6 172.8 48 172.8 48 182.4 48 192"/>
        <polygon class="cls-3" points="57.6 86.4 48 86.4 48 96 48 105.6 57.6 105.6 57.6 96 57.6 86.4"/>
        <polygon class="cls-3" points="48 134.4 57.6 134.4 57.6 124.8 48 124.8 38.4 124.8 28.8 124.8 28.8 134.4 28.8 144 38.4 144 38.4 134.4 48 134.4"/>
      </g>
      <g>
        <rect class="cls-2" x="134.4" y="67.2" width="9.6" height="9.6"/>
        <polygon class="cls-2" points="134.4 9.6 124.8 9.6 115.2 9.6 105.6 9.6 96 9.6 86.4 9.6 76.8 9.6 67.2 9.6 57.6 9.6 48 9.6 38.4 9.6 28.8 9.6 19.2 9.6 9.6 9.6 9.6 19.2 9.6 28.8 9.6 38.4 9.6 48 9.6 57.6 9.6 67.2 9.6 76.8 9.6 86.4 9.6 96 9.6 105.6 9.6 115.2 9.6 124.8 9.6 134.4 9.6 144 9.6 153.6 9.6 163.2 9.6 172.8 9.6 182.4 19.2 182.4 28.8 182.4 28.8 172.8 28.8 163.2 28.8 153.6 28.8 144 28.8 134.4 28.8 124.8 38.4 124.8 38.4 115.2 48 115.2 48 105.6 48 96 38.4 96 38.4 86.4 38.4 76.8 38.4 67.2 38.4 57.6 38.4 48 38.4 38.4 38.4 28.8 38.4 19.2 48 19.2 57.6 19.2 67.2 19.2 76.8 19.2 86.4 19.2 96 19.2 105.6 19.2 115.2 19.2 115.2 28.8 115.2 38.4 115.2 48 115.2 57.6 124.8 57.6 134.4 57.6 144 57.6 144 48 144 38.4 144 28.8 144 19.2 144 9.6 134.4 9.6"/>
        <polygon class="cls-2" points="115.2 96 115.2 105.6 115.2 115.2 115.2 124.8 115.2 134.4 115.2 144 124.8 144 124.8 134.4 124.8 124.8 124.8 115.2 124.8 105.6 124.8 96 124.8 86.4 115.2 86.4 115.2 96"/>
        <polygon class="cls-2" points="96 38.4 86.4 38.4 86.4 48 96 48 96 57.6 96 67.2 105.6 67.2 105.6 57.6 105.6 48 105.6 38.4 105.6 28.8 96 28.8 96 38.4"/>
        <polygon class="cls-2" points="76.8 76.8 76.8 86.4 86.4 86.4 96 86.4 96 76.8 86.4 76.8 76.8 76.8"/>
        <rect class="cls-2" x="76.8" y="48" width="9.6" height="9.6"/>
        <rect class="cls-2" x="67.2" y="57.6" width="9.6" height="9.6"/>
      </g>
      <g>
        <polygon class="cls-1" points="220.8 134.4 220.8 144 220.8 153.6 220.8 163.2 220.8 172.8 230.4 172.8 230.4 163.2 230.4 153.6 230.4 144 230.4 134.4 220.8 134.4"/>
        <polygon class="cls-1" points="201.6 172.8 201.6 163.2 192 163.2 192 172.8 192 182.4 192 192 192 201.6 192 211.2 201.6 211.2 201.6 201.6 201.6 192 211.2 192 211.2 182.4 220.8 182.4 220.8 172.8 211.2 172.8 201.6 172.8"/>
        <polygon class="cls-1" points="211.2 134.4 211.2 124.8 201.6 124.8 201.6 115.2 201.6 105.6 201.6 96 201.6 86.4 192 86.4 192 96 192 105.6 192 115.2 192 124.8 192 134.4 201.6 134.4 211.2 134.4"/>
        <polygon class="cls-1" points="192 144 182.4 144 182.4 153.6 182.4 163.2 192 163.2 192 153.6 192 144"/>
        <polygon class="cls-1" points="172.8 211.2 172.8 220.8 182.4 220.8 192 220.8 192 211.2 182.4 211.2 172.8 211.2"/>
        <rect class="cls-1" x="163.2" y="201.6" width="9.6" height="9.6"/>
        <rect class="cls-1" x="163.2" y="124.8" width="9.6" height="9.6"/>
        <polygon class="cls-1" points="153.6 192 144 192 144 182.4 144 172.8 134.4 172.8 134.4 182.4 134.4 192 134.4 201.6 134.4 211.2 124.8 211.2 115.2 211.2 115.2 201.6 105.6 201.6 105.6 211.2 105.6 220.8 115.2 220.8 124.8 220.8 134.4 220.8 144 220.8 144 211.2 144 201.6 153.6 201.6 163.2 201.6 163.2 192 153.6 192"/>
        <polygon class="cls-1" points="163.2 172.8 163.2 163.2 153.6 163.2 144 163.2 144 172.8 153.6 172.8 163.2 172.8"/>
        <polygon class="cls-1" points="96 192 86.4 192 86.4 201.6 96 201.6 105.6 201.6 105.6 192 96 192"/>
        <polygon class="cls-1" points="105.6 172.8 105.6 163.2 96 163.2 86.4 163.2 86.4 172.8 96 172.8 105.6 172.8"/>
        <polygon class="cls-1" points="96 153.6 105.6 153.6 115.2 153.6 124.8 153.6 134.4 153.6 144 153.6 153.6 153.6 153.6 144 163.2 144 163.2 134.4 153.6 134.4 153.6 124.8 163.2 124.8 163.2 115.2 153.6 115.2 153.6 105.6 153.6 96 163.2 96 172.8 96 172.8 86.4 163.2 86.4 163.2 76.8 163.2 67.2 163.2 57.6 163.2 48 163.2 38.4 163.2 28.8 163.2 19.2 163.2 9.6 153.6 9.6 153.6 19.2 153.6 28.8 153.6 38.4 153.6 48 153.6 57.6 153.6 67.2 144 67.2 144 76.8 144 86.4 144 96 144 105.6 144 115.2 144 124.8 144 134.4 144 144 134.4 144 124.8 144 115.2 144 105.6 144 96 144 96 153.6"/>
        <rect class="cls-1" x="86.4" y="134.4" width="9.6" height="9.6"/>
        <rect class="cls-1" x="86.4" y="115.2" width="9.6" height="9.6"/>
        <polygon class="cls-1" points="96 96 96 86.4 86.4 86.4 76.8 86.4 76.8 96 86.4 96 96 96"/>
        <rect class="cls-1" x="86.4" y="48" width="9.6" height="9.6"/>
        <rect class="cls-1" x="76.8" y="172.8" width="9.6" height="9.6"/>
        <rect class="cls-1" x="76.8" y="124.8" width="9.6" height="9.6"/>
        <rect class="cls-1" x="76.8" y="57.6" width="9.6" height="9.6"/>
        <polygon class="cls-1" points="76.8 192 76.8 182.4 67.2 182.4 67.2 192 67.2 201.6 67.2 211.2 57.6 211.2 57.6 220.8 67.2 220.8 76.8 220.8 76.8 211.2 86.4 211.2 86.4 201.6 76.8 201.6 76.8 192"/>
        <rect class="cls-1" x="67.2" y="67.2" width="9.6" height="9.6"/>
        <rect class="cls-1" x="57.6" y="153.6" width="9.6" height="9.6"/>
        <rect class="cls-1" x="48" y="163.2" width="9.6" height="9.6"/>
        <polygon class="cls-1" points="57.6 115.2 57.6 105.6 48 105.6 48 115.2 48 124.8 57.6 124.8 57.6 115.2"/>
        <polygon class="cls-1" points="57.6 76.8 57.6 67.2 67.2 67.2 67.2 57.6 57.6 57.6 57.6 48 57.6 38.4 67.2 38.4 76.8 38.4 86.4 38.4 96 38.4 96 28.8 86.4 28.8 76.8 28.8 67.2 28.8 57.6 28.8 48 28.8 48 38.4 48 48 48 57.6 48 67.2 48 76.8 48 86.4 57.6 86.4 57.6 76.8"/>
        <polygon class="cls-1" points="38.4 163.2 38.4 153.6 38.4 144 28.8 144 28.8 153.6 28.8 163.2 28.8 172.8 28.8 182.4 19.2 182.4 9.6 182.4 0 182.4 0 192 9.6 192 19.2 192 28.8 192 38.4 192 48 192 48 182.4 48 172.8 38.4 172.8 38.4 163.2"/>
      </g>
      <g>
        <polygon class="cls-5" points="182.4 76.8 172.8 76.8 172.8 86.4 182.4 86.4 192 86.4 192 76.8 182.4 76.8"/>
        <polygon class="cls-5" points="134.4 0 124.8 0 115.2 0 105.6 0 96 0 86.4 0 76.8 0 67.2 0 57.6 0 48 0 38.4 0 28.8 0 19.2 0 9.6 0 0 0 0 9.6 0 19.2 0 28.8 0 38.4 0 48 0 57.6 0 67.2 0 76.8 0 86.4 0 96 0 105.6 0 115.2 0 124.8 0 134.4 0 144 0 153.6 0 163.2 0 172.8 0 182.4 9.6 182.4 9.6 172.8 9.6 163.2 9.6 153.6 9.6 144 9.6 134.4 9.6 124.8 9.6 115.2 9.6 105.6 9.6 96 9.6 86.4 9.6 76.8 9.6 67.2 9.6 57.6 9.6 48 9.6 38.4 9.6 28.8 9.6 19.2 9.6 9.6 19.2 9.6 28.8 9.6 38.4 9.6 48 9.6 57.6 9.6 67.2 9.6 76.8 9.6 86.4 9.6 96 9.6 105.6 9.6 115.2 9.6 124.8 9.6 134.4 9.6 144 9.6 144 19.2 144 28.8 144 38.4 144 48 144 57.6 134.4 57.6 124.8 57.6 115.2 57.6 105.6 57.6 105.6 67.2 115.2 67.2 124.8 67.2 134.4 67.2 144 67.2 153.6 67.2 153.6 57.6 153.6 48 153.6 38.4 153.6 28.8 153.6 19.2 153.6 9.6 153.6 0 144 0 134.4 0"/>
        <polygon class="cls-5" points="96 76.8 96 86.4 96 96 96 105.6 96 115.2 96 124.8 96 134.4 96 144 105.6 144 105.6 134.4 105.6 124.8 105.6 115.2 105.6 105.6 105.6 96 105.6 86.4 115.2 86.4 124.8 86.4 124.8 96 124.8 105.6 124.8 115.2 124.8 124.8 124.8 134.4 124.8 144 134.4 144 144 144 144 134.4 144 124.8 144 115.2 144 105.6 144 96 144 86.4 144 76.8 134.4 76.8 124.8 76.8 115.2 76.8 105.6 76.8 105.6 67.2 96 67.2 96 76.8"/>
        <polygon class="cls-5" points="105.6 28.8 105.6 19.2 96 19.2 86.4 19.2 76.8 19.2 67.2 19.2 57.6 19.2 48 19.2 38.4 19.2 38.4 28.8 38.4 38.4 38.4 48 38.4 57.6 38.4 67.2 38.4 76.8 38.4 86.4 48 86.4 48 76.8 48 67.2 48 57.6 48 48 48 38.4 48 28.8 57.6 28.8 67.2 28.8 76.8 28.8 86.4 28.8 96 28.8 105.6 28.8"/>
        <rect class="cls-5" x="38.4" y="115.2" width="9.6" height="9.6"/>
      </g>
    </g>
  </g>
</svg>